<?xml version="1.0" standalone="no"?>
<!DOCTYPE svg PUBLIC "-//W3C//DTD SVG 1.1//EN" "http://www.w3.org/Graphics/SVG/1.1/DTD/svg11.dtd" >
<svg xmlns="http://www.w3.org/2000/svg" xmlns:xlink="http://www.w3.org/1999/xlink" version="1.1">
<metadata>
Created by FontForge 20170910 at Thu Feb 12 23:39:25 2015
 By jimmywarting
No Rights Reserved.
</metadata>
<defs>
<font id="Aileron-BoldItalic" horiz-adv-x="625" >
  <font-face 
    font-family="Aileron Bold"
    font-weight="700"
    font-style="italic"
    font-stretch="normal"
    units-per-em="1000"
    panose-1="0 0 8 0 0 0 0 0 0 0"
    ascent="770"
    descent="-230"
    x-height="528"
    cap-height="690"
    bbox="-202 -223 1160 906"
    underline-thickness="50"
    underline-position="-100"
    slope="-10"
    unicode-range="U+000D-FB02"
  />
<missing-glyph horiz-adv-x="570" 
d="M70 700h500v-700h-500v700zM490 650h-340l170 -255zM520 95v510l-170 -255zM490 50l-170 255l-170 -255h340zM120 95l170 255l-170 255v-510z" />
    <glyph glyph-name="fi" unicode="fi" horiz-adv-x="581" 
d="M471 0h-137l76 437h-172l-77 -437h-138l76 437h-46l15 91h47l2 9q2 14 5.5 30t7.5 30q20 75 84 116t175 41q24 0 41.5 -2t34.5 -5l-17 -96q-87 11 -128.5 -6t-53.5 -58q-4 -11 -6 -23.5t-4 -23.5l-2 -12h310z" />
    <glyph glyph-name="fl" unicode="fl" horiz-adv-x="603" 
d="M497 121q0 -20 13 -28t42 -6l-16 -89q-18 -3 -37.5 -4t-42.5 -1q-51 0 -77.5 16t-26.5 58q0 17 3 41t11 63l85 479q-17 5 -31.5 6t-32.5 1q-52 0 -82 -19t-40 -51q-3 -11 -5 -23.5t-4 -23.5l-2 -12h108l-16 -91h-108l-78 -437h-138l77 437h-47l16 91h47l2 9q2 14 5.5 30
t6.5 30q20 74 86 115.5t196 41.5q55 0 101.5 -5.5t85.5 -16.5h5l-99 -558q-3 -18 -5 -30.5t-2 -22.5z" />
    <glyph glyph-name=".notdef" horiz-adv-x="570" 
d="M70 700h500v-700h-500v700zM490 650h-340l170 -255zM520 95v510l-170 -255zM490 50l-170 255l-170 -255h340zM120 95l170 255l-170 255v-510z" />
    <glyph glyph-name=".null" horiz-adv-x="0" 
 />
    <glyph glyph-name=".null" horiz-adv-x="0" 
 />
    <glyph glyph-name="nonmarkingreturn" unicode="&#xd;" horiz-adv-x="250" 
 />
    <glyph glyph-name="space" unicode=" " horiz-adv-x="159" 
 />
    <glyph glyph-name="exclam" unicode="!" horiz-adv-x="288" 
d="M75 197l89 493h135l-113 -493h-111zM119 142q32 0 50.5 -18t18.5 -47q0 -17 -6 -33.5t-18 -29t-29 -20.5t-38 -8q-32 0 -50.5 17.5t-18.5 47.5q0 35 24 63t67 28z" />
    <glyph glyph-name="quotedbl" unicode="&#x22;" horiz-adv-x="355" 
d="M43 460l46 275h118l-67 -275h-97zM211 460l46 275h117l-67 -275h-96z" />
    <glyph glyph-name="numbersign" unicode="#" 
d="M432 287h98l-14 -78h-115l-81 -209h-83l81 209h-88l-81 -209h-83l81 209h-85l14 78h102l45 116h-98l14 78h115l81 209h83l-81 -209h88l81 209h83l-81 -209h85l-14 -78h-102zM306 403l-45 -116h88l45 116h-88z" />
    <glyph glyph-name="dollar" unicode="$" 
d="M370 399q94 -37 140 -84t46 -125q0 -46 -19 -83t-53.5 -63.5t-82 -41t-105.5 -16.5l-13 -76h-81l14 80q-50 7 -85.5 25t-58 44.5t-34.5 61t-15 73.5h135q6 -82 76 -103l36 204q-42 15 -74.5 32.5t-55 41t-34 53.5t-11.5 69q0 40 16 77t47.5 65.5t77.5 47t106 22.5l14 77
h81l-14 -80q85 -14 129 -69.5t47 -133.5h-135q0 35 -16.5 60t-43.5 38zM229 502q0 -31 17 -49.5t46 -31.5l33 183q-47 -7 -71.5 -34.5t-24.5 -67.5zM314 85q51 5 77.5 27.5t26.5 67.5q0 32 -17 53t-54 37z" />
    <glyph glyph-name="percent" unicode="%" horiz-adv-x="774" 
d="M215 375q-63 0 -100.5 36.5t-37.5 100.5q0 36 11 70.5t33.5 61.5t56 43.5t78.5 16.5q63 0 100.5 -36.5t37.5 -100.5q0 -36 -11 -70.5t-33.5 -61.5t-56 -43.5t-78.5 -16.5zM178 0h-121l568 690h120zM247 631q-32 0 -52 -34.5t-20 -85.5q0 -63 48 -63q32 0 52.5 34.5
t20.5 85.5q0 63 -49 63zM588 315q63 0 100 -36.5t37 -100.5q0 -36 -11 -70.5t-33.5 -61.5t-56 -43.5t-78.5 -16.5q-63 0 -100 36.5t-37 100.5q0 36 11 70.5t33.5 61.5t56 43.5t78.5 16.5zM555 59q32 0 52.5 34.5t20.5 85.5q0 63 -49 63q-32 0 -52.5 -34.5t-20.5 -85.5
q0 -63 49 -63z" />
    <glyph glyph-name="ampersand" unicode="&#x26;" horiz-adv-x="674" 
d="M648 296h-94l-50 -286q-53 -11 -113 -17.5t-127 -6.5q-52 0 -97.5 7.5t-79.5 26t-53 49.5t-19 77q0 42 14.5 77t41 61.5t63 44t80.5 24.5q-48 14 -75.5 49.5t-27.5 86.5q0 50 21 89.5t59.5 67.5t93 43t121.5 15q33 0 58.5 -2.5t49.5 -7.5l-18 -103q-30 6 -53.5 8t-52.5 2
q-65 0 -99 -29.5t-34 -88.5q0 -41 24 -58.5t60 -19.5q14 -1 29 -1h29h37l16 93h138l-17 -93h94zM371 296h-29t-27 -2q-76 -5 -112.5 -37t-36.5 -85q0 -47 31 -65t89 -18q26 0 46.5 1.5t48.5 6.5l36 199h-46z" />
    <glyph glyph-name="quotesingle" unicode="'" horiz-adv-x="188" 
d="M43 460l46 275h118l-67 -275h-97z" />
    <glyph glyph-name="parenleft" unicode="(" horiz-adv-x="363" 
d="M191 -80q-38 57 -57.5 130.5t-19.5 167.5q0 66 13 139t41 146.5t71 144.5t104 132h75q-58 -70 -99 -142.5t-67 -143.5t-38 -140.5t-12 -133.5q0 -172 64 -300h-75z" />
    <glyph glyph-name="parenright" unicode=")" horiz-adv-x="363" 
d="M202 780q38 -57 58 -130.5t20 -167.5q0 -66 -13 -139t-41 -146.5t-71.5 -144.5t-104.5 -132h-75q59 70 100 142.5t67 143.5t38 140.5t12 133.5q0 173 -65 300h75z" />
    <glyph glyph-name="asterisk" unicode="*" horiz-adv-x="547" 
d="M462 373l12 -88l-150 -34l83 -124l-84 -54l-60 135l-111 -135l-64 54l126 124l-138 34l44 88l127 -57l16 159h92l-40 -159z" />
    <glyph glyph-name="plus" unicode="+" 
d="M348 279l-35 -199h-81l35 199h-178l14 74h177l35 201h81l-35 -201h178l-13 -74h-178z" />
    <glyph glyph-name="comma" unicode="," horiz-adv-x="261" 
d="M18 -122h-113l126 262h134l-1 -11z" />
    <glyph glyph-name="hyphen" unicode="-" horiz-adv-x="296" 
d="M25 244l14 78h232l-14 -78h-232z" />
    <glyph glyph-name="period" unicode="." horiz-adv-x="261" 
d="M94 154q30 0 50 -17.5t20 -49.5q0 -46 -28 -73.5t-72 -27.5q-30 0 -50 17.5t-20 48.5q0 46 28 74t72 28z" />
    <glyph glyph-name="slash" unicode="/" horiz-adv-x="327" 
d="M-65 -30l383 750h86l-383 -750h-86z" />
    <glyph glyph-name="zero" unicode="0" 
d="M356 704q64 0 110.5 -19.5t77 -54t45.5 -83t15 -107.5q0 -46 -6.5 -98t-22 -102.5t-39.5 -96.5t-59.5 -81t-83 -55.5t-108.5 -20.5q-64 0 -111 19.5t-77.5 54.5t-45 83.5t-14.5 106.5q0 72 15.5 151.5t52.5 147t98.5 111.5t152.5 44zM286 89q34 0 59.5 19t44.5 50.5
t31.5 70.5t20 79.5t11 78t3.5 64.5q0 70 -24.5 110t-76.5 40q-33 0 -59 -19t-45 -50t-31.5 -70t-20 -79t-11 -77.5t-3.5 -65.5q0 -70 24 -110.5t77 -40.5z" />
    <glyph glyph-name="one" unicode="1" 
d="M401 0h-137l96 545l-221 -111l23 130l176 95q61 31 117 31h68z" />
    <glyph glyph-name="two" unicode="2" 
d="M532 109l-19 -109h-503l12 65l272 227q46 38 78 68.5t52 57t29 51.5t9 52q0 38 -20.5 59.5t-62.5 21.5q-51 0 -83 -30t-49 -96l-3 -10h-138l3 10q30 115 103.5 172t197.5 57q101 0 151.5 -45.5t50.5 -119.5q0 -34 -10.5 -66t-36 -67.5t-68 -77t-107.5 -95.5l-150 -125
h292z" />
    <glyph glyph-name="three" unicode="3" 
d="M453 365q57 -15 87 -48.5t30 -87.5q0 -55 -23 -99.5t-64.5 -76.5t-98 -49.5t-122.5 -17.5q-117 0 -177 54t-52 162l1 10h138l-1 -10q-2 -53 27.5 -83t86.5 -30q29 0 53.5 9t43 25t29 39t10.5 51q0 86 -119 89h-23l17 96l22 1q63 2 103 36.5t40 88.5q0 35 -22 56t-61 21
q-50 0 -83 -29.5t-44 -79.5l-2 -10h-138l2 10q11 45 34 84t59.5 67.5t87.5 44.5t117 16q50 0 87.5 -12t62.5 -32.5t37.5 -48.5t12.5 -61q0 -70 -41 -118.5t-117 -66.5z" />
    <glyph glyph-name="four" unicode="4" 
d="M488 163l-29 -163h-137l29 163h-333l13 74l411 453h146l-80 -418h84l-18 -109h-86zM422 531q-14 -19 -28 -36t-30 -34l-173 -189h180z" />
    <glyph glyph-name="five" unicode="5" 
d="M224 389l43 47q27 14 54.5 20.5t57.5 6.5q95 0 144 -51t49 -138q0 -70 -25.5 -124t-68.5 -90.5t-99 -55t-117 -18.5q-53 0 -95.5 12t-71 37t-42.5 63.5t-10 90.5v10h138v-10q-3 -100 92 -100q35 0 62.5 12.5t47 34t30 51.5t10.5 65q0 49 -25 78.5t-74 29.5q-41 0 -71 -18
t-55 -60h-129l124 408h427l-19 -108h-316z" />
    <glyph glyph-name="six" unicode="6" 
d="M411 704q104 0 155 -52t45 -142l-1 -10h-140v10q-6 91 -86 91q-63 0 -110.5 -59.5t-70.5 -184.5l51 67q32 23 63 31.5t68 8.5q49 0 85 -14t59.5 -39t35 -59t11.5 -73q0 -68 -26 -122.5t-69 -92.5t-98.5 -58t-113.5 -20q-106 0 -163.5 60t-57.5 177q0 113 29 202.5
t78.5 151.5t115.5 94.5t140 32.5zM328 361q-27 0 -52 -11t-45 -32t-32 -51.5t-12 -68.5q0 -48 24.5 -78.5t71.5 -30.5q31 0 57 12.5t45 35t30 52.5t11 64q0 47 -23.5 77.5t-74.5 30.5z" />
    <glyph glyph-name="seven" unicode="7" 
d="M641 617l-440 -617h-153l419 582h-361l20 108h528z" />
    <glyph glyph-name="eight" unicode="8" 
d="M462 365q45 -16 75 -52.5t30 -91.5q0 -62 -25.5 -106.5t-67.5 -73.5t-97.5 -42.5t-115.5 -13.5q-51 0 -93.5 9.5t-72.5 30.5t-47 53.5t-17 78.5q0 43 14.5 77t38 60t53.5 44t62 27q-35 14 -57 44t-22 77q0 48 19.5 88t55.5 69t87.5 45t115.5 16q102 0 155 -44.5
t53 -117.5q0 -37 -12 -66t-32 -51t-46 -36.5t-54 -23.5zM378 601q-53 0 -84.5 -32t-31.5 -80q0 -36 20.5 -57t60.5 -21q54 0 86.5 31t32.5 82q0 34 -21 55.5t-63 21.5zM282 88q72 0 105.5 37.5t33.5 91.5q0 40 -24 66t-77 26q-33 0 -59 -10t-44.5 -28t-28 -42t-9.5 -51
q0 -41 26 -65.5t77 -24.5z" />
    <glyph glyph-name="nine" unicode="9" 
d="M378 704q106 0 163 -60t57 -177q0 -113 -29 -202.5t-78.5 -151.5t-115 -94.5t-139.5 -32.5q-104 0 -155 52t-46 142l1 10h141v-10q6 -91 85 -91q63 0 110.5 59t70.5 184l-50 -66q-32 -23 -63 -31.5t-68 -8.5q-49 0 -85 14t-59.5 39t-35 59t-11.5 73q0 68 26 122.5
t69 92.5t98.5 58t113.5 20zM318 329q27 0 52.5 11t45 32t31.5 51.5t12 69.5q0 48 -24.5 78t-71.5 30q-31 0 -57 -12.5t-45 -35t-29.5 -52t-10.5 -64.5q0 -47 23 -77.5t74 -30.5z" />
    <glyph glyph-name="colon" unicode=":" horiz-adv-x="261" 
d="M170 546q30 0 50 -17t20 -49q0 -46 -28 -73.5t-72 -27.5q-29 0 -49.5 17t-20.5 49q0 46 28 73.5t72 27.5zM101 154q30 0 50 -17.5t20 -49.5q0 -46 -28 -73.5t-72 -27.5q-29 0 -49.5 17.5t-20.5 48.5q0 46 28 74t72 28z" />
    <glyph glyph-name="semicolon" unicode=";" horiz-adv-x="261" 
d="M170 546q30 0 50 -17t20 -49q0 -46 -28 -73.5t-72 -27.5q-29 0 -49.5 17t-20.5 49q0 46 28 73.5t72 27.5zM18 -122h-112l125 262h134l-3 -17z" />
    <glyph glyph-name="less" unicode="&#x3c;" 
d="M191 264l328 -145l-17 -94l-407 187l19 106l472 188l-17 -98z" />
    <glyph glyph-name="equal" unicode="=" 
d="M96 379l13 74h458l-12 -74h-459zM61 179l13 74h458l-13 -74h-458z" />
    <glyph glyph-name="greater" unicode="&#x3e;" 
d="M502 212l-473 -187l17 97l378 144l-328 145l17 95l407 -188z" />
    <glyph glyph-name="question" unicode="?" horiz-adv-x="617" 
d="M398 704q97 0 149.5 -42t52.5 -114q0 -33 -7.5 -60t-24.5 -53.5t-44 -53t-67 -58.5q-22 -18 -38.5 -33t-27.5 -29t-19 -29.5t-14 -34.5h-119q5 26 12.5 46t19.5 38.5t28.5 37.5t40.5 41q33 31 55 54.5t34.5 42.5t17.5 36t5 36q0 35 -20.5 53.5t-58.5 18.5
q-44 0 -75 -28.5t-43 -89.5h-139q9 52 33.5 93t61.5 69.5t84.5 43.5t102.5 15zM289 142q32 0 50.5 -18t18.5 -47q0 -17 -6 -33.5t-18 -29t-29 -20.5t-38 -8q-32 0 -50.5 17.5t-18.5 47.5q0 35 24 63t67 28z" />
    <glyph glyph-name="at" unicode="@" horiz-adv-x="895" 
d="M620 277q-8 -35 -10 -49.5t-2 -25.5q0 -23 8 -37.5t31 -14.5q21 0 40 11.5t33.5 35t23.5 58.5t9 81q0 65 -20 115.5t-56.5 85t-87 52t-110.5 17.5q-64 0 -127 -23t-112 -68t-79.5 -111t-30.5 -152q0 -70 20.5 -124.5t59 -92t92.5 -57.5t121 -20q63 0 124 18t112 54
l31 -68q-68 -45 -140.5 -64t-135.5 -19q-67 0 -133 21t-119 65.5t-86 114.5t-33 167q0 99 36 179.5t97 138t140.5 89t166.5 31.5q84 0 150.5 -27t112.5 -73.5t70 -109t24 -132.5q0 -73 -18.5 -125t-49.5 -84.5t-71.5 -47.5t-83.5 -15q-50 0 -83.5 21.5t-44.5 66.5l-27 -54
q-23 -19 -46 -26.5t-48 -7.5t-49.5 8t-44 27t-31.5 51t-12 79q0 52 15 97.5t41.5 79.5t63.5 54t81 20q29 0 50 -8t32 -21l13 -52l19 63h120zM413 168q29 0 48 24.5t27 56.5l13 57q10 45 -3 64.5t-40 19.5q-21 0 -38.5 -11.5t-30 -31t-19.5 -46t-7 -55.5q0 -43 14 -60.5
t36 -17.5z" />
    <glyph glyph-name="A" unicode="A" horiz-adv-x="680" 
d="M222 208l-104 -208h-149l366 690h183l119 -690h-149l-31 208h-235zM403 568l-126 -251h164z" />
    <glyph glyph-name="B" unicode="B" horiz-adv-x="661" 
d="M501 370q110 -35 110 -152q0 -51 -21 -89t-54 -64t-73.5 -41t-79.5 -20q-27 -3 -47.5 -3.5t-49.5 -0.5h-251l122 690h247q26 0 44.5 -0.5t43.5 -3.5q72 -9 109.5 -48t37.5 -97q0 -66 -35.5 -108.5t-102.5 -62.5zM245 407h104q25 0 50 3q48 8 69.5 34t21.5 68q0 31 -18 47
t-47 20q-22 3 -49 3h-100zM356 110q21 2 40.5 10t34.5 22.5t24.5 35t9.5 46.5q0 37 -21.5 55t-53.5 22q-25 3 -49 3h-115l-34 -195h118h24t22 1z" />
    <glyph glyph-name="C" unicode="C" horiz-adv-x="745" 
d="M456 704q70 0 122 -18t85 -50t48 -75.5t11 -94.5l-1 -10h-138v10q-1 71 -37 103t-105 32q-50 0 -92.5 -23t-74 -64.5t-49 -100t-17.5 -130.5q0 -102 41.5 -148t106.5 -46q68 0 112.5 37.5t69.5 102.5l4 10h137l-3 -10q-32 -115 -118 -179t-220 -64q-64 0 -115.5 19
t-87.5 55.5t-55.5 89.5t-19.5 121q0 97 31 176.5t85 136.5t126 88.5t154 31.5z" />
    <glyph glyph-name="D" unicode="D" horiz-adv-x="728" 
d="M467 686q51 -5 96 -25t78 -56t52 -88t19 -122q0 -72 -22.5 -139t-67.5 -120t-112.5 -88.5t-158.5 -44.5q-27 -2 -45 -2.5t-44 -0.5h-227l122 690h218q27 0 46.5 -0.5t45.5 -3.5zM344 111q57 7 98.5 32.5t68.5 63.5t40 85.5t13 98.5q0 92 -39.5 136.5t-101.5 51.5
q-17 2 -32.5 2.5t-36.5 0.5h-78l-84 -473h81h37.5t33.5 2z" />
    <glyph glyph-name="E" unicode="E" horiz-adv-x="612" 
d="M244 400h325l-19 -109h-326l-32 -182h360l-20 -109h-497l122 690h487l-19 -108h-349z" />
    <glyph glyph-name="F" unicode="F" horiz-adv-x="591" 
d="M244 400h315l-19 -109h-316l-51 -291h-138l122 690h487l-19 -108h-349z" />
    <glyph glyph-name="G" unicode="G" horiz-adv-x="769" 
d="M472 704q70 0 120 -18t81.5 -50t45 -75.5t9.5 -94.5l-1 -10h-138v10q-1 72 -34.5 103.5t-102.5 31.5q-50 0 -94.5 -22.5t-77.5 -64t-52.5 -100t-19.5 -130.5q0 -97 41 -146t109 -49q67 0 118 41t74 114h-146l20 108h278l-62 -352h-111l10 111l-43 -69q-66 -56 -178 -56
q-61 0 -109 19.5t-81.5 56t-51 88.5t-17.5 117q0 101 33.5 181.5t90.5 137.5t132 87.5t157 30.5z" />
    <glyph glyph-name="H" unicode="H" horiz-adv-x="747" 
d="M633 0h-138l50 283h-322l-50 -283h-138l122 690h138l-53 -297h322l53 297h138z" />
    <glyph glyph-name="I" unicode="I" horiz-adv-x="287" 
d="M35 0l122 690h138l-122 -690h-138z" />
    <glyph glyph-name="J" unicode="J" horiz-adv-x="586" 
d="M522 283q-4 -22 -8 -42t-12 -53q-10 -45 -30.5 -82t-54 -63.5t-81 -41.5t-111.5 -15q-112 0 -166 62t-39 168l5 35h138l-4 -35q-8 -69 15.5 -98t72.5 -29q48 0 77 27t43 80q5 17 8 34.5t7 38.5l74 421h137z" />
    <glyph glyph-name="K" unicode="K" horiz-adv-x="676" 
d="M623 0h-170l-184 282l-55 -51l-41 -231h-138l122 690h138l-57 -320l353 320h165l-382 -338z" />
    <glyph glyph-name="L" unicode="L" horiz-adv-x="599" 
d="M532 0h-497l122 690h138l-102 -575h360z" />
    <glyph glyph-name="M" unicode="M" horiz-adv-x="893" 
d="M779 0h-138l100 555l-252 -555h-164l-55 557l-97 -557h-138l122 690h225l52 -545l238 545h229z" />
    <glyph glyph-name="N" unicode="N" horiz-adv-x="755" 
d="M641 0h-189l-188 524l-91 -524h-138l122 690h183l192 -537l93 537h138z" />
    <glyph glyph-name="O" unicode="O" horiz-adv-x="781" 
d="M458 704q74 0 131.5 -23t96.5 -63.5t59 -95t20 -117.5q0 -88 -27.5 -165t-78.5 -133t-124.5 -88.5t-165.5 -32.5q-74 0 -131.5 23t-96.5 63.5t-59 95t-20 117.5q0 89 27.5 165.5t78.5 132.5t124.5 88.5t165.5 32.5zM380 89q61 0 105.5 29t74 74.5t44 101t14.5 108.5
q0 44 -11.5 81t-33 63t-53.5 40.5t-73 14.5q-61 0 -105.5 -29t-74 -74.5t-44 -101t-14.5 -108.5q0 -44 11.5 -80.5t33 -63t53.5 -41t73 -14.5z" />
    <glyph glyph-name="P" unicode="P" horiz-adv-x="629" 
d="M490 685q33 -4 62 -16.5t50.5 -34.5t33.5 -52t12 -69q0 -56 -19 -100t-51 -75.5t-72.5 -49.5t-84.5 -23q-26 -3 -48.5 -4t-52.5 -1h-101l-46 -260h-138l122 690h234q29 0 51 -1t48 -4zM399 372q44 7 73.5 37t29.5 88q0 38 -18.5 57t-47.5 24q-22 3 -61 3h-100l-37 -212
h100q36 0 61 3z" />
    <glyph glyph-name="Q" unicode="Q" horiz-adv-x="779" 
d="M758 411q0 -49 -9.5 -95t-27 -86.5t-43.5 -74t-59 -56.5q26 -8 49.5 -22.5t49.5 -37.5l-74 -89q-25 16 -44 26.5t-34.5 17t-29.5 9t-29 2.5q-20 0 -36.5 -2.5t-37.5 -7.5q-34 -9 -69 -9q-76 0 -132.5 22.5t-94.5 61.5t-57 93t-19 117q0 89 27 166t78 134.5t124 90.5
t165 33q76 0 132.5 -22.5t94.5 -61.5t57 -92.5t19 -116.5zM208 282q0 -88 42.5 -140.5t120.5 -52.5q63 0 108.5 30t74.5 76.5t43 103t14 109.5q0 88 -42.5 140.5t-120.5 52.5q-63 0 -108 -30t-74.5 -76.5t-43.5 -103t-14 -109.5z" />
    <glyph glyph-name="R" unicode="R" horiz-adv-x="645" 
d="M661 535q0 -84 -48.5 -134t-126.5 -70q22 -7 37 -22t24 -39.5t13 -60.5t4 -86q0 -82 20 -123h-149q-2 12 -3.5 26t-2.5 33.5t-2 46t-1 63.5q0 48 -16 76.5t-54 31.5q-14 1 -26.5 1h-26.5h-81l-49 -278h-138l122 690h252q30 0 52 -1t48 -4q32 -4 60 -14.5t48.5 -28.5
t32 -44.5t11.5 -62.5zM393 382q23 2 44.5 10t37.5 22.5t25.5 36t9.5 51.5q0 38 -21 55.5t-55 21.5q-12 2 -25.5 2.5t-31.5 0.5h-101l-36 -201h96h31t26 1z" />
    <glyph glyph-name="S" unicode="S" horiz-adv-x="599" 
d="M371 704q62 0 105.5 -16.5t71 -46t39.5 -69t9 -85.5h-140q3 53 -23 83.5t-80 30.5q-48 0 -79 -25t-31 -73q0 -35 29.5 -57.5t99.5 -39.5q96 -23 141.5 -69t45.5 -118q0 -56 -24 -99.5t-64.5 -73t-94 -45t-113.5 -15.5q-58 0 -106 13.5t-80.5 41t-48.5 68.5t-12 95h140
q2 -57 36 -86t88 -29t91.5 27.5t37.5 76.5q0 35 -28 59.5t-92 41.5q-45 11 -81 26t-61.5 36t-39 49t-13.5 65q0 56 23 99.5t61 73.5t88 45.5t105 15.5z" />
    <glyph glyph-name="T" unicode="T" horiz-adv-x="623" 
d="M451 582l-103 -582h-138l103 582h-235l20 108h606l-20 -108h-233z" />
    <glyph glyph-name="U" unicode="U" horiz-adv-x="703" 
d="M655 292q-5 -26 -8.5 -44.5t-9.5 -41.5q-12 -50 -35 -91t-60.5 -69.5t-90.5 -44t-125 -15.5q-128 0 -190.5 54.5t-62.5 143.5q0 26 3 51t10 66l69 389h138l-74 -420q-5 -25 -6.5 -39.5t-1.5 -31.5q0 -53 34 -81.5t93 -28.5q66 0 106 28.5t58 99.5q3 11 5.5 23t5.5 27
l74 423h138z" />
    <glyph glyph-name="V" unicode="V" horiz-adv-x="702" 
d="M226 0l-119 690h150l80 -584l289 584h150l-367 -690h-183z" />
    <glyph glyph-name="W" unicode="W" horiz-adv-x="988" 
d="M763 0h-183l-21 555l-219 -555h-184l-55 690h145l24 -569l213 559h197l13 -565l221 575h152z" />
    <glyph glyph-name="X" unicode="X" horiz-adv-x="669" 
d="M619 0h-160l-135 259l-208 -259h-164l313 352l-174 338h155l117 -250l206 250h160l-305 -343z" />
    <glyph glyph-name="Y" unicode="Y" horiz-adv-x="637" 
d="M356 0h-138l48 269l-169 421h146l113 -305l210 305h155l-318 -426z" />
    <glyph glyph-name="Z" unicode="Z" horiz-adv-x="622" 
d="M195 109h374l-20 -109h-546l18 105l456 477h-344l20 108h513l-19 -107z" />
    <glyph glyph-name="bracketleft" unicode="[" horiz-adv-x="364" 
d="M406 780l-14 -78h-142l-124 -704h142l-14 -78h-223l152 860h223z" />
    <glyph glyph-name="backslash" unicode="\" horiz-adv-x="327" 
d="M186 -30l-119 750h86l119 -750h-86z" />
    <glyph glyph-name="bracketright" unicode="]" horiz-adv-x="364" 
d="M-25 -80l14 78h142l125 704h-143l14 78h224l-152 -860h-224z" />
    <glyph glyph-name="asciicircum" unicode="^" 
d="M343 538l-183 -323h-93l241 401h95l103 -401h-91z" />
    <glyph glyph-name="underscore" unicode="_" horiz-adv-x="500" 
d="M43 -87l14 78h400l-14 -78h-400z" />
    <glyph glyph-name="grave" unicode="`" horiz-adv-x="300" 
d="M114 574l-103 118h124l57 -118h-78z" />
    <glyph glyph-name="a" unicode="a" horiz-adv-x="552" 
d="M325 546q53 0 89.5 -10.5t60 -29t34 -44.5t10.5 -57q0 -20 -3.5 -43.5t-9.5 -56.5l-30 -170q-5 -30 -8.5 -60t-5.5 -75h-135l3 78l-35 -53q-26 -20 -60.5 -29.5t-74.5 -9.5q-30 0 -57 8.5t-47 26t-32 43.5t-12 62q0 51 25.5 90t72.5 64.5t114 37t149 6.5l1 8
q3 18 4.5 31.5t1.5 25.5q0 25 -15 42.5t-52 17.5q-48 0 -74 -23t-37 -67l-134 -1q9 45 32 80t56.5 59t76.5 36.5t92 12.5zM227 83q19 0 38.5 8t36.5 22.5t30 35.5t17 47l8 45q-42 5 -78.5 1t-63.5 -16.5t-42.5 -32.5t-15.5 -49q0 -31 19 -46t51 -15z" />
    <glyph glyph-name="b" unicode="b" horiz-adv-x="650" 
d="M424 546q100 0 152 -57t52 -156q0 -65 -19.5 -127.5t-58.5 -111t-98 -78.5t-139 -30q-33 0 -67.5 9.5t-51.5 24.5l-26 56l-13 -76h-138l130 735h138l-50 -284l50 58q26 18 62 27.5t77 9.5zM309 83q40 0 71.5 19.5t54 52t34.5 74t12 86.5q0 65 -28 99.5t-80 34.5
q-28 0 -55 -9.5t-49.5 -30.5t-39.5 -55t-26 -82l-5 -25l-2 -10l3 10q-5 -31 -2.5 -61t15 -52.5t36.5 -36.5t61 -14z" />
    <glyph glyph-name="c" unicode="c" horiz-adv-x="572" 
d="M341 544q56 0 97 -15t67.5 -42.5t39.5 -65.5t13 -83h-136q-2 56 -26.5 82.5t-69.5 26.5q-35 0 -64 -18.5t-49.5 -51t-31.5 -76.5t-11 -95q0 -63 26.5 -93t66.5 -30q46 0 80 25t52 76h138q-37 -99 -106 -148.5t-177 -49.5q-49 0 -90.5 13t-72 40t-47.5 68.5t-17 98.5
q0 69 22 130t63 107.5t100 73.5t133 27z" />
    <glyph glyph-name="d" unicode="d" horiz-adv-x="649" 
d="M539 0h-138l14 81l-50 -58q-25 -17 -61 -27t-77 -10q-100 0 -152.5 57t-52.5 156q0 65 19.5 127.5t58.5 111.5t98.5 78.5t138.5 29.5q33 0 67.5 -9t52.5 -25l25 -56l49 279h138zM452 286q5 31 2.5 60.5t-15.5 52t-36.5 36.5t-60.5 14q-40 0 -72 -19.5t-54.5 -52
t-34.5 -74t-12 -86.5q0 -65 28 -99.5t81 -34.5q29 0 55.5 9.5t49 30.5t39 55t25.5 82z" />
    <glyph glyph-name="e" unicode="e" horiz-adv-x="580" 
d="M164 203q0 -65 27.5 -92.5t70.5 -27.5q45 0 79 23.5t48 66.5h138q-32 -94 -106.5 -140.5t-171.5 -46.5q-48 0 -89 12.5t-71.5 39t-48 67.5t-17.5 97q0 69 21 131t60.5 109.5t97.5 75.5t132 28q56 0 98 -16t70 -44.5t42 -67t14 -82.5q0 -26 -4.5 -54t-12.5 -52h-376z
M320 449q-54 0 -88.5 -36.5t-51.5 -92.5h237q1 7 1 12.5v10.5q0 50 -25 78t-73 28z" />
    <glyph glyph-name="f" unicode="f" horiz-adv-x="315" 
d="M269 600q-4 -14 -6.5 -24.5t-4.5 -21.5l-5 -26h109l-16 -91h-108l-77 -437h-138l77 437h-47l15 91h48l4 22q3 14 6.5 30.5t7.5 30.5q20 72 65.5 107.5t113.5 35.5q36 0 58.5 -2t39.5 -5l-18 -96q-17 4 -35 4q-34 0 -57 -14t-32 -41z" />
    <glyph glyph-name="g" unicode="g" horiz-adv-x="649" 
d="M563 133q-5 -25 -10 -53t-10 -50q-26 -125 -104 -185.5t-221 -60.5q-111 0 -170.5 47t-52.5 135l1 10h135l-1 -9q-2 -37 26.5 -58.5t82.5 -21.5q63 0 106 32t58 96q3 15 6.5 31.5t6.5 33.5l1 6l-52 -60q-25 -17 -61 -27t-77 -10q-50 0 -88 15t-64 43t-39.5 66.5
t-13.5 85.5q0 65 19.5 127.5t58.5 111.5t98.5 78.5t138.5 29.5q33 0 67.5 -9t52.5 -25l25 -57l14 77h137zM278 86q29 0 55.5 9t49 29.5t39 54t25.5 81.5l-1 -9l7 40l-1 -5q5 31 2.5 60.5t-15.5 52t-36.5 36.5t-60.5 14q-40 0 -72 -19.5t-54.5 -52t-34.5 -74t-12 -86.5
q0 -65 28 -98t81 -33z" />
    <glyph glyph-name="h" unicode="h" horiz-adv-x="621" 
d="M421 546q82 0 122 -38t40 -98q0 -21 -2.5 -43.5t-10.5 -62.5l-54 -304h-138l50 279q5 29 8 50.5t3 36.5q0 37 -19 60t-67 23q-52 -1 -94 -49t-62 -159l-42 -241h-138l130 740h138l-51 -289l52 58q32 20 64.5 28.5t70.5 8.5z" />
    <glyph glyph-name="i" unicode="i" horiz-adv-x="265" 
d="M215 730q31 0 48.5 -17t17.5 -45q0 -32 -22 -58t-64 -26q-31 0 -48.5 16.5t-17.5 45.5q0 32 22 58t64 26zM17 0l95 532h137l-94 -532h-138z" />
    <glyph glyph-name="j" unicode="j" horiz-adv-x="240" 
d="M193 730q33 0 51.5 -17t18.5 -44q0 -41 -22.5 -63t-62.5 -22q-33 0 -51.5 16.5t-18.5 43.5q0 42 22.5 64t62.5 22zM138 -12l-6.5 -32.5t-7.5 -31.5q-16 -63 -62.5 -98.5t-138.5 -35.5q-27 0 -51 3l18 98q42 -5 65.5 6.5t32.5 41.5q4 11 6.5 23.5l5.5 27.5l95 542h138z
" />
    <glyph glyph-name="k" unicode="k" horiz-adv-x="585" 
d="M548 0h-167l-139 215l-58 -51l-29 -164h-138l130 735h138l-78 -443l256 240h166l-279 -249z" />
    <glyph glyph-name="l" unicode="l" horiz-adv-x="280" 
d="M181 174q-3 -18 -5 -30.5t-2 -22.5q0 -23 13 -29.5t42 -4.5l-16 -89q-18 -3 -37.5 -4t-42.5 -1q-51 0 -77.5 16t-26.5 58q0 17 3 41t11 63l100 564h138z" />
    <glyph glyph-name="m" unicode="m" horiz-adv-x="916" 
d="M727 546q40 0 69 -10t47.5 -28t27.5 -41.5t9 -50.5q0 -21 -3 -43.5t-9 -55.5l-56 -317h-138l49 277q5 28 8 52t3 44q0 76 -72 76q-21 0 -41.5 -12.5t-37.5 -35t-30.5 -54.5t-20.5 -71l-1 -3l-48 -273h-137l48 277q5 29 8.5 52.5t3.5 43.5q0 76 -75 76q-43 0 -78.5 -47
t-49.5 -129l-48 -273h-138l94 532h137l-13 -76l49 59q26 16 55 23.5t65 7.5q63 0 98.5 -27.5t44.5 -69.5l55 62q28 20 58.5 27.5t66.5 7.5z" />
    <glyph glyph-name="n" unicode="n" horiz-adv-x="621" 
d="M421 546q82 0 122 -38t40 -98q0 -21 -2.5 -43.5t-10.5 -62.5l-54 -304h-138l50 279q5 29 8 50.5t3 36.5q0 37 -19 60t-67 23q-52 -1 -94 -49t-62 -159l-42 -241h-138l94 532h137l-14 -81l52 58q32 20 64.5 28.5t70.5 8.5z" />
    <glyph glyph-name="o" unicode="o" horiz-adv-x="616" 
d="M345 546q63 0 109.5 -18.5t77 -50t45 -74.5t14.5 -93q0 -60 -19.5 -118t-59 -103.5t-99.5 -74t-141 -28.5q-63 0 -109.5 18.5t-77 50t-45.5 75t-15 92.5q0 60 19.5 118t59 103.5t99.5 74t142 28.5zM284 83q40 0 70 19.5t50.5 51t30.5 72t10 81.5q0 60 -27 101t-85 41
q-40 0 -70 -19.5t-50.5 -51t-30.5 -72t-10 -81.5q0 -60 27 -101t85 -41z" />
    <glyph glyph-name="p" unicode="p" horiz-adv-x="650" 
d="M424 546q100 0 152 -57t52 -156q0 -65 -19.5 -127.5t-58.5 -111t-98 -78.5t-139 -30q-33 0 -67.5 9.5t-51.5 24.5l-26 56l-48 -272h-138l130 728h137l-14 -81l50 58q26 18 62 27.5t77 9.5zM309 83q40 0 71.5 19.5t54 52t34.5 74t12 86.5q0 65 -28 99.5t-80 34.5
q-28 0 -55 -9.5t-49.5 -30.5t-39.5 -55t-26 -82l-4 -25q-5 -31 -2.5 -61t15 -52.5t36.5 -36.5t61 -14z" />
    <glyph glyph-name="q" unicode="q" horiz-adv-x="649" 
d="M504 -196h-138l49 276l-50 -57q-25 -17 -61 -27t-77 -10q-100 0 -152.5 57t-52.5 156q0 65 19.5 127.5t58.5 111.5t98.5 78.5t138.5 29.5q33 0 67.5 -9t52.5 -25l25 -57l14 77h137zM452 286q5 31 2.5 60.5t-15.5 52t-36.5 36.5t-60.5 14q-40 0 -72 -19.5t-54.5 -52
t-34.5 -74t-12 -86.5q0 -65 28 -99.5t81 -34.5q29 0 55.5 9.5t49 30.5t39 55t25.5 82z" />
    <glyph glyph-name="r" unicode="r" horiz-adv-x="374" 
d="M385 545q22 0 38 -4l-20 -111q-34 3 -66.5 -3t-59.5 -26.5t-47.5 -58.5t-31.5 -98l-43 -244h-138l93 530h138l-17 -97l57 76q22 18 48 27t49 9z" />
    <glyph glyph-name="s" unicode="s" horiz-adv-x="486" 
d="M269 544q53 0 90.5 -12.5t62 -35t37 -53.5t13.5 -67h-137q-4 37 -21.5 57t-49.5 20q-37 0 -54 -17.5t-17 -41.5q0 -31 23 -48t79 -35q78 -25 115 -61.5t37 -99.5q0 -39 -16.5 -70.5t-47 -53.5t-73 -34t-95.5 -12q-111 0 -166.5 49.5t-59.5 126.5h138q5 -47 31 -66t64 -19
q35 0 57.5 17t22.5 49q0 29 -24 48t-88 41q-32 11 -58 23t-45 29.5t-29 41.5t-10 57q0 34 14 64t42 53t69 36.5t96 13.5z" />
    <glyph glyph-name="t" unicode="t" horiz-adv-x="354" 
d="M207 191q-4 -23 -5.5 -35t-1.5 -23q0 -32 23 -41t72 -2l-16 -91q-44 -10 -98 -10q-66 0 -96 22t-30 69q0 15 2.5 37.5t9.5 57.5l47 262h-76l16 91h76l23 131h137l-23 -131h105l-16 -91h-105z" />
    <glyph glyph-name="u" unicode="u" horiz-adv-x="617" 
d="M507 0h-138l15 82l-53 -59q-32 -20 -64 -28.5t-71 -8.5q-81 0 -121 38t-40 99q0 21 2 43t10 63l55 303h138l-51 -279q-5 -29 -7.5 -50.5t-2.5 -36.5q0 -37 18.5 -60t66.5 -22q52 1 94.5 48.5t62.5 158.5l42 241h137z" />
    <glyph glyph-name="v" unicode="v" horiz-adv-x="544" 
d="M303 0h-159l-111 532h154l57 -420l205 420h153z" />
    <glyph glyph-name="w" unicode="w" horiz-adv-x="806" 
d="M602 0h-157l-18 406l-162 -406h-157l-75 532h153l22 -409l157 407h167l19 -409l165 411h149z" />
    <glyph glyph-name="x" unicode="x" horiz-adv-x="531" 
d="M484 0h-161l-82 172l-138 -172h-159l236 266l-134 266h161l71 -174l140 174h159l-240 -267z" />
    <glyph glyph-name="y" unicode="y" horiz-adv-x="544" 
d="M303 0q-34 -60 -63.5 -100t-60.5 -64.5t-65 -35t-76 -10.5q-17 0 -31.5 1.5t-28.5 3.5l16 94q21 -3 42 -3q34 0 59.5 16.5t47.5 58.5l6 12l-116 559h154l57 -421l205 421h153z" />
    <glyph glyph-name="z" unicode="z" horiz-adv-x="512" 
d="M161 92h292l-16 -92h-457l15 87l349 349h-264l15 92h428l-16 -91z" />
    <glyph glyph-name="braceleft" unicode="{" horiz-adv-x="373" 
d="M381 702h-18q-23 0 -39.5 -4.5t-26.5 -19t-14 -42t-4 -72.5q1 -46 -3.5 -82.5t-17 -63.5t-34.5 -44.5t-57 -23.5q71 -14 71 -77q0 -24 -7 -54.5t-27 -82.5q-10 -25 -16 -42t-9.5 -28t-4.5 -18.5t-1 -15.5q0 -19 15.5 -26.5t50.5 -7.5h17l-13 -78h-33q-60 0 -90 25t-30 72
q0 12 1.5 22.5t5.5 24.5t11 33.5t18 48.5q17 43 22.5 70t5.5 44q0 20 -14.5 34t-56.5 17l14 78q30 2 49.5 9t31 25t16 49t4.5 82q0 67 7.5 110.5t26 69t50.5 36t80 10.5h33z" />
    <glyph glyph-name="bar" unicode="|" horiz-adv-x="296" 
d="M13 -200l176 1000h90l-176 -1000h-90z" />
    <glyph glyph-name="braceright" unicode="}" horiz-adv-x="373" 
d="M232 440q0 -20 15 -34t57 -17l-14 -78q-30 -2 -49.5 -9t-31 -25t-16 -49t-4.5 -82q0 -67 -7.5 -110.5t-26 -69t-50.5 -36t-80 -10.5h-33l14 78h18q23 0 39.5 4.5t26 19t14 42t3.5 72.5q0 46 4.5 82.5t17 63.5t35 44.5t56.5 23.5q-71 14 -71 77q0 24 7 54.5t27 82.5
q10 26 16 42.5t9.5 27.5t4.5 19t1 15q0 20 -15.5 27t-50.5 7h-17l13 78h33q60 0 90 -25t30 -72q0 -12 -1.5 -22.5t-5.5 -24.5t-11 -33.5t-18 -48.5q-17 -43 -23 -70t-6 -44z" />
    <glyph glyph-name="asciitilde" unicode="~" 
d="M552 384q-28 -161 -150 -161q-31 0 -55 10.5t-59 30.5q-30 17 -49 26t-37 9q-27 0 -40 -19.5t-20 -56.5h-78q28 161 150 161q32 0 56 -10.5t58 -30.5q29 -17 48 -26t38 -9q26 0 39.5 18t20.5 58h78z" />
    <glyph glyph-name="exclamdown" unicode="&#xa1;" horiz-adv-x="271" 
d="M152 391q-32 0 -50.5 17.5t-18.5 46.5q0 35 24 63t67 28q32 0 50.5 -17.5t18.5 -47.5q0 -35 -24 -62.5t-67 -27.5zM196 336l-89 -494h-135l113 494h111z" />
    <glyph glyph-name="cent" unicode="&#xa2;" 
d="M319 89q61 18 90 95h138q-34 -90 -94 -139t-152 -57l-14 -78h-81l14 79q-81 10 -132 63.5t-51 153.5q0 64 19 122t55.5 103.5t88.5 74.5t118 36l14 78h81l-14 -79q90 -11 132 -66.5t42 -136.5h-136q-1 82 -56 102zM183 206q0 -46 15 -74.5t40 -40.5l62 349
q-27 -10 -48.5 -31.5t-37 -52t-23.5 -69t-8 -81.5z" />
    <glyph glyph-name="sterling" unicode="&#xa3;" horiz-adv-x="608" 
d="M281 273q0 -50 -25.5 -94t-86.5 -70h355l-19 -109h-514l17 96q39 8 65 25.5t41 39.5t21 47t6 47t-6 47h-81l12 73h48q-6 23 -10 47t-4 54q0 45 17 86.5t49.5 73t80.5 50t111 18.5q60 0 100.5 -17t65 -45.5t35.5 -65.5t14 -76h-140q-2 48 -23 74.5t-63 26.5
q-48 0 -75 -34.5t-27 -83.5q0 -33 5.5 -56.5t14.5 -51.5h204l-13 -73h-177q1 -8 1.5 -15t0.5 -14z" />
    <glyph glyph-name="currency" unicode="&#xa4;" 
d="M471 396q18 -36 18 -80q0 -30 -11 -62t-34 -60l43 -53l-54 -46l-44 52q-21 -12 -46.5 -19t-55.5 -7q-29 0 -53.5 9t-44.5 25l-64 -53l-41 48l66 57q-18 35 -18 79q0 29 11 61t32 60l-42 53l56 48l44 -51q20 11 45 18t54 6t53.5 -10t44.5 -25l68 56l40 -48zM215 291
q0 -42 22 -67t60 -25q27 0 47.5 10t34 26t20 36t6.5 40q0 42 -22.5 67t-60.5 25q-27 0 -47 -10t-33.5 -26t-20 -36t-6.5 -40z" />
    <glyph glyph-name="yen" unicode="&#xa5;" 
d="M539 370l-14 -78h-154l-2 -3l-10 -57h155l-13 -78h-156l-27 -154h-138l27 154h-155l14 78h155l10 60h-155l14 78h114l-120 320h149l87 -314l197 314h145l-234 -320h111z" />
    <glyph glyph-name="brokenbar" unicode="&#xa6;" horiz-adv-x="287" 
d="M110 350l60 340h81l-60 -340h-81zM20 -160l60 340h81l-60 -340h-81z" />
    <glyph glyph-name="section" unicode="&#xa7;" horiz-adv-x="616" 
d="M579 247q0 -48 -31 -92t-93 -69q23 -37 23 -80q0 -41 -17.5 -74.5t-50 -57t-77 -36t-98.5 -12.5q-43 0 -81 11t-66.5 32.5t-46.5 55t-22 78.5h137q4 -43 29 -64.5t59 -21.5q39 0 64.5 17.5t25.5 58.5q0 18 -6.5 32.5t-22.5 28t-41.5 26t-64.5 26.5q-75 26 -119 65.5
t-44 107.5q0 50 29 96t92 73q-18 33 -18 78q0 31 14 62.5t42 57t70 42t97 16.5q95 0 144 -47.5t57 -125.5h-138q-6 82 -70 82q-35 0 -53.5 -24t-18.5 -58q0 -35 26 -56.5t87 -39.5q94 -28 138.5 -72.5t44.5 -115.5zM281 200q26 -9 49.5 -19.5t43.5 -22.5q28 8 44.5 28.5
t16.5 51.5q0 33 -26 54.5t-86 42.5q-24 8 -45.5 17t-39.5 19q-31 -10 -44 -32.5t-13 -45.5q0 -33 26 -54.5t74 -38.5z" />
    <glyph glyph-name="dieresis" unicode="&#xa8;" horiz-adv-x="300" 
d="M65 697q26 0 40.5 -13.5t14.5 -37.5q0 -32 -22.5 -51.5t-47.5 -19.5q-26 0 -40.5 14t-14.5 37q0 32 22.5 51.5t47.5 19.5zM241 697q25 0 39.5 -13.5t14.5 -37.5q0 -32 -22 -51.5t-48 -19.5t-40 14t-14 37q0 32 22 51.5t48 19.5z" />
    <glyph glyph-name="copyright" unicode="&#xa9;" horiz-adv-x="850" 
d="M425 752q86 0 159.5 -30t127 -83t83.5 -125.5t30 -158.5t-30 -158.5t-83.5 -125.5t-127 -83t-159.5 -30t-159.5 30t-127 83t-83.5 125.5t-30 158.5t30 158.5t83.5 125.5t127 83t159.5 30zM425 673q-67 0 -124.5 -24t-99.5 -66.5t-65.5 -100.5t-23.5 -127t23.5 -127
t65.5 -100t99.5 -66t124.5 -24q68 0 125 24t99 66t65.5 100t23.5 127t-23.5 127t-65.5 100.5t-99 66.5t-125 24zM433 584q91 0 142.5 -48.5t62.5 -127.5h-122q-5 40 -25.5 64.5t-61.5 24.5q-48 0 -70 -37.5t-22 -103.5q0 -71 25 -107.5t70 -36.5q33 0 55.5 22.5t27.5 66.5
h122q-14 -79 -66 -127.5t-146 -48.5q-48 0 -87.5 16t-68 45.5t-44.5 72t-16 95.5t16 95.5t45.5 72.5t70.5 46t92 16z" />
    <glyph glyph-name="guillemotleft" unicode="&#xab;" horiz-adv-x="615" 
d="M320 82h-100l-108 166l166 166h115l-175 -174zM524 82h-100l-108 166l166 166h115l-175 -174z" />
    <glyph glyph-name="logicalnot" unicode="&#xac;" 
d="M397 189l21 125h-311l14 78h392l-35 -203h-81z" />
    <glyph glyph-name="registered" unicode="&#xae;" horiz-adv-x="496" 
d="M274 764q45 0 80.5 -14.5t60 -40t37.5 -59.5t13 -72q0 -47 -17 -89.5t-48.5 -74.5t-76.5 -51t-100 -19q-45 0 -80.5 14.5t-60 40t-37.5 59.5t-13 72q0 47 17 89.5t48.5 74.5t76.5 51t100 19zM232 396q42 0 75.5 14t56 38.5t34.5 57.5t12 70q0 60 -38 98.5t-107 38.5
q-42 0 -75.5 -14.5t-56 -39t-34.5 -57.5t-12 -70q0 -60 38 -98t107 -38zM284 662q61 -6 61 -55q0 -20 -12.5 -35t-38.5 -22q25 -7 25 -42q-1 -13 1 -26.5t8 -27.5h-62q-3 11 -4 22t-1 25q1 22 -23 22h-18l-12 -69h-56l37 209h69h14t12 -1zM261 568q26 5 26 29q0 10 -5 15
t-13 7q-5 1 -9 1h-9h-14l-9 -53h15h9t9 1z" />
    <glyph glyph-name="macron" unicode="&#xaf;" horiz-adv-x="300" 
d="M7 592l13 77h273l-13 -77h-273z" />
    <glyph glyph-name="degree" unicode="&#xb0;" horiz-adv-x="314" 
d="M234 749q56 0 87.5 -32t31.5 -81q0 -31 -11 -57.5t-30.5 -45.5t-46 -29.5t-58.5 -10.5q-57 0 -88.5 32.5t-31.5 80.5q0 31 11 57.5t30.5 45.5t46.5 29.5t59 10.5zM227 675q-26 0 -43 -16t-17 -45q0 -23 13 -35t33 -12q26 0 43 16.5t17 45.5q0 23 -13 34.5t-33 11.5z" />
    <glyph glyph-name="plusminus" unicode="&#xb1;" 
d="M514 279h-164l-28 -160h-81l28 160h-164l14 78h164l28 158h81l-28 -158h164zM478 74l-13 -74h-409l13 74h409z" />
    <glyph glyph-name="acute" unicode="&#xb4;" horiz-adv-x="300" 
d="M94 574l99 118h124l-145 -118h-78z" />
    <glyph glyph-name="paragraph" unicode="&#xb6;" horiz-adv-x="592" 
d="M462 -110h-81l128 722h-103l-129 -722h-81l76 430h-10h-28.5t-27.5 1q-32 2 -56 16t-40 36.5t-24 50t-8 56.5q0 32 11 67.5t34.5 66t60 51.5t87.5 24q14 1 28.5 1h28.5h276z" />
    <glyph glyph-name="periodcentered" unicode="&#xb7;" horiz-adv-x="245" 
d="M146 391q31 0 51.5 -17.5t20.5 -49.5q0 -47 -29 -76t-74 -29q-30 0 -51 18t-21 50q0 46 29 75t74 29z" />
    <glyph glyph-name="cedilla" unicode="&#xb8;" horiz-adv-x="300" 
d="M169 -41q77 -12 77 -72q0 -25 -12 -43.5t-32 -30.5t-46.5 -17.5t-56.5 -5.5q-24 0 -41.5 1.5t-30.5 6.5l11 56q14 -5 27 -6t27 -1q68 0 68 37q0 20 -24.5 28.5t-66.5 3.5l63 93h72z" />
    <glyph glyph-name="guillemotright" unicode="&#xbb;" horiz-adv-x="622" 
d="M127 82h-115l175 175l-102 157h100l108 -166zM331 82h-115l175 175l-102 157h100l108 -166z" />
    <glyph glyph-name="questiondown" unicode="&#xbf;" horiz-adv-x="529" 
d="M284 391q-32 0 -51 17.5t-19 46.5q0 35 24 63t68 28q32 0 50.5 -17.5t18.5 -47.5q0 -35 -24 -62.5t-67 -27.5zM174 -172q-97 0 -149 42t-52 114q0 33 7.5 60.5t24 53.5t44 53t67.5 58q23 18 39 33t27 29.5t18.5 30t13.5 34.5h119q-5 -26 -12.5 -46.5t-19 -39t-28.5 -37
t-41 -40.5q-33 -31 -55 -54.5t-34.5 -43t-17.5 -36.5t-5 -36q0 -35 21 -53.5t59 -18.5q44 0 75 28.5t43 89.5h139q-9 -52 -34 -93t-61.5 -69.5t-84 -43.5t-103.5 -15z" />
    <glyph glyph-name="Agrave" unicode="&#xc0;" horiz-adv-x="680" 
d="M306 847h124l55 -112h-78zM222 208l-104 -208h-149l366 690h183l119 -690h-149l-31 208h-235zM403 568l-126 -251h164z" />
    <glyph glyph-name="Aacute" unicode="&#xc1;" horiz-adv-x="680" 
d="M393 735l93 112h124l-139 -112h-78zM222 208l-104 -208h-149l366 690h183l119 -690h-149l-31 208h-235zM403 568l-126 -251h164z" />
    <glyph glyph-name="Acircumflex" unicode="&#xc2;" horiz-adv-x="680" 
d="M319 735l84 112h108l45 -112h-87l-20 64l-43 -64h-87zM222 208l-104 -208h-149l366 690h183l119 -690h-149l-31 208h-235zM403 568l-126 -251h164z" />
    <glyph glyph-name="Atilde" unicode="&#xc3;" horiz-adv-x="680" 
d="M392 772q-17 0 -21 -26h-70q11 57 30.5 81t55.5 24q17 0 32 -3t41 -14q17 -7 27 -9.5t18 -2.5q16 0 20 26h70q-11 -58 -30.5 -82t-55.5 -24q-16 0 -31.5 3.5t-41.5 14.5q-17 6 -26.5 9t-17.5 3zM222 208l-104 -208h-149l366 690h183l119 -690h-149l-31 208h-235zM403 568
l-126 -251h164z" />
    <glyph glyph-name="Adieresis" unicode="&#xc4;" horiz-adv-x="680" 
d="M353 729q-26 0 -40.5 14t-14.5 37q0 32 22 51t48 19q25 0 39.5 -13.5t14.5 -37.5q0 -32 -22 -51t-47 -19zM526 729q-26 0 -40.5 14t-14.5 37q0 32 22 51t48 19q25 0 39.5 -13.5t14.5 -37.5q0 -32 -22 -51t-47 -19zM222 208l-104 -208h-149l366 690h183l119 -690h-149
l-31 208h-235zM403 568l-126 -251h164z" />
    <glyph glyph-name="Aring" unicode="&#xc5;" horiz-adv-x="680" 
d="M437 719q-43 0 -68.5 23t-25.5 58q0 49 34.5 77.5t86.5 28.5q44 0 69.5 -23t25.5 -58q0 -48 -34.5 -77t-87.5 -29zM458 853q-18 0 -32 -13t-14 -36q0 -14 8.5 -23t23.5 -9q18 0 32 13t14 36q0 14 -8.5 23t-23.5 9zM222 208l-104 -208h-149l366 690h183l119 -690h-149
l-31 208h-235zM403 568l-126 -251h164z" />
    <glyph glyph-name="AE" unicode="&#xc6;" horiz-adv-x="966" 
d="M590 400h333l-19 -109h-324l-15 -182h341l-19 -109h-469l20 225h-211l-158 -225h-154l503 690h581l-20 -108h-374zM468 570l-166 -237h145z" />
    <glyph glyph-name="Ccedilla" unicode="&#xc7;" horiz-adv-x="745" 
d="M456 704q70 0 122 -18t85 -50t48 -75.5t11 -94.5l-1 -10h-138v10q-1 71 -37 103t-105 32q-50 0 -92.5 -23t-74 -64.5t-49 -100t-17.5 -130.5q0 -102 41.5 -148t106.5 -46q68 0 112.5 37.5t69.5 102.5l4 10h137l-3 -10q-32 -115 -118 -179t-220 -64q-64 0 -115.5 19
t-87.5 55.5t-55.5 89.5t-19.5 121q0 97 31 176.5t85 136.5t126 88.5t154 31.5zM124 -41q38 -6 57 -24.5t19 -47.5q0 -25 -11.5 -43.5t-32 -30.5t-47 -17.5t-56.5 -5.5q-23 0 -41 1.5t-30 6.5l10 56q14 -5 27 -6t28 -1q67 0 67 37q0 20 -24.5 28.5t-66.5 3.5l63 93h73z" />
    <glyph glyph-name="Egrave" unicode="&#xc8;" horiz-adv-x="612" 
d="M283 847h124l55 -112h-78zM244 400h325l-19 -109h-326l-32 -182h360l-20 -109h-497l122 690h487l-19 -108h-349z" />
    <glyph glyph-name="Eacute" unicode="&#xc9;" horiz-adv-x="612" 
d="M370 735l93 112h124l-139 -112h-78zM244 400h325l-19 -109h-326l-32 -182h360l-20 -109h-497l122 690h487l-19 -108h-349z" />
    <glyph glyph-name="Ecircumflex" unicode="&#xca;" horiz-adv-x="612" 
d="M296 735l84 112h108l45 -112h-87l-20 64l-43 -64h-87zM244 400h325l-19 -109h-326l-32 -182h360l-20 -109h-497l122 690h487l-19 -108h-349z" />
    <glyph glyph-name="Edieresis" unicode="&#xcb;" horiz-adv-x="612" 
d="M329 729q-26 0 -40.5 14t-14.5 37q0 32 22 51t48 19q25 0 39.5 -13.5t14.5 -37.5q0 -32 -22 -51t-47 -19zM502 729q-26 0 -40.5 14t-14.5 37q0 32 22 51t48 19q25 0 39.5 -13.5t14.5 -37.5q0 -32 -22 -51t-47 -19zM244 400h325l-19 -109h-326l-32 -182h360l-20 -109h-497
l122 690h487l-19 -108h-349z" />
    <glyph glyph-name="Igrave" unicode="&#xcc;" horiz-adv-x="287" 
d="M203 735l-101 112h124l55 -112h-78zM35 0l122 690h138l-122 -690h-138z" />
    <glyph glyph-name="Iacute" unicode="&#xcd;" horiz-adv-x="287" 
d="M189 735l93 112h124l-139 -112h-78zM35 0l122 690h138l-122 -690h-138z" />
    <glyph glyph-name="Icircumflex" unicode="&#xce;" horiz-adv-x="287" 
d="M116 735l84 112h108l45 -112h-87l-20 64l-43 -64h-87zM295 690l-122 -690h-138l122 690h138z" />
    <glyph glyph-name="Idieresis" unicode="&#xcf;" horiz-adv-x="287" 
d="M164 850q25 0 39.5 -13.5t14.5 -37.5q0 -32 -22 -51t-47 -19q-26 0 -40.5 14t-14.5 37q0 32 22 51t48 19zM337 850q25 0 39.5 -13.5t14.5 -37.5q0 -32 -22 -51t-47 -19q-26 0 -40.5 14t-14.5 37q0 32 22 51t48 19zM35 0l122 690h138l-122 -690h-138z" />
    <glyph glyph-name="Eth" unicode="&#xd0;" horiz-adv-x="728" 
d="M467 686q51 -5 96 -25t78 -56t52 -88t19 -122q0 -72 -22.5 -139t-67.5 -120t-112.5 -88.5t-158.5 -44.5q-27 -2 -45 -2.5t-44 -0.5h-227l53 298h-76l14 78h75l56 314h218q27 0 46.5 -0.5t45.5 -3.5zM344 111q57 7 98.5 32.5t68.5 63.5t40 85.5t13 98.5q0 92 -39.5 136.5
t-101.5 51.5q-17 2 -32.5 2.5t-36.5 0.5h-78l-37 -206h111l-14 -78h-111l-33 -189h81h37.5t33.5 2z" />
    <glyph glyph-name="Ntilde" unicode="&#xd1;" horiz-adv-x="755" 
d="M425 772q-17 0 -21 -26h-70q11 57 30.5 81t55.5 24q17 0 32 -3t41 -14q17 -7 27 -9.5t18 -2.5q16 0 20 26h70q-11 -58 -30.5 -82t-55.5 -24q-16 0 -31.5 3.5t-41.5 14.5q-17 6 -26.5 9t-17.5 3zM641 0h-189l-188 524l-91 -524h-138l122 690h183l192 -537l93 537h138z" />
    <glyph glyph-name="Ograve" unicode="&#xd2;" horiz-adv-x="781" 
d="M351 847h124l55 -112h-78zM458 704q74 0 131.5 -23t96.5 -63.5t59 -95t20 -117.5q0 -88 -27.5 -165t-78.5 -133t-124.5 -88.5t-165.5 -32.5q-74 0 -131.5 23t-96.5 63.5t-59 95t-20 117.5q0 89 27.5 165.5t78.5 132.5t124.5 88.5t165.5 32.5zM380 89q61 0 105.5 29
t74 74.5t44 101t14.5 108.5q0 44 -11.5 81t-33 63t-53.5 40.5t-73 14.5q-61 0 -105.5 -29t-74 -74.5t-44 -101t-14.5 -108.5q0 -44 11.5 -80.5t33 -63t53.5 -41t73 -14.5z" />
    <glyph glyph-name="Oacute" unicode="&#xd3;" horiz-adv-x="781" 
d="M438 735l93 112h124l-139 -112h-78zM458 704q74 0 131.5 -23t96.5 -63.5t59 -95t20 -117.5q0 -88 -27.5 -165t-78.5 -133t-124.5 -88.5t-165.5 -32.5q-74 0 -131.5 23t-96.5 63.5t-59 95t-20 117.5q0 89 27.5 165.5t78.5 132.5t124.5 88.5t165.5 32.5zM380 89
q61 0 105.5 29t74 74.5t44 101t14.5 108.5q0 44 -11.5 81t-33 63t-53.5 40.5t-73 14.5q-61 0 -105.5 -29t-74 -74.5t-44 -101t-14.5 -108.5q0 -44 11.5 -80.5t33 -63t53.5 -41t73 -14.5z" />
    <glyph glyph-name="Ocircumflex" unicode="&#xd4;" horiz-adv-x="781" 
d="M364 735l84 112h108l45 -112h-87l-20 64l-43 -64h-87zM458 704q74 0 131.5 -23t96.5 -63.5t59 -95t20 -117.5q0 -88 -27.5 -165t-78.5 -133t-124.5 -88.5t-165.5 -32.5q-74 0 -131.5 23t-96.5 63.5t-59 95t-20 117.5q0 89 27.5 165.5t78.5 132.5t124.5 88.5t165.5 32.5z
M380 89q61 0 105.5 29t74 74.5t44 101t14.5 108.5q0 44 -11.5 81t-33 63t-53.5 40.5t-73 14.5q-61 0 -105.5 -29t-74 -74.5t-44 -101t-14.5 -108.5q0 -44 11.5 -80.5t33 -63t53.5 -41t73 -14.5z" />
    <glyph glyph-name="Otilde" unicode="&#xd5;" horiz-adv-x="781" 
d="M437 772q-17 0 -21 -26h-70q11 57 30.5 81t55.5 24q17 0 32 -3t41 -14q17 -7 27 -9.5t18 -2.5q16 0 20 26h70q-11 -58 -30.5 -82t-55.5 -24q-16 0 -31.5 3.5t-41.5 14.5q-17 6 -26.5 9t-17.5 3zM458 704q74 0 131.5 -23t96.5 -63.5t59 -95t20 -117.5q0 -88 -27.5 -165
t-78.5 -133t-124.5 -88.5t-165.5 -32.5q-74 0 -131.5 23t-96.5 63.5t-59 95t-20 117.5q0 89 27.5 165.5t78.5 132.5t124.5 88.5t165.5 32.5zM380 89q61 0 105.5 29t74 74.5t44 101t14.5 108.5q0 44 -11.5 81t-33 63t-53.5 40.5t-73 14.5q-61 0 -105.5 -29t-74 -74.5
t-44 -101t-14.5 -108.5q0 -44 11.5 -80.5t33 -63t53.5 -41t73 -14.5z" />
    <glyph glyph-name="Odieresis" unicode="&#xd6;" horiz-adv-x="781" 
d="M398 729q-26 0 -40.5 14t-14.5 37q0 32 22 51t48 19q25 0 39.5 -13.5t14.5 -37.5q0 -32 -22 -51t-47 -19zM571 729q-26 0 -40.5 14t-14.5 37q0 32 22 51t48 19q25 0 39.5 -13.5t14.5 -37.5q0 -32 -22 -51t-47 -19zM458 704q74 0 131.5 -23t96.5 -63.5t59 -95t20 -117.5
q0 -88 -27.5 -165t-78.5 -133t-124.5 -88.5t-165.5 -32.5q-74 0 -131.5 23t-96.5 63.5t-59 95t-20 117.5q0 89 27.5 165.5t78.5 132.5t124.5 88.5t165.5 32.5zM380 89q61 0 105.5 29t74 74.5t44 101t14.5 108.5q0 44 -11.5 81t-33 63t-53.5 40.5t-73 14.5q-61 0 -105.5 -29
t-74 -74.5t-44 -101t-14.5 -108.5q0 -44 11.5 -80.5t33 -63t53.5 -41t73 -14.5z" />
    <glyph glyph-name="multiply" unicode="&#xd7;" 
d="M487 181l-68 -57l-112 136l-166 -141l-55 67l166 141l-113 137l68 57l113 -137l165 141l55 -67l-165 -141z" />
    <glyph glyph-name="Oslash" unicode="&#xd8;" horiz-adv-x="778" 
d="M726 566q40 -71 40 -161q0 -88 -27.5 -165t-78.5 -133t-124 -88.5t-165 -32.5q-75 0 -131.5 23t-95.5 63l-87 -74l-47 57l90 77q-18 33 -27 72t-9 81q0 89 27.5 165.5t78.5 132.5t124.5 88.5t165.5 32.5q72 0 127 -21t93 -59l80 68l47 -57zM211 288q0 -15 1.5 -29.5
t3.5 -28.5l364 309q-22 29 -55 45.5t-77 16.5q-61 0 -105.5 -29t-73.5 -74.5t-43.5 -101t-14.5 -108.5zM620 402q0 34 -8 68l-367 -312q22 -32 56 -50.5t81 -18.5q61 0 105.5 29t74 74.5t44 101t14.5 108.5z" />
    <glyph glyph-name="Ugrave" unicode="&#xd9;" horiz-adv-x="703" 
d="M418 735l-101 112h124l55 -112h-78zM655 292q-5 -26 -8.5 -44.5t-9.5 -41.5q-12 -50 -35 -91t-60.5 -69.5t-90.5 -44t-125 -15.5q-128 0 -190.5 54.5t-62.5 143.5q0 26 3 51t10 66l69 389h138l-74 -420q-5 -25 -6.5 -39.5t-1.5 -31.5q0 -53 34 -81.5t93 -28.5
q66 0 106 28.5t58 99.5q3 11 5.5 23t5.5 27l74 423h138z" />
    <glyph glyph-name="Uacute" unicode="&#xda;" horiz-adv-x="703" 
d="M404 735l93 112h124l-139 -112h-78zM655 292q-5 -26 -8.5 -44.5t-9.5 -41.5q-12 -50 -35 -91t-60.5 -69.5t-90.5 -44t-125 -15.5q-128 0 -190.5 54.5t-62.5 143.5q0 26 3 51t10 66l69 389h138l-74 -420q-5 -25 -6.5 -39.5t-1.5 -31.5q0 -53 34 -81.5t93 -28.5
q66 0 106 28.5t58 99.5q3 11 5.5 23t5.5 27l74 423h138z" />
    <glyph glyph-name="Ucircumflex" unicode="&#xdb;" horiz-adv-x="703" 
d="M330 735l84 112h108l45 -112h-87l-20 64l-43 -64h-87zM655 292q-5 -26 -8.5 -44.5t-9.5 -41.5q-12 -50 -35 -91t-60.5 -69.5t-90.5 -44t-125 -15.5q-128 0 -190.5 54.5t-62.5 143.5q0 26 3 51t10 66l69 389h138l-74 -420q-5 -25 -6.5 -39.5t-1.5 -31.5q0 -53 34 -81.5
t93 -28.5q66 0 106 28.5t58 99.5q3 11 5.5 23t5.5 27l74 423h138z" />
    <glyph glyph-name="Udieresis" unicode="&#xdc;" horiz-adv-x="703" 
d="M378 850q25 0 39.5 -13.5t14.5 -37.5q0 -32 -22 -51t-47 -19q-26 0 -40.5 14t-14.5 37q0 32 22 51t48 19zM551 850q25 0 39.5 -13.5t14.5 -37.5q0 -32 -22 -51t-47 -19q-26 0 -40.5 14t-14.5 37q0 32 22 51t48 19zM655 292q-5 -26 -8.5 -44.5t-9.5 -41.5q-12 -50 -35 -91
t-60.5 -69.5t-90.5 -44t-125 -15.5q-128 0 -190.5 54.5t-62.5 143.5q0 26 3 51t10 66l69 389h138l-74 -420q-5 -25 -6.5 -39.5t-1.5 -31.5q0 -53 34 -81.5t93 -28.5q66 0 106 28.5t58 99.5q3 11 5.5 23t5.5 27l74 423h138z" />
    <glyph glyph-name="Yacute" unicode="&#xdd;" horiz-adv-x="637" 
d="M373 735l93 112h124l-139 -112h-78zM356 0h-138l48 269l-169 421h146l113 -305l210 305h155l-318 -426z" />
    <glyph glyph-name="Thorn" unicode="&#xde;" horiz-adv-x="630" 
d="M487 597q64 -8 105.5 -46t41.5 -110q0 -10 -1 -21t-3 -23q-8 -46 -28 -82t-48.5 -61t-64 -39.5t-73.5 -19.5q-26 -3 -48.5 -3.5t-52.5 -0.5h-108l-34 -191h-138l122 690h138l-16 -88h108q30 0 52 -1t48 -4zM485 396q2 6 2 11.5v10.5q0 34 -19 50.5t-50 21.5q-22 3 -60 3
h-98l-34 -193h98q38 0 62 3q36 5 63.5 26.5t35.5 66.5z" />
    <glyph glyph-name="germandbls" unicode="&#xdf;" horiz-adv-x="619" 
d="M402 754q54 0 94.5 -12.5t67.5 -34t40.5 -51.5t13.5 -65q0 -29 -10 -59.5t-36 -63.5q-43 -20 -60 -38.5t-17 -44.5q0 -20 8.5 -38t30.5 -41q32 -33 45.5 -65t13.5 -70q0 -35 -14 -66.5t-42 -55.5t-71 -38.5t-100 -14.5q-37 0 -63 2.5t-55 8.5l19 104q32 -8 51.5 -10.5
t36.5 -2.5q50 0 71 23.5t21 53.5q0 19 -9 40t-30 44q-29 34 -43 60t-14 64q0 41 23.5 72t75.5 59q13 20 17 36t4 30q0 32 -21 51.5t-67 19.5q-66 0 -98.5 -50t-48.5 -140l-81 -461h-138l80 453q12 69 32 124.5t54.5 95t87.5 60.5t131 21z" />
    <glyph glyph-name="agrave" unicode="&#xe0;" horiz-adv-x="552" 
d="M208 692h124l57 -118h-78zM325 546q53 0 89.5 -10.5t60 -29t34 -44.5t10.5 -57q0 -20 -3.5 -43.5t-9.5 -56.5l-30 -170q-5 -30 -8.5 -60t-5.5 -75h-135l3 78l-35 -53q-26 -20 -60.5 -29.5t-74.5 -9.5q-30 0 -57 8.5t-47 26t-32 43.5t-12 62q0 51 25.5 90t72.5 64.5
t114 37t149 6.5l1 8q3 18 4.5 31.5t1.5 25.5q0 25 -15 42.5t-52 17.5q-48 0 -74 -23t-37 -67l-134 -1q9 45 32 80t56.5 59t76.5 36.5t92 12.5zM227 83q19 0 38.5 8t36.5 22.5t30 35.5t17 47l8 45q-42 5 -78.5 1t-63.5 -16.5t-42.5 -32.5t-15.5 -49q0 -31 19 -46t51 -15z" />
    <glyph glyph-name="aacute" unicode="&#xe1;" horiz-adv-x="552" 
d="M291 574l99 118h124l-145 -118h-78zM325 546q53 0 89.5 -10.5t60 -29t34 -44.5t10.5 -57q0 -20 -3.5 -43.5t-9.5 -56.5l-30 -170q-5 -30 -8.5 -60t-5.5 -75h-135l3 78l-35 -53q-26 -20 -60.5 -29.5t-74.5 -9.5q-30 0 -57 8.5t-47 26t-32 43.5t-12 62q0 51 25.5 90
t72.5 64.5t114 37t149 6.5l1 8q3 18 4.5 31.5t1.5 25.5q0 25 -15 42.5t-52 17.5q-48 0 -74 -23t-37 -67l-134 -1q9 45 32 80t56.5 59t76.5 36.5t92 12.5zM227 83q19 0 38.5 8t36.5 22.5t30 35.5t17 47l8 45q-42 5 -78.5 1t-63.5 -16.5t-42.5 -32.5t-15.5 -49q0 -31 19 -46
t51 -15z" />
    <glyph glyph-name="acircumflex" unicode="&#xe2;" horiz-adv-x="552" 
d="M221 574l85 118h108l44 -118h-86l-21 69l-45 -69h-85zM325 546q53 0 89.5 -10.5t60 -29t34 -44.5t10.5 -57q0 -20 -3.5 -43.5t-9.5 -56.5l-30 -170q-5 -30 -8.5 -60t-5.5 -75h-135l3 78l-35 -53q-26 -20 -60.5 -29.5t-74.5 -9.5q-30 0 -57 8.5t-47 26t-32 43.5t-12 62
q0 51 25.5 90t72.5 64.5t114 37t149 6.5l1 8q3 18 4.5 31.5t1.5 25.5q0 25 -15 42.5t-52 17.5q-48 0 -74 -23t-37 -67l-134 -1q9 45 32 80t56.5 59t76.5 36.5t92 12.5zM227 83q19 0 38.5 8t36.5 22.5t30 35.5t17 47l8 45q-42 5 -78.5 1t-63.5 -16.5t-42.5 -32.5t-15.5 -49
q0 -31 19 -46t51 -15z" />
    <glyph glyph-name="atilde" unicode="&#xe3;" horiz-adv-x="552" 
d="M291 611q-17 0 -21 -26h-70q11 57 30.5 81t55.5 24q17 0 32 -3t41 -14q17 -7 27 -9.5t18 -2.5q16 0 20 26h70q-11 -58 -30.5 -82t-55.5 -24q-16 0 -31.5 3.5t-41.5 14.5q-17 6 -26.5 9t-17.5 3zM325 546q53 0 89.5 -10.5t60 -29t34 -44.5t10.5 -57q0 -20 -3.5 -43.5
t-9.5 -56.5l-30 -170q-5 -30 -8.5 -60t-5.5 -75h-135l3 78l-35 -53q-26 -20 -60.5 -29.5t-74.5 -9.5q-30 0 -57 8.5t-47 26t-32 43.5t-12 62q0 51 25.5 90t72.5 64.5t114 37t149 6.5l1 8q3 18 4.5 31.5t1.5 25.5q0 25 -15 42.5t-52 17.5q-48 0 -74 -23t-37 -67l-134 -1
q9 45 32 80t56.5 59t76.5 36.5t92 12.5zM227 83q19 0 38.5 8t36.5 22.5t30 35.5t17 47l8 45q-42 5 -78.5 1t-63.5 -16.5t-42.5 -32.5t-15.5 -49q0 -31 19 -46t51 -15z" />
    <glyph glyph-name="adieresis" unicode="&#xe4;" horiz-adv-x="552" 
d="M248 575q-26 0 -40.5 14t-14.5 37q0 32 22.5 51.5t47.5 19.5q26 0 40.5 -13.5t14.5 -37.5q0 -32 -22.5 -51.5t-47.5 -19.5zM423 575q-26 0 -40 14t-14 37q0 32 22 51.5t48 19.5q25 0 39.5 -13.5t14.5 -37.5q0 -32 -22 -51.5t-48 -19.5zM325 546q53 0 89.5 -10.5t60 -29
t34 -44.5t10.5 -57q0 -20 -3.5 -43.5t-9.5 -56.5l-30 -170q-5 -30 -8.5 -60t-5.5 -75h-135l3 78l-35 -53q-26 -20 -60.5 -29.5t-74.5 -9.5q-30 0 -57 8.5t-47 26t-32 43.5t-12 62q0 51 25.5 90t72.5 64.5t114 37t149 6.5l1 8q3 18 4.5 31.5t1.5 25.5q0 25 -15 42.5t-52 17.5
q-48 0 -74 -23t-37 -67l-134 -1q9 45 32 80t56.5 59t76.5 36.5t92 12.5zM227 83q19 0 38.5 8t36.5 22.5t30 35.5t17 47l8 45q-42 5 -78.5 1t-63.5 -16.5t-42.5 -32.5t-15.5 -49q0 -31 19 -46t51 -15z" />
    <glyph glyph-name="aring" unicode="&#xe5;" horiz-adv-x="552" 
d="M336 566q-43 0 -68 21.5t-25 59.5q0 48 34.5 80t89.5 32q42 0 67 -21.5t25 -59.5q0 -48 -34.5 -80t-88.5 -32zM358 707q-23 0 -34.5 -18t-11.5 -38q0 -32 32 -32q23 0 34.5 17.5t11.5 37.5q0 33 -32 33zM325 546q53 0 89.5 -10.5t60 -29t34 -44.5t10.5 -57
q0 -20 -3.5 -43.5t-9.5 -56.5l-30 -170q-5 -30 -8.5 -60t-5.5 -75h-135l3 78l-35 -53q-26 -20 -60.5 -29.5t-74.5 -9.5q-30 0 -57 8.5t-47 26t-32 43.5t-12 62q0 51 25.5 90t72.5 64.5t114 37t149 6.5l1 8q3 18 4.5 31.5t1.5 25.5q0 25 -15 42.5t-52 17.5q-48 0 -74 -23
t-37 -67l-134 -1q9 45 32 80t56.5 59t76.5 36.5t92 12.5zM227 83q19 0 38.5 8t36.5 22.5t30 35.5t17 47l8 45q-42 5 -78.5 1t-63.5 -16.5t-42.5 -32.5t-15.5 -49q0 -31 19 -46t51 -15z" />
    <glyph glyph-name="ae" unicode="&#xe6;" horiz-adv-x="936" 
d="M521 230q-1 -8 -1.5 -15.5t-0.5 -14.5q0 -65 27.5 -91t70.5 -26q45 0 79 23.5t48 66.5h138q-18 -46 -47 -81.5t-66.5 -58.5t-80.5 -35t-90 -12q-69 0 -119 26.5t-73 86.5l-53 -65q-38 -26 -77.5 -37t-87.5 -11q-81 0 -128.5 37t-47.5 100q0 40 17.5 75.5t57 62.5
t102.5 43t154 16h45q4 22 5 33.5t1 19.5q0 36 -18 55t-59 19q-43 0 -72 -23t-39 -68h-134q9 45 32 80t57.5 59t78 36.5t92.5 12.5q41 0 70 -7t49 -19t32 -28.5t18 -35.5q40 45 94 67.5t117 22.5q51 0 89 -16t63.5 -43.5t38 -65.5t12.5 -82q0 -26 -4.5 -54.5t-12.5 -52.5
h-377zM684 447q-48 0 -85.5 -31t-57.5 -96h233q2 25 -1.5 48t-13.5 40.5t-28 28t-47 10.5zM374 230q-12 1 -23.5 1h-22.5q-85 0 -127.5 -21t-42.5 -70q0 -28 20 -42.5t56 -14.5q49 0 87.5 33.5t48.5 90.5z" />
    <glyph glyph-name="ccedilla" unicode="&#xe7;" horiz-adv-x="572" 
d="M263 83q46 0 80 25t52 76h138q-35 -94 -99.5 -143.5t-164.5 -54.5l-19 -27q77 -12 77 -72q0 -25 -12 -43.5t-32 -30.5t-46.5 -17.5t-56.5 -5.5q-24 0 -41.5 1.5t-30.5 6.5l11 56q14 -5 27 -6t27 -1q68 0 68 37q0 20 -24.5 28.5t-66.5 3.5l50 74q-79 12 -128 65t-49 151
q0 69 22 130t63 107.5t100 73.5t133 27q56 0 97 -15t67.5 -42.5t39.5 -65.5t13 -83h-136q-2 56 -26.5 82.5t-69.5 26.5q-35 0 -64 -18.5t-49.5 -51t-31.5 -76.5t-11 -95q0 -63 26.5 -93t66.5 -30z" />
    <glyph glyph-name="egrave" unicode="&#xe8;" horiz-adv-x="580" 
d="M222 692h124l57 -118h-78zM164 203q0 -65 27.5 -92.5t70.5 -27.5q45 0 79 23.5t48 66.5h138q-32 -94 -106.5 -140.5t-171.5 -46.5q-48 0 -89 12.5t-71.5 39t-48 67.5t-17.5 97q0 69 21 131t60.5 109.5t97.5 75.5t132 28q56 0 98 -16t70 -44.5t42 -67t14 -82.5
q0 -26 -4.5 -54t-12.5 -52h-376zM320 449q-54 0 -88.5 -36.5t-51.5 -92.5h237q1 7 1 12.5v10.5q0 50 -25 78t-73 28z" />
    <glyph glyph-name="eacute" unicode="&#xe9;" horiz-adv-x="580" 
d="M305 574l99 118h124l-145 -118h-78zM164 203q0 -65 27.5 -92.5t70.5 -27.5q45 0 79 23.5t48 66.5h138q-32 -94 -106.5 -140.5t-171.5 -46.5q-48 0 -89 12.5t-71.5 39t-48 67.5t-17.5 97q0 69 21 131t60.5 109.5t97.5 75.5t132 28q56 0 98 -16t70 -44.5t42 -67t14 -82.5
q0 -26 -4.5 -54t-12.5 -52h-376zM320 449q-54 0 -88.5 -36.5t-51.5 -92.5h237q1 7 1 12.5v10.5q0 50 -25 78t-73 28z" />
    <glyph glyph-name="ecircumflex" unicode="&#xea;" horiz-adv-x="580" 
d="M235 574l85 118h108l44 -118h-86l-21 69l-45 -69h-85zM164 203q0 -65 27.5 -92.5t70.5 -27.5q45 0 79 23.5t48 66.5h138q-32 -94 -106.5 -140.5t-171.5 -46.5q-48 0 -89 12.5t-71.5 39t-48 67.5t-17.5 97q0 69 21 131t60.5 109.5t97.5 75.5t132 28q56 0 98 -16t70 -44.5
t42 -67t14 -82.5q0 -26 -4.5 -54t-12.5 -52h-376zM320 449q-54 0 -88.5 -36.5t-51.5 -92.5h237q1 7 1 12.5v10.5q0 50 -25 78t-73 28z" />
    <glyph glyph-name="edieresis" unicode="&#xeb;" horiz-adv-x="580" 
d="M263 575q-26 0 -40.5 14t-14.5 37q0 32 22.5 51.5t47.5 19.5q26 0 40.5 -13.5t14.5 -37.5q0 -32 -22.5 -51.5t-47.5 -19.5zM438 575q-26 0 -40 14t-14 37q0 32 22 51.5t48 19.5q25 0 39.5 -13.5t14.5 -37.5q0 -32 -22 -51.5t-48 -19.5zM164 203q0 -65 27.5 -92.5
t70.5 -27.5q45 0 79 23.5t48 66.5h138q-32 -94 -106.5 -140.5t-171.5 -46.5q-48 0 -89 12.5t-71.5 39t-48 67.5t-17.5 97q0 69 21 131t60.5 109.5t97.5 75.5t132 28q56 0 98 -16t70 -44.5t42 -67t14 -82.5q0 -26 -4.5 -54t-12.5 -52h-376zM320 449q-54 0 -88.5 -36.5
t-51.5 -92.5h237q1 7 1 12.5v10.5q0 50 -25 78t-73 28z" />
    <glyph glyph-name="igrave" unicode="&#xec;" horiz-adv-x="265" 
d="M163 574l-103 118h124l57 -118h-78zM17 0l95 532h137l-94 -532h-138z" />
    <glyph glyph-name="iacute" unicode="&#xed;" horiz-adv-x="265" 
d="M143 574l99 118h124l-145 -118h-78zM17 0l95 532h137l-94 -532h-138z" />
    <glyph glyph-name="icircumflex" unicode="&#xee;" horiz-adv-x="265" 
d="M74 574l85 118h108l44 -118h-86l-21 69l-45 -69h-85zM249 532l-94 -532h-138l95 532h137z" />
    <glyph glyph-name="idieresis" unicode="&#xef;" horiz-adv-x="265" 
d="M116 697q26 0 40.5 -13.5t14.5 -37.5q0 -32 -22.5 -51.5t-47.5 -19.5q-26 0 -40.5 14t-14.5 37q0 32 22.5 51.5t47.5 19.5zM292 697q25 0 39.5 -13.5t14.5 -37.5q0 -32 -22 -51.5t-48 -19.5t-40 14t-14 37q0 32 22 51.5t48 19.5zM17 0l95 532h137l-94 -532h-138z" />
    <glyph glyph-name="eth" unicode="&#xf0;" horiz-adv-x="637" 
d="M545 625q23 -50 33.5 -112.5t10.5 -136.5q0 -69 -17.5 -139t-56 -125.5t-100.5 -90.5t-151 -35q-59 0 -104 17t-75.5 47t-46 70.5t-15.5 87.5q0 59 18 119t54.5 108.5t93 79.5t132.5 31q33 0 56 -6t48 -23l34 -57q-2 35 -8.5 69t-24.5 65l-128 -33l-14 61l100 26
q-14 13 -31 24.5t-37 22.5l113 50q50 -24 82 -65l91 24l14 -60zM274 88q48 0 81 23t52.5 58t28 76.5t8.5 77.5q0 58 -31.5 89.5t-76.5 31.5q-47 0 -79 -23t-52 -57t-28.5 -74t-8.5 -73q0 -68 28.5 -98.5t77.5 -30.5z" />
    <glyph glyph-name="ntilde" unicode="&#xf1;" horiz-adv-x="621" 
d="M323 611q-17 0 -21 -26h-70q11 57 30.5 81t55.5 24q17 0 32 -3t41 -14q17 -7 27 -9.5t18 -2.5q16 0 20 26h70q-11 -58 -30.5 -82t-55.5 -24q-16 0 -31.5 3.5t-41.5 14.5q-17 6 -26.5 9t-17.5 3zM421 546q82 0 122 -38t40 -98q0 -21 -2.5 -43.5t-10.5 -62.5l-54 -304h-138
l50 279q5 29 8 50.5t3 36.5q0 37 -19 60t-67 23q-52 -1 -94 -49t-62 -159l-42 -241h-138l94 532h137l-14 -81l52 58q32 20 64.5 28.5t70.5 8.5z" />
    <glyph glyph-name="ograve" unicode="&#xf2;" horiz-adv-x="616" 
d="M234 692h124l57 -118h-78zM345 546q63 0 109.5 -18.5t77 -50t45 -74.5t14.5 -93q0 -60 -19.5 -118t-59 -103.5t-99.5 -74t-141 -28.5q-63 0 -109.5 18.5t-77 50t-45.5 75t-15 92.5q0 60 19.5 118t59 103.5t99.5 74t142 28.5zM284 83q40 0 70 19.5t50.5 51t30.5 72
t10 81.5q0 60 -27 101t-85 41q-40 0 -70 -19.5t-50.5 -51t-30.5 -72t-10 -81.5q0 -60 27 -101t85 -41z" />
    <glyph glyph-name="oacute" unicode="&#xf3;" horiz-adv-x="616" 
d="M317 574l99 118h124l-145 -118h-78zM345 546q63 0 109.5 -18.5t77 -50t45 -74.5t14.5 -93q0 -60 -19.5 -118t-59 -103.5t-99.5 -74t-141 -28.5q-63 0 -109.5 18.5t-77 50t-45.5 75t-15 92.5q0 60 19.5 118t59 103.5t99.5 74t142 28.5zM284 83q40 0 70 19.5t50.5 51
t30.5 72t10 81.5q0 60 -27 101t-85 41q-40 0 -70 -19.5t-50.5 -51t-30.5 -72t-10 -81.5q0 -60 27 -101t85 -41z" />
    <glyph glyph-name="ocircumflex" unicode="&#xf4;" horiz-adv-x="616" 
d="M247 574l85 118h108l44 -118h-86l-21 69l-45 -69h-85zM345 546q63 0 109.5 -18.5t77 -50t45 -74.5t14.5 -93q0 -60 -19.5 -118t-59 -103.5t-99.5 -74t-141 -28.5q-63 0 -109.5 18.5t-77 50t-45.5 75t-15 92.5q0 60 19.5 118t59 103.5t99.5 74t142 28.5zM284 83
q40 0 70 19.5t50.5 51t30.5 72t10 81.5q0 60 -27 101t-85 41q-40 0 -70 -19.5t-50.5 -51t-30.5 -72t-10 -81.5q0 -60 27 -101t85 -41z" />
    <glyph glyph-name="otilde" unicode="&#xf5;" horiz-adv-x="616" 
d="M317 611q-17 0 -21 -26h-70q11 57 30.5 81t55.5 24q17 0 32 -3t41 -14q17 -7 27 -9.5t18 -2.5q16 0 20 26h70q-11 -58 -30.5 -82t-55.5 -24q-16 0 -31.5 3.5t-41.5 14.5q-17 6 -26.5 9t-17.5 3zM345 546q63 0 109.5 -18.5t77 -50t45 -74.5t14.5 -93q0 -60 -19.5 -118
t-59 -103.5t-99.5 -74t-141 -28.5q-63 0 -109.5 18.5t-77 50t-45.5 75t-15 92.5q0 60 19.5 118t59 103.5t99.5 74t142 28.5zM284 83q40 0 70 19.5t50.5 51t30.5 72t10 81.5q0 60 -27 101t-85 41q-40 0 -70 -19.5t-50.5 -51t-30.5 -72t-10 -81.5q0 -60 27 -101t85 -41z" />
    <glyph glyph-name="odieresis" unicode="&#xf6;" horiz-adv-x="616" 
d="M275 575q-26 0 -40.5 14t-14.5 37q0 32 22.5 51.5t47.5 19.5q26 0 40.5 -13.5t14.5 -37.5q0 -32 -22.5 -51.5t-47.5 -19.5zM450 575q-26 0 -40 14t-14 37q0 32 22 51.5t48 19.5q25 0 39.5 -13.5t14.5 -37.5q0 -32 -22 -51.5t-48 -19.5zM345 546q63 0 109.5 -18.5t77 -50
t45 -74.5t14.5 -93q0 -60 -19.5 -118t-59 -103.5t-99.5 -74t-141 -28.5q-63 0 -109.5 18.5t-77 50t-45.5 75t-15 92.5q0 60 19.5 118t59 103.5t99.5 74t142 28.5zM284 83q40 0 70 19.5t50.5 51t30.5 72t10 81.5q0 60 -27 101t-85 41q-40 0 -70 -19.5t-50.5 -51t-30.5 -72
t-10 -81.5q0 -60 27 -101t85 -41z" />
    <glyph glyph-name="divide" unicode="&#xf7;" 
d="M358 562q26 0 42 -16t16 -40q0 -35 -25 -59t-57 -24q-26 0 -42 16t-16 41q0 34 25 58t57 24zM78 279l14 78h458l-13 -78h-459zM296 211q27 0 42.5 -16t15.5 -41q0 -34 -25 -58t-57 -24q-26 0 -42 16t-16 40q0 35 25 59t57 24z" />
    <glyph glyph-name="oslash" unicode="&#xf8;" horiz-adv-x="637" 
d="M570 433q28 -53 28 -123q0 -60 -19.5 -118t-59 -103.5t-99.5 -74t-142 -28.5q-56 0 -98.5 14t-72.5 40l-78 -67l-47 57l79 67q-15 27 -22 58.5t-7 66.5q0 60 19.5 118t59 103.5t99.5 74t142 28.5q57 0 99.5 -14.5t72.5 -40.5l78 66l47 -57zM179 225v-13.5t1 -12.5
l245 208q-14 20 -35 31t-50 11q-40 0 -70 -19.5t-50.5 -51t-30.5 -72t-10 -81.5zM451 307v12t-1 12l-244 -208q14 -19 34.5 -29.5t49.5 -10.5q40 0 70 19.5t50.5 51t30.5 72t10 81.5z" />
    <glyph glyph-name="ugrave" unicode="&#xf9;" horiz-adv-x="617" 
d="M243 692h124l57 -118h-78zM507 0h-138l15 82l-53 -59q-32 -20 -64 -28.5t-71 -8.5q-81 0 -121 38t-40 99q0 21 2 43t10 63l55 303h138l-51 -279q-5 -29 -7.5 -50.5t-2.5 -36.5q0 -37 18.5 -60t66.5 -22q52 1 94.5 48.5t62.5 158.5l42 241h137z" />
    <glyph glyph-name="uacute" unicode="&#xfa;" horiz-adv-x="617" 
d="M326 574l99 118h124l-145 -118h-78zM507 0h-138l15 82l-53 -59q-32 -20 -64 -28.5t-71 -8.5q-81 0 -121 38t-40 99q0 21 2 43t10 63l55 303h138l-51 -279q-5 -29 -7.5 -50.5t-2.5 -36.5q0 -37 18.5 -60t66.5 -22q52 1 94.5 48.5t62.5 158.5l42 241h137z" />
    <glyph glyph-name="ucircumflex" unicode="&#xfb;" horiz-adv-x="617" 
d="M256 574l85 118h108l44 -118h-86l-21 69l-45 -69h-85zM507 0h-138l15 82l-53 -59q-32 -20 -64 -28.5t-71 -8.5q-81 0 -121 38t-40 99q0 21 2 43t10 63l55 303h138l-51 -279q-5 -29 -7.5 -50.5t-2.5 -36.5q0 -37 18.5 -60t66.5 -22q52 1 94.5 48.5t62.5 158.5l42 241h137z
" />
    <glyph glyph-name="udieresis" unicode="&#xfc;" horiz-adv-x="617" 
d="M284 575q-26 0 -40.5 14t-14.5 37q0 32 22.5 51.5t47.5 19.5q26 0 40.5 -13.5t14.5 -37.5q0 -32 -22.5 -51.5t-47.5 -19.5zM459 575q-26 0 -40 14t-14 37q0 32 22 51.5t48 19.5q25 0 39.5 -13.5t14.5 -37.5q0 -32 -22 -51.5t-48 -19.5zM507 0h-138l15 82l-53 -59
q-32 -20 -64 -28.5t-71 -8.5q-81 0 -121 38t-40 99q0 21 2 43t10 63l55 303h138l-51 -279q-5 -29 -7.5 -50.5t-2.5 -36.5q0 -37 18.5 -60t66.5 -22q52 1 94.5 48.5t62.5 158.5l42 241h137z" />
    <glyph glyph-name="yacute" unicode="&#xfd;" horiz-adv-x="544" 
d="M274 574l99 118h124l-145 -118h-78zM303 0q-34 -60 -63.5 -100t-60.5 -64.5t-65 -35t-76 -10.5q-17 0 -31.5 1.5t-28.5 3.5l16 94q21 -3 42 -3q34 0 59.5 16.5t47.5 58.5l6 12l-116 559h154l57 -421l205 421h153z" />
    <glyph glyph-name="thorn" unicode="&#xfe;" horiz-adv-x="651" 
d="M424 546q99 0 151.5 -60t52.5 -159q0 -65 -19.5 -126.5t-58.5 -109t-98 -76.5t-139 -29q-33 0 -67.5 9.5t-51.5 24.5l-26 56l-48 -272h-138l166 931h138l-51 -283l50 57q26 18 62 27.5t77 9.5zM309 83q40 0 72 19t55 50.5t35.5 74t12.5 88.5q0 65 -28.5 99.5t-82.5 34.5
q-28 0 -55 -9.5t-49.5 -30.5t-39.5 -55t-26 -82l-4 -25q-5 -31 -2.5 -61t15 -52.5t36.5 -36.5t61 -14z" />
    <glyph glyph-name="ydieresis" unicode="&#xff;" horiz-adv-x="544" 
d="M232 575q-26 0 -40.5 14t-14.5 37q0 32 22.5 51.5t47.5 19.5q26 0 40.5 -13.5t14.5 -37.5q0 -32 -22.5 -51.5t-47.5 -19.5zM407 575q-26 0 -40 14t-14 37q0 32 22 51.5t48 19.5q25 0 39.5 -13.5t14.5 -37.5q0 -32 -22 -51.5t-48 -19.5zM303 0q-34 -60 -63.5 -100
t-60.5 -64.5t-65 -35t-76 -10.5q-17 0 -31.5 1.5t-28.5 3.5l16 94q21 -3 42 -3q34 0 59.5 16.5t47.5 58.5l6 12l-116 559h154l57 -421l205 421h153z" />
    <glyph glyph-name="Amacron" unicode="&#x100;" horiz-adv-x="680" 
d="M305 759l13 76h273l-13 -76h-273zM222 208l-104 -208h-149l366 690h183l119 -690h-149l-31 208h-235zM403 568l-126 -251h164z" />
    <glyph glyph-name="amacron" unicode="&#x101;" horiz-adv-x="552" 
d="M203 592l13 77h273l-13 -77h-273zM325 546q53 0 89.5 -10.5t60 -29t34 -44.5t10.5 -57q0 -20 -3.5 -43.5t-9.5 -56.5l-30 -170q-5 -30 -8.5 -60t-5.5 -75h-135l3 78l-35 -53q-26 -20 -60.5 -29.5t-74.5 -9.5q-30 0 -57 8.5t-47 26t-32 43.5t-12 62q0 51 25.5 90
t72.5 64.5t114 37t149 6.5l1 8q3 18 4.5 31.5t1.5 25.5q0 25 -15 42.5t-52 17.5q-48 0 -74 -23t-37 -67l-134 -1q9 45 32 80t56.5 59t76.5 36.5t92 12.5zM227 83q19 0 38.5 8t36.5 22.5t30 35.5t17 47l8 45q-42 5 -78.5 1t-63.5 -16.5t-42.5 -32.5t-15.5 -49q0 -31 19 -46
t51 -15z" />
    <glyph glyph-name="Abreve" unicode="&#x102;" horiz-adv-x="680" 
d="M436 725q-33 0 -54 10.5t-32 27.5t-13.5 39t1.5 45h73q-3 -23 5.5 -36.5t31.5 -13.5q45 0 57 50h73q-11 -62 -49.5 -92t-92.5 -30zM222 208l-104 -208h-149l366 690h183l119 -690h-149l-31 208h-235zM403 568l-126 -251h164z" />
    <glyph glyph-name="abreve" unicode="&#x103;" horiz-adv-x="552" 
d="M334 567q-35 0 -56 11t-31.5 28.5t-12 40t2.5 46.5h74q-3 -23 3 -39t33 -16q44 0 57 55h74q-12 -66 -51 -96t-93 -30zM325 546q53 0 89.5 -10.5t60 -29t34 -44.5t10.5 -57q0 -20 -3.5 -43.5t-9.5 -56.5l-30 -170q-5 -30 -8.5 -60t-5.5 -75h-135l3 78l-35 -53
q-26 -20 -60.5 -29.5t-74.5 -9.5q-30 0 -57 8.5t-47 26t-32 43.5t-12 62q0 51 25.5 90t72.5 64.5t114 37t149 6.5l1 8q3 18 4.5 31.5t1.5 25.5q0 25 -15 42.5t-52 17.5q-48 0 -74 -23t-37 -67l-134 -1q9 45 32 80t56.5 59t76.5 36.5t92 12.5zM227 83q19 0 38.5 8t36.5 22.5
t30 35.5t17 47l8 45q-42 5 -78.5 1t-63.5 -16.5t-42.5 -32.5t-15.5 -49q0 -31 19 -46t51 -15z" />
    <glyph glyph-name="Aogonek" unicode="&#x104;" horiz-adv-x="680" 
d="M498 -102q0 -23 10 -32t26 -9q27 0 52 18l-11 -58q-22 -18 -53 -29t-68 -11q-38 0 -65 17t-27 59q0 48 32 87.5t93 67.5l-30 200h-235l-104 -208h-149l366 690h183l119 -690h-54q-19 -2 -34.5 -12.5t-27 -25.5t-17.5 -32t-6 -32zM403 568l-126 -251h164z" />
    <glyph glyph-name="aogonek" unicode="&#x105;" horiz-adv-x="552" 
d="M325 546q53 0 89.5 -10.5t60 -29t34 -44.5t10.5 -57q0 -20 -3.5 -43.5t-9.5 -56.5l-30 -170q-5 -30 -8.5 -60t-5.5 -75h-39q-19 -2 -34.5 -12.5t-27 -25.5t-17.5 -32t-6 -32q0 -23 10 -32t26 -9q27 0 52 18l-11 -58q-22 -18 -53 -29t-68 -11q-38 0 -65 17t-27 59
q0 48 32 88t93 67l3 70l-35 -53q-26 -20 -60.5 -29.5t-74.5 -9.5q-30 0 -57 8.5t-47 26t-32 43.5t-12 62q0 51 25.5 90t72.5 64.5t114 37t149 6.5l1 8q3 18 4.5 31.5t1.5 25.5q0 25 -15 42.5t-52 17.5q-48 0 -74 -23t-37 -67l-134 -1q9 45 32 80t56.5 59t76.5 36.5t92 12.5z
M227 83q19 0 38.5 8t36.5 22.5t30 35.5t17 47l8 45q-42 5 -78.5 1t-63.5 -16.5t-42.5 -32.5t-15.5 -49q0 -31 19 -46t51 -15z" />
    <glyph glyph-name="Cacute" unicode="&#x106;" horiz-adv-x="745" 
d="M456 704q70 0 122 -18t85 -50t48 -75.5t11 -94.5l-1 -10h-138v10q-1 71 -37 103t-105 32t-122.5 -42t-82.5 -116l20 24h124l-139 -112h-28q-2 -17 -3.5 -35t-1.5 -37q0 -102 41.5 -148t106.5 -46q68 0 112.5 37.5t69.5 102.5l4 10h137l-3 -10q-32 -115 -118 -179
t-220 -64q-64 0 -115.5 19t-87.5 55.5t-55.5 89.5t-19.5 121q0 97 31 176.5t85 136.5t126 88.5t154 31.5z" />
    <glyph glyph-name="cacute" unicode="&#x107;" horiz-adv-x="572" 
d="M301 574l99 118h124l-145 -118h-78zM341 544q56 0 97 -15t67.5 -42.5t39.5 -65.5t13 -83h-136q-2 56 -26.5 82.5t-69.5 26.5q-35 0 -64 -18.5t-49.5 -51t-31.5 -76.5t-11 -95q0 -63 26.5 -93t66.5 -30q46 0 80 25t52 76h138q-37 -99 -106 -148.5t-177 -49.5
q-49 0 -90.5 13t-72 40t-47.5 68.5t-17 98.5q0 69 22 130t63 107.5t100 73.5t133 27z" />
    <glyph glyph-name="Cdotaccent" unicode="&#x10a;" horiz-adv-x="745" 
d="M456 704q70 0 122 -18t85 -50t48 -75.5t11 -94.5l-1 -10h-138v10q-1 71 -37 103t-105 32q-59 0 -107 -31t-79 -87q35 -14 35 -55q0 -29 -20 -53t-58 -26q-2 -16 -3 -32.5t-1 -33.5q0 -102 41.5 -148t106.5 -46q68 0 112.5 37.5t69.5 102.5l4 10h137l-3 -10
q-32 -115 -118 -179t-220 -64q-64 0 -115.5 19t-87.5 55.5t-55.5 89.5t-19.5 121q0 97 31 176.5t85 136.5t126 88.5t154 31.5z" />
    <glyph glyph-name="cdotaccent" unicode="&#x10b;" horiz-adv-x="572" 
d="M372 730q31 0 48.5 -17t17.5 -45q0 -32 -22 -58t-64 -26q-31 0 -48.5 16.5t-17.5 45.5q0 32 22 58t64 26zM341 544q56 0 97 -15t67.5 -42.5t39.5 -65.5t13 -83h-136q-2 56 -26.5 82.5t-69.5 26.5q-35 0 -64 -18.5t-49.5 -51t-31.5 -76.5t-11 -95q0 -63 26.5 -93t66.5 -30
q46 0 80 25t52 76h138q-37 -99 -106 -148.5t-177 -49.5q-49 0 -90.5 13t-72 40t-47.5 68.5t-17 98.5q0 69 22 130t63 107.5t100 73.5t133 27z" />
    <glyph glyph-name="Ccaron" unicode="&#x10c;" horiz-adv-x="745" 
d="M456 704q70 0 122 -18t85 -50t48 -75.5t11 -94.5l-1 -10h-138v10q-1 71 -37 103t-105 32q-74 0 -130.5 -48.5t-83.5 -134.5l33 49h87l-84 -112h-50q-2 -17 -3.5 -35t-1.5 -37q0 -102 41.5 -148t106.5 -46q68 0 112.5 37.5t69.5 102.5l4 10h137l-3 -10q-32 -115 -118 -179
t-220 -64q-64 0 -115.5 19t-87.5 55.5t-55.5 89.5t-19.5 121q0 97 31 176.5t85 136.5t126 88.5t154 31.5z" />
    <glyph glyph-name="ccaron" unicode="&#x10d;" horiz-adv-x="572" 
d="M250 692h86l20 -67l46 67h85l-86 -118h-108zM263 83q46 0 80 25t52 76h138q-37 -99 -106 -148.5t-177 -49.5q-49 0 -90.5 13t-72 40t-47.5 68.5t-17 98.5q0 69 22 130t63 107.5t100 73.5t133 27q56 0 97 -15t67.5 -42.5t39.5 -65.5t13 -83h-136q-2 56 -26.5 82.5
t-69.5 26.5q-35 0 -64 -18.5t-49.5 -51t-31.5 -76.5t-11 -95q0 -63 26.5 -93t66.5 -30z" />
    <glyph glyph-name="Dcaron" unicode="&#x10e;" horiz-adv-x="728" 
d="M321 847h87l20 -65l44 65h87l-84 -112h-109zM467 686q51 -5 96 -25t78 -56t52 -88t19 -122q0 -72 -22.5 -139t-67.5 -120t-112.5 -88.5t-158.5 -44.5q-27 -2 -45 -2.5t-44 -0.5h-227l122 690h218q27 0 46.5 -0.5t45.5 -3.5zM344 111q57 7 98.5 32.5t68.5 63.5t40 85.5
t13 98.5q0 92 -39.5 136.5t-101.5 51.5q-17 2 -32.5 2.5t-36.5 0.5h-78l-84 -473h81h37.5t33.5 2z" />
    <glyph glyph-name="dcaron" unicode="&#x10f;" horiz-adv-x="649" 
d="M539 0h-138l14 81l-50 -58q-25 -17 -61 -27t-77 -10q-100 0 -152.5 57t-52.5 156q0 65 19.5 127.5t58.5 111.5t98.5 78.5t138.5 29.5q33 0 67.5 -9t52.5 -25l25 -56l49 279h138zM848 726l-104 -155h-75l80 164h99v-9zM452 286q5 31 2.5 60.5t-15.5 52t-36.5 36.5
t-60.5 14q-40 0 -72 -19.5t-54.5 -52t-34.5 -74t-12 -86.5q0 -65 28 -99.5t81 -34.5q29 0 55.5 9.5t49 30.5t39 55t25.5 82z" />
    <glyph glyph-name="Dcroat" unicode="&#x110;" horiz-adv-x="728" 
d="M467 686q51 -5 96 -25t78 -56t52 -88t19 -122q0 -72 -22.5 -139t-67.5 -120t-112.5 -88.5t-158.5 -44.5q-27 -2 -45 -2.5t-44 -0.5h-227l53 298h-76l14 78h75l56 314h218q27 0 46.5 -0.5t45.5 -3.5zM344 111q57 7 98.5 32.5t68.5 63.5t40 85.5t13 98.5q0 92 -39.5 136.5
t-101.5 51.5q-17 2 -32.5 2.5t-36.5 0.5h-78l-37 -206h111l-14 -78h-111l-33 -189h81h37.5t33.5 2z" />
    <glyph glyph-name="dcroat" unicode="&#x111;" horiz-adv-x="650" 
d="M642 584l-103 -584h-138l14 81l-50 -58q-25 -17 -61 -27t-77 -10q-100 0 -152.5 57t-52.5 156q0 65 19.5 127.5t58.5 111.5t98.5 78.5t138.5 29.5q33 0 67.5 -9t52.5 -25l25 -56l22 128h-119l14 78h119l13 73h138l-13 -73h41l-14 -78h-41zM452 286q5 31 2.5 60.5
t-15.5 52t-36.5 36.5t-60.5 14q-40 0 -72 -19.5t-54.5 -52t-34.5 -74t-12 -86.5q0 -65 28 -99.5t81 -34.5q29 0 55.5 9.5t49 30.5t39 55t25.5 82z" />
    <glyph glyph-name="Emacron" unicode="&#x112;" horiz-adv-x="612" 
d="M282 759l13 76h273l-13 -76h-273zM244 400h325l-19 -109h-326l-32 -182h360l-20 -109h-497l122 690h487l-19 -108h-349z" />
    <glyph glyph-name="emacron" unicode="&#x113;" horiz-adv-x="580" 
d="M218 592l13 77h273l-13 -77h-273zM164 203q0 -65 27.5 -92.5t70.5 -27.5q45 0 79 23.5t48 66.5h138q-32 -94 -106.5 -140.5t-171.5 -46.5q-48 0 -89 12.5t-71.5 39t-48 67.5t-17.5 97q0 69 21 131t60.5 109.5t97.5 75.5t132 28q56 0 98 -16t70 -44.5t42 -67t14 -82.5
q0 -26 -4.5 -54t-12.5 -52h-376zM320 449q-54 0 -88.5 -36.5t-51.5 -92.5h237q1 7 1 12.5v10.5q0 50 -25 78t-73 28z" />
    <glyph glyph-name="Edotaccent" unicode="&#x116;" horiz-adv-x="612" 
d="M415 729q-29 0 -45.5 16t-16.5 43q0 29 22 54t60 25q29 0 45.5 -16t16.5 -43q0 -29 -21.5 -54t-60.5 -25zM244 400h325l-19 -109h-326l-32 -182h360l-20 -109h-497l122 690h487l-19 -108h-349z" />
    <glyph glyph-name="edotaccent" unicode="&#x117;" horiz-adv-x="580" 
d="M356 584q-31 0 -48.5 16.5t-17.5 45.5q0 32 22 58t64 26q31 0 48.5 -17t17.5 -45q0 -32 -22 -58t-64 -26zM164 203q0 -65 27.5 -92.5t70.5 -27.5q45 0 79 23.5t48 66.5h138q-32 -94 -106.5 -140.5t-171.5 -46.5q-48 0 -89 12.5t-71.5 39t-48 67.5t-17.5 97q0 69 21 131
t60.5 109.5t97.5 75.5t132 28q56 0 98 -16t70 -44.5t42 -67t14 -82.5q0 -26 -4.5 -54t-12.5 -52h-376zM320 449q-54 0 -88.5 -36.5t-51.5 -92.5h237q1 7 1 12.5v10.5q0 50 -25 78t-73 28z" />
    <glyph glyph-name="Eogonek" unicode="&#x118;" horiz-adv-x="612" 
d="M244 400h325l-19 -109h-326l-32 -182h360l-20 -109h-27q-19 -2 -34.5 -12.5t-27 -25.5t-17.5 -32t-6 -32q0 -23 10 -32t26 -9q27 0 52 18l-11 -58q-22 -18 -53 -29t-68 -11q-38 0 -65 17t-27 59q0 45 27.5 82.5t81.5 64.5h-358l122 690h487l-19 -108h-349z" />
    <glyph glyph-name="eogonek" unicode="&#x119;" horiz-adv-x="580" 
d="M164 203q0 -65 27.5 -92.5t70.5 -27.5q45 0 79 23.5t48 66.5h138q-28 -81 -88 -127t-140 -57q-25 -14 -39 -41t-14 -50t10 -32t26 -9q27 0 52 18l-11 -58q-22 -18 -53 -29t-68 -11q-38 0 -65 17t-27 59q0 82 90 137q-39 6 -71.5 21.5t-56 41.5t-36.5 63t-13 86
q0 69 21 131t60.5 109.5t97.5 75.5t132 28q56 0 98 -16t70 -44.5t42 -67t14 -82.5q0 -26 -4.5 -54t-12.5 -52h-376zM320 449q-54 0 -88.5 -36.5t-51.5 -92.5h237q1 7 1 12.5v10.5q0 50 -25 78t-73 28z" />
    <glyph glyph-name="Ecaron" unicode="&#x11a;" horiz-adv-x="612" 
d="M316 847h87l20 -65l44 65h87l-84 -112h-109zM244 400h325l-19 -109h-326l-32 -182h360l-20 -109h-497l122 690h487l-19 -108h-349z" />
    <glyph glyph-name="ecaron" unicode="&#x11b;" horiz-adv-x="580" 
d="M254 692h86l20 -67l46 67h85l-86 -118h-108zM164 203q0 -65 27.5 -92.5t70.5 -27.5q45 0 79 23.5t48 66.5h138q-32 -94 -106.5 -140.5t-171.5 -46.5q-48 0 -89 12.5t-71.5 39t-48 67.5t-17.5 97q0 69 21 131t60.5 109.5t97.5 75.5t132 28q56 0 98 -16t70 -44.5t42 -67
t14 -82.5q0 -26 -4.5 -54t-12.5 -52h-376zM320 449q-54 0 -88.5 -36.5t-51.5 -92.5h237q1 7 1 12.5v10.5q0 50 -25 78t-73 28z" />
    <glyph glyph-name="Gbreve" unicode="&#x11e;" horiz-adv-x="769" 
d="M513 725q-33 0 -54 10.5t-32 27.5t-13.5 39t1.5 45h73q-3 -23 5.5 -36.5t31.5 -13.5q45 0 57 50h73q-11 -62 -49.5 -92t-92.5 -30zM472 704q70 0 120 -18t81.5 -50t45 -75.5t9.5 -94.5l-1 -10h-138v10q-1 72 -34.5 103.5t-102.5 31.5q-50 0 -94.5 -22.5t-77.5 -64
t-52.5 -100t-19.5 -130.5q0 -97 41 -146t109 -49q67 0 118 41t74 114h-146l20 108h278l-62 -352h-111l10 111l-43 -69q-66 -56 -178 -56q-61 0 -109 19.5t-81.5 56t-51 88.5t-17.5 117q0 101 33.5 181.5t90.5 137.5t132 87.5t157 30.5z" />
    <glyph glyph-name="gbreve" unicode="&#x11f;" horiz-adv-x="649" 
d="M385 567q-35 0 -56 11t-31.5 28.5t-12 40t2.5 46.5h74q-3 -23 3 -39t33 -16q44 0 57 55h74q-12 -66 -51 -96t-93 -30zM563 133q-5 -25 -10 -53t-10 -50q-26 -125 -104 -185.5t-221 -60.5q-111 0 -170.5 47t-52.5 135l1 10h135l-1 -9q-2 -37 26.5 -58.5t82.5 -21.5
q63 0 106 32t58 96q3 15 6.5 31.5t6.5 33.5l1 6l-52 -60q-25 -17 -61 -27t-77 -10q-50 0 -88 15t-64 43t-39.5 66.5t-13.5 85.5q0 65 19.5 127.5t58.5 111.5t98.5 78.5t138.5 29.5q33 0 67.5 -9t52.5 -25l25 -57l14 77h137zM278 86q29 0 55.5 9t49 29.5t39 54t25.5 81.5
l-1 -9l7 40l-1 -5q5 31 2.5 60.5t-15.5 52t-36.5 36.5t-60.5 14q-40 0 -72 -19.5t-54.5 -52t-34.5 -74t-12 -86.5q0 -65 28 -98t81 -33z" />
    <glyph glyph-name="Gdotaccent" unicode="&#x120;" horiz-adv-x="769" 
d="M516 729q-29 0 -45.5 16t-16.5 43q0 29 22 54t60 25q29 0 45.5 -16t16.5 -43q0 -29 -21.5 -54t-60.5 -25zM472 704q70 0 120 -18t81.5 -50t45 -75.5t9.5 -94.5l-1 -10h-138v10q-1 72 -34.5 103.5t-102.5 31.5q-50 0 -94.5 -22.5t-77.5 -64t-52.5 -100t-19.5 -130.5
q0 -97 41 -146t109 -49q67 0 118 41t74 114h-146l20 108h278l-62 -352h-111l10 111l-43 -69q-66 -56 -178 -56q-61 0 -109 19.5t-81.5 56t-51 88.5t-17.5 117q0 101 33.5 181.5t90.5 137.5t132 87.5t157 30.5z" />
    <glyph glyph-name="gdotaccent" unicode="&#x121;" horiz-adv-x="649" 
d="M393 584q-31 0 -48.5 16.5t-17.5 45.5q0 32 22 58t64 26q31 0 48.5 -17t17.5 -45q0 -32 -22 -58t-64 -26zM563 133q-5 -25 -10 -53t-10 -50q-26 -125 -104 -185.5t-221 -60.5q-111 0 -170.5 47t-52.5 135l1 10h135l-1 -9q-2 -37 26.5 -58.5t82.5 -21.5q63 0 106 32t58 96
q3 15 6.5 31.5t6.5 33.5l1 6l-52 -60q-25 -17 -61 -27t-77 -10q-50 0 -88 15t-64 43t-39.5 66.5t-13.5 85.5q0 65 19.5 127.5t58.5 111.5t98.5 78.5t138.5 29.5q33 0 67.5 -9t52.5 -25l25 -57l14 77h137zM278 86q29 0 55.5 9t49 29.5t39 54t25.5 81.5l-1 -9l7 40l-1 -5
q5 31 2.5 60.5t-15.5 52t-36.5 36.5t-60.5 14q-40 0 -72 -19.5t-54.5 -52t-34.5 -74t-12 -86.5q0 -65 28 -98t81 -33z" />
    <glyph glyph-name="Gcommaaccent" unicode="&#x122;" horiz-adv-x="769" 
d="M472 704q70 0 120 -18t81.5 -50t45 -75.5t9.5 -94.5l-1 -10h-138v10q-1 72 -34.5 103.5t-102.5 31.5q-50 0 -94.5 -22.5t-77.5 -64t-52.5 -100t-19.5 -130.5q0 -97 41 -146t109 -49q67 0 118 41t74 114h-146l20 108h278l-62 -352h-111l10 111l-43 -69q-66 -56 -178 -56
q-61 0 -109 19.5t-81.5 56t-51 88.5t-17.5 117q0 101 33.5 181.5t90.5 137.5t132 87.5t157 30.5zM369 -43v-9l-104 -155h-75l80 164h99z" />
    <glyph glyph-name="gcommaaccent" unicode="&#x123;" horiz-adv-x="649" 
d="M327 573v9l105 155h74l-80 -164h-99zM563 133q-5 -25 -10 -53t-10 -50q-26 -125 -104 -185.5t-221 -60.5q-111 0 -170.5 47t-52.5 135l1 10h135l-1 -9q-2 -37 26.5 -58.5t82.5 -21.5q63 0 106 32t58 96q3 15 6.5 31.5t6.5 33.5l1 6l-52 -60q-25 -17 -61 -27t-77 -10
q-50 0 -88 15t-64 43t-39.5 66.5t-13.5 85.5q0 65 19.5 127.5t58.5 111.5t98.5 78.5t138.5 29.5q33 0 67.5 -9t52.5 -25l25 -57l14 77h137zM278 86q29 0 55.5 9t49 29.5t39 54t25.5 81.5l-1 -9l7 40l-1 -5q5 31 2.5 60.5t-15.5 52t-36.5 36.5t-60.5 14q-40 0 -72 -19.5
t-54.5 -52t-34.5 -74t-12 -86.5q0 -65 28 -98t81 -33z" />
    <glyph glyph-name="Hbar" unicode="&#x126;" horiz-adv-x="747" 
d="M720 491l-87 -491h-138l50 283h-323l-50 -283h-138l87 491h-39l14 78h39l21 121h138l-21 -121h323l21 121h138l-21 -121h39l-14 -78h-39zM258 491l-17 -98h323l17 98h-323z" />
    <glyph glyph-name="hbar" unicode="&#x127;" horiz-adv-x="637" 
d="M436 546q82 0 122 -38t40 -98q0 -21 -2.5 -43.5t-10.5 -62.5l-54 -304h-138l50 279q5 29 8 50.5t3 36.5q0 37 -19 60t-67 23q-52 -1 -94 -49t-62 -159l-42 -241h-138l103 584h-56l14 78h55l14 78h138l-14 -78h104l-14 -78h-104l-23 -134l52 59q33 20 65 28.5t70 8.5z" />
    <glyph glyph-name="Imacron" unicode="&#x12a;" horiz-adv-x="287" 
d="M102 759l13 76h273l-13 -76h-273zM35 0l122 690h138l-122 -690h-138z" />
    <glyph glyph-name="imacron" unicode="&#x12b;" horiz-adv-x="265" 
d="M56 592l13 77h273l-13 -77h-273zM17 0l95 532h137l-94 -532h-138z" />
    <glyph glyph-name="Iogonek" unicode="&#x12e;" horiz-adv-x="287" 
d="M130 0q-19 -2 -34.5 -12.5t-27 -25.5t-17.5 -32t-6 -32q0 -23 10 -32t26 -9q27 0 52 18l-11 -58q-22 -18 -53 -29t-68 -11q-38 0 -65 17t-27 59q0 48 32 88t94 67h1l121 682h138l-122 -690h-43z" />
    <glyph glyph-name="iogonek" unicode="&#x12f;" horiz-adv-x="265" 
d="M215 730q31 0 48.5 -17t17.5 -45q0 -32 -22 -58t-64 -26q-31 0 -48.5 16.5t-17.5 45.5q0 32 22 58t64 26zM249 532l-94 -532h-42q-19 -2 -34.5 -12.5t-27 -25.5t-17.5 -32t-6 -32q0 -23 10 -32t26 -9q27 0 52 18l-11 -58q-22 -18 -53 -29t-68 -11q-38 0 -65 17t-27 59
q0 48 32 88t94 67l94 524h137z" />
    <glyph glyph-name="Idotaccent" unicode="&#x130;" horiz-adv-x="287" 
d="M255 867q29 0 45.5 -16t16.5 -43q0 -29 -21.5 -54t-60.5 -25q-29 0 -45.5 16t-16.5 43q0 29 22 54t60 25zM35 0l122 690h138l-122 -690h-138z" />
    <glyph glyph-name="dotlessi" unicode="&#x131;" horiz-adv-x="265" 
d="M17 0l95 532h137l-94 -532h-138z" />
    <glyph glyph-name="IJ" unicode="&#x132;" horiz-adv-x="873" 
d="M35 0l122 690h138l-122 -690h-138zM809 283q-4 -22 -8 -42t-12 -53q-10 -45 -30.5 -82t-54 -63.5t-81 -41.5t-111.5 -15q-112 0 -166 62t-39 168l5 35h138l-4 -35q-8 -69 15.5 -98t72.5 -29q48 0 77 27t43 80q5 17 8 34.5t7 38.5l74 421h137z" />
    <glyph glyph-name="ij" unicode="&#x133;" horiz-adv-x="505" 
d="M215 730q31 0 48.5 -17t17.5 -45q0 -32 -22 -58t-64 -26q-31 0 -48.5 16.5t-17.5 45.5q0 32 22 58t64 26zM458 730q33 0 51.5 -17t18.5 -44q0 -41 -22.5 -63t-62.5 -22q-33 0 -51.5 16.5t-18.5 43.5q0 42 22.5 64t62.5 22zM17 0l95 532h137l-94 -532h-138zM403 -12
l-6.5 -32.5t-7.5 -31.5q-16 -63 -62.5 -98.5t-138.5 -35.5q-27 0 -51 3l18 98q42 -5 65.5 6.5t33.5 41.5q3 11 6 23.5t5 27.5l95 542h138z" />
    <glyph glyph-name="Kcommaaccent" unicode="&#x136;" horiz-adv-x="676" 
d="M623 0h-170l-184 282l-55 -51l-41 -231h-138l122 690h138l-57 -320l353 320h165l-382 -338zM350 -43v-9l-104 -155h-75l80 164h99z" />
    <glyph glyph-name="kcommaaccent" unicode="&#x137;" horiz-adv-x="585" 
d="M548 0h-167l-139 215l-58 -51l-29 -164h-138l130 735h138l-78 -443l256 240h166l-279 -249zM307 -43v-9l-104 -155h-75l80 164h99z" />
    <glyph glyph-name="Lacute" unicode="&#x139;" horiz-adv-x="599" 
d="M189 735l93 112h124l-139 -112h-78zM532 0h-497l122 690h138l-102 -575h360z" />
    <glyph glyph-name="lacute" unicode="&#x13a;" horiz-adv-x="280" 
d="M169 781l99 118h124l-145 -118h-78zM181 174q-3 -18 -5 -30.5t-2 -22.5q0 -23 13 -29.5t42 -4.5l-16 -89q-18 -3 -37.5 -4t-42.5 -1q-51 0 -77.5 16t-26.5 58q0 17 3 41t11 63l100 564h138z" />
    <glyph glyph-name="Lcommaaccent" unicode="&#x13b;" horiz-adv-x="599" 
d="M532 0h-497l122 690h138l-102 -575h360zM334 -43v-9l-104 -155h-75l80 164h99z" />
    <glyph glyph-name="lcommaaccent" unicode="&#x13c;" horiz-adv-x="280" 
d="M181 174q-3 -18 -5 -30.5t-2 -22.5q0 -23 13 -29.5t42 -4.5l-16 -89q-18 -3 -37.5 -4t-42.5 -1q-51 0 -77.5 16t-26.5 58q0 17 3 41t11 63l100 564h138zM47 -207h-75l80 164h99v-9z" />
    <glyph glyph-name="Lcaron" unicode="&#x13d;" horiz-adv-x="599" 
d="M532 0h-497l122 690h138l-102 -575h360z" />
    <glyph glyph-name="lcaron" unicode="&#x13e;" horiz-adv-x="280" 
d="M181 174q-3 -18 -5 -30.5t-2 -22.5q0 -23 13 -29.5t42 -4.5l-16 -89q-18 -3 -37.5 -4t-42.5 -1q-51 0 -77.5 16t-26.5 58q0 17 3 41t11 63l100 564h138z" />
    <glyph glyph-name="Ldot" unicode="&#x13f;" horiz-adv-x="599" 
d="M532 0h-497l122 690h138l-102 -575h360zM411 327q-29 0 -47 16.5t-18 45.5q0 35 25.5 59.5t64.5 24.5q29 0 47 -16.5t18 -45.5q0 -35 -25.5 -59.5t-64.5 -24.5z" />
    <glyph glyph-name="ldot" unicode="&#x140;" horiz-adv-x="414" 
d="M181 174q-3 -18 -5 -30.5t-2 -22.5q0 -23 13 -29.5t42 -4.5l-16 -89q-18 -3 -37.5 -4t-42.5 -1q-51 0 -77.5 16t-26.5 58q0 17 3 41t11 63l100 564h138zM365 481q29 0 48 -16.5t19 -46.5q0 -44 -26.5 -70.5t-68.5 -26.5q-29 0 -48.5 17t-19.5 46q0 44 27 70.5t69 26.5z
" />
    <glyph glyph-name="Lslash" unicode="&#x141;" horiz-adv-x="639" 
d="M573 0h-498l51 286l-111 -56l16 92l111 56l55 312h138l-42 -235l114 57l-17 -92l-113 -57l-44 -248h360z" />
    <glyph glyph-name="lslash" unicode="&#x142;" horiz-adv-x="314" 
d="M205 174q-3 -18 -5 -30.5t-2 -22.5q0 -23 13 -29.5t43 -4.5l-16 -89q-19 -3 -38.5 -4t-42.5 -1q-51 0 -77 16t-26 58q0 17 3 41t10 63l11 62l-70 -39l17 95l70 39l72 407h138l-57 -322l68 38l-17 -95l-68 -38z" />
    <glyph glyph-name="Nacute" unicode="&#x143;" horiz-adv-x="755" 
d="M426 735l93 112h124l-139 -112h-78zM641 0h-189l-188 524l-91 -524h-138l122 690h183l192 -537l93 537h138z" />
    <glyph glyph-name="nacute" unicode="&#x144;" horiz-adv-x="621" 
d="M323 574l99 118h124l-145 -118h-78zM421 546q82 0 122 -38t40 -98q0 -21 -2.5 -43.5t-10.5 -62.5l-54 -304h-138l50 279q5 29 8 50.5t3 36.5q0 37 -19 60t-67 23q-52 -1 -94 -49t-62 -159l-42 -241h-138l94 532h137l-14 -81l52 58q32 20 64.5 28.5t70.5 8.5z" />
    <glyph glyph-name="Ncommaaccent" unicode="&#x145;" horiz-adv-x="755" 
d="M641 0h-189l-188 524l-91 -524h-138l122 690h183l192 -537l93 537h138zM394 -43v-9l-104 -155h-75l80 164h99z" />
    <glyph glyph-name="ncommaaccent" unicode="&#x146;" horiz-adv-x="621" 
d="M421 546q82 0 122 -38t40 -98q0 -21 -2.5 -43.5t-10.5 -62.5l-54 -304h-138l50 279q5 29 8 50.5t3 36.5q0 37 -19 60t-67 23q-52 -1 -94 -49t-62 -159l-42 -241h-138l94 532h137l-14 -81l52 58q32 20 64.5 28.5t70.5 8.5zM317 -43v-9l-104 -155h-75l80 164h99z" />
    <glyph glyph-name="Ncaron" unicode="&#x147;" horiz-adv-x="755" 
d="M372 847h87l20 -65l44 65h87l-84 -112h-109zM641 0h-189l-188 524l-91 -524h-138l122 690h183l192 -537l93 537h138z" />
    <glyph glyph-name="ncaron" unicode="&#x148;" horiz-adv-x="621" 
d="M272 692h86l20 -67l46 67h85l-86 -118h-108zM421 546q82 0 122 -38t40 -98q0 -21 -2.5 -43.5t-10.5 -62.5l-54 -304h-138l50 279q5 29 8 50.5t3 36.5q0 37 -19 60t-67 23q-52 -1 -94 -49t-62 -159l-42 -241h-138l94 532h137l-14 -81l52 58q32 20 64.5 28.5t70.5 8.5z" />
    <glyph glyph-name="Eng" unicode="&#x14a;" horiz-adv-x="756" 
d="M631 -62q-8 -48 -21.5 -79t-39.5 -49t-68.5 -25.5t-109.5 -7.5l18 104q44 2 61.5 18t22.5 45l5 31l-237 545l-88 -520h-138l121 690h183l202 -494l83 494h138z" />
    <glyph glyph-name="eng" unicode="&#x14b;" horiz-adv-x="621" 
d="M421 546q82 0 122 -38t40 -98q0 -21 -2.5 -43.5t-10.5 -62.5l-57 -322q-3 -16 -6 -26.5t-7 -21.5q-12 -34 -30 -55t-44.5 -33t-63.5 -16t-87 -4l18 104q43 0 60 13t22 42l53 294q5 29 8 50.5t3 36.5q0 37 -19 60t-67 23q-52 -1 -94 -49t-62 -159l-42 -241h-138l94 532
h137l-14 -81l52 58q32 20 64.5 28.5t70.5 8.5z" />
    <glyph glyph-name="Omacron" unicode="&#x14c;" horiz-adv-x="781" 
d="M350 759l13 76h273l-13 -76h-273zM458 704q74 0 131.5 -23t96.5 -63.5t59 -95t20 -117.5q0 -88 -27.5 -165t-78.5 -133t-124.5 -88.5t-165.5 -32.5q-74 0 -131.5 23t-96.5 63.5t-59 95t-20 117.5q0 89 27.5 165.5t78.5 132.5t124.5 88.5t165.5 32.5zM380 89
q61 0 105.5 29t74 74.5t44 101t14.5 108.5q0 44 -11.5 81t-33 63t-53.5 40.5t-73 14.5q-61 0 -105.5 -29t-74 -74.5t-44 -101t-14.5 -108.5q0 -44 11.5 -80.5t33 -63t53.5 -41t73 -14.5z" />
    <glyph glyph-name="omacron" unicode="&#x14d;" horiz-adv-x="616" 
d="M230 592l13 77h273l-13 -77h-273zM345 546q63 0 109.5 -18.5t77 -50t45 -74.5t14.5 -93q0 -60 -19.5 -118t-59 -103.5t-99.5 -74t-141 -28.5q-63 0 -109.5 18.5t-77 50t-45.5 75t-15 92.5q0 60 19.5 118t59 103.5t99.5 74t142 28.5zM284 83q40 0 70 19.5t50.5 51t30.5 72
t10 81.5q0 60 -27 101t-85 41q-40 0 -70 -19.5t-50.5 -51t-30.5 -72t-10 -81.5q0 -60 27 -101t85 -41z" />
    <glyph glyph-name="Ohungarumlaut" unicode="&#x150;" horiz-adv-x="781" 
d="M335 736l94 111h124l-140 -111h-78zM594 847h124l-139 -111h-78zM458 704q74 0 131.5 -23t96.5 -63.5t59 -95t20 -117.5q0 -88 -27.5 -165t-78.5 -133t-124.5 -88.5t-165.5 -32.5q-74 0 -131.5 23t-96.5 63.5t-59 95t-20 117.5q0 89 27.5 165.5t78.5 132.5t124.5 88.5
t165.5 32.5zM380 89q61 0 105.5 29t74 74.5t44 101t14.5 108.5q0 44 -11.5 81t-33 63t-53.5 40.5t-73 14.5q-61 0 -105.5 -29t-74 -74.5t-44 -101t-14.5 -108.5q0 -44 11.5 -80.5t33 -63t53.5 -41t73 -14.5z" />
    <glyph glyph-name="ohungarumlaut" unicode="&#x151;" horiz-adv-x="616" 
d="M222 574l98 118h124l-144 -118h-78zM491 692h124l-144 -118h-78zM345 546q63 0 109.5 -18.5t77 -50t45 -74.5t14.5 -93q0 -60 -19.5 -118t-59 -103.5t-99.5 -74t-141 -28.5q-63 0 -109.5 18.5t-77 50t-45.5 75t-15 92.5q0 60 19.5 118t59 103.5t99.5 74t142 28.5zM284 83
q40 0 70 19.5t50.5 51t30.5 72t10 81.5q0 60 -27 101t-85 41q-40 0 -70 -19.5t-50.5 -51t-30.5 -72t-10 -81.5q0 -60 27 -101t85 -41z" />
    <glyph glyph-name="OE" unicode="&#x152;" horiz-adv-x="1128" 
d="M759 400h325l-19 -109h-326l-32 -182h360l-19 -109h-498l21 117l-41 -67q-46 -36 -92 -50t-113 -14q-60 0 -109 18.5t-83.5 54.5t-53.5 90.5t-19 126.5q0 74 23.5 150t72 137.5t122 101t173.5 39.5q35 0 62 -3.5t48.5 -11t38.5 -20t33 -30.5l18 -68l21 119h488l-20 -108
h-349zM370 89q46 0 85 18t70 51t53 80.5t33 106.5q8 47 6.5 92.5t-18 82t-50 59t-89.5 22.5q-67 0 -115.5 -30t-79.5 -77t-45.5 -103.5t-14.5 -109.5q0 -97 44 -144.5t121 -47.5z" />
    <glyph glyph-name="oe" unicode="&#x153;" horiz-adv-x="988" 
d="M572 230q-1 -9 -1 -16.5v-12.5q0 -66 27 -92t70 -26q45 0 79 23.5t48 66.5h138q-36 -94 -110.5 -140.5t-170.5 -46.5q-58 0 -104.5 24t-70.5 81q-42 -55 -98.5 -80t-121.5 -25q-115 0 -175 61t-60 161q0 52 18 111t57.5 109t101.5 83t150 33q69 0 118 -25.5t73 -82.5
q45 57 101 82.5t121 25.5q51 0 89.5 -16t64 -43.5t38 -65.5t12.5 -82q0 -28 -4.5 -56t-12.5 -51h-377zM273 83q47 0 79.5 24.5t53 61t29.5 78t9 75.5q0 57 -27 91t-79 34q-46 0 -79 -23.5t-53 -58.5t-29.5 -76t-9.5 -76q0 -60 27.5 -95t78.5 -35zM735 447q-48 0 -85 -31
t-57 -96h232q2 8 2 13.5v10.5q0 51 -23.5 77t-68.5 26z" />
    <glyph glyph-name="Racute" unicode="&#x154;" horiz-adv-x="645" 
d="M356 735l93 112h124l-139 -112h-78zM661 535q0 -84 -48.5 -134t-126.5 -70q22 -7 37 -22t24 -39.5t13 -60.5t4 -86q0 -82 20 -123h-149q-2 12 -3.5 26t-2.5 33.5t-2 46t-1 63.5q0 48 -16 76.5t-54 31.5q-14 1 -26.5 1h-26.5h-81l-49 -278h-138l122 690h252q30 0 52 -1
t48 -4q32 -4 60 -14.5t48.5 -28.5t32 -44.5t11.5 -62.5zM393 382q23 2 44.5 10t37.5 22.5t25.5 36t9.5 51.5q0 38 -21 55.5t-55 21.5q-12 2 -25.5 2.5t-31.5 0.5h-101l-36 -201h96h31t26 1z" />
    <glyph glyph-name="racute" unicode="&#x155;" horiz-adv-x="374" 
d="M202 574l99 118h124l-145 -118h-78zM288 509q22 18 48 27t49 9q22 0 38 -4l-20 -111q-34 3 -66.5 -3t-59.5 -26.5t-47.5 -58.5t-31.5 -98l-43 -244h-138l93 530h138l-17 -97z" />
    <glyph glyph-name="Rcommaaccent" unicode="&#x156;" horiz-adv-x="645" 
d="M661 535q0 -84 -48.5 -134t-126.5 -70q22 -7 37 -22t24 -39.5t13 -60.5t4 -86q0 -82 20 -123h-149q-2 12 -3.5 26t-2.5 33.5t-2 46t-1 63.5q0 48 -16 76.5t-54 31.5q-14 1 -26.5 1h-26.5h-81l-49 -278h-138l122 690h252q30 0 52 -1t48 -4q32 -4 60 -14.5t48.5 -28.5
t32 -44.5t11.5 -62.5zM393 382q23 2 44.5 10t37.5 22.5t25.5 36t9.5 51.5q0 38 -21 55.5t-55 21.5q-12 2 -25.5 2.5t-31.5 0.5h-101l-36 -201h96h31t26 1zM320 -43v-9l-104 -155h-75l80 164h99z" />
    <glyph glyph-name="rcommaaccent" unicode="&#x157;" horiz-adv-x="374" 
d="M385 545q22 0 38 -4l-20 -111q-34 3 -66.5 -3t-59.5 -26.5t-47.5 -58.5t-31.5 -98l-43 -244h-138l93 530h138l-17 -97l57 76q22 18 48 27t49 9zM139 -43v-9l-104 -155h-75l80 164h99z" />
    <glyph glyph-name="Rcaron" unicode="&#x158;" horiz-adv-x="645" 
d="M302 847h87l20 -65l44 65h87l-84 -112h-109zM661 535q0 -84 -48.5 -134t-126.5 -70q22 -7 37 -22t24 -39.5t13 -60.5t4 -86q0 -82 20 -123h-149q-2 12 -3.5 26t-2.5 33.5t-2 46t-1 63.5q0 48 -16 76.5t-54 31.5q-14 1 -26.5 1h-26.5h-81l-49 -278h-138l122 690h252
q30 0 52 -1t48 -4q32 -4 60 -14.5t48.5 -28.5t32 -44.5t11.5 -62.5zM393 382q23 2 44.5 10t37.5 22.5t25.5 36t9.5 51.5q0 38 -21 55.5t-55 21.5q-12 2 -25.5 2.5t-31.5 0.5h-101l-36 -201h96h31t26 1z" />
    <glyph glyph-name="rcaron" unicode="&#x159;" horiz-adv-x="374" 
d="M151 692h86l20 -67l46 67h85l-86 -118h-108zM385 545q22 0 38 -4l-20 -111q-34 3 -66.5 -3t-59.5 -26.5t-47.5 -58.5t-31.5 -98l-43 -244h-138l93 530h138l-17 -97l57 76q22 18 48 27t49 9z" />
    <glyph glyph-name="Sacute" unicode="&#x15a;" horiz-adv-x="599" 
d="M330 735l93 112h124l-139 -112h-78zM371 704q62 0 105.5 -16.5t71 -46t39.5 -69t9 -85.5h-140q3 53 -23 83.5t-80 30.5q-48 0 -79 -25t-31 -73q0 -35 29.5 -57.5t99.5 -39.5q96 -23 141.5 -69t45.5 -118q0 -56 -24 -99.5t-64.5 -73t-94 -45t-113.5 -15.5q-58 0 -106 13.5
t-80.5 41t-48.5 68.5t-12 95h140q2 -57 36 -86t88 -29t91.5 27.5t37.5 76.5q0 35 -28 59.5t-92 41.5q-45 11 -81 26t-61.5 36t-39 49t-13.5 65q0 56 23 99.5t61 73.5t88 45.5t105 15.5z" />
    <glyph glyph-name="sacute" unicode="&#x15b;" horiz-adv-x="486" 
d="M248 574l99 118h124l-145 -118h-78zM269 544q53 0 90.5 -12.5t62 -35t37 -53.5t13.5 -67h-137q-4 37 -21.5 57t-49.5 20q-37 0 -54 -17.5t-17 -41.5q0 -31 23 -48t79 -35q78 -25 115 -61.5t37 -99.5q0 -39 -16.5 -70.5t-47 -53.5t-73 -34t-95.5 -12q-111 0 -166.5 49.5
t-59.5 126.5h138q5 -47 31 -66t64 -19q35 0 57.5 17t22.5 49q0 29 -24 48t-88 41q-32 11 -58 23t-45 29.5t-29 41.5t-10 57q0 34 14 64t42 53t69 36.5t96 13.5z" />
    <glyph glyph-name="Scedilla" unicode="&#x15e;" horiz-adv-x="599" 
d="M456 487q3 53 -23 83.5t-80 30.5q-48 0 -79 -25t-31 -73q0 -35 29.5 -57.5t99.5 -39.5q96 -23 141.5 -69t45.5 -118q0 -53 -21.5 -94.5t-58 -71t-85.5 -46.5t-105 -20l-19 -28q38 -6 57 -24.5t19 -47.5q0 -25 -11.5 -43.5t-32 -30.5t-47 -17.5t-56.5 -5.5q-23 0 -41 1.5
t-30 6.5l11 56q13 -5 26 -6t28 -1q67 0 67 37q0 20 -24.5 28.5t-66.5 3.5l49 72q-98 10 -154 64t-48 152h140q2 -57 36 -86t88 -29t91.5 27.5t37.5 76.5q0 35 -28 59.5t-92 41.5q-45 11 -81 26t-61.5 36t-39 49t-13.5 65q0 56 23 99.5t61 73.5t88 45.5t105 15.5
q62 0 105.5 -16.5t71 -46t39.5 -69t9 -85.5h-140z" />
    <glyph glyph-name="scedilla" unicode="&#x15f;" horiz-adv-x="486" 
d="M295 311q78 -25 115 -61.5t37 -99.5q0 -39 -16.5 -70t-46.5 -53t-72 -34.5t-94 -12.5l-15 -21q77 -12 77 -72q0 -25 -12 -43.5t-32 -30.5t-46.5 -17.5t-56.5 -5.5q-24 0 -41.5 1.5t-30.5 6.5l11 56q14 -5 27 -6t27 -1q68 0 68 37q0 20 -24.5 28.5t-66.5 3.5l47 69
q-79 14 -118.5 59.5t-42.5 111.5h138q5 -47 31 -66t64 -19q35 0 57.5 17t22.5 49q0 29 -24 48t-88 41q-32 11 -58 23t-45 29.5t-29 41.5t-10 57q0 34 14 64t42 53t69 36.5t96 13.5q53 0 90.5 -12.5t62 -35t37 -53.5t13.5 -67h-137q-4 37 -21.5 57t-49.5 20q-37 0 -54 -17.5
t-17 -41.5q0 -31 23 -48t79 -35z" />
    <glyph glyph-name="Scaron" unicode="&#x160;" horiz-adv-x="599" 
d="M276 847h87l20 -65l44 65h87l-84 -112h-109zM456 487q3 53 -23 83.5t-80 30.5q-48 0 -79 -25t-31 -73q0 -35 29.5 -57.5t99.5 -39.5q96 -23 141.5 -69t45.5 -118q0 -56 -24 -99.5t-64.5 -73t-94 -45t-113.5 -15.5q-58 0 -106 13.5t-80.5 41t-48.5 68.5t-12 95h140
q2 -57 36 -86t88 -29t91.5 27.5t37.5 76.5q0 35 -28 59.5t-92 41.5q-45 11 -81 26t-61.5 36t-39 49t-13.5 65q0 56 23 99.5t61 73.5t88 45.5t105 15.5q62 0 105.5 -16.5t71 -46t39.5 -69t9 -85.5h-140z" />
    <glyph glyph-name="scaron" unicode="&#x161;" horiz-adv-x="486" 
d="M197 692h86l20 -67l46 67h85l-86 -118h-108zM295 311q78 -25 115 -61.5t37 -99.5q0 -39 -16.5 -70.5t-47 -53.5t-73 -34t-95.5 -12q-111 0 -166.5 49.5t-59.5 126.5h138q5 -47 31 -66t64 -19q35 0 57.5 17t22.5 49q0 29 -24 48t-88 41q-32 11 -58 23t-45 29.5t-29 41.5
t-10 57q0 34 14 64t42 53t69 36.5t96 13.5q53 0 90.5 -12.5t62 -35t37 -53.5t13.5 -67h-137q-4 37 -21.5 57t-49.5 20q-37 0 -54 -17.5t-17 -41.5q0 -31 23 -48t79 -35z" />
    <glyph glyph-name="Tcedilla" unicode="&#x162;" horiz-adv-x="623" 
d="M288 -41q38 -6 57 -24.5t19 -47.5q0 -25 -11.5 -43.5t-32 -30.5t-47 -17.5t-56.5 -5.5q-23 0 -41 1.5t-30 6.5l11 56q13 -5 26 -6t28 -1q67 0 67 37q0 20 -24.5 28.5t-66.5 3.5l57 84h-34l103 582h-235l20 108h606l-20 -108h-233l-103 -582h-31z" />
    <glyph glyph-name="tcedilla" unicode="&#x163;" horiz-adv-x="354" 
d="M207 191q-4 -23 -5.5 -35t-1.5 -23q0 -32 23 -41t72 -2l-16 -91q-44 -10 -98 -10h-2l-21 -30q77 -12 77 -72q0 -25 -12 -43.5t-32 -30.5t-46.5 -17.5t-56.5 -5.5q-24 0 -41.5 1.5t-30.5 6.5l11 56q14 -5 27 -6t27 -1q68 0 68 37q0 20 -24.5 28.5t-66.5 3.5l55 81
q-58 19 -58 83q0 15 2.5 37.5t9.5 57.5l47 262h-76l16 91h76l23 131h137l-23 -131h105l-16 -91h-105z" />
    <glyph glyph-name="Tcaron" unicode="&#x164;" horiz-adv-x="623" 
d="M311 847h87l20 -65l44 65h87l-84 -112h-109zM451 582l-103 -582h-138l103 582h-235l20 108h606l-20 -108h-233z" />
    <glyph glyph-name="tcaron" unicode="&#x165;" horiz-adv-x="354" 
d="M490 735l-105 -155h-74l80 163h99v-8zM372 528l-16 -91h-105l-44 -246q-4 -23 -5.5 -35t-1.5 -23q0 -32 23 -41t72 -2l-16 -91q-44 -10 -98 -10q-66 0 -96 22t-30 69q0 15 2.5 37.5t9.5 57.5l47 262h-76l16 91h76l23 131h137l-23 -131h105z" />
    <glyph glyph-name="Tbar" unicode="&#x166;" horiz-adv-x="649" 
d="M414 376h105l-14 -78h-104l-53 -298h-138l53 298h-96l14 78h95l37 206h-235l20 108h606l-20 -108h-233z" />
    <glyph glyph-name="tbar" unicode="&#x167;" horiz-adv-x="354" 
d="M234 344h74l-13 -77h-75l-13 -76q-4 -23 -5.5 -35t-1.5 -23q0 -32 23 -41t72 -2l-16 -91q-44 -10 -98 -10q-66 0 -96 22t-30 69q0 15 2.5 37.5t9.5 57.5l16 92h-61l13 77h62l17 93h-76l16 91h76l23 131h137l-23 -131h105l-16 -91h-105z" />
    <glyph glyph-name="Umacron" unicode="&#x16a;" horiz-adv-x="703" 
d="M316 759l13 76h273l-13 -76h-273zM655 292q-5 -26 -8.5 -44.5t-9.5 -41.5q-12 -50 -35 -91t-60.5 -69.5t-90.5 -44t-125 -15.5q-128 0 -190.5 54.5t-62.5 143.5q0 26 3 51t10 66l69 389h138l-74 -420q-5 -25 -6.5 -39.5t-1.5 -31.5q0 -53 34 -81.5t93 -28.5
q66 0 106 28.5t58 99.5q3 11 5.5 23t5.5 27l74 423h138z" />
    <glyph glyph-name="umacron" unicode="&#x16b;" horiz-adv-x="617" 
d="M239 592l13 77h273l-13 -77h-273zM507 0h-138l15 82l-53 -59q-32 -20 -64 -28.5t-71 -8.5q-81 0 -121 38t-40 99q0 21 2 43t10 63l55 303h138l-51 -279q-5 -29 -7.5 -50.5t-2.5 -36.5q0 -37 18.5 -60t66.5 -22q52 1 94.5 48.5t62.5 158.5l42 241h137z" />
    <glyph glyph-name="Uring" unicode="&#x16e;" horiz-adv-x="703" 
d="M475 906q44 0 69.5 -23t25.5 -58q0 -48 -34.5 -77t-87.5 -29q-43 0 -68.5 23t-25.5 58q0 49 34.5 77.5t86.5 28.5zM469 853q-18 0 -32 -13t-14 -36q0 -14 8.5 -23t23.5 -9q18 0 32 13t14 36q0 14 -8.5 23t-23.5 9zM655 292q-5 -26 -8.5 -44.5t-9.5 -41.5q-12 -50 -35 -91
t-60.5 -69.5t-90.5 -44t-125 -15.5q-128 0 -190.5 54.5t-62.5 143.5q0 26 3 51t10 66l69 389h138l-74 -420q-5 -25 -6.5 -39.5t-1.5 -31.5q0 -53 34 -81.5t93 -28.5q66 0 106 28.5t58 99.5q3 11 5.5 23t5.5 27l74 423h138z" />
    <glyph glyph-name="uring" unicode="&#x16f;" horiz-adv-x="617" 
d="M372 566q-43 0 -68 21.5t-25 59.5q0 48 34.5 80t89.5 32q42 0 67 -21.5t25 -59.5q0 -48 -34.5 -80t-88.5 -32zM394 707q-23 0 -34.5 -18t-11.5 -38q0 -32 32 -32q23 0 34.5 17.5t11.5 37.5q0 33 -32 33zM507 0h-138l15 82l-53 -59q-32 -20 -64 -28.5t-71 -8.5
q-81 0 -121 38t-40 99q0 21 2 43t10 63l55 303h138l-51 -279q-5 -29 -7.5 -50.5t-2.5 -36.5q0 -37 18.5 -60t66.5 -22q52 1 94.5 48.5t62.5 158.5l42 241h137z" />
    <glyph glyph-name="Uhungarumlaut" unicode="&#x170;" horiz-adv-x="703" 
d="M301 736l94 111h124l-140 -111h-78zM467 736l93 111h124l-139 -111h-78zM655 292q-5 -26 -8.5 -44.5t-9.5 -41.5q-12 -50 -35 -91t-60.5 -69.5t-90.5 -44t-125 -15.5q-128 0 -190.5 54.5t-62.5 143.5q0 26 3 51t10 66l69 389h138l-74 -420q-5 -25 -6.5 -39.5t-1.5 -31.5
q0 -53 34 -81.5t93 -28.5q66 0 106 28.5t58 99.5q3 11 5.5 23t5.5 27l74 423h138z" />
    <glyph glyph-name="uhungarumlaut" unicode="&#x171;" horiz-adv-x="617" 
d="M231 574l98 118h124l-144 -118h-78zM500 692h124l-144 -118h-78zM600 532l-93 -532h-138l15 82l-53 -59q-32 -20 -64 -28.5t-71 -8.5q-81 0 -121 38t-40 99q0 21 2 43t10 63l55 303h138l-51 -279q-5 -29 -7.5 -50.5t-2.5 -36.5q0 -37 18.5 -60t66.5 -22q52 1 94.5 48.5
t62.5 158.5l42 241h137z" />
    <glyph glyph-name="Uogonek" unicode="&#x172;" horiz-adv-x="703" 
d="M655 292q-5 -26 -8.5 -44.5t-9.5 -41.5q-20 -86 -75 -142.5t-159 -72.5q-26 -14 -41.5 -42t-15.5 -51t10 -32t26 -9q27 0 52 18l-11 -58q-22 -18 -53 -29t-68 -11q-38 0 -65 17t-27 59q0 80 86 134q-114 7 -168.5 59.5t-54.5 137.5q0 26 3 51t10 66l69 389h138l-74 -420
q-5 -25 -6.5 -39.5t-1.5 -31.5q0 -53 34 -81.5t93 -28.5q66 0 106 28.5t58 99.5q3 11 5.5 23t5.5 27l74 423h138z" />
    <glyph glyph-name="uogonek" unicode="&#x173;" horiz-adv-x="617" 
d="M479 0q-19 -2 -34.5 -12.5t-27 -25.5t-17.5 -32t-6 -32q0 -23 10 -32t26 -9q27 0 52 18l-11 -58q-22 -18 -53 -29t-68 -11q-38 0 -65 17t-27 59q0 45 28.5 83t82.5 65l15 81l-53 -59q-32 -20 -64 -28.5t-71 -8.5q-81 0 -121 38t-40 99q0 21 2 43t10 63l55 303h138
l-51 -279q-5 -29 -7.5 -50.5t-2.5 -36.5q0 -37 18.5 -60t66.5 -22q52 1 94.5 48.5t62.5 158.5l42 241h137l-93 -532h-28z" />
    <glyph glyph-name="Wcircumflex" unicode="&#x174;" horiz-adv-x="988" 
d="M475 735l84 112h108l45 -112h-87l-20 64l-43 -64h-87zM763 0h-183l-21 555l-219 -555h-184l-55 690h145l24 -569l213 559h197l13 -565l221 575h152z" />
    <glyph glyph-name="wcircumflex" unicode="&#x175;" horiz-adv-x="806" 
d="M342 574l85 118h108l44 -118h-86l-21 69l-45 -69h-85zM602 0h-157l-18 406l-162 -406h-157l-75 532h153l22 -409l157 407h167l19 -409l165 411h149z" />
    <glyph glyph-name="Ycircumflex" unicode="&#x176;" horiz-adv-x="637" 
d="M299 735l84 112h108l45 -112h-87l-20 64l-43 -64h-87zM356 0h-138l48 269l-169 421h146l113 -305l210 305h155l-318 -426z" />
    <glyph glyph-name="ycircumflex" unicode="&#x177;" horiz-adv-x="544" 
d="M204 574l85 118h108l44 -118h-86l-21 69l-45 -69h-85zM303 0q-34 -60 -63.5 -100t-60.5 -64.5t-65 -35t-76 -10.5q-17 0 -31.5 1.5t-28.5 3.5l16 94q21 -3 42 -3q34 0 59.5 16.5t47.5 58.5l6 12l-116 559h154l57 -421l205 421h153z" />
    <glyph glyph-name="Ydieresis" unicode="&#x178;" horiz-adv-x="637" 
d="M332 729q-26 0 -40.5 14t-14.5 37q0 32 22 51t48 19q25 0 39.5 -13.5t14.5 -37.5q0 -32 -22 -51t-47 -19zM505 729q-26 0 -40.5 14t-14.5 37q0 32 22 51t48 19q25 0 39.5 -13.5t14.5 -37.5q0 -32 -22 -51t-47 -19zM356 0h-138l48 269l-169 421h146l113 -305l210 305h155
l-318 -426z" />
    <glyph glyph-name="Zacute" unicode="&#x179;" horiz-adv-x="622" 
d="M364 735l93 112h124l-139 -112h-78zM195 109h374l-20 -109h-546l18 105l456 477h-344l20 108h513l-19 -107z" />
    <glyph glyph-name="zacute" unicode="&#x17a;" horiz-adv-x="512" 
d="M263 574l99 118h124l-145 -118h-78zM161 92h292l-16 -92h-457l15 87l349 349h-264l15 92h428l-16 -91z" />
    <glyph glyph-name="Zdotaccent" unicode="&#x17b;" horiz-adv-x="622" 
d="M410 729q-29 0 -45.5 16t-16.5 43q0 29 22 54t60 25q29 0 45.5 -16t16.5 -43q0 -29 -21.5 -54t-60.5 -25zM195 109h374l-20 -109h-546l18 105l456 477h-344l20 108h513l-19 -107z" />
    <glyph glyph-name="zdotaccent" unicode="&#x17c;" horiz-adv-x="512" 
d="M314 584q-31 0 -48.5 16.5t-17.5 45.5q0 32 22 58t64 26q31 0 48.5 -17t17.5 -45q0 -32 -22 -58t-64 -26zM161 92h292l-16 -92h-457l15 87l349 349h-264l15 92h428l-16 -91z" />
    <glyph glyph-name="Zcaron" unicode="&#x17d;" horiz-adv-x="622" 
d="M310 847h87l20 -65l44 65h87l-84 -112h-109zM195 109h374l-20 -109h-546l18 105l456 477h-344l20 108h513l-19 -107z" />
    <glyph glyph-name="zcaron" unicode="&#x17e;" horiz-adv-x="512" 
d="M212 692h86l20 -67l46 67h85l-86 -118h-108zM161 92h292l-16 -92h-457l15 87l349 349h-264l15 92h428l-16 -91z" />
    <glyph glyph-name="Scommaaccent" unicode="&#x218;" horiz-adv-x="599" 
d="M371 704q62 0 105.5 -16.5t71 -46t39.5 -69t9 -85.5h-140q3 53 -23 83.5t-80 30.5q-48 0 -79 -25t-31 -73q0 -35 29.5 -57.5t99.5 -39.5q96 -23 141.5 -69t45.5 -118q0 -56 -24 -99.5t-64.5 -73t-94 -45t-113.5 -15.5q-58 0 -106 13.5t-80.5 41t-48.5 68.5t-12 95h140
q2 -57 36 -86t88 -29t91.5 27.5t37.5 76.5q0 35 -28 59.5t-92 41.5q-45 11 -81 26t-61.5 36t-39 49t-13.5 65q0 56 23 99.5t61 73.5t88 45.5t105 15.5zM211 -207h-75l80 164h99v-9z" />
    <glyph glyph-name="scommaaccent" unicode="&#x219;" horiz-adv-x="486" 
d="M269 544q53 0 90.5 -12.5t62 -35t37 -53.5t13.5 -67h-137q-4 37 -21.5 57t-49.5 20q-37 0 -54 -17.5t-17 -41.5q0 -31 23 -48t79 -35q78 -25 115 -61.5t37 -99.5q0 -39 -16.5 -70.5t-47 -53.5t-73 -34t-95.5 -12q-111 0 -166.5 49.5t-59.5 126.5h138q5 -47 31 -66t64 -19
q35 0 57.5 17t22.5 49q0 29 -24 48t-88 41q-32 11 -58 23t-45 29.5t-29 41.5t-10 57q0 34 14 64t42 53t69 36.5t96 13.5zM142 -207h-75l80 164h99v-9z" />
    <glyph glyph-name="uni021A" unicode="&#x21a;" horiz-adv-x="623" 
d="M451 582l-103 -582h-138l103 582h-235l20 108h606l-20 -108h-233zM332 -43v-9l-104 -155h-75l80 164h99z" />
    <glyph glyph-name="uni021B" unicode="&#x21b;" horiz-adv-x="354" 
d="M207 191q-4 -23 -5.5 -35t-1.5 -23q0 -32 23 -41t72 -2l-16 -91q-44 -10 -98 -10q-66 0 -96 22t-30 69q0 15 2.5 37.5t9.5 57.5l47 262h-76l16 91h76l23 131h137l-23 -131h105l-16 -91h-105zM201 -43v-9l-104 -155h-75l80 164h99z" />
    <glyph glyph-name="circumflex" unicode="&#x2c6;" horiz-adv-x="300" 
d="M153 643l-45 -69h-85l85 118h108l44 -118h-86z" />
    <glyph glyph-name="caron" unicode="&#x2c7;" horiz-adv-x="300" 
d="M194 574h-108l-43 118h86l20 -67l46 67h85z" />
    <glyph glyph-name="breve" unicode="&#x2d8;" horiz-adv-x="300" 
d="M282 693q-12 -66 -51 -96t-93 -30q-35 0 -56 11t-31.5 28.5t-12 40t2.5 46.5h74q-3 -23 3 -39t33 -16q44 0 57 55h74z" />
    <glyph glyph-name="dotaccent" unicode="&#x2d9;" horiz-adv-x="300" 
d="M162 730q31 0 48.5 -17t17.5 -45q0 -32 -22 -58t-64 -26q-31 0 -48.5 16.5t-17.5 45.5q0 32 22 58t64 26z" />
    <glyph glyph-name="ring" unicode="&#x2da;" horiz-adv-x="300" 
d="M166 759q42 0 67 -21.5t25 -59.5q0 -48 -34.5 -80t-88.5 -32q-43 0 -68 21.5t-25 59.5q0 48 34.5 80t89.5 32zM157 707q-23 0 -34.5 -18t-11.5 -38q0 -32 32 -32q23 0 34.5 17.5t11.5 37.5q0 33 -32 33z" />
    <glyph glyph-name="ogonek" unicode="&#x2db;" horiz-adv-x="300" 
d="M265 0q-19 -2 -34.5 -12.5t-27 -25.5t-17.5 -32t-6 -32q0 -23 10 -32t26 -9q27 0 52 18l-11 -58q-22 -18 -53 -29t-68 -11q-38 0 -65 17t-27 59q0 48 32 88t94 67z" />
    <glyph glyph-name="tilde" unicode="&#x2dc;" horiz-adv-x="300" 
d="M89 690q17 0 32 -3t41 -14q17 -7 27 -9.5t18 -2.5q16 0 20 26h70q-11 -58 -30.5 -82t-55.5 -24q-16 0 -31.5 3.5t-41.5 14.5q-17 6 -26.5 9t-17.5 3q-17 0 -21 -26h-70q11 57 30.5 81t55.5 24z" />
    <glyph glyph-name="hungarumlaut" unicode="&#x2dd;" horiz-adv-x="300" 
d="M-1 574l98 118h124l-144 -118h-78zM170 574l98 118h124l-144 -118h-78z" />
    <glyph glyph-name="uni0326" unicode="&#x326;" horiz-adv-x="0" 
d="M121 -207h-75l80 164h99v-9z" />
    <glyph glyph-name="Wgrave" unicode="&#x1e80;" horiz-adv-x="988" 
d="M462 847h124l55 -112h-78zM763 0h-183l-21 555l-219 -555h-184l-55 690h145l24 -569l213 559h197l13 -565l221 575h152z" />
    <glyph glyph-name="wgrave" unicode="&#x1e81;" horiz-adv-x="806" 
d="M329 692h124l57 -118h-78zM602 0h-157l-18 406l-162 -406h-157l-75 532h153l22 -409l157 407h167l19 -409l165 411h149z" />
    <glyph glyph-name="Wacute" unicode="&#x1e82;" horiz-adv-x="988" 
d="M549 735l93 112h124l-139 -112h-78zM763 0h-183l-21 555l-219 -555h-184l-55 690h145l24 -569l213 559h197l13 -565l221 575h152z" />
    <glyph glyph-name="wacute" unicode="&#x1e83;" horiz-adv-x="806" 
d="M412 574l99 118h124l-145 -118h-78zM602 0h-157l-18 406l-162 -406h-157l-75 532h153l22 -409l157 407h167l19 -409l165 411h149z" />
    <glyph glyph-name="Wdieresis" unicode="&#x1e84;" horiz-adv-x="988" 
d="M509 729q-26 0 -40.5 14t-14.5 37q0 32 22 51t48 19q25 0 39.5 -13.5t14.5 -37.5q0 -32 -22 -51t-47 -19zM682 729q-26 0 -40.5 14t-14.5 37q0 32 22 51t48 19q25 0 39.5 -13.5t14.5 -37.5q0 -32 -22 -51t-47 -19zM763 0h-183l-21 555l-219 -555h-184l-55 690h145
l24 -569l213 559h197l13 -565l221 575h152z" />
    <glyph glyph-name="wdieresis" unicode="&#x1e85;" horiz-adv-x="806" 
d="M369 575q-26 0 -40.5 14t-14.5 37q0 32 22.5 51.5t47.5 19.5q26 0 40.5 -13.5t14.5 -37.5q0 -32 -22.5 -51.5t-47.5 -19.5zM544 575q-26 0 -40 14t-14 37q0 32 22 51.5t48 19.5q25 0 39.5 -13.5t14.5 -37.5q0 -32 -22 -51.5t-48 -19.5zM602 0h-157l-18 406l-162 -406
h-157l-75 532h153l22 -409l157 407h167l19 -409l165 411h149z" />
    <glyph glyph-name="Ygrave" unicode="&#x1ef2;" horiz-adv-x="637" 
d="M286 847h124l55 -112h-78zM356 0h-138l48 269l-169 421h146l113 -305l210 305h155l-318 -426z" />
    <glyph glyph-name="ygrave" unicode="&#x1ef3;" horiz-adv-x="544" 
d="M191 692h124l57 -118h-78zM303 0q-34 -60 -63.5 -100t-60.5 -64.5t-65 -35t-76 -10.5q-17 0 -31.5 1.5t-28.5 3.5l16 94q21 -3 42 -3q34 0 59.5 16.5t47.5 58.5l6 12l-116 559h154l57 -421l205 421h153z" />
    <glyph glyph-name="endash" unicode="&#x2013;" horiz-adv-x="500" 
d="M74 252l14 78h338l-14 -78h-338z" />
    <glyph glyph-name="emdash" unicode="&#x2014;" horiz-adv-x="1000" 
d="M74 252l14 78h838l-14 -78h-838z" />
    <glyph glyph-name="quoteleft" unicode="&#x2018;" horiz-adv-x="257" 
d="M216 690h112l-125 -262h-134l1 11z" />
    <glyph glyph-name="quoteright" unicode="&#x2019;" horiz-adv-x="257" 
d="M146 428h-112l125 262h134l-1 -11z" />
    <glyph glyph-name="quotesinglbase" unicode="&#x201a;" horiz-adv-x="261" 
d="M18 -122h-113l126 262h134l-1 -11z" />
    <glyph glyph-name="quotedblleft" unicode="&#x201c;" horiz-adv-x="471" 
d="M216 690h112l-125 -262h-134l1 11zM430 690h112l-125 -262h-134l1 11z" />
    <glyph glyph-name="quotedblright" unicode="&#x201d;" horiz-adv-x="471" 
d="M146 428h-112l125 262h134l-1 -11zM360 428h-112l125 262h134l-1 -11z" />
    <glyph glyph-name="quotedblbase" unicode="&#x201e;" horiz-adv-x="475" 
d="M18 -122h-113l126 262h134l-1 -11zM232 -122h-113l126 262h134l-1 -11z" />
    <glyph glyph-name="dagger" unicode="&#x2020;" horiz-adv-x="582" 
d="M349 360l-81 -520h-135l103 520l-181 -6l21 118l179 -6l28 224h135l-50 -224l179 6l-21 -118z" />
    <glyph glyph-name="daggerdbl" unicode="&#x2021;" horiz-adv-x="552" 
d="M308 170l181 6l-20 -118l-179 6l-28 -224h-135l50 224l-179 -6l20 118l179 -6l34 190l-181 -6l20 118l179 -6l28 224h135l-50 -224l179 6l-20 -118l-179 6z" />
    <glyph glyph-name="bullet" unicode="&#x2022;" horiz-adv-x="379" 
d="M210 423q45 0 73 -24t28 -68q0 -31 -10.5 -57t-29 -45.5t-44.5 -30.5t-58 -11q-45 0 -73 24t-28 68q0 31 10.5 57t29.5 45.5t45 30.5t57 11z" />
    <glyph glyph-name="ellipsis" unicode="&#x2026;" horiz-adv-x="771" 
d="M94 154q30 0 50 -17.5t20 -49.5q0 -46 -28 -73.5t-72 -27.5q-30 0 -50 17.5t-20 48.5q0 46 28 74t72 28zM349 154q30 0 50 -17.5t20 -49.5q0 -46 -28 -73.5t-72 -27.5q-30 0 -50 17.5t-20 48.5q0 46 28 74t72 28zM604 154q30 0 50 -17.5t20 -49.5q0 -46 -28 -73.5
t-72 -27.5q-30 0 -50 17.5t-20 48.5q0 46 28 74t72 28z" />
    <glyph glyph-name="perthousand" unicode="&#x2030;" horiz-adv-x="1111" 
d="M215 375q-63 0 -100.5 36.5t-37.5 100.5q0 36 11 70.5t33.5 61.5t56 43.5t78.5 16.5q63 0 100.5 -36.5t37.5 -100.5q0 -36 -11 -70.5t-33.5 -61.5t-56 -43.5t-78.5 -16.5zM178 0h-121l568 690h120zM247 631q-32 0 -52 -34.5t-20 -85.5q0 -63 48 -63q32 0 52.5 34.5
t20.5 85.5q0 63 -49 63zM588 315q63 0 100 -36.5t37 -100.5q0 -36 -11 -70.5t-33.5 -61.5t-56 -43.5t-78.5 -16.5q-63 0 -100 36.5t-37 100.5q0 36 11 70.5t33.5 61.5t56 43.5t78.5 16.5zM924 315q63 0 100.5 -36.5t37.5 -100.5q0 -36 -11 -70.5t-33.5 -61.5t-56 -43.5
t-78.5 -16.5q-63 0 -100.5 36.5t-37.5 100.5q0 36 11 70.5t33.5 61.5t56 43.5t78.5 16.5zM555 59q32 0 52.5 34.5t20.5 85.5q0 63 -49 63q-32 0 -52.5 -34.5t-20.5 -85.5q0 -63 49 -63zM891 59q32 0 52.5 34.5t20.5 85.5q0 63 -49 63q-32 0 -52 -34.5t-20 -85.5
q0 -63 48 -63z" />
    <glyph glyph-name="guilsinglleft" unicode="&#x2039;" horiz-adv-x="411" 
d="M320 82h-101l-108 166l166 166h115l-175 -175z" />
    <glyph glyph-name="guilsinglright" unicode="&#x203a;" horiz-adv-x="418" 
d="M127 82h-115l175 175l-102 157h100l108 -166z" />
    <glyph glyph-name="fraction" unicode="&#x2044;" horiz-adv-x="263" 
d="M-202 0l568 690h115l-568 -690h-115z" />
    <glyph glyph-name="Euro" unicode="&#x20ac;" 
d="M440 601q-75 0 -120 -41.5t-67 -111.5h250l-25 -78h-242q-2 -13 -3 -25.5t-2 -26.5h231l-23 -78h-208q3 -43 14.5 -72t29.5 -46.5t42 -25t53 -7.5q46 0 84 10t75 30l-19 -105q-41 -20 -82 -29t-98 -9q-52 0 -95.5 13.5t-75.5 43.5t-50.5 78.5t-21.5 118.5h-83l24 78h60
q2 27 6 52h-50l24 78h43q16 52 43 98.5t68 81.5t97.5 55.5t131.5 20.5q65 0 107.5 -17t65.5 -45l-66 -86q-48 45 -118 45z" />
    <glyph glyph-name="trademark" unicode="&#x2122;" horiz-adv-x="538" 
d="M132 456h-56l28 161h-72l7 43h201l-7 -43h-73zM468 456h-56l27 142l-61 -138h-57l-13 137l-24 -141h-56l36 203h84l11 -147l61 147h84z" />
    <glyph glyph-name="partialdiff" unicode="&#x2202;" 
d="M365 758q61 0 104.5 -19t71.5 -54t41 -85.5t13 -112.5q0 -88 -15.5 -177.5t-53.5 -161.5t-101.5 -117t-159.5 -45q-50 0 -91.5 12.5t-71 39t-46 67t-16.5 95.5q0 59 16 113.5t50.5 97.5t87.5 68.5t127 25.5q55 0 85 -17t44 -44q1 14 1.5 26t0.5 24q0 78 -27.5 120
t-94.5 42q-42 0 -75.5 -11.5t-68.5 -34.5l-32 87q54 32 101.5 46.5t109.5 14.5zM280 88q31 0 56 17.5t44.5 49.5t33 77t22.5 99q-12 40 -40.5 55.5t-70.5 15.5q-36 0 -62.5 -17t-43 -45.5t-24.5 -65t-8 -75.5q0 -55 25 -83t68 -28z" />
    <glyph glyph-name="emptyset" unicode="&#x2205;" horiz-adv-x="838" 
d="M732 600q39 -51 61 -113t22 -132q0 -84 -31 -157t-85 -126.5t-126 -84.5t-154 -31q-70 0 -132.5 22.5t-113.5 62.5l-90 -90l-57 57l89 89q-43 52 -67.5 117.5t-24.5 140.5q0 84 31 157t85 126.5t126 84.5t154 31q74 0 139.5 -25t118.5 -70l78 78l57 -57zM111 355
q0 -57 17 -107t47 -91l443 443q-40 35 -91 55t-108 20q-64 0 -120 -24.5t-98 -68t-66 -101.5t-24 -126zM419 35q64 0 120 24.5t98 67.5t66 101.5t24 126.5q0 52 -14.5 99t-40.5 86l-440 -440q39 -31 86.5 -48t100.5 -17z" />
    <glyph glyph-name="product" unicode="&#x220f;" 
d="M571 582l-123 -692h-138l123 692h-163l-123 -692h-138l123 692h-60l20 108h557l-20 -108h-58z" />
    <glyph glyph-name="summation" unicode="&#x2211;" 
d="M272 582l178 -285l-307 -299h368l-20 -108h-528l19 101l313 310l-178 288l19 101h491l-20 -108h-335z" />
    <glyph glyph-name="minus" unicode="&#x2212;" 
d="M87 279l13 78h437l-13 -78h-437z" />
    <glyph glyph-name="radical" unicode="&#x221a;" 
d="M281 -160h-107l-57 396h-75l13 74h141l47 -376l338 846h86z" />
    <glyph glyph-name="infinity" unicode="&#x221e;" horiz-adv-x="1017" 
d="M774 544q106 0 162 -63t56 -174q0 -55 -18 -112.5t-54.5 -103.5t-93.5 -75.5t-135 -29.5t-131.5 31t-79.5 103q-51 -72 -106 -103t-129 -31q-105 0 -162.5 63t-57.5 174q0 56 18 113t55.5 103t94.5 75.5t136 29.5q78 0 132.5 -30.5t80.5 -102.5q50 72 104.5 102.5
t127.5 30.5zM430 265q2 100 -27 141t-79 41q-39 0 -67.5 -22t-47.5 -55t-28 -71.5t-9 -70.5q0 -69 25.5 -107t73.5 -38q22 0 44 10t43 31.5t39.5 56.5t32.5 84zM696 83q39 0 67 22t46 55t27 71.5t9 70.5q0 69 -24.5 107t-71.5 38q-22 0 -44 -10t-43 -31.5t-39 -56t-32 -84.5
q-2 -100 26 -141t79 -41z" />
    <glyph glyph-name="integral" unicode="&#x222b;" 
d="M445 754q26 0 46 -4.5t37 -17.5l-29 -74q-14 11 -27 14.5t-32 3.5q-29 0 -48 -13.5t-30.5 -36t-16 -53t-4.5 -63.5q0 -42 4.5 -89t14.5 -117q9 -65 13.5 -114.5t4.5 -103.5q0 -51 -10.5 -96t-33.5 -78t-59.5 -52.5t-88.5 -19.5q-26 0 -46 4.5t-37 17.5l28 74
q14 -11 27.5 -14.5t32.5 -3.5q29 0 48.5 13.5t30.5 36t15.5 53t4.5 63.5q0 42 -4.5 89t-14.5 117q-10 65 -14 114.5t-4 103.5q0 51 10.5 96t33.5 78t59.5 52.5t88.5 19.5z" />
    <glyph glyph-name="approxequal" unicode="&#x2248;" horiz-adv-x="599" 
d="M224 470q30 0 52.5 -10t59.5 -31q32 -19 50 -27t37 -8q25 0 45.5 11.5t42.5 35.5l44 -49q-36 -46 -71.5 -64.5t-75.5 -18.5q-31 0 -53.5 9.5t-59.5 31.5q-32 19 -49.5 27t-37.5 8q-46 0 -88 -48l-43 52q36 45 71.5 63t75.5 18zM192 288q30 0 53 -10t59 -31q32 -19 50 -27
t38 -8q24 0 44.5 11.5t42.5 35.5l43 -49q-36 -46 -71 -64.5t-76 -18.5q-30 0 -52.5 9.5t-59.5 31.5q-32 19 -49.5 27t-37.5 8q-24 0 -44.5 -11.5t-43.5 -36.5l-43 52q36 45 71.5 63t75.5 18z" />
    <glyph glyph-name="notequal" unicode="&#x2260;" 
d="M303 253h229l-13 -74h-268l-71 -100h-87l70 100h-102l13 74h142l88 126h-208l13 74h248l70 100h88l-71 -100h123l-12 -74h-163z" />
    <glyph glyph-name="lessequal" unicode="&#x2264;" 
d="M189 313l328 -113l-15 -88l-405 150l19 105l457 150l-16 -92zM496 78l-14 -78h-431l14 78h431z" />
    <glyph glyph-name="greaterequal" unicode="&#x2265;" 
d="M514 262l-452 -150l16 93l363 111l-323 114l15 87l400 -150zM481 78l-13 -78h-426l14 78h425z" />
    <glyph glyph-name="lozenge" unicode="&#x25ca;" horiz-adv-x="535" 
d="M263 0h-113l-101 345l223 345h113l101 -345zM313 601l-161 -256l70 -256l161 256z" />
    <glyph glyph-name="a.alt" horiz-adv-x="648" 
d="M539 0h-138l14 81l-50 -58q-25 -17 -61 -27t-77 -10q-100 0 -152.5 57t-52.5 156q0 65 19.5 127.5t58.5 111.5t98.5 78.5t138.5 29.5q33 0 67.5 -9t52.5 -25l24 -55l13 75h138zM452 286q5 31 2.5 60.5t-15.5 52t-36.5 36.5t-60.5 14q-40 0 -72 -19.5t-54.5 -52t-34.5 -74
t-12 -86.5q0 -65 27.5 -99.5t81.5 -34.5q29 0 55.5 9.5t49 30.5t39 55t25.5 82z" />
    <glyph glyph-name="braceleft.001" horiz-adv-x="373" 
d="M381 702h-18q-23 0 -39.5 -4.5t-26.5 -19t-14 -42t-4 -72.5q1 -46 -3.5 -82.5t-17 -63.5t-34.5 -44.5t-57 -23.5q71 -14 71 -77q0 -24 -7 -54.5t-27 -82.5q-10 -25 -16 -42t-9.5 -28t-4.5 -18.5t-1 -15.5q0 -19 15.5 -26.5t50.5 -7.5h17l-13 -78h-33q-60 0 -90 25t-30 72
q0 12 1.5 22.5t5.5 24.5t11 33.5t18 48.5q17 43 22.5 70t5.5 44q0 20 -14.5 34t-56.5 17l14 78q30 2 49.5 9t31 25t16 49t4.5 82q0 67 7.5 110.5t26 69t50.5 36t80 10.5h33z" />
    </font>
</defs>
</svg>
