<?xml version="1.0" standalone="no"?>
<!DOCTYPE svg PUBLIC "-//W3C//DTD SVG 1.1//EN" "http://www.w3.org/Graphics/SVG/1.1/DTD/svg11.dtd" >
<svg xmlns="http://www.w3.org/2000/svg" xmlns:xlink="http://www.w3.org/1999/xlink" version="1.1">
<metadata>
Created by FontForge 20170910 at Thu Feb 12 23:39:25 2015
 By jimmywarting
No Rights Reserved.
</metadata>
<defs>
<font id="Aileron-Italic" horiz-adv-x="580" >
  <font-face 
    font-family="Aileron"
    font-weight="400"
    font-style="italic"
    font-stretch="normal"
    units-per-em="1000"
    panose-1="0 0 5 0 0 0 0 0 0 0"
    ascent="770"
    descent="-230"
    x-height="526"
    cap-height="690"
    bbox="-207 -223 1130 895"
    underline-thickness="50"
    underline-position="-100"
    slope="-10"
    unicode-range="U+000D-FB02"
  />
<missing-glyph horiz-adv-x="561" 
d="M61 700h500v-700h-500v700zM481 650h-340l170 -255zM511 95v510l-170 -255zM481 50l-170 255l-170 -255h340zM111 95l170 255l-170 255v-510z" />
    <glyph glyph-name="fi" unicode="fi" horiz-adv-x="521" 
d="M401 0h-86l80 460h-193l-81 -460h-86l81 460h-47l11 66h48l2 14q2 15 6 32.5t8 31.5q21 73 80 111.5t162 38.5q17 0 32 -1.5t29 -3.5l-13 -71q-98 9 -143.5 -10t-60.5 -66q-4 -11 -7.5 -27t-5.5 -27l-4 -22h280z" />
    <glyph glyph-name="fl" unicode="fl" horiz-adv-x="532" 
d="M413 100q0 -41 58 -37l-11 -63q-15 -2 -31 -3t-31 -1q-34 0 -55.5 13t-21.5 52q0 11 2.5 29t10.5 59l94 533q-28 6 -58 6q-63 0 -96 -24.5t-45 -61.5q-3 -11 -6.5 -27t-5.5 -27l-4 -22h109l-12 -66h-109l-81 -460h-86l81 460h-47l12 66h47l2 14l6.5 32.5t7.5 31.5
q21 73 81 111.5t162 38.5q39 0 75 -5t62 -14l-103 -583q-4 -20 -5.5 -31.5t-1.5 -20.5z" />
    <glyph glyph-name=".notdef" horiz-adv-x="561" 
d="M61 700h500v-700h-500v700zM481 650h-340l170 -255zM511 95v510l-170 -255zM481 50l-170 255l-170 -255h340zM111 95l170 255l-170 255v-510z" />
    <glyph glyph-name=".null" horiz-adv-x="0" 
 />
    <glyph glyph-name=".null" horiz-adv-x="0" 
 />
    <glyph glyph-name="nonmarkingreturn" unicode="&#xd;" horiz-adv-x="250" 
 />
    <glyph glyph-name="space" unicode=" " horiz-adv-x="196" 
 />
    <glyph glyph-name="exclam" unicode="!" horiz-adv-x="260" 
d="M75 180l88 510h102l-112 -510h-78zM103 114q25 0 39.5 -14t14.5 -37q0 -33 -22.5 -55t-53.5 -22q-25 0 -39.5 14t-14.5 37q0 33 22.5 55t53.5 22z" />
    <glyph glyph-name="quotedbl" unicode="&#x22;" horiz-adv-x="277" 
d="M41 485l34 250h90l-54 -250h-70zM181 485l34 250h90l-54 -250h-70z" />
    <glyph glyph-name="numbersign" unicode="#" 
d="M382 275h102l-10 -56h-114l-85 -219h-58l85 219h-91l-85 -219h-58l85 219h-89l10 56h101l55 140h-102l10 56h114l85 219h58l-85 -219h91l85 219h58l-85 -219h89l-10 -56h-101zM288 415l-55 -140h91l55 140h-91z" />
    <glyph glyph-name="dollar" unicode="$" 
d="M322 391q90 -30 133.5 -78t43.5 -123q0 -46 -18 -83t-50.5 -63t-78.5 -41t-102 -17l-13 -76h-58l14 79q-46 6 -79 23t-54.5 43t-32.5 59.5t-13 71.5h92q4 -51 27.5 -84.5t71.5 -43.5l45 255q-36 11 -66.5 25.5t-52.5 35.5t-34 50t-12 70q0 36 14 72.5t42.5 66.5t73 49.5
t105.5 21.5l13 76h58l-14 -79q40 -6 70 -23.5t49.5 -43t29.5 -57.5t11 -68h-92q-2 47 -22.5 79t-57.5 43zM179 504q0 -41 23.5 -63t64.5 -36l40 230q-33 -3 -57 -14.5t-39.5 -29.5t-23.5 -40.5t-8 -46.5zM263 54q69 4 105.5 35.5t36.5 95.5q0 45 -23.5 71.5t-74.5 44.5z" />
    <glyph glyph-name="percent" unicode="%" horiz-adv-x="740" 
d="M214 386q-60 0 -95 36t-35 94q0 35 10.5 68.5t32 60t54 43t76.5 16.5q60 0 95 -36t35 -94q0 -35 -10.5 -68.5t-32 -60t-54 -43t-76.5 -16.5zM147 0h-93l567 690h93zM250 644q-36 0 -58.5 -36.5t-22.5 -96.5q0 -29 12 -47t40 -18q36 0 58.5 36.5t22.5 96.5q0 29 -12 47
t-40 18zM554 304q60 0 95 -36t35 -94q0 -35 -10.5 -68.5t-32 -60t-54 -43t-76.5 -16.5q-60 0 -95 36t-35 94q0 35 10.5 68.5t32 60t54 43t76.5 16.5zM518 46q36 0 58.5 36.5t22.5 96.5q0 29 -12 47t-40 18q-36 0 -58.5 -36.5t-22.5 -96.5q0 -29 12 -47t40 -18z" />
    <glyph glyph-name="ampersand" unicode="&#x26;" horiz-adv-x="659" 
d="M620 315h-96l-54 -308q-45 -10 -93.5 -15.5t-99.5 -5.5t-95.5 7.5t-77.5 26t-52 50t-19 79.5q0 38 14 71.5t39.5 60.5t61 45.5t78.5 26.5q-48 13 -76.5 47.5t-28.5 91.5q0 48 22 87t60 67t89.5 43t110.5 15q37 0 63.5 -2.5t54.5 -7.5l-12 -69q-30 6 -57 8.5t-64 2.5
q-78 0 -124 -38t-46 -114q0 -54 31.5 -74.5t79.5 -23.5q14 -1 29.5 -1h32.5h60l19 112h86l-19 -112h96zM378 315h-31.5t-29.5 -2q-100 -9 -142.5 -52t-42.5 -103q0 -57 38.5 -80.5t120.5 -23.5q30 0 53 2t49 7l45 252h-60z" />
    <glyph glyph-name="quotesingle" unicode="'" horiz-adv-x="137" 
d="M41 485l34 250h90l-54 -250h-70z" />
    <glyph glyph-name="parenleft" unicode="(" horiz-adv-x="315" 
d="M160 -80q-29 59 -44 131t-15 151q0 67 12.5 141.5t39 150t66 149t93.5 137.5h58q-54 -70 -93 -144t-63.5 -148t-36.5 -146t-12 -138q0 -155 53 -284h-58z" />
    <glyph glyph-name="parenright" unicode=")" horiz-adv-x="315" 
d="M185 780q29 -59 44 -131t15 -151q0 -67 -12.5 -141.5t-39 -150t-66 -149t-93.5 -137.5h-58q54 70 93 144t63.5 148t36.5 146t12 138q0 155 -53 284h58z" />
    <glyph glyph-name="asterisk" unicode="*" horiz-adv-x="530" 
d="M455 357l8 -59l-165 -42l88 -137l-57 -37l-72 150l-126 -150l-43 37l135 137l-150 42l30 59l143 -60l23 178h62l-40 -177z" />
    <glyph glyph-name="plus" unicode="+" 
d="M304 287l-36 -202h-58l36 202h-181l10 56h181l36 206h58l-36 -206h181l-10 -56h-181z" />
    <glyph glyph-name="comma" unicode="," horiz-adv-x="233" 
d="M-6 -120h-81l117 220h94l-2 -12z" />
    <glyph glyph-name="hyphen" unicode="-" horiz-adv-x="274" 
d="M27 255l10 56h210l-10 -56h-210z" />
    <glyph glyph-name="period" unicode="." horiz-adv-x="233" 
d="M75 114q25 0 39 -15t14 -38q0 -33 -22 -54t-53 -21q-25 0 -39 15t-14 38q0 33 22 54t53 21z" />
    <glyph glyph-name="slash" unicode="/" horiz-adv-x="303" 
d="M-57 -30l383 750h62l-383 -750h-62z" />
    <glyph glyph-name="zero" unicode="0" 
d="M327 704q59 0 101.5 -20t69.5 -55t40 -82.5t13 -101.5q0 -46 -6 -97.5t-20.5 -102.5t-37.5 -98t-56 -82.5t-78 -57t-102 -21.5q-59 0 -101.5 20t-69.5 55.5t-40 83t-13 101.5q0 46 6.5 97.5t20.5 102.5t37 97.5t56 82.5t78 57t102 21zM253 54q40 0 70.5 21t53 54.5
t37.5 76t24 86t13 83.5t4 69q0 42 -7.5 77.5t-23.5 61t-40.5 39.5t-58.5 14q-40 0 -70.5 -20.5t-53 -54t-37.5 -76t-24 -85.5t-13 -83.5t-4 -69.5q0 -42 7.5 -77.5t23.5 -61t40.5 -40t58.5 -14.5z" />
    <glyph glyph-name="one" unicode="1" 
d="M342 0h-86l106 600l-210 -114l16 91l162 91q23 13 42 17.5t37 4.5h55z" />
    <glyph glyph-name="two" unicode="2" 
d="M488 70l-12 -70h-463l9 49l295 255q42 36 71.5 65.5t49 56.5t28.5 53t9 55q0 48 -25 75t-79 27q-67 0 -108 -36t-61 -116l-2 -10h-86l2 10q29 116 101.5 168t175.5 52q47 0 80.5 -12.5t56 -34.5t33 -50.5t10.5 -61.5t-11.5 -65.5t-37 -68.5t-67.5 -77.5t-104 -92.5
l-202 -171h337z" />
    <glyph glyph-name="three" unicode="3" 
d="M415 366q53 -16 82 -52.5t29 -91.5t-23 -99t-63 -74.5t-92.5 -46.5t-111.5 -16q-49 0 -88 11.5t-65.5 36.5t-39 64.5t-8.5 95.5l1 10h86l-1 -10q-5 -73 33.5 -106.5t101.5 -33.5q36 0 67.5 10.5t54.5 31t36.5 49.5t13.5 65q0 50 -34.5 77t-109.5 27h-17l13 70h17
q35 0 66.5 10.5t55.5 30.5t38 48.5t14 64.5q0 44 -28 71t-76 27q-62 0 -107 -32.5t-59 -102.5l-2 -10h-86l2 10q19 96 90.5 149.5t184.5 53.5q85 0 132 -41t47 -107q0 -35 -12 -65.5t-32.5 -55.5t-48.5 -42.5t-61 -26.5z" />
    <glyph glyph-name="four" unicode="4" 
d="M446 174l-30 -174h-86l31 174h-342l7 43l432 473h86l-85 -446h87l-12 -70h-88zM437 573q-15 -20 -32.5 -41t-39.5 -45l-223 -243h232z" />
    <glyph glyph-name="five" unicode="5" 
d="M170 380l50 46q54 29 114 29q50 0 86.5 -14t60.5 -39.5t35.5 -59.5t11.5 -75q0 -67 -24 -119.5t-64.5 -88.5t-93.5 -54.5t-110 -18.5q-46 0 -84.5 12.5t-65 37.5t-40 61.5t-9.5 85.5l1 10h86v-10q2 -66 30 -97.5t93 -31.5q40 0 73.5 14t58 40t38.5 63t14 83
q0 62 -31.5 97.5t-90.5 35.5q-48 0 -87 -22t-74 -76h-82l119 401h392l-13 -70h-322z" />
    <glyph glyph-name="six" unicode="6" 
d="M390 704q89 0 138 -50.5t42 -135.5l-1 -10h-92v10q-3 118 -106 118q-39 0 -75 -18t-66 -53t-52 -88t-33 -124l61 69q32 23 64 33.5t70 10.5q47 0 83 -14t60.5 -39.5t37 -60.5t12.5 -77q0 -63 -23.5 -116.5t-62.5 -91.5t-90.5 -59.5t-107.5 -21.5q-46 0 -84 14t-65 42.5
t-42 72.5t-15 105q0 119 30 209t78.5 151.5t111 92.5t127.5 31zM313 398q-34 0 -66 -14t-57 -40t-40 -64.5t-15 -87.5q0 -60 31 -99t89 -39q36 0 68.5 15t57.5 42.5t39.5 66t14.5 84.5q0 28 -7 53t-21.5 43.5t-37.5 29t-56 10.5z" />
    <glyph glyph-name="seven" unicode="7" 
d="M606 650l-459 -650h-100l440 620h-375l13 70h488z" />
    <glyph glyph-name="eight" unicode="8" 
d="M421 364q46 -16 75 -54.5t29 -91.5q0 -62 -25.5 -106t-66.5 -72.5t-91.5 -41.5t-101.5 -13q-44 0 -82.5 9.5t-67.5 30t-46 53t-17 78.5q0 40 14.5 74t38 61t54.5 45.5t64 28.5q-38 16 -60.5 49t-22.5 79q0 47 19 86t53 66.5t81.5 43t104.5 15.5q91 0 141.5 -42.5
t50.5 -114.5q0 -35 -11.5 -64t-31.5 -52.5t-46 -40t-55 -26.5zM361 636q-37 0 -66 -12t-48 -31.5t-29 -45.5t-10 -54q0 -44 26.5 -72.5t82.5 -28.5q37 0 66 11.5t48.5 31t29.5 46t10 55.5q0 42 -26.5 71t-83.5 29zM254 53q44 0 77 12.5t54.5 34.5t32.5 51t11 62q0 22 -7 42
t-22.5 35.5t-39.5 24.5t-59 9q-46 0 -79.5 -13.5t-55.5 -36t-32.5 -51t-10.5 -58.5q0 -49 32.5 -80.5t98.5 -31.5z" />
    <glyph glyph-name="nine" unicode="9" 
d="M349 704q46 0 84 -14t65 -42.5t42 -72.5t15 -105q0 -118 -29.5 -208.5t-78.5 -152t-111.5 -92.5t-127.5 -31q-89 0 -138 50.5t-42 135.5l1 10h92v-10q3 -118 106 -118q39 0 75 18t66 53t52 88.5t33 123.5l-61 -69q-32 -23 -64 -33.5t-70 -10.5q-47 0 -83 14t-60.5 39.5
t-37 60.5t-12.5 77q0 63 23.5 116.5t62.5 91.5t90.5 59.5t107.5 21.5zM285 292q34 0 66 14t57 40t40 64.5t15 87.5q0 60 -31 99t-89 39q-36 0 -68.5 -15t-57.5 -42.5t-39.5 -65.5t-14.5 -85q0 -28 7 -53t21.5 -43.5t37.5 -29t56 -10.5z" />
    <glyph glyph-name="colon" unicode=":" horiz-adv-x="233" 
d="M150 544q25 0 39 -15t14 -38q0 -33 -22 -54t-53 -21q-25 0 -39 15t-14 38q0 33 22 54t53 21zM75 114q25 0 39 -15t14 -38q0 -33 -22 -54t-53 -21q-25 0 -39 15t-14 38q0 33 22 54t53 21z" />
    <glyph glyph-name="semicolon" unicode=";" horiz-adv-x="233" 
d="M150 544q25 0 39 -15t14 -38q0 -33 -22 -54t-53 -21q-25 0 -39 15t-14 38q0 33 22 54t53 21zM-6 -120h-81l117 220h93l-2 -12z" />
    <glyph glyph-name="less" unicode="&#x3c;" 
d="M161 261l313 -166l-12 -65l-366 201l12 68l436 201l-12 -73z" />
    <glyph glyph-name="equal" unicode="=" 
d="M83 387l10 56h420l-10 -56h-420zM47 187l10 56h420l-10 -56h-420z" />
    <glyph glyph-name="greater" unicode="&#x3e;" 
d="M474 231l-436 -201l12 73l371 166l-313 166l12 65l366 -201z" />
    <glyph glyph-name="question" unicode="?" horiz-adv-x="589" 
d="M374 704q90 0 138.5 -42t48.5 -107q0 -30 -7 -57.5t-24 -55.5t-45 -58.5t-69 -66.5q-24 -21 -41 -38t-28.5 -33t-19 -32t-12.5 -34h-86q4 21 10.5 38t18.5 35.5t31.5 40t48.5 49.5q40 39 65 68t39.5 52t19.5 43t5 41q0 44 -28.5 66.5t-75.5 22.5q-57 0 -98 -34t-54 -108
h-90q8 49 30 88t55 66t76 41.5t92 14.5zM262 114q25 0 39.5 -14t14.5 -37q0 -33 -22.5 -55t-53.5 -22q-25 0 -39.5 14t-14.5 37q0 33 22.5 55t53.5 22z" />
    <glyph glyph-name="at" unicode="@" horiz-adv-x="852" 
d="M571 201q-4 -17 -4 -32q0 -14 6.5 -25t31.5 -11q23 0 45 12t39 36t28 61t11 87q0 69 -21 121t-57 86.5t-83.5 52t-100.5 17.5q-63 0 -125.5 -24t-112.5 -70.5t-81 -113.5t-31 -154q0 -73 22.5 -127.5t61 -90.5t90 -54t109.5 -18q61 0 128.5 19.5t122.5 60.5l24 -49
q-73 -50 -145.5 -69.5t-132.5 -19.5q-66 0 -128 21.5t-109.5 64.5t-76 108t-28.5 153q0 99 36 177t94.5 132.5t133 83t151.5 28.5q71 0 130 -24t101.5 -68t66 -105t23.5 -136q0 -68 -18.5 -116.5t-48 -79.5t-66 -45.5t-72.5 -14.5q-39 0 -66.5 17t-33.5 55l-21 -41
q-46 -39 -100 -39q-24 0 -49 8t-45.5 27t-33.5 49.5t-13 76.5q0 49 16 95t44.5 81.5t68 57t87.5 21.5q27 0 50.5 -7.5t37.5 -23.5l9 -48l17 61h81zM507 290q8 36 6 60.5t-11 39t-24 21t-33 6.5q-30 0 -54 -15.5t-40.5 -41.5t-25 -58.5t-8.5 -67.5q0 -56 19.5 -78.5
t48.5 -22.5q21 0 39 10t33 26.5t25.5 38t15.5 43.5z" />
    <glyph glyph-name="A" unicode="A" horiz-adv-x="646" 
d="M207 244l-126 -244h-98l370 690h122l116 -690h-93l-38 244h-253zM402 622l-159 -308h206z" />
    <glyph glyph-name="B" unicode="B" horiz-adv-x="647" 
d="M460 366q58 -16 89 -52.5t31 -99.5q0 -50 -19 -87t-49.5 -62t-69.5 -39.5t-79 -20.5q-26 -4 -45.5 -4.5t-43.5 -0.5h-222l122 690h203q25 0 45 -0.5t44 -3.5q70 -10 107 -44.5t37 -94.5q0 -77 -40.5 -119t-109.5 -62zM207 393h133q14 0 27 1t29 3q35 5 57.5 18t36.5 30.5
t19.5 39.5t5.5 45q0 42 -24.5 62.5t-64.5 25.5q-14 2 -28 2h-26h-125zM342 72q29 3 55 13.5t46 29t31.5 45.5t11.5 61q0 48 -26 70t-68 28q-17 2 -29.5 3t-24.5 1h-143l-45 -253h144q12 0 25 0.5t23 1.5z" />
    <glyph glyph-name="C" unicode="C" horiz-adv-x="717" 
d="M444 704q66 0 114.5 -17.5t80 -49t45.5 -74t10 -93.5l-1 -10h-86v10q0 90 -45 128t-132 38q-62 0 -113 -28t-87 -76t-56 -112.5t-20 -137.5q0 -116 49 -172t135 -56t138.5 46t80.5 120l4 10h86l-3 -10q-14 -51 -41 -93.5t-66.5 -74t-93.5 -49t-122 -17.5q-64 0 -113.5 20
t-83 57.5t-50.5 90t-17 117.5q0 92 28.5 171t80 137t123 91.5t155.5 33.5z" />
    <glyph glyph-name="D" unicode="D" horiz-adv-x="711" 
d="M438 687q51 -4 97 -24.5t80 -57t54 -89.5t20 -124q0 -67 -22.5 -133t-67.5 -120t-113 -90.5t-159 -45.5q-27 -2 -46 -2.5t-43 -0.5h-186l122 690h177q28 0 44.5 -0.5t42.5 -2.5zM334 74q69 10 118 39.5t80.5 72.5t46.5 96t15 108q0 54 -13.5 94t-36.5 68t-54 43.5
t-66 20.5q-17 2 -34.5 3t-41.5 1h-101l-97 -550h106q23 0 42 1t36 3z" />
    <glyph glyph-name="E" unicode="E" horiz-adv-x="593" 
d="M205 380h333l-12 -70h-333l-43 -240h374l-13 -70h-459l122 690h449l-13 -70h-362z" />
    <glyph glyph-name="F" unicode="F" horiz-adv-x="576" 
d="M205 380h323l-12 -70h-323l-55 -310h-86l122 690h449l-13 -70h-362z" />
    <glyph glyph-name="G" unicode="G" horiz-adv-x="757" 
d="M454 704q66 0 113 -17.5t76.5 -49t42 -74t8.5 -93.5l-1 -10h-86v10q0 91 -40 128.5t-127 37.5q-62 0 -114.5 -28t-90.5 -76t-59.5 -112.5t-21.5 -137.5q0 -50 11.5 -92t34 -72t55.5 -47t76 -17q42 0 80.5 15.5t69.5 43t52.5 66t29.5 84.5h-161l13 70h247l-59 -333h-76
l21 119l-42 -63q-35 -33 -83.5 -51.5t-108.5 -18.5q-64 0 -112.5 21.5t-80.5 60t-48.5 90.5t-16.5 113q0 92 30.5 171t84 137t126.5 91.5t157 33.5z" />
    <glyph glyph-name="H" unicode="H" horiz-adv-x="729" 
d="M604 0h-86l53 302h-380l-53 -302h-86l122 690h86l-56 -316h380l56 316h86z" />
    <glyph glyph-name="I" unicode="I" horiz-adv-x="263" 
d="M52 0l122 690h86l-122 -690h-86z" />
    <glyph glyph-name="J" unicode="J" horiz-adv-x="527" 
d="M466 264q-4 -20 -7.5 -38.5t-9.5 -44.5q-10 -43 -29.5 -79t-49.5 -62t-71.5 -40t-96.5 -14q-48 0 -85 14.5t-60.5 41.5t-32.5 65.5t-2 86.5l6 41h86l-5 -41q-18 -140 107 -140q60 0 96 32t53 100q4 15 7.5 34.5t8.5 46.5l74 423h86z" />
    <glyph glyph-name="K" unicode="K" horiz-adv-x="629" 
d="M566 0h-105l-226 298l-52 -46l-45 -252h-86l122 690h86l-60 -339l397 339h105l-404 -345z" />
    <glyph glyph-name="L" unicode="L" horiz-adv-x="578" 
d="M511 0h-459l122 690h86l-110 -620h374z" />
    <glyph glyph-name="M" unicode="M" horiz-adv-x="865" 
d="M740 0h-86l108 600l-312 -600h-108l-98 609l-106 -609h-86l122 690h142l97 -600l307 600h142z" />
    <glyph glyph-name="N" unicode="N" horiz-adv-x="717" 
d="M592 0h-132l-217 608l-105 -608h-86l122 690h132l215 -608l107 608h86z" />
    <glyph glyph-name="O" unicode="O" horiz-adv-x="747" 
d="M447 704q69 0 121 -24t87 -64.5t52.5 -95t17.5 -115.5q0 -77 -22.5 -152t-70 -134.5t-121 -96t-174.5 -36.5q-69 0 -121 24t-87 64.5t-52.5 95t-17.5 115.5q0 77 22.5 152.5t70 134.5t121 95.5t174.5 36.5zM355 54q71 0 123 33t86 84t50.5 113t16.5 121q0 52 -14 94.5
t-40 73t-63.5 47t-84.5 16.5q-71 0 -123 -33t-86 -84t-50.5 -113t-16.5 -121q0 -52 13.5 -94.5t39.5 -73t63.5 -47t85.5 -16.5z" />
    <glyph glyph-name="P" unicode="P" horiz-adv-x="605" 
d="M477 686q70 -9 109 -50.5t39 -112.5q0 -52 -18 -93.5t-48 -71.5t-69.5 -48t-83.5 -24q-24 -3 -44 -3.5t-46 -0.5h-128l-50 -282h-86l122 690h214q26 0 46 -0.5t43 -3.5zM414 359q23 5 44 16t37.5 30t26.5 45.5t10 62.5q0 46 -21.5 69.5t-51.5 30.5q-14 3 -33.5 4t-42.5 1
h-135l-47 -264h135q23 0 43 1t35 4z" />
    <glyph glyph-name="Q" unicode="Q" horiz-adv-x="756" 
d="M724 405q0 -47 -9.5 -94.5t-28 -91t-47 -81.5t-67.5 -68q30 -7 55.5 -23t49.5 -40l-59 -59q-26 17 -44.5 28t-33 17t-27 8.5t-26.5 2.5q-34 0 -75 -10q-17 -5 -34 -6.5t-32 -1.5q-76 0 -130.5 24t-89.5 64.5t-51.5 95t-16.5 115.5q0 74 22.5 148.5t69 134.5t118 98
t168.5 38q76 0 130.5 -24t89.5 -64.5t51.5 -95t16.5 -115.5zM152 285q0 -52 13.5 -94.5t39.5 -73t63.5 -47t85.5 -16.5q71 0 123 33t86 84t50.5 113t16.5 121q0 52 -14 94.5t-40 73t-63.5 47t-84.5 16.5q-71 0 -123 -33t-86 -84t-50.5 -113t-16.5 -121z" />
    <glyph glyph-name="R" unicode="R" horiz-adv-x="618" 
d="M633 536q0 -47 -16 -82t-41.5 -60t-57.5 -39.5t-64 -20.5q23 -3 38 -12.5t24.5 -34t13.5 -66.5t4 -110q0 -36 4 -65t14 -46h-93q-2 10 -4 23t-3 34t-2 52.5t-2 79.5q-1 46 -17 75t-61 32q-12 1 -24.5 1h-24.5h-130l-53 -297h-86l122 690h226q26 0 46.5 -0.5t43.5 -3.5
q64 -8 103.5 -44.5t39.5 -105.5zM403 369q28 3 53 13.5t43.5 29.5t29 46.5t10.5 62.5q0 44 -22 66.5t-61 28.5q-14 2 -29.5 3t-38.5 1h-140l-45 -253h132h38t30 2z" />
    <glyph glyph-name="S" unicode="S" horiz-adv-x="565" 
d="M360 704q54 0 93.5 -15.5t65 -43t37 -65t8.5 -81.5h-92q5 66 -30 101.5t-101 35.5q-62 0 -103 -33.5t-41 -94.5q0 -45 31 -69t97 -40q97 -23 145.5 -67.5t48.5 -122.5q0 -51 -21 -92t-58 -70.5t-87.5 -45t-109.5 -15.5q-53 0 -96 14t-73 41t-45 66t-12 89h92
q3 -69 41.5 -105.5t106.5 -36.5q35 0 65 9t52.5 27t35.5 44t13 60q0 50 -34.5 78t-110.5 47q-39 10 -71.5 23.5t-56 33t-36.5 45.5t-13 61q0 52 20.5 93.5t56 70t82.5 43.5t100 15z" />
    <glyph glyph-name="T" unicode="T" horiz-adv-x="613" 
d="M430 620l-110 -620h-86l110 620h-247l13 70h578l-13 -70h-245z" />
    <glyph glyph-name="U" unicode="U" horiz-adv-x="683" 
d="M611 255q-3 -17 -6 -32t-7 -30q-24 -100 -94.5 -153.5t-198.5 -53.5q-110 0 -164.5 49.5t-54.5 143.5q0 23 2 43t6 40l76 428h86l-74 -420q-6 -35 -8 -51.5t-2 -36.5q0 -59 35 -93.5t110 -34.5q80 0 127.5 34.5t69.5 113.5q4 14 7 29t6 32l75 427h86z" />
    <glyph glyph-name="V" unicode="V" horiz-adv-x="652" 
d="M223 0l-116 690h93l95 -625l322 625h98l-370 -690h-122z" />
    <glyph glyph-name="W" unicode="W" horiz-adv-x="953" 
d="M706 0h-113l-50 595l-268 -595h-114l-60 690h95l39 -601l261 591h122l49 -592l258 602h95z" />
    <glyph glyph-name="X" unicode="X" horiz-adv-x="627" 
d="M578 0h-104l-148 291l-247 -291h-101l308 353l-169 337h97l135 -276l237 276h102l-300 -339z" />
    <glyph glyph-name="Y" unicode="Y" horiz-adv-x="581" 
d="M302 0h-86l48 272l-170 418h91l134 -340l248 340h101l-319 -422z" />
    <glyph glyph-name="Z" unicode="Z" horiz-adv-x="591" 
d="M123 70h412l-13 -70h-523l12 66l506 554h-381l13 70h489l-12 -69z" />
    <glyph glyph-name="bracketleft" unicode="[" horiz-adv-x="307" 
d="M333 780l-10 -56h-105l-132 -748h105l-10 -56h-163l152 860h163z" />
    <glyph glyph-name="backslash" unicode="\" horiz-adv-x="303" 
d="M194 -30l-119 750h62l119 -750h-62z" />
    <glyph glyph-name="bracketright" unicode="]" horiz-adv-x="307" 
d="M-15 -80l10 56h105l132 748h-105l10 56h163l-152 -860h-163z" />
    <glyph glyph-name="asciicircum" unicode="^" 
d="M318 560l-202 -345h-71l246 401h69l106 -401h-68z" />
    <glyph glyph-name="underscore" unicode="_" horiz-adv-x="500" 
d="M45 -86l10 56h400l-10 -56h-400z" />
    <glyph glyph-name="grave" unicode="`" horiz-adv-x="300" 
d="M116 580l-65 110h80l41 -110h-56z" />
    <glyph glyph-name="a" unicode="a" horiz-adv-x="506" 
d="M304 544q90 0 130 -36t40 -95q0 -17 -2.5 -37t-6.5 -42l-35 -199q-5 -30 -8.5 -60t-5.5 -75h-86l4 76l-38 -48q-24 -23 -59 -32.5t-80 -9.5q-28 0 -54 8t-46 25t-32.5 43t-12.5 61q0 57 28 97t77 64t116 32.5t144 2.5l2 14q5 29 7 44.5t2 26.5q0 31 -19 52.5t-66 21.5
q-68 0 -100 -28.5t-44 -83.5h-90q17 85 79 131.5t156 46.5zM197 52q25 0 51 11t48 31t38 47.5t22 59.5l10 55q-52 6 -99 1.5t-83 -19.5t-57 -41.5t-21 -64.5q0 -39 25 -59.5t66 -20.5z" />
    <glyph glyph-name="b" unicode="b" horiz-adv-x="614" 
d="M390 544q50 0 87 -16.5t61.5 -46t37 -69t12.5 -84.5q0 -61 -19 -122.5t-58 -110t-98 -79t-139 -30.5q-33 0 -68.5 12t-52.5 32l-24 52l-15 -82h-86l130 735h86l-51 -290l50 57q26 19 66 30.5t81 11.5zM286 52q50 0 89 23.5t65.5 62t40 87t13.5 99.5q0 68 -31 111t-97 43
q-33 0 -65 -11t-59.5 -36t-48.5 -64.5t-31 -96.5l-5 -29q-6 -37 -2 -71t19.5 -60t43.5 -42t68 -16z" />
    <glyph glyph-name="c" unicode="c" horiz-adv-x="531" 
d="M328 544q95 0 140.5 -52.5t46.5 -139.5h-90q-6 126 -113 126q-41 0 -76.5 -20.5t-61.5 -57t-40.5 -88t-14.5 -114.5q0 -76 33.5 -111t82.5 -35q55 0 96.5 29.5t64.5 87.5h90q-39 -93 -102.5 -138t-161.5 -45q-43 0 -79 13.5t-62 39.5t-41 65t-15 91q0 67 19.5 130
t58 111.5t95 78t130.5 29.5z" />
    <glyph glyph-name="d" unicode="d" horiz-adv-x="612" 
d="M492 0h-86l15 85l-50 -57q-26 -19 -66 -30.5t-81 -11.5q-49 0 -86.5 16.5t-62 46t-37 69t-12.5 84.5q0 62 19 123t58 109.5t98 79t139 30.5q33 0 68.5 -12t52.5 -32l24 -52l51 287h86zM457 289q6 37 2 71t-19.5 60.5t-43 42t-68.5 15.5q-50 0 -89 -23.5t-65.5 -62
t-40 -87t-13.5 -99.5q0 -68 31 -111t97 -43q33 0 65 11t59.5 36t48.5 64.5t31 96.5z" />
    <glyph glyph-name="e" unicode="e" horiz-adv-x="539" 
d="M121 239q-1 -11 -1.5 -21.5t-0.5 -20.5q0 -76 34 -110.5t86 -34.5t95.5 31t62.5 88h90q-16 -48 -44 -83t-63 -57.5t-75 -33.5t-81 -11q-89 0 -144 54t-55 154q0 58 16.5 120t51.5 113t91.5 84t135.5 33q94 0 147 -53.5t53 -143.5q0 -26 -4 -55t-12 -53h-383zM307 478
q-39 0 -68 -14.5t-50.5 -38.5t-35.5 -55t-22 -65h300q1 10 1.5 19t0.5 18q0 66 -34 101t-92 35z" />
    <glyph glyph-name="f" unicode="f" horiz-adv-x="273" 
d="M237 632q-6 -17 -9.5 -30t-5.5 -24l-9 -52h109l-12 -66h-109l-80 -460h-86l81 460h-48l12 66h47l8 44q3 17 6.5 33.5t8.5 30.5q18 58 57 89t93 31q24 0 40.5 -1.5t30.5 -3.5l-13 -71q-19 4 -39 4q-64 0 -82 -50z" />
    <glyph glyph-name="g" unicode="g" horiz-adv-x="612" 
d="M515 130q-5 -25 -9.5 -53t-9.5 -50q-24 -117 -97.5 -177t-196.5 -60q-49 0 -88.5 11.5t-67 34t-40.5 55t-10 74.5l1 10h87l-1 -9q-3 -49 29.5 -79.5t101.5 -30.5q79 0 128 42.5t66 119.5q4 19 7 32.5t5 25.5l2 9l-51 -57q-26 -19 -66 -30.5t-81 -11.5q-49 0 -86.5 16.5
t-62 46t-37 69t-12.5 84.5q0 62 19 123t58 109.5t98 79t139 30.5q33 0 68.5 -12t52.5 -32l24 -53l15 83h86zM248 52q33 0 65 11t59.5 36t48.5 64.5t31 96.5v-5l7 41l-2 -7q6 37 2 71t-19.5 60.5t-43 42t-68.5 15.5q-50 0 -89 -23.5t-65.5 -62t-40 -87t-13.5 -99.5
q0 -68 31 -111t97 -43z" />
    <glyph glyph-name="h" unicode="h" horiz-adv-x="595" 
d="M381 544q81 0 121.5 -36.5t40.5 -99.5q0 -10 -0.5 -19.5t-1.5 -21.5t-3.5 -28.5t-7.5 -40.5l-54 -298h-86l53 292q6 34 8.5 55t2.5 37q0 41 -23 67.5t-80 24.5q-31 -1 -61.5 -13.5t-56 -41t-46 -74.5t-32.5 -114l-41 -233h-86l130 740h86l-53 -301l44 61q38 26 71.5 35
t74.5 9z" />
    <glyph glyph-name="i" unicode="i" horiz-adv-x="234" 
d="M196 704q21 0 34 -13t13 -33q0 -27 -19 -45.5t-46 -18.5q-21 0 -34 13t-13 33q0 27 19 45.5t46 18.5zM28 0l94 530h86l-94 -530h-86z" />
    <glyph glyph-name="j" unicode="j" horiz-adv-x="203" 
d="M178 704q21 0 34 -13t13 -33q0 -27 -19 -45.5t-46 -18.5q-21 0 -34 13t-13 33q0 27 19 45.5t46 18.5zM92 -46l-6.5 -32.5t-7.5 -31.5q-14 -48 -47 -74t-95 -26h-21.5t-19.5 2l13 70q69 -9 86 43q4 11 6.5 23t6.5 32l100 570h86z" />
    <glyph glyph-name="k" unicode="k" horiz-adv-x="517" 
d="M474 0h-103l-160 231l-66 -58l-31 -173h-86l130 735h86l-82 -466l293 261h110l-291 -251z" />
    <glyph glyph-name="l" unicode="l" horiz-adv-x="248" 
d="M136 152q-4 -20 -5.5 -31.5t-1.5 -20.5q0 -26 14 -33t44 -4l-11 -63q-15 -2 -31 -3t-31 -1q-34 0 -55.5 13t-21.5 52q0 11 2.5 29t10.5 59l103 586h86z" />
    <glyph glyph-name="m" unicode="m" horiz-adv-x="855" 
d="M668 544q71 0 104.5 -36.5t33.5 -90.5q0 -21 -2.5 -40.5t-8.5 -52.5l-57 -324h-86l50 284q7 38 10.5 63t3.5 47q0 42 -23.5 62t-66.5 20q-25 0 -49 -15t-44 -42.5t-36 -66.5t-25 -88v-2l-46 -262h-86l50 284q7 38 10.5 63t3.5 47q0 42 -23.5 62t-66.5 20q-25 0 -49 -15
t-44.5 -43t-36 -67.5t-24.5 -88.5l-46 -262h-86l93 530h86l-14 -78l45 61q23 17 53 24t65 7q61 0 94.5 -27.5t41.5 -71.5l58 68q23 17 53 24t65 7z" />
    <glyph glyph-name="n" unicode="n" horiz-adv-x="595" 
d="M381 544q81 0 121.5 -36.5t40.5 -99.5q0 -10 -0.5 -19.5t-1.5 -21.5t-3.5 -28.5t-7.5 -40.5l-54 -298h-86l53 292q6 34 8.5 55t2.5 37q0 41 -23 67.5t-80 24.5q-31 -1 -61.5 -13.5t-56 -41t-46 -74.5t-32.5 -114l-41 -233h-86l93 530h86l-16 -91l44 61q38 26 71.5 35
t74.5 9z" />
    <glyph glyph-name="o" unicode="o" horiz-adv-x="588" 
d="M333 544q62 0 105 -19.5t70 -52t39.5 -75t12.5 -87.5q0 -54 -17.5 -111t-54 -104.5t-94.5 -78t-139 -30.5q-61 0 -104.5 19.5t-70.5 52t-39.5 75t-12.5 87.5q0 54 17.5 111t54 104.5t94.5 78t139 30.5zM266 52q50 0 87 23t62.5 59.5t38 82.5t12.5 91q0 35 -8.5 66t-26 54
t-44.5 36.5t-65 13.5q-49 0 -86.5 -23t-63 -59.5t-38 -82.5t-12.5 -91q0 -35 8.5 -66t26 -54t45 -36.5t64.5 -13.5z" />
    <glyph glyph-name="p" unicode="p" horiz-adv-x="614" 
d="M390 544q50 0 87 -16.5t61.5 -46t37 -69t12.5 -84.5q0 -61 -19 -122.5t-58 -110t-98 -79t-139 -30.5q-33 0 -68.5 12t-52.5 32l-24 52l-50 -278h-86l129 726h86l-15 -85l50 57q26 19 66 30.5t81 11.5zM286 52q50 0 89 23.5t65.5 62t40 87t13.5 99.5q0 68 -31 111t-97 43
q-33 0 -65 -11t-59.5 -36t-48.5 -64.5t-31 -96.5l-5 -29q-6 -37 -2 -71t19.5 -60t43.5 -42t68 -16z" />
    <glyph glyph-name="q" unicode="q" horiz-adv-x="612" 
d="M457 -196h-86l50 280l-50 -56q-26 -19 -66 -30.5t-81 -11.5q-49 0 -86.5 16.5t-62 46t-37 69t-12.5 84.5q0 62 19 123t58 109.5t98 79t139 30.5q33 0 68.5 -12t52.5 -32l24 -52l15 82h86zM457 289q6 37 2 71t-19.5 60.5t-43 42t-68.5 15.5q-50 0 -89 -23.5t-65.5 -62
t-40 -87t-13.5 -99.5q0 -68 31 -111t97 -43q33 0 65 11t59.5 36t48.5 64.5t31 96.5z" />
    <glyph glyph-name="r" unicode="r" horiz-adv-x="324" 
d="M332 542q21 0 35 -7l-12 -65q-67 5 -119 -36t-69 -132l-53 -302h-86l94 530h86l-15 -83l61 71q18 11 38.5 17.5t39.5 6.5z" />
    <glyph glyph-name="s" unicode="s" horiz-adv-x="451" 
d="M253 544q92 0 134 -46t43 -119h-90q-2 47 -24 73t-67 26q-55 0 -79 -26t-24 -59q0 -37 26.5 -57t69.5 -33q77 -23 117 -58.5t40 -101.5q0 -34 -14 -64t-40 -52t-64.5 -34.5t-88.5 -12.5q-56 0 -94 15t-61.5 39.5t-34.5 55t-12 60.5h90q5 -58 38 -81t81 -23q45 0 75.5 24
t30.5 66q0 35 -24.5 57.5t-81.5 39.5q-31 9 -57.5 21t-46.5 29.5t-31.5 42t-11.5 58.5q0 33 12.5 62t38 50.5t63 34.5t87.5 13z" />
    <glyph glyph-name="t" unicode="t" horiz-adv-x="303" 
d="M149 155q-5 -26 -6 -37t-1 -18q0 -29 20.5 -37t64.5 0l-12 -63q-29 -8 -64 -8q-48 0 -73.5 18t-25.5 59q0 11 2.5 30.5t8.5 51.5l55 309h-70l12 66h69l22 123h86l-22 -123h91l-12 -66h-91z" />
    <glyph glyph-name="u" unicode="u" horiz-adv-x="590" 
d="M470 0h-86l16 91l-44 -61q-38 -26 -71.5 -35t-74.5 -9q-81 0 -121.5 36.5t-40.5 99.5q0 11 0.5 20.5t1.5 21.5t4 28t7 40l54 298h86l-53 -292q-6 -34 -8.5 -55t-2.5 -37q0 -41 23 -67.5t80 -24.5q32 1 62 13.5t55.5 41t46 74.5t32.5 114l41 233h86z" />
    <glyph glyph-name="v" unicode="v" horiz-adv-x="494" 
d="M252 0h-110l-107 530h98l76 -461l239 461h99z" />
    <glyph glyph-name="w" unicode="w" horiz-adv-x="760" 
d="M550 0h-102l-39 444l-196 -444h-103l-75 530h99l44 -440l191 440h109l40 -441l201 441h94z" />
    <glyph glyph-name="x" unicode="x" horiz-adv-x="473" 
d="M425 0h-102l-102 203l-173 -203h-101l234 265l-131 265h102l92 -206l173 206h102l-236 -266z" />
    <glyph glyph-name="y" unicode="y" horiz-adv-x="494" 
d="M252 0q-34 -61 -62 -101.5t-55 -64.5t-56 -34t-67 -10q-23 0 -42 3l12 71q16 -3 31 -3q40 0 68.5 19.5t57.5 73.5l9 17l-113 559h98l76 -467l239 467h99z" />
    <glyph glyph-name="z" unicode="z" horiz-adv-x="474" 
d="M98 68h309l-12 -68h-413l11 66l375 392h-284l12 68h386l-12 -69z" />
    <glyph glyph-name="braceleft" unicode="{" horiz-adv-x="303" 
d="M351 724h-12q-27 0 -45.5 -5t-29 -20.5t-14.5 -45t-3 -78.5q1 -44 -3.5 -83t-18 -69t-36.5 -49.5t-59 -24.5q35 -4 54.5 -23.5t19.5 -53.5q0 -12 -1.5 -24.5t-5.5 -29.5t-11.5 -39.5t-18.5 -53.5q-10 -27 -16 -45t-9.5 -30.5t-4.5 -20.5t-1 -16q0 -17 16.5 -27t54.5 -10
h12l-10 -56h-11q-56 0 -89 17.5t-33 70.5q0 10 1.5 19.5t5 23t10.5 33.5t19 51q20 52 26 81t6 48q0 25 -16 39.5t-54 18.5l10 56q28 3 48.5 10.5t33 27t18 55.5t4.5 94q-1 64 6 105.5t26 66t50.5 34t79.5 9.5h11z" />
    <glyph glyph-name="bar" unicode="|" horiz-adv-x="250" 
d="M8 -200l176 1000h58l-176 -1000h-58z" />
    <glyph glyph-name="braceright" unicode="}" horiz-adv-x="303" 
d="M189 436q0 -25 16 -39.5t54 -18.5l-10 -56q-28 -3 -48 -10.5t-33 -27t-18.5 -55t-4.5 -94.5q1 -64 -6 -105.5t-26 -66t-50.5 -34t-79.5 -9.5h-11l10 56h12q27 0 45.5 5t29 21t14.5 45t3 78q-1 44 3.5 83t18 69t36.5 49.5t59 24.5q-35 4 -54.5 23.5t-19.5 53.5
q0 12 1.5 24.5t5.5 29.5t11.5 39.5t18.5 53.5q10 27 16 45t9.5 30.5t4.5 21t1 15.5q0 17 -16.5 27t-54.5 10h-12l10 56h11q56 0 89 -17.5t33 -70.5q0 -10 -1.5 -19.5t-5 -23t-10.5 -33.5t-19 -51q-20 -52 -26 -81t-6 -48z" />
    <glyph glyph-name="asciitilde" unicode="~" 
d="M505 356q-11 -65 -44.5 -99t-89.5 -34q-29 0 -51 10t-57 31q-26 15 -46.5 25t-41.5 10q-29 0 -42.5 -20.5t-20.5 -55.5h-56q11 65 44.5 99t89.5 34q29 0 51 -10t57 -31q26 -15 46.5 -25t41.5 -10q29 0 42.5 20.5t20.5 55.5h56z" />
    <glyph glyph-name="exclamdown" unicode="&#xa1;" horiz-adv-x="260" 
d="M157 416q-25 0 -39.5 14t-14.5 37q0 33 22.5 55t53.5 22q25 0 39.5 -14t14.5 -37q0 -33 -22.5 -55t-53.5 -22zM185 350l-88 -510h-102l112 510h78z" />
    <glyph glyph-name="cent" unicode="&#xa2;" 
d="M270 54q44 8 77.5 36.5t53.5 78.5h90q-36 -85 -92 -130t-141 -52l-14 -77h-58l14 77q-75 8 -122.5 60t-47.5 148q0 63 17.5 122t51 106.5t83.5 79.5t116 39l14 78h58l-14 -77q85 -6 125 -57.5t41 -133.5h-90q-4 111 -88 124zM124 198q0 -66 25 -100t63 -43l74 420
q-36 -7 -65.5 -30.5t-51 -59.5t-33.5 -83.5t-12 -103.5z" />
    <glyph glyph-name="sterling" unicode="&#xa3;" 
d="M234 258q0 -60 -22 -103.5t-84 -84.5h352l-12 -70h-475l11 62q42 10 68.5 31t42.5 47t22 53.5t6 51.5q0 18 -3 35t-8 37h-74l10 56h48q-7 24 -10.5 50.5t-3.5 61.5q0 41 15 80.5t44.5 70t74 49.5t104.5 19q52 0 87.5 -15.5t57.5 -42t32.5 -62t13.5 -76.5h-92
q-4 66 -30.5 97t-83.5 31q-28 0 -51.5 -11t-41 -31t-27 -47t-9.5 -60q0 -35 5 -60t14 -54h217l-10 -56h-195q7 -28 7 -59z" />
    <glyph glyph-name="currency" unicode="&#xa4;" 
d="M436 402q10 -18 15.5 -39t5.5 -43q0 -33 -12 -67t-36 -63l44 -55l-46 -39l-46 54q-23 -14 -50.5 -21.5t-59.5 -7.5q-28 0 -51.5 10t-43.5 27l-70 -59l-34 41l72 60q-21 36 -21 82q0 34 12 68.5t37 63.5l-44 54l46 39l46 -53q22 13 48.5 20t58.5 7q28 0 52 -10t44 -27
l72 61l34 -41zM164 288q0 -51 28 -80t70 -29q31 0 56 12t42 31t26.5 43t9.5 49q0 51 -29 80t-71 29q-31 0 -55.5 -12t-41.5 -31t-26 -43t-9 -49z" />
    <glyph glyph-name="yen" unicode="&#xa5;" 
d="M487 357l-10 -56h-152l-13 -19l-8 -45h162l-10 -56h-162l-32 -181h-86l32 181h-162l10 56h162l9 52l-5 12h-155l10 56h124l-123 333h103l105 -331l225 331h101l-245 -333h120z" />
    <glyph glyph-name="brokenbar" unicode="&#xa6;" horiz-adv-x="250" 
d="M105 350l60 340h58l-60 -340h-58zM15 -160l60 340h58l-60 -340h-58z" />
    <glyph glyph-name="section" unicode="&#xa7;" horiz-adv-x="560" 
d="M531 252q0 -53 -34.5 -96.5t-97.5 -63.5q31 -39 31 -94q0 -40 -17 -71.5t-47 -54t-71 -34.5t-89 -12q-35 0 -67.5 10.5t-58 31.5t-42.5 54t-20 78h90q3 -29 13 -49.5t25.5 -33.5t34.5 -19t39 -6q54 0 85 24t31 73q0 42 -29.5 68t-103.5 53q-37 14 -67.5 29.5t-52.5 36
t-34.5 47.5t-12.5 63q0 49 33 93t103 66q-28 37 -28 90q0 31 12.5 61t37.5 54t62.5 39t87.5 15q78 0 123.5 -45t52.5 -121h-90q-5 47 -29.5 73.5t-69.5 26.5q-39 0 -66 -26t-27 -74q0 -72 116 -106q91 -26 134 -70t43 -110zM331 147q52 4 79 31.5t27 66.5q0 42 -31.5 67.5
t-97.5 47.5q-42 12 -77 33q-51 -8 -76 -35t-25 -64q0 -43 32 -67.5t87 -44.5q23 -8 43.5 -16.5t38.5 -18.5z" />
    <glyph glyph-name="dieresis" unicode="&#xa8;" horiz-adv-x="300" 
d="M85 675q17 0 28 -11t11 -28q0 -21 -17.5 -37t-37.5 -16q-17 0 -28 11t-11 28q0 21 17.5 37t37.5 16zM231 675q17 0 28 -11t11 -28q0 -21 -17.5 -37t-37.5 -16q-17 0 -28 11t-11 28q0 21 17.5 37t37.5 16z" />
    <glyph glyph-name="copyright" unicode="&#xa9;" horiz-adv-x="838" 
d="M419 744q81 0 150.5 -30t121.5 -82t81.5 -123t29.5 -154q0 -82 -29.5 -153.5t-81.5 -123.5t-121.5 -82t-150.5 -30t-150.5 30t-121.5 82t-81.5 123.5t-29.5 153.5q0 83 29.5 154t81.5 123t121.5 82t150.5 30zM419 686q-68 0 -126.5 -25.5t-102 -70t-68 -105t-24.5 -130.5
t24.5 -131t68 -105t102 -69.5t126.5 -25.5t126.5 25.5t102 69.5t68 105t24.5 131t-24.5 130.5t-68 105t-102 70t-126.5 25.5zM425 586q82 0 133 -44.5t65 -116.5h-92q-8 39 -32 66t-74 27q-59 0 -89.5 -44t-30.5 -118q0 -75 32.5 -119.5t87.5 -44.5q44 0 71.5 27.5
t33.5 65.5h92q-17 -70 -66.5 -115.5t-139.5 -45.5q-46 0 -84 16.5t-65.5 46.5t-42.5 72t-15 94q0 54 15.5 97t44 73.5t68.5 46.5t88 16z" />
    <glyph glyph-name="guillemotleft" unicode="&#xab;" horiz-adv-x="537" 
d="M293 82h-71l-108 166l166 166h83l-173 -173zM453 82h-71l-108 166l166 166h83l-173 -173z" />
    <glyph glyph-name="logicalnot" unicode="&#xac;" 
d="M372 210l20 118h-311l10 56h369l-30 -174h-58z" />
    <glyph glyph-name="registered" unicode="&#xae;" horiz-adv-x="508" 
d="M278 764q46 0 82 -14.5t61 -39.5t38.5 -59.5t13.5 -73.5q0 -45 -16.5 -87t-47.5 -74.5t-75.5 -52t-101.5 -19.5q-46 0 -82 14.5t-61 39.5t-38.5 59.5t-13.5 73.5q0 45 16.5 87t47.5 74.5t75.5 52t101.5 19.5zM240 390q44 0 78 15t58 41t36.5 60t12.5 71q0 62 -41 101.5
t-114 39.5q-43 0 -77.5 -15t-58.5 -41t-36.5 -59.5t-12.5 -71.5q0 -62 41 -101.5t114 -39.5zM294 658q55 -6 55 -54q0 -19 -11 -34t-37 -22q25 -9 23 -39q-1 -11 0.5 -27t6.5 -27h-56q-2 13 -3 23t-1 26q0 11 -6.5 15t-17.5 4h-23l-12 -68h-50l36 204h70h14t12 -1zM251 565
h8.5t8.5 1q28 3 28 28q0 20 -20 23q-5 1 -8 1h-8h-20l-9 -53h20z" />
    <glyph glyph-name="macron" unicode="&#xaf;" horiz-adv-x="300" 
d="M25 604l10 52h240l-10 -52h-240z" />
    <glyph glyph-name="degree" unicode="&#xb0;" horiz-adv-x="301" 
d="M229 749q50 0 79.5 -29.5t29.5 -72.5q0 -27 -9 -52t-26 -43.5t-43 -29.5t-59 -11q-50 0 -79.5 29.5t-29.5 72.5q0 27 9 52t26 43.5t43 29.5t59 11zM223 693q-29 0 -48.5 -18.5t-19.5 -56.5q0 -26 14.5 -38.5t37.5 -12.5q29 0 48.5 18.5t19.5 56.5q0 26 -14.5 38.5
t-37.5 12.5z" />
    <glyph glyph-name="plusminus" unicode="&#xb1;" 
d="M495 291h-181l-32 -180h-58l32 180h-181l10 56h181l31 176h58l-31 -176h181zM454 56l-10 -56h-420l10 56h420z" />
    <glyph glyph-name="acute" unicode="&#xb4;" horiz-adv-x="300" 
d="M106 580l81 110h80l-105 -110h-56z" />
    <glyph glyph-name="paragraph" unicode="&#xb6;" horiz-adv-x="557" 
d="M417 -110h-58l132 744h-92l-132 -744h-58l76 430h-23h-28.5t-27.5 1q-32 2 -56 16t-40 36t-24 49.5t-8 56.5q0 32 11 67.5t34.5 66.5t60 52t87.5 24q14 1 28.5 1h28.5h231z" />
    <glyph glyph-name="periodcentered" unicode="&#xb7;" horiz-adv-x="202" 
d="M120 374q26 0 42 -16t16 -40q0 -34 -25 -58t-57 -24q-26 0 -42 16t-16 40q0 34 25 58t57 24z" />
    <glyph glyph-name="cedilla" unicode="&#xb8;" horiz-adv-x="300" 
d="M149 -40q34 -6 51 -26.5t17 -48.5q0 -25 -10.5 -43t-28.5 -29.5t-42.5 -17t-52.5 -5.5q-34 0 -54 9l8 40q18 -7 51 -7q36 0 53.5 13.5t17.5 34.5q0 23 -22.5 35t-66.5 7l62 87h53z" />
    <glyph glyph-name="guillemotright" unicode="&#xbb;" horiz-adv-x="537" 
d="M91 82h-83l173 173l-103 159h71l108 -166zM251 82h-83l173 173l-103 159h71l108 -166z" />
    <glyph glyph-name="questiondown" unicode="&#xbf;" horiz-adv-x="553" 
d="M337 416q-25 0 -39.5 14t-14.5 37q0 33 22.5 55t53.5 22q25 0 39.5 -14t14.5 -37q0 -33 -22.5 -55t-53.5 -22zM225 -174q-90 0 -138.5 42t-48.5 107q0 30 7 57.5t24 55.5t45 58.5t69 66.5q24 21 41 38t28.5 33t19 32t12.5 34h86q-4 -21 -10.5 -38t-18.5 -35.5
t-31.5 -39.5t-48.5 -50q-40 -39 -65 -68t-39 -52t-19.5 -43t-5.5 -41q0 -44 28.5 -66.5t75.5 -22.5q57 0 98 34t54 108h90q-7 -49 -29.5 -88t-55.5 -66t-76 -41.5t-92 -14.5z" />
    <glyph glyph-name="Agrave" unicode="&#xc0;" horiz-adv-x="646" 
d="M341 830h80l38 -94h-56zM207 244l-126 -244h-98l370 690h122l116 -690h-93l-38 244h-253zM402 622l-159 -308h206z" />
    <glyph glyph-name="Aacute" unicode="&#xc1;" horiz-adv-x="646" 
d="M394 736l70 94h80l-94 -94h-56zM207 244l-126 -244h-98l370 690h122l116 -690h-93l-38 244h-253zM402 622l-159 -308h206z" />
    <glyph glyph-name="Acircumflex" unicode="&#xc2;" horiz-adv-x="646" 
d="M331 736l83 94h59l51 -94h-67l-21 55l-39 -55h-66zM207 244l-126 -244h-98l370 690h122l116 -690h-93l-38 244h-253zM402 622l-159 -308h206z" />
    <glyph glyph-name="Atilde" unicode="&#xc3;" horiz-adv-x="646" 
d="M381 770q-16 0 -20 -20h-38q8 42 24.5 56.5t40.5 14.5q14 0 27 -3t32 -10q17 -6 26 -8.5t16 -2.5q16 0 20 20h38q-8 -42 -24.5 -56.5t-40.5 -14.5q-14 0 -27 3t-32 10q-17 6 -26 8.5t-16 2.5zM207 244l-126 -244h-98l370 690h122l116 -690h-93l-38 244h-253zM402 622
l-159 -308h206z" />
    <glyph glyph-name="Adieresis" unicode="&#xc4;" horiz-adv-x="646" 
d="M357 737q-17 0 -28 11t-11 28q0 21 17.5 37t37.5 16q17 0 28 -11t11 -28q0 -21 -17.5 -37t-37.5 -16zM497 737q-17 0 -28 11t-11 28q0 21 17.5 37t37.5 16q17 0 28 -11t11 -28q0 -21 -17.5 -37t-37.5 -16zM207 244l-126 -244h-98l370 690h122l116 -690h-93l-38 244h-253z
M402 622l-159 -308h206z" />
    <glyph glyph-name="Aring" unicode="&#xc5;" horiz-adv-x="646" 
d="M428 716q-39 0 -60.5 19t-21.5 48q0 44 30.5 67.5t71.5 23.5q39 0 60.5 -19t21.5 -48q0 -44 -30.5 -67.5t-71.5 -23.5zM446 838q-20 0 -35 -13t-15 -38q0 -15 9 -25t25 -10q20 0 35 13t15 38q0 15 -9 25t-25 10zM207 244l-126 -244h-98l370 690h122l116 -690h-93l-38 244
h-253zM402 622l-159 -308h206z" />
    <glyph glyph-name="AE" unicode="&#xc6;" horiz-adv-x="929" 
d="M542 380h332l-12 -70h-329l-27 -240h354l-13 -70h-435l29 244h-228l-185 -244h-108l530 690h509l-13 -70h-377zM266 314h184l34 288z" />
    <glyph glyph-name="Ccedilla" unicode="&#xc7;" horiz-adv-x="717" 
d="M444 704q66 0 114.5 -17.5t80 -49t45.5 -74t10 -93.5l-1 -10h-86v10q0 90 -45 128t-132 38q-62 0 -113 -28t-87 -76t-56 -112.5t-20 -137.5q0 -116 49 -172t135 -56t138.5 46t80.5 120l4 10h86l-3 -10q-14 -51 -41 -93.5t-66.5 -74t-93.5 -49t-122 -17.5q-23 0 -46 3
l-21 -29q34 -6 51 -26.5t17 -48.5q0 -25 -10.5 -43t-28.5 -29.5t-42.5 -17t-52.5 -5.5q-34 0 -54 9l8 40q18 -7 51 -7q36 0 53.5 13.5t17.5 34.5q0 23 -22.5 35t-66.5 7l54 76q-85 26 -129 97t-43 176q0 92 28.5 171t80 137t123 91.5t155.5 33.5z" />
    <glyph glyph-name="Egrave" unicode="&#xc8;" horiz-adv-x="593" 
d="M332 830h80l38 -94h-56zM205 380h333l-12 -70h-333l-43 -240h374l-13 -70h-459l122 690h449l-13 -70h-362z" />
    <glyph glyph-name="Eacute" unicode="&#xc9;" horiz-adv-x="593" 
d="M385 736l70 94h80l-94 -94h-56zM205 380h333l-12 -70h-333l-43 -240h374l-13 -70h-459l122 690h449l-13 -70h-362z" />
    <glyph glyph-name="Ecircumflex" unicode="&#xca;" horiz-adv-x="593" 
d="M322 736l83 94h59l51 -94h-67l-21 55l-39 -55h-66zM205 380h333l-12 -70h-333l-43 -240h374l-13 -70h-459l122 690h449l-13 -70h-362z" />
    <glyph glyph-name="Edieresis" unicode="&#xcb;" horiz-adv-x="593" 
d="M348 737q-17 0 -28 11t-11 28q0 21 17.5 37t37.5 16q17 0 28 -11t11 -28q0 -21 -17.5 -37t-37.5 -16zM488 737q-17 0 -28 11t-11 28q0 21 17.5 37t37.5 16q17 0 28 -11t11 -28q0 -21 -17.5 -37t-37.5 -16zM205 380h333l-12 -70h-333l-43 -240h374l-13 -70h-459l122 690
h449l-13 -70h-362z" />
    <glyph glyph-name="Igrave" unicode="&#xcc;" horiz-adv-x="263" 
d="M201 736l-62 94h80l38 -94h-56zM52 0l122 690h86l-122 -690h-86z" />
    <glyph glyph-name="Iacute" unicode="&#xcd;" horiz-adv-x="263" 
d="M192 736l70 94h80l-94 -94h-56zM52 0l122 690h86l-122 -690h-86z" />
    <glyph glyph-name="Icircumflex" unicode="&#xce;" horiz-adv-x="263" 
d="M129 736l83 94h59l51 -94h-67l-21 55l-39 -55h-66zM260 690l-122 -690h-86l122 690h86z" />
    <glyph glyph-name="Idieresis" unicode="&#xcf;" horiz-adv-x="263" 
d="M171 829q17 0 28 -11t11 -28q0 -21 -17.5 -37t-37.5 -16q-17 0 -28 11t-11 28q0 21 17.5 37t37.5 16zM311 829q17 0 28 -11t11 -28q0 -21 -17.5 -37t-37.5 -16q-17 0 -28 11t-11 28q0 21 17.5 37t37.5 16zM52 0l122 690h86l-122 -690h-86z" />
    <glyph glyph-name="Eth" unicode="&#xd0;" horiz-adv-x="711" 
d="M438 687q51 -4 97 -24.5t80 -57t54 -89.5t20 -124q0 -67 -22.5 -133t-67.5 -120t-113 -90.5t-159 -45.5q-27 -2 -46 -2.5t-43 -0.5h-186l54 305h-95l10 56h95l58 329h177q28 0 44.5 -0.5t42.5 -2.5zM334 74q69 10 118 39.5t80.5 72.5t46.5 96t15 108q0 54 -13.5 94
t-36.5 68t-54 43.5t-66 20.5q-17 2 -34.5 3t-41.5 1h-101l-46 -259h124l-10 -56h-123l-42 -235h106q23 0 42 1t36 3z" />
    <glyph glyph-name="Ntilde" unicode="&#xd1;" horiz-adv-x="717" 
d="M406 770q-16 0 -20 -20h-38q8 42 24.5 56.5t40.5 14.5q14 0 27 -3t32 -10q17 -6 26 -8.5t16 -2.5q16 0 20 20h38q-8 -42 -24.5 -56.5t-40.5 -14.5q-14 0 -27 3t-32 10q-17 6 -26 8.5t-16 2.5zM592 0h-132l-217 608l-105 -608h-86l122 690h132l215 -608l107 608h86z" />
    <glyph glyph-name="Ograve" unicode="&#xd2;" horiz-adv-x="747" 
d="M369 830h80l38 -94h-56zM447 704q69 0 121 -24t87 -64.5t52.5 -95t17.5 -115.5q0 -77 -22.5 -152t-70 -134.5t-121 -96t-174.5 -36.5q-69 0 -121 24t-87 64.5t-52.5 95t-17.5 115.5q0 77 22.5 152.5t70 134.5t121 95.5t174.5 36.5zM355 54q71 0 123 33t86 84t50.5 113
t16.5 121q0 52 -14 94.5t-40 73t-63.5 47t-84.5 16.5q-71 0 -123 -33t-86 -84t-50.5 -113t-16.5 -121q0 -52 13.5 -94.5t39.5 -73t63.5 -47t85.5 -16.5z" />
    <glyph glyph-name="Oacute" unicode="&#xd3;" horiz-adv-x="747" 
d="M422 736l70 94h80l-94 -94h-56zM447 704q69 0 121 -24t87 -64.5t52.5 -95t17.5 -115.5q0 -77 -22.5 -152t-70 -134.5t-121 -96t-174.5 -36.5q-69 0 -121 24t-87 64.5t-52.5 95t-17.5 115.5q0 77 22.5 152.5t70 134.5t121 95.5t174.5 36.5zM355 54q71 0 123 33t86 84
t50.5 113t16.5 121q0 52 -14 94.5t-40 73t-63.5 47t-84.5 16.5q-71 0 -123 -33t-86 -84t-50.5 -113t-16.5 -121q0 -52 13.5 -94.5t39.5 -73t63.5 -47t85.5 -16.5z" />
    <glyph glyph-name="Ocircumflex" unicode="&#xd4;" horiz-adv-x="747" 
d="M359 736l83 94h59l51 -94h-67l-21 55l-39 -55h-66zM447 704q69 0 121 -24t87 -64.5t52.5 -95t17.5 -115.5q0 -77 -22.5 -152t-70 -134.5t-121 -96t-174.5 -36.5q-69 0 -121 24t-87 64.5t-52.5 95t-17.5 115.5q0 77 22.5 152.5t70 134.5t121 95.5t174.5 36.5zM355 54
q71 0 123 33t86 84t50.5 113t16.5 121q0 52 -14 94.5t-40 73t-63.5 47t-84.5 16.5q-71 0 -123 -33t-86 -84t-50.5 -113t-16.5 -121q0 -52 13.5 -94.5t39.5 -73t63.5 -47t85.5 -16.5z" />
    <glyph glyph-name="Otilde" unicode="&#xd5;" horiz-adv-x="747" 
d="M409 770q-16 0 -20 -20h-38q8 42 24.5 56.5t40.5 14.5q14 0 27 -3t32 -10q17 -6 26 -8.5t16 -2.5q16 0 20 20h38q-8 -42 -24.5 -56.5t-40.5 -14.5q-14 0 -27 3t-32 10q-17 6 -26 8.5t-16 2.5zM447 704q69 0 121 -24t87 -64.5t52.5 -95t17.5 -115.5q0 -77 -22.5 -152
t-70 -134.5t-121 -96t-174.5 -36.5q-69 0 -121 24t-87 64.5t-52.5 95t-17.5 115.5q0 77 22.5 152.5t70 134.5t121 95.5t174.5 36.5zM355 54q71 0 123 33t86 84t50.5 113t16.5 121q0 52 -14 94.5t-40 73t-63.5 47t-84.5 16.5q-71 0 -123 -33t-86 -84t-50.5 -113t-16.5 -121
q0 -52 13.5 -94.5t39.5 -73t63.5 -47t85.5 -16.5z" />
    <glyph glyph-name="Odieresis" unicode="&#xd6;" horiz-adv-x="747" 
d="M385 737q-17 0 -28 11t-11 28q0 21 17.5 37t37.5 16q17 0 28 -11t11 -28q0 -21 -17.5 -37t-37.5 -16zM525 737q-17 0 -28 11t-11 28q0 21 17.5 37t37.5 16q17 0 28 -11t11 -28q0 -21 -17.5 -37t-37.5 -16zM447 704q69 0 121 -24t87 -64.5t52.5 -95t17.5 -115.5
q0 -77 -22.5 -152t-70 -134.5t-121 -96t-174.5 -36.5q-69 0 -121 24t-87 64.5t-52.5 95t-17.5 115.5q0 77 22.5 152.5t70 134.5t121 95.5t174.5 36.5zM355 54q71 0 123 33t86 84t50.5 113t16.5 121q0 52 -14 94.5t-40 73t-63.5 47t-84.5 16.5q-71 0 -123 -33t-86 -84
t-50.5 -113t-16.5 -121q0 -52 13.5 -94.5t39.5 -73t63.5 -47t85.5 -16.5z" />
    <glyph glyph-name="multiply" unicode="&#xd7;" 
d="M435 176l-49 -41l-110 134l-162 -138l-41 49l162 138l-110 134l49 41l110 -134l162 138l41 -49l-162 -138z" />
    <glyph glyph-name="Oslash" unicode="&#xd8;" horiz-adv-x="748" 
d="M693 566q19 -35 28 -75.5t9 -85.5q0 -77 -22.5 -152t-70 -134.5t-121 -96t-174.5 -36.5q-73 0 -127 26.5t-89 71.5l-86 -73l-34 41l92 78q-17 34 -25.5 73.5t-8.5 81.5q0 77 22.5 152.5t70 134.5t121 95.5t174.5 36.5q71 0 124 -25t88 -68l80 68l34 -41zM158 285
q0 -26 3.5 -49t9.5 -44l425 362q-26 39 -67 60.5t-95 21.5q-71 0 -123 -33t-86 -84t-50.5 -113t-16.5 -121zM636 405q0 56 -15 99l-427 -362q26 -42 67.5 -65t98.5 -23q71 0 123 33t86 84t50.5 113t16.5 121z" />
    <glyph glyph-name="Ugrave" unicode="&#xd9;" horiz-adv-x="683" 
d="M413 736l-62 94h80l38 -94h-56zM611 255q-3 -17 -6 -32t-7 -30q-24 -100 -94.5 -153.5t-198.5 -53.5q-110 0 -164.5 49.5t-54.5 143.5q0 23 2 43t6 40l76 428h86l-74 -420q-6 -35 -8 -51.5t-2 -36.5q0 -59 35 -93.5t110 -34.5q80 0 127.5 34.5t69.5 113.5q4 14 7 29t6 32
l75 427h86z" />
    <glyph glyph-name="Uacute" unicode="&#xda;" horiz-adv-x="683" 
d="M404 736l70 94h80l-94 -94h-56zM611 255q-3 -17 -6 -32t-7 -30q-24 -100 -94.5 -153.5t-198.5 -53.5q-110 0 -164.5 49.5t-54.5 143.5q0 23 2 43t6 40l76 428h86l-74 -420q-6 -35 -8 -51.5t-2 -36.5q0 -59 35 -93.5t110 -34.5q80 0 127.5 34.5t69.5 113.5q4 14 7 29t6 32
l75 427h86z" />
    <glyph glyph-name="Ucircumflex" unicode="&#xdb;" horiz-adv-x="683" 
d="M341 736l83 94h59l51 -94h-67l-21 55l-39 -55h-66zM611 255q-3 -17 -6 -32t-7 -30q-24 -100 -94.5 -153.5t-198.5 -53.5q-110 0 -164.5 49.5t-54.5 143.5q0 23 2 43t6 40l76 428h86l-74 -420q-6 -35 -8 -51.5t-2 -36.5q0 -59 35 -93.5t110 -34.5q80 0 127.5 34.5
t69.5 113.5q4 14 7 29t6 32l75 427h86z" />
    <glyph glyph-name="Udieresis" unicode="&#xdc;" horiz-adv-x="683" 
d="M383 829q17 0 28 -11t11 -28q0 -21 -17.5 -37t-37.5 -16q-17 0 -28 11t-11 28q0 21 17.5 37t37.5 16zM523 829q17 0 28 -11t11 -28q0 -21 -17.5 -37t-37.5 -16q-17 0 -28 11t-11 28q0 21 17.5 37t37.5 16zM611 255q-3 -17 -6 -32t-7 -30q-24 -100 -94.5 -153.5
t-198.5 -53.5q-110 0 -164.5 49.5t-54.5 143.5q0 23 2 43t6 40l76 428h86l-74 -420q-6 -35 -8 -51.5t-2 -36.5q0 -59 35 -93.5t110 -34.5q80 0 127.5 34.5t69.5 113.5q4 14 7 29t6 32l75 427h86z" />
    <glyph glyph-name="Yacute" unicode="&#xdd;" horiz-adv-x="581" 
d="M356 736l70 94h80l-94 -94h-56zM302 0h-86l48 272l-170 418h91l134 -340l248 340h101l-319 -422z" />
    <glyph glyph-name="Thorn" unicode="&#xde;" horiz-adv-x="609" 
d="M467 598q64 -8 104 -46t40 -104q0 -9 -1 -19t-3 -21q-7 -42 -26.5 -76t-47 -58t-62 -39t-72.5 -20q-24 -3 -44.5 -3.5t-46.5 -0.5h-133l-37 -211h-86l122 690h86l-16 -88h133q26 0 46.5 -0.5t43.5 -3.5zM515 406q2 8 2 14.5v12.5q0 43 -22.5 63.5t-53.5 28.5
q-14 3 -33.5 4t-42.5 1h-133l-44 -247h133q23 0 43 1t35 4q38 8 72 34.5t44 83.5z" />
    <glyph glyph-name="germandbls" unicode="&#xdf;" horiz-adv-x="587" 
d="M382 754q99 0 147.5 -44t48.5 -110q0 -27 -10.5 -59.5t-34.5 -64.5q-56 -27 -74 -48t-18 -45q0 -21 9 -38.5t34 -42.5q30 -29 48.5 -62t18.5 -78q0 -31 -13.5 -61t-41 -53.5t-68.5 -37.5t-95 -14q-25 0 -46 2t-50 8l12 69q32 -8 53.5 -10.5t38.5 -2.5q33 0 55.5 9.5
t36 23.5t19 31.5t5.5 33.5q0 22 -10.5 47.5t-37.5 53.5q-16 17 -27.5 30.5t-18.5 27t-10.5 28.5t-3.5 34q0 35 23 68.5t85 64.5q17 25 22 46.5t5 39.5q0 38 -27 62t-84 24q-44 0 -74 -17.5t-50 -45.5t-31.5 -63.5t-17.5 -71.5l-86 -488h-86l85 480q10 56 27 105.5t47.5 87
t77.5 59.5t117 22z" />
    <glyph glyph-name="agrave" unicode="&#xe0;" horiz-adv-x="506" 
d="M230 690h80l41 -110h-56zM304 544q90 0 130 -36t40 -95q0 -17 -2.5 -37t-6.5 -42l-35 -199q-5 -30 -8.5 -60t-5.5 -75h-86l4 76l-38 -48q-24 -23 -59 -32.5t-80 -9.5q-28 0 -54 8t-46 25t-32.5 43t-12.5 61q0 57 28 97t77 64t116 32.5t144 2.5l2 14q5 29 7 44.5t2 26.5
q0 31 -19 52.5t-66 21.5q-68 0 -100 -28.5t-44 -83.5h-90q17 85 79 131.5t156 46.5zM197 52q25 0 51 11t48 31t38 47.5t22 59.5l10 55q-52 6 -99 1.5t-83 -19.5t-57 -41.5t-21 -64.5q0 -39 25 -59.5t66 -20.5z" />
    <glyph glyph-name="aacute" unicode="&#xe1;" horiz-adv-x="506" 
d="M285 580l81 110h80l-105 -110h-56zM304 544q90 0 130 -36t40 -95q0 -17 -2.5 -37t-6.5 -42l-35 -199q-5 -30 -8.5 -60t-5.5 -75h-86l4 76l-38 -48q-24 -23 -59 -32.5t-80 -9.5q-28 0 -54 8t-46 25t-32.5 43t-12.5 61q0 57 28 97t77 64t116 32.5t144 2.5l2 14q5 29 7 44.5
t2 26.5q0 31 -19 52.5t-66 21.5q-68 0 -100 -28.5t-44 -83.5h-90q17 85 79 131.5t156 46.5zM197 52q25 0 51 11t48 31t38 47.5t22 59.5l10 55q-52 6 -99 1.5t-83 -19.5t-57 -41.5t-21 -64.5q0 -39 25 -59.5t66 -20.5z" />
    <glyph glyph-name="acircumflex" unicode="&#xe2;" horiz-adv-x="506" 
d="M223 580l87 110h59l47 -110h-64l-22 63l-44 -63h-63zM304 544q90 0 130 -36t40 -95q0 -17 -2.5 -37t-6.5 -42l-35 -199q-5 -30 -8.5 -60t-5.5 -75h-86l4 76l-38 -48q-24 -23 -59 -32.5t-80 -9.5q-28 0 -54 8t-46 25t-32.5 43t-12.5 61q0 57 28 97t77 64t116 32.5t144 2.5
l2 14q5 29 7 44.5t2 26.5q0 31 -19 52.5t-66 21.5q-68 0 -100 -28.5t-44 -83.5h-90q17 85 79 131.5t156 46.5zM197 52q25 0 51 11t48 31t38 47.5t22 59.5l10 55q-52 6 -99 1.5t-83 -19.5t-57 -41.5t-21 -64.5q0 -39 25 -59.5t66 -20.5z" />
    <glyph glyph-name="atilde" unicode="&#xe3;" horiz-adv-x="506" 
d="M274 620q-16 0 -20 -20h-38q8 42 24.5 56.5t40.5 14.5q14 0 27 -3t32 -10q17 -6 26 -8.5t16 -2.5q16 0 20 20h38q-8 -42 -24.5 -56.5t-40.5 -14.5q-14 0 -27 3t-32 10q-17 6 -26 8.5t-16 2.5zM304 544q90 0 130 -36t40 -95q0 -17 -2.5 -37t-6.5 -42l-35 -199
q-5 -30 -8.5 -60t-5.5 -75h-86l4 76l-38 -48q-24 -23 -59 -32.5t-80 -9.5q-28 0 -54 8t-46 25t-32.5 43t-12.5 61q0 57 28 97t77 64t116 32.5t144 2.5l2 14q5 29 7 44.5t2 26.5q0 31 -19 52.5t-66 21.5q-68 0 -100 -28.5t-44 -83.5h-90q17 85 79 131.5t156 46.5zM197 52
q25 0 51 11t48 31t38 47.5t22 59.5l10 55q-52 6 -99 1.5t-83 -19.5t-57 -41.5t-21 -64.5q0 -39 25 -59.5t66 -20.5z" />
    <glyph glyph-name="adieresis" unicode="&#xe4;" horiz-adv-x="506" 
d="M246 583q-17 0 -28 11t-11 28q0 21 17.5 37t37.5 16q17 0 28 -11t11 -28q0 -21 -17.5 -37t-37.5 -16zM392 583q-17 0 -28 11t-11 28q0 21 17.5 37t37.5 16q17 0 28 -11t11 -28q0 -21 -17.5 -37t-37.5 -16zM304 544q90 0 130 -36t40 -95q0 -17 -2.5 -37t-6.5 -42l-35 -199
q-5 -30 -8.5 -60t-5.5 -75h-86l4 76l-38 -48q-24 -23 -59 -32.5t-80 -9.5q-28 0 -54 8t-46 25t-32.5 43t-12.5 61q0 57 28 97t77 64t116 32.5t144 2.5l2 14q5 29 7 44.5t2 26.5q0 31 -19 52.5t-66 21.5q-68 0 -100 -28.5t-44 -83.5h-90q17 85 79 131.5t156 46.5zM197 52
q25 0 51 11t48 31t38 47.5t22 59.5l10 55q-52 6 -99 1.5t-83 -19.5t-57 -41.5t-21 -64.5q0 -39 25 -59.5t66 -20.5z" />
    <glyph glyph-name="aring" unicode="&#xe5;" horiz-adv-x="506" 
d="M316 565q-35 0 -56.5 19t-21.5 49q0 21 8.5 39.5t23.5 32t34.5 21t41.5 7.5q35 0 56.5 -19t21.5 -49q0 -21 -8.5 -39.5t-23.5 -32t-34.5 -21t-41.5 -7.5zM339 697q-20 0 -35 -16t-15 -44q0 -36 34 -36q20 0 35 16t15 44q0 36 -34 36zM304 544q90 0 130 -36t40 -95
q0 -17 -2.5 -37t-6.5 -42l-35 -199q-5 -30 -8.5 -60t-5.5 -75h-86l4 76l-38 -48q-24 -23 -59 -32.5t-80 -9.5q-28 0 -54 8t-46 25t-32.5 43t-12.5 61q0 57 28 97t77 64t116 32.5t144 2.5l2 14q5 29 7 44.5t2 26.5q0 31 -19 52.5t-66 21.5q-68 0 -100 -28.5t-44 -83.5h-90
q17 85 79 131.5t156 46.5zM197 52q25 0 51 11t48 31t38 47.5t22 59.5l10 55q-52 6 -99 1.5t-83 -19.5t-57 -41.5t-21 -64.5q0 -39 25 -59.5t66 -20.5z" />
    <glyph glyph-name="ae" unicode="&#xe6;" horiz-adv-x="877" 
d="M459 239q-3 -22 -3 -42q0 -77 34 -111t86 -34t95.5 31t62.5 88h90q-16 -48 -44 -83t-63 -57.5t-75 -33.5t-81 -11q-63 0 -110.5 26t-67.5 89l-37 -54q-21 -17 -40 -29t-40 -19t-45.5 -10t-55.5 -3q-33 0 -61 9t-48.5 26.5t-32.5 41.5t-12 54q0 41 17.5 75t58 59.5
t105.5 39.5t159 14h34q6 34 8 50t2 27q0 45 -21.5 70.5t-72.5 25.5q-57 0 -89.5 -28.5t-44.5 -83.5h-90q17 85 79 131.5t156 46.5q40 0 68.5 -7t47 -19t29 -28.5t15.5 -35.5q39 43 88.5 66.5t109.5 23.5q94 0 140.5 -53.5t46.5 -143.5q0 -26 -4 -55t-12 -53h-382zM657 478
q-64 0 -113.5 -44t-72.5 -129h297q2 27 0.5 57.5t-12.5 56t-34 42.5t-65 17zM198 52q30 0 58 11t50.5 31.5t39 49.5t22.5 65l5 30q-14 1 -28 1h-27q-101 0 -156 -25t-55 -88q0 -36 24 -55.5t67 -19.5z" />
    <glyph glyph-name="ccedilla" unicode="&#xe7;" horiz-adv-x="531" 
d="M235 52q55 0 96.5 29.5t64.5 87.5h90q-38 -90 -98.5 -135t-153.5 -48l-19 -26q34 -6 51 -26.5t17 -48.5q0 -25 -10.5 -43t-28.5 -29.5t-42.5 -17t-52.5 -5.5q-34 0 -54 9l8 40q18 -7 51 -7q36 0 53.5 13.5t17.5 34.5q0 23 -22.5 35t-66.5 7l48 67q-71 11 -115 62.5
t-44 143.5q0 67 19.5 130t58 111.5t95 78t130.5 29.5q95 0 140.5 -52.5t46.5 -139.5h-90q-6 126 -113 126q-41 0 -76.5 -20.5t-61.5 -57t-40.5 -88t-14.5 -114.5q0 -76 33.5 -111t82.5 -35z" />
    <glyph glyph-name="egrave" unicode="&#xe8;" horiz-adv-x="539" 
d="M246 690h80l41 -110h-56zM121 239q-1 -11 -1.5 -21.5t-0.5 -20.5q0 -76 34 -110.5t86 -34.5t95.5 31t62.5 88h90q-16 -48 -44 -83t-63 -57.5t-75 -33.5t-81 -11q-89 0 -144 54t-55 154q0 58 16.5 120t51.5 113t91.5 84t135.5 33q94 0 147 -53.5t53 -143.5q0 -26 -4 -55
t-12 -53h-383zM307 478q-39 0 -68 -14.5t-50.5 -38.5t-35.5 -55t-22 -65h300q1 10 1.5 19t0.5 18q0 66 -34 101t-92 35z" />
    <glyph glyph-name="eacute" unicode="&#xe9;" horiz-adv-x="539" 
d="M301 580l81 110h80l-105 -110h-56zM121 239q-1 -11 -1.5 -21.5t-0.5 -20.5q0 -76 34 -110.5t86 -34.5t95.5 31t62.5 88h90q-16 -48 -44 -83t-63 -57.5t-75 -33.5t-81 -11q-89 0 -144 54t-55 154q0 58 16.5 120t51.5 113t91.5 84t135.5 33q94 0 147 -53.5t53 -143.5
q0 -26 -4 -55t-12 -53h-383zM307 478q-39 0 -68 -14.5t-50.5 -38.5t-35.5 -55t-22 -65h300q1 10 1.5 19t0.5 18q0 66 -34 101t-92 35z" />
    <glyph glyph-name="ecircumflex" unicode="&#xea;" horiz-adv-x="539" 
d="M239 580l87 110h59l47 -110h-64l-22 63l-44 -63h-63zM121 239q-1 -11 -1.5 -21.5t-0.5 -20.5q0 -76 34 -110.5t86 -34.5t95.5 31t62.5 88h90q-16 -48 -44 -83t-63 -57.5t-75 -33.5t-81 -11q-89 0 -144 54t-55 154q0 58 16.5 120t51.5 113t91.5 84t135.5 33
q94 0 147 -53.5t53 -143.5q0 -26 -4 -55t-12 -53h-383zM307 478q-39 0 -68 -14.5t-50.5 -38.5t-35.5 -55t-22 -65h300q1 10 1.5 19t0.5 18q0 66 -34 101t-92 35z" />
    <glyph glyph-name="edieresis" unicode="&#xeb;" horiz-adv-x="539" 
d="M262 583q-17 0 -28 11t-11 28q0 21 17.5 37t37.5 16q17 0 28 -11t11 -28q0 -21 -17.5 -37t-37.5 -16zM408 583q-17 0 -28 11t-11 28q0 21 17.5 37t37.5 16q17 0 28 -11t11 -28q0 -21 -17.5 -37t-37.5 -16zM121 239q-1 -11 -1.5 -21.5t-0.5 -20.5q0 -76 34 -110.5
t86 -34.5t95.5 31t62.5 88h90q-16 -48 -44 -83t-63 -57.5t-75 -33.5t-81 -11q-89 0 -144 54t-55 154q0 58 16.5 120t51.5 113t91.5 84t135.5 33q94 0 147 -53.5t53 -143.5q0 -26 -4 -55t-12 -53h-383zM307 478q-39 0 -68 -14.5t-50.5 -38.5t-35.5 -55t-22 -65h300
q1 10 1.5 19t0.5 18q0 66 -34 101t-92 35z" />
    <glyph glyph-name="igrave" unicode="&#xec;" horiz-adv-x="234" 
d="M150 580l-65 110h80l41 -110h-56zM28 0l94 530h86l-94 -530h-86z" />
    <glyph glyph-name="iacute" unicode="&#xed;" horiz-adv-x="234" 
d="M140 580l81 110h80l-105 -110h-56zM28 0l94 530h86l-94 -530h-86z" />
    <glyph glyph-name="icircumflex" unicode="&#xee;" horiz-adv-x="234" 
d="M78 580l87 110h59l47 -110h-64l-22 63l-44 -63h-63zM208 530l-94 -530h-86l94 530h86z" />
    <glyph glyph-name="idieresis" unicode="&#xef;" horiz-adv-x="234" 
d="M117 675q17 0 28 -11t11 -28q0 -21 -17.5 -37t-37.5 -16q-17 0 -28 11t-11 28q0 21 17.5 37t37.5 16zM263 675q17 0 28 -11t11 -28q0 -21 -17.5 -37t-37.5 -16q-17 0 -28 11t-11 28q0 21 17.5 37t37.5 16zM28 0l94 530h86l-94 -530h-86z" />
    <glyph glyph-name="eth" unicode="&#xf0;" horiz-adv-x="596" 
d="M491 641q26 -47 37 -113t11 -158q0 -69 -16.5 -138t-52.5 -123.5t-94 -88.5t-142 -34q-53 0 -92.5 17.5t-65.5 47t-38.5 69.5t-12.5 85q0 53 17.5 113t53.5 110t90 83t127 33q37 0 62 -6t50 -23l29 -52q-2 42 -9.5 80t-28.5 70l-137 -53l-18 49l118 45q-14 11 -30.5 21.5
t-36.5 18.5l60 51q26 -12 48 -26.5t39 -33.5l75 29l18 -49zM241 52q56 0 94.5 26t63 67t35.5 92t11 100q0 38 -11.5 64.5t-30 43.5t-42.5 25t-49 8q-52 0 -88.5 -26.5t-59.5 -67t-34 -88t-11 -88.5q0 -83 33 -119.5t89 -36.5z" />
    <glyph glyph-name="ntilde" unicode="&#xf1;" horiz-adv-x="595" 
d="M316 620q-16 0 -20 -20h-38q8 42 24.5 56.5t40.5 14.5q14 0 27 -3t32 -10q17 -6 26 -8.5t16 -2.5q16 0 20 20h38q-8 -42 -24.5 -56.5t-40.5 -14.5q-14 0 -27 3t-32 10q-17 6 -26 8.5t-16 2.5zM381 544q81 0 121.5 -36.5t40.5 -99.5q0 -10 -0.5 -19.5t-1.5 -21.5
t-3.5 -28.5t-7.5 -40.5l-54 -298h-86l53 292q6 34 8.5 55t2.5 37q0 41 -23 67.5t-80 24.5q-31 -1 -61.5 -13.5t-56 -41t-46 -74.5t-32.5 -114l-41 -233h-86l93 530h86l-16 -91l44 61q38 26 71.5 35t74.5 9z" />
    <glyph glyph-name="ograve" unicode="&#xf2;" horiz-adv-x="588" 
d="M261 690h80l41 -110h-56zM333 544q62 0 105 -19.5t70 -52t39.5 -75t12.5 -87.5q0 -54 -17.5 -111t-54 -104.5t-94.5 -78t-139 -30.5q-61 0 -104.5 19.5t-70.5 52t-39.5 75t-12.5 87.5q0 54 17.5 111t54 104.5t94.5 78t139 30.5zM266 52q50 0 87 23t62.5 59.5t38 82.5
t12.5 91q0 35 -8.5 66t-26 54t-44.5 36.5t-65 13.5q-49 0 -86.5 -23t-63 -59.5t-38 -82.5t-12.5 -91q0 -35 8.5 -66t26 -54t45 -36.5t64.5 -13.5z" />
    <glyph glyph-name="oacute" unicode="&#xf3;" horiz-adv-x="588" 
d="M316 580l81 110h80l-105 -110h-56zM333 544q62 0 105 -19.5t70 -52t39.5 -75t12.5 -87.5q0 -54 -17.5 -111t-54 -104.5t-94.5 -78t-139 -30.5q-61 0 -104.5 19.5t-70.5 52t-39.5 75t-12.5 87.5q0 54 17.5 111t54 104.5t94.5 78t139 30.5zM266 52q50 0 87 23t62.5 59.5
t38 82.5t12.5 91q0 35 -8.5 66t-26 54t-44.5 36.5t-65 13.5q-49 0 -86.5 -23t-63 -59.5t-38 -82.5t-12.5 -91q0 -35 8.5 -66t26 -54t45 -36.5t64.5 -13.5z" />
    <glyph glyph-name="ocircumflex" unicode="&#xf4;" horiz-adv-x="588" 
d="M254 580l87 110h59l47 -110h-64l-22 63l-44 -63h-63zM333 544q62 0 105 -19.5t70 -52t39.5 -75t12.5 -87.5q0 -54 -17.5 -111t-54 -104.5t-94.5 -78t-139 -30.5q-61 0 -104.5 19.5t-70.5 52t-39.5 75t-12.5 87.5q0 54 17.5 111t54 104.5t94.5 78t139 30.5zM266 52
q50 0 87 23t62.5 59.5t38 82.5t12.5 91q0 35 -8.5 66t-26 54t-44.5 36.5t-65 13.5q-49 0 -86.5 -23t-63 -59.5t-38 -82.5t-12.5 -91q0 -35 8.5 -66t26 -54t45 -36.5t64.5 -13.5z" />
    <glyph glyph-name="otilde" unicode="&#xf5;" horiz-adv-x="588" 
d="M305 620q-16 0 -20 -20h-38q8 42 24.5 56.5t40.5 14.5q14 0 27 -3t32 -10q17 -6 26 -8.5t16 -2.5q16 0 20 20h38q-8 -42 -24.5 -56.5t-40.5 -14.5q-14 0 -27 3t-32 10q-17 6 -26 8.5t-16 2.5zM333 544q62 0 105 -19.5t70 -52t39.5 -75t12.5 -87.5q0 -54 -17.5 -111
t-54 -104.5t-94.5 -78t-139 -30.5q-61 0 -104.5 19.5t-70.5 52t-39.5 75t-12.5 87.5q0 54 17.5 111t54 104.5t94.5 78t139 30.5zM266 52q50 0 87 23t62.5 59.5t38 82.5t12.5 91q0 35 -8.5 66t-26 54t-44.5 36.5t-65 13.5q-49 0 -86.5 -23t-63 -59.5t-38 -82.5t-12.5 -91
q0 -35 8.5 -66t26 -54t45 -36.5t64.5 -13.5z" />
    <glyph glyph-name="odieresis" unicode="&#xf6;" horiz-adv-x="588" 
d="M277 583q-17 0 -28 11t-11 28q0 21 17.5 37t37.5 16q17 0 28 -11t11 -28q0 -21 -17.5 -37t-37.5 -16zM423 583q-17 0 -28 11t-11 28q0 21 17.5 37t37.5 16q17 0 28 -11t11 -28q0 -21 -17.5 -37t-37.5 -16zM333 544q62 0 105 -19.5t70 -52t39.5 -75t12.5 -87.5
q0 -54 -17.5 -111t-54 -104.5t-94.5 -78t-139 -30.5q-61 0 -104.5 19.5t-70.5 52t-39.5 75t-12.5 87.5q0 54 17.5 111t54 104.5t94.5 78t139 30.5zM266 52q50 0 87 23t62.5 59.5t38 82.5t12.5 91q0 35 -8.5 66t-26 54t-44.5 36.5t-65 13.5q-49 0 -86.5 -23t-63 -59.5
t-38 -82.5t-12.5 -91q0 -35 8.5 -66t26 -54t45 -36.5t64.5 -13.5z" />
    <glyph glyph-name="divide" unicode="&#xf7;" 
d="M320 533q21 0 34 -12.5t13 -32.5q0 -28 -20 -47.5t-47 -19.5q-22 0 -34.5 13t-12.5 33q0 28 20.5 47t46.5 19zM65 291l10 56h420l-10 -56h-420zM264 213q22 0 34.5 -13t12.5 -33q0 -28 -20.5 -47t-46.5 -19q-21 0 -34 12.5t-13 32.5q0 28 20 47.5t47 19.5z" />
    <glyph glyph-name="oslash" unicode="&#xf8;" horiz-adv-x="630" 
d="M545 429q13 -27 19 -57t6 -62q0 -54 -17.5 -111t-54 -104.5t-94.5 -78t-139 -30.5q-57 0 -98.5 17t-68.5 46l-80 -68l-34 41l83 70q-15 29 -22 61t-7 67q0 54 17.5 111t54 104.5t94.5 78t139 30.5q61 0 103.5 -19t69.5 -51l88 75l34 -41zM132 222q0 -35 9 -67l308 262
q-17 28 -46 44.5t-71 16.5q-49 0 -86.5 -23t-63 -59.5t-38 -82.5t-12.5 -91zM476 308q0 30 -6 57l-306 -260q17 -24 45 -38.5t67 -14.5q50 0 87 23t62.5 59.5t38 82.5t12.5 91z" />
    <glyph glyph-name="ugrave" unicode="&#xf9;" horiz-adv-x="590" 
d="M261 690h80l41 -110h-56zM470 0h-86l16 91l-44 -61q-38 -26 -71.5 -35t-74.5 -9q-81 0 -121.5 36.5t-40.5 99.5q0 11 0.5 20.5t1.5 21.5t4 28t7 40l54 298h86l-53 -292q-6 -34 -8.5 -55t-2.5 -37q0 -41 23 -67.5t80 -24.5q32 1 62 13.5t55.5 41t46 74.5t32.5 114l41 233
h86z" />
    <glyph glyph-name="uacute" unicode="&#xfa;" horiz-adv-x="590" 
d="M316 580l81 110h80l-105 -110h-56zM470 0h-86l16 91l-44 -61q-38 -26 -71.5 -35t-74.5 -9q-81 0 -121.5 36.5t-40.5 99.5q0 11 0.5 20.5t1.5 21.5t4 28t7 40l54 298h86l-53 -292q-6 -34 -8.5 -55t-2.5 -37q0 -41 23 -67.5t80 -24.5q32 1 62 13.5t55.5 41t46 74.5
t32.5 114l41 233h86z" />
    <glyph glyph-name="ucircumflex" unicode="&#xfb;" horiz-adv-x="590" 
d="M254 580l87 110h59l47 -110h-64l-22 63l-44 -63h-63zM470 0h-86l16 91l-44 -61q-38 -26 -71.5 -35t-74.5 -9q-81 0 -121.5 36.5t-40.5 99.5q0 11 0.5 20.5t1.5 21.5t4 28t7 40l54 298h86l-53 -292q-6 -34 -8.5 -55t-2.5 -37q0 -41 23 -67.5t80 -24.5q32 1 62 13.5
t55.5 41t46 74.5t32.5 114l41 233h86z" />
    <glyph glyph-name="udieresis" unicode="&#xfc;" horiz-adv-x="590" 
d="M277 583q-17 0 -28 11t-11 28q0 21 17.5 37t37.5 16q17 0 28 -11t11 -28q0 -21 -17.5 -37t-37.5 -16zM423 583q-17 0 -28 11t-11 28q0 21 17.5 37t37.5 16q17 0 28 -11t11 -28q0 -21 -17.5 -37t-37.5 -16zM470 0h-86l16 91l-44 -61q-38 -26 -71.5 -35t-74.5 -9
q-81 0 -121.5 36.5t-40.5 99.5q0 11 0.5 20.5t1.5 21.5t4 28t7 40l54 298h86l-53 -292q-6 -34 -8.5 -55t-2.5 -37q0 -41 23 -67.5t80 -24.5q32 1 62 13.5t55.5 41t46 74.5t32.5 114l41 233h86z" />
    <glyph glyph-name="yacute" unicode="&#xfd;" horiz-adv-x="494" 
d="M266 580l81 110h80l-105 -110h-56zM252 0q-34 -61 -62 -101.5t-55 -64.5t-56 -34t-67 -10q-23 0 -42 3l12 71q16 -3 31 -3q40 0 68.5 19.5t57.5 73.5l9 17l-113 559h98l76 -467l239 467h99z" />
    <glyph glyph-name="thorn" unicode="&#xfe;" horiz-adv-x="614" 
d="M390 544q50 0 87 -16.5t61.5 -46t37 -69t12.5 -84.5q0 -61 -19 -122.5t-58 -110t-98 -79t-139 -30.5q-33 0 -68.5 12t-52.5 32l-24 52l-50 -278h-86l166 931h86l-52 -289l50 56q26 19 66 30.5t81 11.5zM286 52q50 0 89 23.5t65.5 62t40 87t13.5 99.5q0 68 -31 111t-97 43
q-33 0 -65 -11t-59.5 -36t-48.5 -64.5t-31 -96.5l-5 -29q-6 -37 -2 -71t19.5 -60t43.5 -42t68 -16z" />
    <glyph glyph-name="ydieresis" unicode="&#xff;" horiz-adv-x="494" 
d="M227 583q-17 0 -28 11t-11 28q0 21 17.5 37t37.5 16q17 0 28 -11t11 -28q0 -21 -17.5 -37t-37.5 -16zM373 583q-17 0 -28 11t-11 28q0 21 17.5 37t37.5 16q17 0 28 -11t11 -28q0 -21 -17.5 -37t-37.5 -16zM252 0q-34 -61 -62 -101.5t-55 -64.5t-56 -34t-67 -10
q-23 0 -42 3l12 71q16 -3 31 -3q40 0 68.5 19.5t57.5 73.5l9 17l-113 559h98l76 -467l239 467h99z" />
    <glyph glyph-name="Amacron" unicode="&#x100;" horiz-adv-x="646" 
d="M310 757l10 52h240l-10 -52h-240zM207 244l-126 -244h-98l370 690h122l116 -690h-93l-38 244h-253zM402 622l-159 -308h206z" />
    <glyph glyph-name="amacron" unicode="&#x101;" horiz-adv-x="506" 
d="M203 604l10 52h240l-10 -52h-240zM304 544q90 0 130 -36t40 -95q0 -17 -2.5 -37t-6.5 -42l-35 -199q-5 -30 -8.5 -60t-5.5 -75h-86l4 76l-38 -48q-24 -23 -59 -32.5t-80 -9.5q-28 0 -54 8t-46 25t-32.5 43t-12.5 61q0 57 28 97t77 64t116 32.5t144 2.5l2 14q5 29 7 44.5
t2 26.5q0 31 -19 52.5t-66 21.5q-68 0 -100 -28.5t-44 -83.5h-90q17 85 79 131.5t156 46.5zM197 52q25 0 51 11t48 31t38 47.5t22 59.5l10 55q-52 6 -99 1.5t-83 -19.5t-57 -41.5t-21 -64.5q0 -39 25 -59.5t66 -20.5z" />
    <glyph glyph-name="Abreve" unicode="&#x102;" horiz-adv-x="646" 
d="M424 722q-28 0 -45.5 9.5t-26.5 24.5t-11 34.5t1 39.5h53q-4 -25 5 -39t34 -14q22 0 37.5 13t21.5 40h53q-10 -52 -38.5 -80t-83.5 -28zM207 244l-126 -244h-98l370 690h122l116 -690h-93l-38 244h-253zM402 622l-159 -308h206z" />
    <glyph glyph-name="abreve" unicode="&#x103;" horiz-adv-x="506" 
d="M316 566q-32 0 -50 11t-26 29t-8 40t4 44h53q-1 -13 -1.5 -25.5t3 -22.5t11.5 -15.5t24 -5.5q22 0 37.5 15t23.5 54h53q-11 -63 -40.5 -93.5t-83.5 -30.5zM304 544q90 0 130 -36t40 -95q0 -17 -2.5 -37t-6.5 -42l-35 -199q-5 -30 -8.5 -60t-5.5 -75h-86l4 76l-38 -48
q-24 -23 -59 -32.5t-80 -9.5q-28 0 -54 8t-46 25t-32.5 43t-12.5 61q0 57 28 97t77 64t116 32.5t144 2.5l2 14q5 29 7 44.5t2 26.5q0 31 -19 52.5t-66 21.5q-68 0 -100 -28.5t-44 -83.5h-90q17 85 79 131.5t156 46.5zM197 52q25 0 51 11t48 31t38 47.5t22 59.5l10 55
q-52 6 -99 1.5t-83 -19.5t-57 -41.5t-21 -64.5q0 -39 25 -59.5t66 -20.5z" />
    <glyph glyph-name="Aogonek" unicode="&#x104;" horiz-adv-x="646" 
d="M560 0q-25 -4 -46.5 -18t-37.5 -32.5t-24.5 -39t-8.5 -37.5q0 -23 9.5 -32.5t27.5 -9.5q30 0 59 20l-9 -46q-18 -13 -41.5 -20.5t-51.5 -7.5q-32 0 -56 16.5t-24 56.5q0 48 35 92t104 68l-36 234h-253l-126 -244h-98l370 690h122l116 -690h-31zM402 622l-159 -308h206z
" />
    <glyph glyph-name="aogonek" unicode="&#x105;" horiz-adv-x="506" 
d="M304 544q90 0 130 -36t40 -95q0 -17 -2.5 -37t-6.5 -42l-35 -199q-5 -30 -8.5 -60t-5.5 -75h-23q-25 -4 -46.5 -18t-37.5 -32.5t-24.5 -39t-8.5 -37.5q0 -23 9.5 -32.5t27.5 -9.5q30 0 59 20l-9 -46q-18 -13 -41.5 -20.5t-51.5 -7.5q-32 0 -56 16.5t-24 56.5q0 48 36 92
t105 69l3 65l-38 -48q-24 -23 -59 -32.5t-80 -9.5q-28 0 -54 8t-46 25t-32.5 43t-12.5 61q0 57 28 97t77 64t116 32.5t144 2.5l2 14q5 29 7 44.5t2 26.5q0 31 -19 52.5t-66 21.5q-68 0 -100 -28.5t-44 -83.5h-90q17 85 79 131.5t156 46.5zM197 52q25 0 51 11t48 31t38 47.5
t22 59.5l10 55q-52 6 -99 1.5t-83 -19.5t-57 -41.5t-21 -64.5q0 -39 25 -59.5t66 -20.5z" />
    <glyph glyph-name="Cacute" unicode="&#x106;" horiz-adv-x="717" 
d="M417 736l70 94h80l-94 -94h-56zM444 704q66 0 114.5 -17.5t80 -49t45.5 -74t10 -93.5l-1 -10h-86v10q0 90 -45 128t-132 38q-62 0 -113 -28t-87 -76t-56 -112.5t-20 -137.5q0 -116 49 -172t135 -56t138.5 46t80.5 120l4 10h86l-3 -10q-14 -51 -41 -93.5t-66.5 -74
t-93.5 -49t-122 -17.5q-64 0 -113.5 20t-83 57.5t-50.5 90t-17 117.5q0 92 28.5 171t80 137t123 91.5t155.5 33.5z" />
    <glyph glyph-name="cacute" unicode="&#x107;" horiz-adv-x="531" 
d="M293 580l81 110h80l-105 -110h-56zM328 544q95 0 140.5 -52.5t46.5 -139.5h-90q-6 126 -113 126q-41 0 -76.5 -20.5t-61.5 -57t-40.5 -88t-14.5 -114.5q0 -76 33.5 -111t82.5 -35q55 0 96.5 29.5t64.5 87.5h90q-39 -93 -102.5 -138t-161.5 -45q-43 0 -79 13.5t-62 39.5
t-41 65t-15 91q0 67 19.5 130t58 111.5t95 78t130.5 29.5z" />
    <glyph glyph-name="Cdotaccent" unicode="&#x10a;" horiz-adv-x="717" 
d="M466 829q17 0 28 -11t11 -28q0 -21 -17.5 -37t-37.5 -16q-17 0 -28 11t-11 28q0 21 17.5 37t37.5 16zM444 704q66 0 114.5 -17.5t80 -49t45.5 -74t10 -93.5l-1 -10h-86v10q0 90 -45 128t-132 38q-62 0 -113 -28t-87 -76t-56 -112.5t-20 -137.5q0 -116 49 -172t135 -56
t138.5 46t80.5 120l4 10h86l-3 -10q-14 -51 -41 -93.5t-66.5 -74t-93.5 -49t-122 -17.5q-64 0 -113.5 20t-83 57.5t-50.5 90t-17 117.5q0 92 28.5 171t80 137t123 91.5t155.5 33.5z" />
    <glyph glyph-name="cdotaccent" unicode="&#x10b;" horiz-adv-x="531" 
d="M349 704q21 0 34 -13t13 -33q0 -27 -19 -45.5t-46 -18.5q-21 0 -34 13t-13 33q0 27 19 45.5t46 18.5zM328 544q95 0 140.5 -52.5t46.5 -139.5h-90q-6 126 -113 126q-41 0 -76.5 -20.5t-61.5 -57t-40.5 -88t-14.5 -114.5q0 -76 33.5 -111t82.5 -35q55 0 96.5 29.5
t64.5 87.5h90q-39 -93 -102.5 -138t-161.5 -45q-43 0 -79 13.5t-62 39.5t-41 65t-15 91q0 67 19.5 130t58 111.5t95 78t130.5 29.5z" />
    <glyph glyph-name="Ccaron" unicode="&#x10c;" horiz-adv-x="717" 
d="M370 830h67l21 -55l39 55h68l-83 -94h-61zM444 704q66 0 114.5 -17.5t80 -49t45.5 -74t10 -93.5l-1 -10h-86v10q0 90 -45 128t-132 38q-62 0 -113 -28t-87 -76t-56 -112.5t-20 -137.5q0 -116 49 -172t135 -56t138.5 46t80.5 120l4 10h86l-3 -10q-14 -51 -41 -93.5
t-66.5 -74t-93.5 -49t-122 -17.5q-64 0 -113.5 20t-83 57.5t-50.5 90t-17 117.5q0 92 28.5 171t80 137t123 91.5t155.5 33.5z" />
    <glyph glyph-name="ccaron" unicode="&#x10d;" horiz-adv-x="531" 
d="M251 690h64l22 -63l44 63h63l-87 -110h-59zM235 52q55 0 96.5 29.5t64.5 87.5h90q-39 -93 -102.5 -138t-161.5 -45q-43 0 -79 13.5t-62 39.5t-41 65t-15 91q0 67 19.5 130t58 111.5t95 78t130.5 29.5q95 0 140.5 -52.5t46.5 -139.5h-90q-6 126 -113 126
q-41 0 -76.5 -20.5t-61.5 -57t-40.5 -88t-14.5 -114.5q0 -76 33.5 -111t82.5 -35z" />
    <glyph glyph-name="Dcaron" unicode="&#x10e;" horiz-adv-x="711" 
d="M312 830h67l21 -55l39 55h68l-83 -94h-61zM438 687q51 -4 97 -24.5t80 -57t54 -89.5t20 -124q0 -67 -22.5 -133t-67.5 -120t-113 -90.5t-159 -45.5q-27 -2 -46 -2.5t-43 -0.5h-186l122 690h177q28 0 44.5 -0.5t42.5 -2.5zM334 74q69 10 118 39.5t80.5 72.5t46.5 96
t15 108q0 54 -13.5 94t-36.5 68t-54 43.5t-66 20.5q-17 2 -34.5 3t-41.5 1h-101l-97 -550h106q23 0 42 1t36 3z" />
    <glyph glyph-name="dcaron" unicode="&#x10f;" horiz-adv-x="612" 
d="M622 735l-130 -735h-86l15 85l-50 -57q-26 -19 -66 -30.5t-81 -11.5q-49 0 -86.5 16.5t-62 46t-37 69t-12.5 84.5q0 62 19 123t58 109.5t98 79t139 30.5q33 0 68.5 -12t52.5 -32l24 -52l51 287h86zM757 728l-81 -137h-48l60 144h69v-7zM457 289q6 37 2 71t-19.5 60.5
t-43 42t-68.5 15.5q-50 0 -89 -23.5t-65.5 -62t-40 -87t-13.5 -99.5q0 -68 31 -111t97 -43q33 0 65 11t59.5 36t48.5 64.5t31 96.5z" />
    <glyph glyph-name="Dcroat" unicode="&#x110;" horiz-adv-x="711" 
d="M438 687q51 -4 97 -24.5t80 -57t54 -89.5t20 -124q0 -67 -22.5 -133t-67.5 -120t-113 -90.5t-159 -45.5q-27 -2 -46 -2.5t-43 -0.5h-186l54 305h-95l10 56h95l58 329h177q28 0 44.5 -0.5t42.5 -2.5zM334 74q69 10 118 39.5t80.5 72.5t46.5 96t15 108q0 54 -13.5 94
t-36.5 68t-54 43.5t-66 20.5q-17 2 -34.5 3t-41.5 1h-101l-46 -259h124l-10 -56h-123l-42 -235h106q23 0 42 1t36 3z" />
    <glyph glyph-name="dcroat" unicode="&#x111;" horiz-adv-x="614" 
d="M597 595l-105 -595h-86l15 85l-50 -57q-26 -19 -66 -30.5t-81 -11.5q-49 0 -86.5 16.5t-62 46t-37 69t-12.5 84.5q0 62 19 123t58 109.5t98 79t139 30.5q33 0 68.5 -12t52.5 -32l24 -52l26 147h-118l10 56h118l15 84h86l-15 -84h42l-10 -56h-42zM457 289q6 37 2 71
t-19.5 60.5t-43 42t-68.5 15.5q-50 0 -89 -23.5t-65.5 -62t-40 -87t-13.5 -99.5q0 -68 31 -111t97 -43q33 0 65 11t59.5 36t48.5 64.5t31 96.5z" />
    <glyph glyph-name="Emacron" unicode="&#x112;" horiz-adv-x="593" 
d="M301 757l10 52h240l-10 -52h-240zM205 380h333l-12 -70h-333l-43 -240h374l-13 -70h-459l122 690h449l-13 -70h-362z" />
    <glyph glyph-name="emacron" unicode="&#x113;" horiz-adv-x="539" 
d="M219 604l10 52h240l-10 -52h-240zM121 239q-1 -11 -1.5 -21.5t-0.5 -20.5q0 -76 34 -110.5t86 -34.5t95.5 31t62.5 88h90q-16 -48 -44 -83t-63 -57.5t-75 -33.5t-81 -11q-89 0 -144 54t-55 154q0 58 16.5 120t51.5 113t91.5 84t135.5 33q94 0 147 -53.5t53 -143.5
q0 -26 -4 -55t-12 -53h-383zM307 478q-39 0 -68 -14.5t-50.5 -38.5t-35.5 -55t-22 -65h300q1 10 1.5 19t0.5 18q0 66 -34 101t-92 35z" />
    <glyph glyph-name="Edotaccent" unicode="&#x116;" horiz-adv-x="593" 
d="M418 737q-17 0 -28 11t-11 28q0 21 17.5 37t37.5 16q17 0 28 -11t11 -28q0 -21 -17.5 -37t-37.5 -16zM205 380h333l-12 -70h-333l-43 -240h374l-13 -70h-459l122 690h449l-13 -70h-362z" />
    <glyph glyph-name="edotaccent" unicode="&#x117;" horiz-adv-x="539" 
d="M339 594q-21 0 -34 13t-13 33q0 27 19 45.5t46 18.5q21 0 34 -13t13 -33q0 -27 -19 -45.5t-46 -18.5zM121 239q-1 -11 -1.5 -21.5t-0.5 -20.5q0 -76 34 -110.5t86 -34.5t95.5 31t62.5 88h90q-16 -48 -44 -83t-63 -57.5t-75 -33.5t-81 -11q-89 0 -144 54t-55 154
q0 58 16.5 120t51.5 113t91.5 84t135.5 33q94 0 147 -53.5t53 -143.5q0 -26 -4 -55t-12 -53h-383zM307 478q-39 0 -68 -14.5t-50.5 -38.5t-35.5 -55t-22 -65h300q1 10 1.5 19t0.5 18q0 66 -34 101t-92 35z" />
    <glyph glyph-name="Eogonek" unicode="&#x118;" horiz-adv-x="593" 
d="M205 380h333l-12 -70h-333l-43 -240h374l-12 -70q-25 -4 -46.5 -18t-37.5 -32.5t-24.5 -39t-8.5 -37.5q0 -23 9.5 -32.5t27.5 -9.5q30 0 59 20l-9 -46q-18 -13 -41.5 -20.5t-51.5 -7.5q-32 0 -56 16.5t-24 56.5q0 43 28.5 83.5t85.5 66.5h-371l122 690h449l-13 -70h-362z
" />
    <glyph glyph-name="eogonek" unicode="&#x119;" horiz-adv-x="539" 
d="M121 239q-1 -11 -1.5 -21.5t-0.5 -20.5q0 -76 34 -110.5t86 -34.5t95.5 31t62.5 88h90q-14 -43 -38 -75.5t-54 -55t-65 -35.5t-71 -17q-37 -19 -59 -53t-22 -62q0 -23 9.5 -32.5t27.5 -9.5q30 0 59 20l-9 -46q-18 -13 -41.5 -20.5t-51.5 -7.5q-32 0 -56 16.5t-24 56.5
q0 39 23.5 76t69.5 63q-73 11 -116.5 63t-43.5 142q0 58 16.5 120t51.5 113t91.5 84t135.5 33q94 0 147 -53.5t53 -143.5q0 -26 -4 -55t-12 -53h-383zM307 478q-39 0 -68 -14.5t-50.5 -38.5t-35.5 -55t-22 -65h300q1 10 1.5 19t0.5 18q0 66 -34 101t-92 35z" />
    <glyph glyph-name="Ecaron" unicode="&#x11a;" horiz-adv-x="593" 
d="M338 830h67l21 -55l39 55h68l-83 -94h-61zM205 380h333l-12 -70h-333l-43 -240h374l-13 -70h-459l122 690h449l-13 -70h-362z" />
    <glyph glyph-name="ecaron" unicode="&#x11b;" horiz-adv-x="539" 
d="M259 690h64l22 -63l44 63h63l-87 -110h-59zM121 239q-1 -11 -1.5 -21.5t-0.5 -20.5q0 -76 34 -110.5t86 -34.5t95.5 31t62.5 88h90q-16 -48 -44 -83t-63 -57.5t-75 -33.5t-81 -11q-89 0 -144 54t-55 154q0 58 16.5 120t51.5 113t91.5 84t135.5 33q94 0 147 -53.5
t53 -143.5q0 -26 -4 -55t-12 -53h-383zM307 478q-39 0 -68 -14.5t-50.5 -38.5t-35.5 -55t-22 -65h300q1 10 1.5 19t0.5 18q0 66 -34 101t-92 35z" />
    <glyph glyph-name="Gbreve" unicode="&#x11e;" horiz-adv-x="757" 
d="M540 722q-28 0 -45.5 9.5t-26.5 24.5t-11 34.5t1 39.5h53q-4 -25 5 -39t34 -14q22 0 37.5 13t21.5 40h53q-10 -52 -38.5 -80t-83.5 -28zM454 704q66 0 113 -17.5t76.5 -49t42 -74t8.5 -93.5l-1 -10h-86v10q0 91 -40 128.5t-127 37.5q-62 0 -114.5 -28t-90.5 -76
t-59.5 -112.5t-21.5 -137.5q0 -50 11.5 -92t34 -72t55.5 -47t76 -17q42 0 80.5 15.5t69.5 43t52.5 66t29.5 84.5h-161l13 70h247l-59 -333h-76l21 119l-42 -63q-35 -33 -83.5 -51.5t-108.5 -18.5q-64 0 -112.5 21.5t-80.5 60t-48.5 90.5t-16.5 113q0 92 30.5 171t84 137
t126.5 91.5t157 33.5z" />
    <glyph glyph-name="gbreve" unicode="&#x11f;" horiz-adv-x="612" 
d="M360 566q-32 0 -50 11t-26 29t-8 40t4 44h53q-1 -13 -1.5 -25.5t3 -22.5t11.5 -15.5t24 -5.5q22 0 37.5 15t23.5 54h53q-11 -63 -40.5 -93.5t-83.5 -30.5zM515 130q-5 -25 -9.5 -53t-9.5 -50q-24 -117 -97.5 -177t-196.5 -60q-49 0 -88.5 11.5t-67 34t-40.5 55t-10 74.5
l1 10h87l-1 -9q-3 -49 29.5 -79.5t101.5 -30.5q79 0 128 42.5t66 119.5q4 19 7 32.5t5 25.5l2 9l-51 -57q-26 -19 -66 -30.5t-81 -11.5q-49 0 -86.5 16.5t-62 46t-37 69t-12.5 84.5q0 62 19 123t58 109.5t98 79t139 30.5q33 0 68.5 -12t52.5 -32l24 -53l15 83h86zM248 52
q33 0 65 11t59.5 36t48.5 64.5t31 96.5v-5l7 41l-2 -7q6 37 2 71t-19.5 60.5t-43 42t-68.5 15.5q-50 0 -89 -23.5t-65.5 -62t-40 -87t-13.5 -99.5q0 -68 31 -111t97 -43z" />
    <glyph glyph-name="Gdotaccent" unicode="&#x120;" horiz-adv-x="757" 
d="M543 737q-17 0 -28 11t-11 28q0 21 17.5 37t37.5 16q17 0 28 -11t11 -28q0 -21 -17.5 -37t-37.5 -16zM454 704q66 0 113 -17.5t76.5 -49t42 -74t8.5 -93.5l-1 -10h-86v10q0 91 -40 128.5t-127 37.5q-62 0 -114.5 -28t-90.5 -76t-59.5 -112.5t-21.5 -137.5q0 -50 11.5 -92
t34 -72t55.5 -47t76 -17q42 0 80.5 15.5t69.5 43t52.5 66t29.5 84.5h-161l13 70h247l-59 -333h-76l21 119l-42 -63q-35 -33 -83.5 -51.5t-108.5 -18.5q-64 0 -112.5 21.5t-80.5 60t-48.5 90.5t-16.5 113q0 92 30.5 171t84 137t126.5 91.5t157 33.5z" />
    <glyph glyph-name="gdotaccent" unicode="&#x121;" horiz-adv-x="612" 
d="M367 594q-21 0 -34 13t-13 33q0 27 19 45.5t46 18.5q21 0 34 -13t13 -33q0 -27 -19 -45.5t-46 -18.5zM515 130q-5 -25 -9.5 -53t-9.5 -50q-24 -117 -97.5 -177t-196.5 -60q-49 0 -88.5 11.5t-67 34t-40.5 55t-10 74.5l1 10h87l-1 -9q-3 -49 29.5 -79.5t101.5 -30.5
q79 0 128 42.5t66 119.5q4 19 7 32.5t5 25.5l2 9l-51 -57q-26 -19 -66 -30.5t-81 -11.5q-49 0 -86.5 16.5t-62 46t-37 69t-12.5 84.5q0 62 19 123t58 109.5t98 79t139 30.5q33 0 68.5 -12t52.5 -32l24 -53l15 83h86zM248 52q33 0 65 11t59.5 36t48.5 64.5t31 96.5v-5l7 41
l-2 -7q6 37 2 71t-19.5 60.5t-43 42t-68.5 15.5q-50 0 -89 -23.5t-65.5 -62t-40 -87t-13.5 -99.5q0 -68 31 -111t97 -43z" />
    <glyph glyph-name="Gcommaaccent" unicode="&#x122;" horiz-adv-x="757" 
d="M454 704q66 0 113 -17.5t76.5 -49t42 -74t8.5 -93.5l-1 -10h-86v10q0 91 -40 128.5t-127 37.5q-62 0 -114.5 -28t-90.5 -76t-59.5 -112.5t-21.5 -137.5q0 -50 11.5 -92t34 -72t55.5 -47t76 -17q42 0 80.5 15.5t69.5 43t52.5 66t29.5 84.5h-161l13 70h247l-59 -333h-76
l21 119l-42 -63q-35 -33 -83.5 -51.5t-108.5 -18.5q-64 0 -112.5 21.5t-80.5 60t-48.5 90.5t-16.5 113q0 92 30.5 171t84 137t126.5 91.5t157 33.5zM324 -51v-7l-81 -137h-48l60 144h69z" />
    <glyph glyph-name="gcommaaccent" unicode="&#x123;" horiz-adv-x="612" 
d="M319 581v7l81 137h48l-60 -144h-69zM515 130q-5 -25 -9.5 -53t-9.5 -50q-24 -117 -97.5 -177t-196.5 -60q-49 0 -88.5 11.5t-67 34t-40.5 55t-10 74.5l1 10h87l-1 -9q-3 -49 29.5 -79.5t101.5 -30.5q79 0 128 42.5t66 119.5q4 19 7 32.5t5 25.5l2 9l-51 -57
q-26 -19 -66 -30.5t-81 -11.5q-49 0 -86.5 16.5t-62 46t-37 69t-12.5 84.5q0 62 19 123t58 109.5t98 79t139 30.5q33 0 68.5 -12t52.5 -32l24 -53l15 83h86zM248 52q33 0 65 11t59.5 36t48.5 64.5t31 96.5v-5l7 41l-2 -7q6 37 2 71t-19.5 60.5t-43 42t-68.5 15.5
q-50 0 -89 -23.5t-65.5 -62t-40 -87t-13.5 -99.5q0 -68 31 -111t97 -43z" />
    <glyph glyph-name="Hbar" unicode="&#x126;" horiz-adv-x="729" 
d="M693 502l-89 -502h-86l53 302h-380l-53 -302h-86l89 502h-40l10 56h40l23 132h86l-23 -132h380l23 132h86l-23 -132h40l-10 -56h-40zM227 502l-23 -128h380l23 128h-380z" />
    <glyph glyph-name="hbar" unicode="&#x127;" horiz-adv-x="613" 
d="M399 544q81 0 121.5 -36.5t40.5 -99.5q0 -10 -0.5 -19.5t-1.5 -21.5t-3.5 -28.5t-7.5 -40.5l-54 -298h-86l53 292q6 34 8.5 55t2.5 37q0 41 -23 67.5t-80 24.5q-31 -1 -61.5 -13.5t-56 -41t-46 -74.5t-32.5 -114l-41 -233h-86l105 595h-59l10 56h58l16 89h86l-16 -89h102
l-10 -56h-101l-28 -156l44 61q38 26 71.5 35t74.5 9z" />
    <glyph glyph-name="Imacron" unicode="&#x12a;" horiz-adv-x="263" 
d="M108 757l10 52h240l-10 -52h-240zM52 0l122 690h86l-122 -690h-86z" />
    <glyph glyph-name="imacron" unicode="&#x12b;" horiz-adv-x="234" 
d="M58 604l10 52h240l-10 -52h-240zM28 0l94 530h86l-94 -530h-86z" />
    <glyph glyph-name="Iogonek" unicode="&#x12e;" horiz-adv-x="263" 
d="M138 0h-24q-25 -4 -46.5 -18t-37.5 -32.5t-24.5 -39t-8.5 -37.5q0 -23 9.5 -32.5t27.5 -9.5q30 0 59 20l-9 -46q-18 -13 -41.5 -20.5t-51.5 -7.5q-32 0 -56 16.5t-24 56.5q0 48 36 92.5t107 68.5l120 679h86z" />
    <glyph glyph-name="iogonek" unicode="&#x12f;" horiz-adv-x="234" 
d="M196 704q21 0 34 -13t13 -33q0 -27 -19 -45.5t-46 -18.5q-21 0 -34 13t-13 33q0 27 19 45.5t46 18.5zM208 530l-94 -530h-23q-25 -4 -46.5 -18t-37.5 -32.5t-24.5 -39t-8.5 -37.5q0 -23 9.5 -32.5t27.5 -9.5q30 0 59 20l-9 -46q-18 -13 -41.5 -20.5t-51.5 -7.5
q-32 0 -56 16.5t-24 56.5q0 48 36 92.5t106 68.5l92 519h86z" />
    <glyph glyph-name="Idotaccent" unicode="&#x130;" horiz-adv-x="263" 
d="M241 829q17 0 28 -11t11 -28q0 -21 -17.5 -37t-37.5 -16q-17 0 -28 11t-11 28q0 21 17.5 37t37.5 16zM52 0l122 690h86l-122 -690h-86z" />
    <glyph glyph-name="dotlessi" unicode="&#x131;" horiz-adv-x="234" 
d="M28 0l94 530h86l-94 -530h-86z" />
    <glyph glyph-name="IJ" unicode="&#x132;" horiz-adv-x="790" 
d="M52 0l122 690h86l-122 -690h-86zM729 264q-4 -20 -7.5 -38.5t-9.5 -44.5q-10 -43 -29.5 -79t-49.5 -62t-71.5 -40t-96.5 -14q-48 0 -85 14.5t-60.5 41.5t-32.5 65.5t-2 86.5l6 41h86l-5 -41q-18 -140 107 -140q60 0 96 32t53 100q4 15 7.5 34.5t8.5 46.5l74 423h86z" />
    <glyph glyph-name="ij" unicode="&#x133;" horiz-adv-x="437" 
d="M196 704q21 0 34 -13t13 -33q0 -27 -19 -45.5t-46 -18.5q-21 0 -34 13t-13 33q0 27 19 45.5t46 18.5zM412 704q21 0 34 -13t13 -33q0 -27 -19 -45.5t-46 -18.5q-21 0 -34 13t-13 33q0 27 19 45.5t46 18.5zM28 0l94 530h86l-94 -530h-86zM326 -46l-6.5 -32.5t-7.5 -31.5
q-14 -48 -47 -74t-95 -26h-21.5t-19.5 2l13 70q69 -9 86 43q4 11 6.5 23t6.5 32l100 570h86z" />
    <glyph glyph-name="Kcommaaccent" unicode="&#x136;" horiz-adv-x="629" 
d="M566 0h-105l-226 298l-52 -46l-45 -252h-86l122 690h86l-60 -339l397 339h105l-404 -345zM321 -51v-7l-81 -137h-48l60 144h69z" />
    <glyph glyph-name="kcommaaccent" unicode="&#x137;" horiz-adv-x="517" 
d="M474 0h-103l-160 231l-66 -58l-31 -173h-86l130 735h86l-82 -466l293 261h110l-291 -251zM262 -51v-7l-81 -137h-48l60 144h69z" />
    <glyph glyph-name="Lacute" unicode="&#x139;" horiz-adv-x="578" 
d="M192 736l70 94h80l-94 -94h-56zM511 0h-459l122 690h86l-110 -620h374z" />
    <glyph glyph-name="lacute" unicode="&#x13a;" horiz-adv-x="248" 
d="M171 785l81 110h80l-105 -110h-56zM136 152q-4 -20 -5.5 -31.5t-1.5 -20.5q0 -26 14 -33t44 -4l-11 -63q-15 -2 -31 -3t-31 -1q-34 0 -55.5 13t-21.5 52q0 11 2.5 29t10.5 59l103 586h86z" />
    <glyph glyph-name="Lcommaaccent" unicode="&#x13b;" horiz-adv-x="578" 
d="M511 0h-459l122 690h86l-110 -620h374zM317 -51v-7l-81 -137h-48l60 144h69z" />
    <glyph glyph-name="lcommaaccent" unicode="&#x13c;" horiz-adv-x="248" 
d="M136 152q-4 -20 -5.5 -31.5t-1.5 -20.5q0 -26 14 -33t44 -4l-11 -63q-15 -2 -31 -3t-31 -1q-34 0 -55.5 13t-21.5 52q0 11 2.5 29t10.5 59l103 586h86zM31 -195h-48l60 144h69v-7z" />
    <glyph glyph-name="Lcaron" unicode="&#x13d;" horiz-adv-x="578" 
d="M511 0h-459l122 690h86l-110 -620h374z" />
    <glyph glyph-name="lcaron" unicode="&#x13e;" horiz-adv-x="248" 
d="M136 152q-4 -20 -5.5 -31.5t-1.5 -20.5q0 -26 14 -33t44 -4l-11 -63q-15 -2 -31 -3t-31 -1q-34 0 -55.5 13t-21.5 52q0 11 2.5 29t10.5 59l103 586h86z" />
    <glyph glyph-name="Ldot" unicode="&#x13f;" horiz-adv-x="578" 
d="M511 0h-459l122 690h86l-110 -620h374zM387 345q-21 0 -34 13t-13 33q0 27 19 45.5t46 18.5q21 0 34 -13t13 -33q0 -27 -19 -45.5t-46 -18.5z" />
    <glyph glyph-name="ldot" unicode="&#x140;" horiz-adv-x="338" 
d="M136 152q-4 -20 -5.5 -31.5t-1.5 -20.5q0 -26 14 -33t44 -4l-11 -63q-15 -2 -31 -3t-31 -1q-34 0 -55.5 13t-21.5 52q0 11 2.5 29t10.5 59l103 586h86zM303 455q21 0 34 -13t13 -33q0 -27 -19 -45.5t-46 -18.5q-21 0 -34 13t-13 33q0 27 19 45.5t46 18.5z" />
    <glyph glyph-name="Lslash" unicode="&#x141;" horiz-adv-x="615" 
d="M548 0h-459l52 296l-133 -72l11 67l134 72l58 327h86l-49 -276l125 67l-12 -67l-125 -67l-49 -277h374z" />
    <glyph glyph-name="lslash" unicode="&#x142;" horiz-adv-x="284" 
d="M162 152q-4 -20 -5.5 -31.5t-1.5 -20.5q0 -26 14 -33t44 -4l-11 -63q-15 -2 -31 -3t-31 -1q-34 0 -55.5 13t-21.5 52q0 11 2.5 29t10.5 59l20 114l-71 -38l12 67l71 38l71 405h86l-63 -354l74 39l-12 -67l-73 -39z" />
    <glyph glyph-name="Nacute" unicode="&#x143;" horiz-adv-x="717" 
d="M419 736l70 94h80l-94 -94h-56zM592 0h-132l-217 608l-105 -608h-86l122 690h132l215 -608l107 608h86z" />
    <glyph glyph-name="nacute" unicode="&#x144;" horiz-adv-x="595" 
d="M327 580l81 110h80l-105 -110h-56zM381 544q81 0 121.5 -36.5t40.5 -99.5q0 -10 -0.5 -19.5t-1.5 -21.5t-3.5 -28.5t-7.5 -40.5l-54 -298h-86l53 292q6 34 8.5 55t2.5 37q0 41 -23 67.5t-80 24.5q-31 -1 -61.5 -13.5t-56 -41t-46 -74.5t-32.5 -114l-41 -233h-86l93 530
h86l-16 -91l44 61q38 26 71.5 35t74.5 9z" />
    <glyph glyph-name="Ncommaaccent" unicode="&#x145;" horiz-adv-x="717" 
d="M592 0h-132l-217 608l-105 -608h-86l122 690h132l215 -608l107 608h86zM357 -51v-7l-81 -137h-48l60 144h69z" />
    <glyph glyph-name="ncommaaccent" unicode="&#x146;" horiz-adv-x="595" 
d="M381 544q81 0 121.5 -36.5t40.5 -99.5q0 -10 -0.5 -19.5t-1.5 -21.5t-3.5 -28.5t-7.5 -40.5l-54 -298h-86l53 292q6 34 8.5 55t2.5 37q0 41 -23 67.5t-80 24.5q-31 -1 -61.5 -13.5t-56 -41t-46 -74.5t-32.5 -114l-41 -233h-86l93 530h86l-16 -91l44 61q38 26 71.5 35
t74.5 9zM285 -51v-7l-81 -137h-48l60 144h69z" />
    <glyph glyph-name="Ncaron" unicode="&#x147;" horiz-adv-x="717" 
d="M372 830h67l21 -55l39 55h68l-83 -94h-61zM592 0h-132l-217 608l-105 -608h-86l122 690h132l215 -608l107 608h86z" />
    <glyph glyph-name="ncaron" unicode="&#x148;" horiz-adv-x="595" 
d="M285 690h64l22 -63l44 63h63l-87 -110h-59zM381 544q81 0 121.5 -36.5t40.5 -99.5q0 -10 -0.5 -19.5t-1.5 -21.5t-3.5 -28.5t-7.5 -40.5l-54 -298h-86l53 292q6 34 8.5 55t2.5 37q0 41 -23 67.5t-80 24.5q-31 -1 -61.5 -13.5t-56 -41t-46 -74.5t-32.5 -114l-41 -233h-86
l93 530h86l-16 -91l44 61q38 26 71.5 35t74.5 9z" />
    <glyph glyph-name="Eng" unicode="&#x14a;" horiz-adv-x="717" 
d="M581 -67q-9 -49 -21 -79.5t-32.5 -47.5t-52 -23t-79.5 -6l12 70q41 0 59 18t24 52l9 52l-257 629l-104 -598h-86l121 690h132l224 -566l98 566h86z" />
    <glyph glyph-name="eng" unicode="&#x14b;" horiz-adv-x="595" 
d="M381 544q81 0 121.5 -36.5t40.5 -99.5q0 -10 -0.5 -19.5t-1.5 -21.5t-3.5 -28.5t-7.5 -40.5l-57 -316q-3 -15 -6 -27.5t-7 -23.5q-12 -36 -27.5 -56.5t-36.5 -31.5t-47.5 -14t-59.5 -3l12 70q41 0 58.5 17t24.5 53l59 326q6 34 8.5 55t2.5 37q0 41 -23 67.5t-80 24.5
q-31 -1 -61.5 -13.5t-56 -41t-46 -74.5t-32.5 -114l-41 -233h-86l93 530h86l-16 -91l44 61q38 26 71.5 35t74.5 9z" />
    <glyph glyph-name="Omacron" unicode="&#x14c;" horiz-adv-x="747" 
d="M338 757l10 52h240l-10 -52h-240zM447 704q69 0 121 -24t87 -64.5t52.5 -95t17.5 -115.5q0 -77 -22.5 -152t-70 -134.5t-121 -96t-174.5 -36.5q-69 0 -121 24t-87 64.5t-52.5 95t-17.5 115.5q0 77 22.5 152.5t70 134.5t121 95.5t174.5 36.5zM355 54q71 0 123 33t86 84
t50.5 113t16.5 121q0 52 -14 94.5t-40 73t-63.5 47t-84.5 16.5q-71 0 -123 -33t-86 -84t-50.5 -113t-16.5 -121q0 -52 13.5 -94.5t39.5 -73t63.5 -47t85.5 -16.5z" />
    <glyph glyph-name="omacron" unicode="&#x14d;" horiz-adv-x="588" 
d="M234 604l10 52h240l-10 -52h-240zM333 544q62 0 105 -19.5t70 -52t39.5 -75t12.5 -87.5q0 -54 -17.5 -111t-54 -104.5t-94.5 -78t-139 -30.5q-61 0 -104.5 19.5t-70.5 52t-39.5 75t-12.5 87.5q0 54 17.5 111t54 104.5t94.5 78t139 30.5zM266 52q50 0 87 23t62.5 59.5
t38 82.5t12.5 91q0 35 -8.5 66t-26 54t-44.5 36.5t-65 13.5q-49 0 -86.5 -23t-63 -59.5t-38 -82.5t-12.5 -91q0 -35 8.5 -66t26 -54t45 -36.5t64.5 -13.5z" />
    <glyph glyph-name="Ohungarumlaut" unicode="&#x150;" horiz-adv-x="747" 
d="M351 736l70 94h80l-94 -94h-56zM530 830h80l-94 -94h-56zM447 704q69 0 121 -24t87 -64.5t52.5 -95t17.5 -115.5q0 -77 -22.5 -152t-70 -134.5t-121 -96t-174.5 -36.5q-69 0 -121 24t-87 64.5t-52.5 95t-17.5 115.5q0 77 22.5 152.5t70 134.5t121 95.5t174.5 36.5z
M355 54q71 0 123 33t86 84t50.5 113t16.5 121q0 52 -14 94.5t-40 73t-63.5 47t-84.5 16.5q-71 0 -123 -33t-86 -84t-50.5 -113t-16.5 -121q0 -52 13.5 -94.5t39.5 -73t63.5 -47t85.5 -16.5z" />
    <glyph glyph-name="ohungarumlaut" unicode="&#x151;" horiz-adv-x="588" 
d="M260 580l81 110h80l-105 -110h-56zM463 690h80l-105 -110h-56zM333 544q62 0 105 -19.5t70 -52t39.5 -75t12.5 -87.5q0 -54 -17.5 -111t-54 -104.5t-94.5 -78t-139 -30.5q-61 0 -104.5 19.5t-70.5 52t-39.5 75t-12.5 87.5q0 54 17.5 111t54 104.5t94.5 78t139 30.5z
M266 52q50 0 87 23t62.5 59.5t38 82.5t12.5 91q0 35 -8.5 66t-26 54t-44.5 36.5t-65 13.5q-49 0 -86.5 -23t-63 -59.5t-38 -82.5t-12.5 -91q0 -35 8.5 -66t26 -54t45 -36.5t64.5 -13.5z" />
    <glyph glyph-name="OE" unicode="&#x152;" horiz-adv-x="1100" 
d="M712 380h333l-12 -70h-333l-43 -240h374l-13 -70h-459l25 141l-40 -73q-47 -45 -103.5 -63.5t-123.5 -18.5q-129 0 -195 74t-66 214q0 68 22.5 143.5t69.5 139.5t120 105.5t175 41.5q77 0 122 -19.5t76 -66.5l15 -72l25 144h449l-13 -70h-362zM339 54q54 0 100.5 21.5
t82.5 59.5t61 92t37 118q8 50 5.5 101.5t-21.5 93.5t-58.5 69t-104.5 27q-76 0 -130.5 -35t-89.5 -88.5t-52 -116.5t-17 -120q0 -104 47.5 -163t139.5 -59z" />
    <glyph glyph-name="oe" unicode="&#x153;" horiz-adv-x="969" 
d="M552 239q-2 -11 -2 -21v-19q0 -78 33 -112.5t86 -34.5q52 0 95.5 31t62.5 88h90q-16 -48 -44 -83t-63 -57.5t-75 -33.5t-81 -11q-63 0 -109 29t-66 97q-84 -126 -235 -126q-58 0 -99.5 16.5t-68.5 46t-39.5 68.5t-12.5 84q0 48 17 108t54.5 112t98 87.5t148.5 35.5
q153 0 195 -128q45 68 102.5 98t123.5 30q94 0 140.5 -53.5t46.5 -143.5q0 -26 -4 -55t-12 -53h-382zM255 52q57 0 97.5 27.5t66 68.5t37 88.5t11.5 86.5q0 70 -34 112.5t-102 42.5q-57 0 -97 -27.5t-65.5 -68.5t-37.5 -88.5t-12 -86.5q0 -70 34 -112.5t102 -42.5zM750 478
q-64 0 -113 -44t-72 -129h296q3 21 3 39q0 66 -28.5 100t-85.5 34z" />
    <glyph glyph-name="Racute" unicode="&#x154;" horiz-adv-x="618" 
d="M367 736l70 94h80l-94 -94h-56zM633 536q0 -47 -16 -82t-41.5 -60t-57.5 -39.5t-64 -20.5q23 -3 38 -12.5t24.5 -34t13.5 -66.5t4 -110q0 -36 4 -65t14 -46h-93q-2 10 -4 23t-3 34t-2 52.5t-2 79.5q-1 46 -17 75t-61 32q-12 1 -24.5 1h-24.5h-130l-53 -297h-86l122 690
h226q26 0 46.5 -0.5t43.5 -3.5q64 -8 103.5 -44.5t39.5 -105.5zM403 369q28 3 53 13.5t43.5 29.5t29 46.5t10.5 62.5q0 44 -22 66.5t-61 28.5q-14 2 -29.5 3t-38.5 1h-140l-45 -253h132h38t30 2z" />
    <glyph glyph-name="racute" unicode="&#x155;" horiz-adv-x="324" 
d="M191 580l81 110h80l-105 -110h-56zM332 542q21 0 35 -7l-12 -65q-67 5 -119 -36t-69 -132l-53 -302h-86l94 530h86l-15 -83l61 71q18 11 38.5 17.5t39.5 6.5z" />
    <glyph glyph-name="Rcommaaccent" unicode="&#x156;" horiz-adv-x="618" 
d="M633 536q0 -47 -16 -82t-41.5 -60t-57.5 -39.5t-64 -20.5q23 -3 38 -12.5t24.5 -34t13.5 -66.5t4 -110q0 -36 4 -65t14 -46h-93q-2 10 -4 23t-3 34t-2 52.5t-2 79.5q-1 46 -17 75t-61 32q-12 1 -24.5 1h-24.5h-130l-53 -297h-86l122 690h226q26 0 46.5 -0.5t43.5 -3.5
q64 -8 103.5 -44.5t39.5 -105.5zM403 369q28 3 53 13.5t43.5 29.5t29 46.5t10.5 62.5q0 44 -22 66.5t-61 28.5q-14 2 -29.5 3t-38.5 1h-140l-45 -253h132h38t30 2zM297 -51v-7l-81 -137h-48l60 144h69z" />
    <glyph glyph-name="rcommaaccent" unicode="&#x157;" horiz-adv-x="324" 
d="M332 542q21 0 35 -7l-12 -65q-67 5 -119 -36t-69 -132l-53 -302h-86l94 530h86l-15 -83l61 71q18 11 38.5 17.5t39.5 6.5zM106 -51v-7l-81 -137h-48l60 144h69z" />
    <glyph glyph-name="Rcaron" unicode="&#x158;" horiz-adv-x="618" 
d="M320 830h67l21 -55l39 55h68l-83 -94h-61zM633 536q0 -47 -16 -82t-41.5 -60t-57.5 -39.5t-64 -20.5q23 -3 38 -12.5t24.5 -34t13.5 -66.5t4 -110q0 -36 4 -65t14 -46h-93q-2 10 -4 23t-3 34t-2 52.5t-2 79.5q-1 46 -17 75t-61 32q-12 1 -24.5 1h-24.5h-130l-53 -297h-86
l122 690h226q26 0 46.5 -0.5t43.5 -3.5q64 -8 103.5 -44.5t39.5 -105.5zM403 369q28 3 53 13.5t43.5 29.5t29 46.5t10.5 62.5q0 44 -22 66.5t-61 28.5q-14 2 -29.5 3t-38.5 1h-140l-45 -253h132h38t30 2z" />
    <glyph glyph-name="rcaron" unicode="&#x159;" horiz-adv-x="324" 
d="M149 690h64l22 -63l44 63h63l-87 -110h-59zM332 542q21 0 35 -7l-12 -65q-67 5 -119 -36t-69 -132l-53 -302h-86l94 530h86l-15 -83l61 71q18 11 38.5 17.5t39.5 6.5z" />
    <glyph glyph-name="Sacute" unicode="&#x15a;" horiz-adv-x="565" 
d="M330 736l70 94h80l-94 -94h-56zM360 704q54 0 93.5 -15.5t65 -43t37 -65t8.5 -81.5h-92q5 66 -30 101.5t-101 35.5q-62 0 -103 -33.5t-41 -94.5q0 -45 31 -69t97 -40q97 -23 145.5 -67.5t48.5 -122.5q0 -51 -21 -92t-58 -70.5t-87.5 -45t-109.5 -15.5q-53 0 -96 14
t-73 41t-45 66t-12 89h92q3 -69 41.5 -105.5t106.5 -36.5q35 0 65 9t52.5 27t35.5 44t13 60q0 50 -34.5 78t-110.5 47q-39 10 -71.5 23.5t-56 33t-36.5 45.5t-13 61q0 52 20.5 93.5t56 70t82.5 43.5t100 15z" />
    <glyph glyph-name="sacute" unicode="&#x15b;" horiz-adv-x="451" 
d="M240 580l81 110h80l-105 -110h-56zM253 544q92 0 134 -46t43 -119h-90q-2 47 -24 73t-67 26q-55 0 -79 -26t-24 -59q0 -37 26.5 -57t69.5 -33q77 -23 117 -58.5t40 -101.5q0 -34 -14 -64t-40 -52t-64.5 -34.5t-88.5 -12.5q-56 0 -94 15t-61.5 39.5t-34.5 55t-12 60.5h90
q5 -58 38 -81t81 -23q45 0 75.5 24t30.5 66q0 35 -24.5 57.5t-81.5 39.5q-31 9 -57.5 21t-46.5 29.5t-31.5 42t-11.5 58.5q0 33 12.5 62t38 50.5t63 34.5t87.5 13z" />
    <glyph glyph-name="Scedilla" unicode="&#x15e;" horiz-adv-x="565" 
d="M472 499q5 66 -30 101.5t-101 35.5q-62 0 -103 -33.5t-41 -94.5q0 -45 31 -69t97 -40q97 -23 145.5 -67.5t48.5 -122.5q0 -48 -18.5 -87t-51 -67.5t-77.5 -46t-98 -21.5l-20 -27q34 -6 51 -26.5t17 -48.5q0 -25 -10.5 -43t-28.5 -29.5t-42.5 -17t-52.5 -5.5q-34 0 -54 9
l8 40q18 -7 51 -7q36 0 53.5 13.5t17.5 34.5q0 23 -22.5 35t-66.5 7l46 65q-49 3 -88 18t-66 42t-40 64.5t-10 84.5h92q3 -69 41.5 -105.5t106.5 -36.5q35 0 65 9t52.5 27t35.5 44t13 60q0 50 -34.5 78t-110.5 47q-39 10 -71.5 23.5t-56 33t-36.5 45.5t-13 61
q0 52 20.5 93.5t56 70t82.5 43.5t100 15q54 0 93.5 -15.5t65 -43t37 -65t8.5 -81.5h-92z" />
    <glyph glyph-name="scedilla" unicode="&#x15f;" horiz-adv-x="451" 
d="M242 303q77 -23 117 -58.5t40 -101.5q0 -34 -14 -64t-40 -52t-64.5 -34.5t-88.5 -12.5h-4l-15 -20q34 -6 51 -26.5t17 -48.5q0 -25 -10.5 -43t-28.5 -29.5t-42.5 -17t-52.5 -5.5q-34 0 -54 9l8 40q18 -7 51 -7q36 0 53.5 13.5t17.5 34.5q0 23 -22.5 35t-66.5 7l44 62
q-40 7 -68 24t-45 40t-25.5 49.5t-9.5 52.5h90q5 -58 38 -81t81 -23q45 0 75.5 24t30.5 66q0 35 -24.5 57.5t-81.5 39.5q-31 9 -57.5 21t-46.5 29.5t-31.5 42t-11.5 58.5q0 33 12.5 62t38 50.5t63 34.5t87.5 13q92 0 134 -46t43 -119h-90q-2 47 -24 73t-67 26q-55 0 -79 -26
t-24 -59q0 -37 26.5 -57t69.5 -33z" />
    <glyph glyph-name="Scaron" unicode="&#x160;" horiz-adv-x="565" 
d="M283 830h67l21 -55l39 55h68l-83 -94h-61zM472 499q5 66 -30 101.5t-101 35.5q-62 0 -103 -33.5t-41 -94.5q0 -45 31 -69t97 -40q97 -23 145.5 -67.5t48.5 -122.5q0 -51 -21 -92t-58 -70.5t-87.5 -45t-109.5 -15.5q-53 0 -96 14t-73 41t-45 66t-12 89h92
q3 -69 41.5 -105.5t106.5 -36.5q35 0 65 9t52.5 27t35.5 44t13 60q0 50 -34.5 78t-110.5 47q-39 10 -71.5 23.5t-56 33t-36.5 45.5t-13 61q0 52 20.5 93.5t56 70t82.5 43.5t100 15q54 0 93.5 -15.5t65 -43t37 -65t8.5 -81.5h-92z" />
    <glyph glyph-name="scaron" unicode="&#x161;" horiz-adv-x="451" 
d="M198 690h64l22 -63l44 63h63l-87 -110h-59zM242 303q77 -23 117 -58.5t40 -101.5q0 -34 -14 -64t-40 -52t-64.5 -34.5t-88.5 -12.5q-56 0 -94 15t-61.5 39.5t-34.5 55t-12 60.5h90q5 -58 38 -81t81 -23q45 0 75.5 24t30.5 66q0 35 -24.5 57.5t-81.5 39.5q-31 9 -57.5 21
t-46.5 29.5t-31.5 42t-11.5 58.5q0 33 12.5 62t38 50.5t63 34.5t87.5 13q92 0 134 -46t43 -119h-90q-2 47 -24 73t-67 26q-55 0 -79 -26t-24 -59q0 -37 26.5 -57t69.5 -33z" />
    <glyph glyph-name="Tcedilla" unicode="&#x162;" horiz-adv-x="613" 
d="M273 -40q34 -6 51 -26.5t17 -48.5q0 -25 -10.5 -43t-28.5 -29.5t-42.5 -17t-52.5 -5.5q-34 0 -54 9l8 40q18 -7 51 -7q36 0 53.5 13.5t17.5 34.5q0 23 -22.5 35t-66.5 7l56 78h-16l110 620h-247l13 70h578l-13 -70h-245l-110 -620h-18z" />
    <glyph glyph-name="tcedilla" unicode="&#x163;" horiz-adv-x="303" 
d="M149 155q-5 -26 -6 -37t-1 -18q0 -29 20.5 -37t64.5 0l-12 -63q-29 -8 -64 -8h-7l-24 -32q34 -6 51 -26.5t17 -48.5q0 -25 -10.5 -43t-28.5 -29.5t-42.5 -17t-52.5 -5.5q-34 0 -54 9l8 40q18 -7 51 -7q36 0 53.5 13.5t17.5 34.5q0 23 -22.5 35t-66.5 7l56 78
q-45 17 -45 69q0 11 2.5 30.5t8.5 51.5l55 309h-70l12 66h69l22 123h86l-22 -123h91l-12 -66h-91z" />
    <glyph glyph-name="Tcaron" unicode="&#x164;" horiz-adv-x="613" 
d="M327 830h67l21 -55l39 55h68l-83 -94h-61zM430 620l-110 -620h-86l110 620h-247l13 70h578l-13 -70h-245z" />
    <glyph glyph-name="tcaron" unicode="&#x165;" horiz-adv-x="303" 
d="M390 728l-81 -137h-48l60 144h69v-7zM306 526l-12 -66h-91l-54 -305q-5 -26 -6 -37t-1 -18q0 -29 20.5 -37t64.5 0l-12 -63q-29 -8 -64 -8q-48 0 -73.5 18t-25.5 59q0 11 2.5 30.5t8.5 51.5l55 309h-70l12 66h69l22 123h86l-22 -123h91z" />
    <glyph glyph-name="Tbar" unicode="&#x166;" horiz-adv-x="634" 
d="M384 361h115l-10 -56h-115l-54 -305h-86l54 305h-109l10 56h109l46 259h-247l13 70h578l-13 -70h-245z" />
    <glyph glyph-name="tbar" unicode="&#x167;" horiz-adv-x="303" 
d="M183 348h84l-10 -52h-83l-25 -141q-5 -26 -6 -37t-1 -18q0 -29 20.5 -37t64.5 0l-12 -63q-29 -8 -64 -8q-48 0 -73.5 18t-25.5 59q0 11 2.5 30.5t8.5 51.5l26 145h-72l10 52h71l20 112h-70l12 66h69l22 123h86l-22 -123h91l-12 -66h-91z" />
    <glyph glyph-name="Umacron" unicode="&#x16a;" horiz-adv-x="683" 
d="M320 757l10 52h240l-10 -52h-240zM611 255q-3 -17 -6 -32t-7 -30q-24 -100 -94.5 -153.5t-198.5 -53.5q-110 0 -164.5 49.5t-54.5 143.5q0 23 2 43t6 40l76 428h86l-74 -420q-6 -35 -8 -51.5t-2 -36.5q0 -59 35 -93.5t110 -34.5q80 0 127.5 34.5t69.5 113.5q4 14 7 29
t6 32l75 427h86z" />
    <glyph glyph-name="umacron" unicode="&#x16b;" horiz-adv-x="590" 
d="M234 604l10 52h240l-10 -52h-240zM470 0h-86l16 91l-44 -61q-38 -26 -71.5 -35t-74.5 -9q-81 0 -121.5 36.5t-40.5 99.5q0 11 0.5 20.5t1.5 21.5t4 28t7 40l54 298h86l-53 -292q-6 -34 -8.5 -55t-2.5 -37q0 -41 23 -67.5t80 -24.5q32 1 62 13.5t55.5 41t46 74.5t32.5 114
l41 233h86z" />
    <glyph glyph-name="Uring" unicode="&#x16e;" horiz-adv-x="683" 
d="M458 874q39 0 60.5 -19t21.5 -48q0 -44 -30.5 -67.5t-71.5 -23.5q-39 0 -60.5 19t-21.5 48q0 44 30.5 67.5t71.5 23.5zM456 838q-20 0 -35 -13t-15 -38q0 -15 9 -25t25 -10q20 0 35 13t15 38q0 15 -9 25t-25 10zM611 255q-3 -17 -6 -32t-7 -30q-24 -100 -94.5 -153.5
t-198.5 -53.5q-110 0 -164.5 49.5t-54.5 143.5q0 23 2 43t6 40l76 428h86l-74 -420q-6 -35 -8 -51.5t-2 -36.5q0 -59 35 -93.5t110 -34.5q80 0 127.5 34.5t69.5 113.5q4 14 7 29t6 32l75 427h86z" />
    <glyph glyph-name="uring" unicode="&#x16f;" horiz-adv-x="590" 
d="M347 565q-35 0 -56.5 19t-21.5 49q0 21 8.5 39.5t23.5 32t34.5 21t41.5 7.5q35 0 56.5 -19t21.5 -49q0 -21 -8.5 -39.5t-23.5 -32t-34.5 -21t-41.5 -7.5zM370 697q-20 0 -35 -16t-15 -44q0 -36 34 -36q20 0 35 16t15 44q0 36 -34 36zM470 0h-86l16 91l-44 -61
q-38 -26 -71.5 -35t-74.5 -9q-81 0 -121.5 36.5t-40.5 99.5q0 11 0.5 20.5t1.5 21.5t4 28t7 40l54 298h86l-53 -292q-6 -34 -8.5 -55t-2.5 -37q0 -41 23 -67.5t80 -24.5q32 1 62 13.5t55.5 41t46 74.5t32.5 114l41 233h86z" />
    <glyph glyph-name="Uhungarumlaut" unicode="&#x170;" horiz-adv-x="683" 
d="M333 736l70 94h80l-94 -94h-56zM442 736l70 94h80l-94 -94h-56zM611 255q-3 -17 -6 -32t-7 -30q-24 -100 -94.5 -153.5t-198.5 -53.5q-110 0 -164.5 49.5t-54.5 143.5q0 23 2 43t6 40l76 428h86l-74 -420q-6 -35 -8 -51.5t-2 -36.5q0 -59 35 -93.5t110 -34.5
q80 0 127.5 34.5t69.5 113.5q4 14 7 29t6 32l75 427h86z" />
    <glyph glyph-name="uhungarumlaut" unicode="&#x171;" horiz-adv-x="590" 
d="M260 580l81 110h80l-105 -110h-56zM463 690h80l-105 -110h-56zM470 0h-86l16 91l-44 -61q-38 -26 -71.5 -35t-74.5 -9q-81 0 -121.5 36.5t-40.5 99.5q0 11 0.5 20.5t1.5 21.5t4 28t7 40l54 298h86l-53 -292q-6 -34 -8.5 -55t-2.5 -37q0 -41 23 -67.5t80 -24.5
q32 1 62 13.5t55.5 41t46 74.5t32.5 114l41 233h86z" />
    <glyph glyph-name="Uogonek" unicode="&#x172;" horiz-adv-x="683" 
d="M611 255q-3 -17 -6 -32t-7 -30q-20 -83 -72.5 -134.5t-143.5 -66.5q-20 -8 -36.5 -22t-28 -30.5t-18 -34t-6.5 -32.5q0 -23 9.5 -32.5t27.5 -9.5q30 0 59 20l-9 -46q-18 -13 -41.5 -20.5t-51.5 -7.5q-32 0 -56 16.5t-24 56.5q0 38 22 74t66 62q-105 2 -157 52t-52 141
q0 23 2 43t6 40l76 428h86l-74 -420q-6 -35 -8 -51.5t-2 -36.5q0 -59 35 -93.5t110 -34.5q80 0 127.5 34.5t69.5 113.5q4 14 7 29t6 32l75 427h86z" />
    <glyph glyph-name="uogonek" unicode="&#x173;" horiz-adv-x="590" 
d="M470 0h-21q-25 -4 -46.5 -18t-37.5 -32.5t-24.5 -39t-8.5 -37.5q0 -23 9.5 -32.5t27.5 -9.5q30 0 59 20l-9 -46q-18 -13 -41.5 -20.5t-51.5 -7.5q-32 0 -56 16.5t-24 56.5q0 48 35.5 92t104.5 68l14 81l-44 -61q-38 -26 -71.5 -35t-74.5 -9q-81 0 -121.5 36.5t-40.5 99.5
q0 11 0.5 20.5t1.5 21.5t4 28t7 40l54 298h86l-53 -292q-6 -34 -8.5 -55t-2.5 -37q0 -41 23 -67.5t80 -24.5q32 1 62 13.5t55.5 41t46 74.5t32.5 114l41 233h86z" />
    <glyph glyph-name="Wcircumflex" unicode="&#x174;" horiz-adv-x="953" 
d="M476 736l83 94h59l51 -94h-67l-21 55l-39 -55h-66zM706 0h-113l-50 595l-268 -595h-114l-60 690h95l39 -601l261 591h122l49 -592l258 602h95z" />
    <glyph glyph-name="wcircumflex" unicode="&#x175;" horiz-adv-x="760" 
d="M339 580l87 110h59l47 -110h-64l-22 63l-44 -63h-63zM550 0h-102l-39 444l-196 -444h-103l-75 530h99l44 -440l191 440h109l40 -441l201 441h94z" />
    <glyph glyph-name="Ycircumflex" unicode="&#x176;" horiz-adv-x="581" 
d="M293 736l83 94h59l51 -94h-67l-21 55l-39 -55h-66zM302 0h-86l48 272l-170 418h91l134 -340l248 340h101l-319 -422z" />
    <glyph glyph-name="ycircumflex" unicode="&#x177;" horiz-adv-x="494" 
d="M204 580l87 110h59l47 -110h-64l-22 63l-44 -63h-63zM252 0q-34 -61 -62 -101.5t-55 -64.5t-56 -34t-67 -10q-23 0 -42 3l12 71q16 -3 31 -3q40 0 68.5 19.5t57.5 73.5l9 17l-113 559h98l76 -467l239 467h99z" />
    <glyph glyph-name="Ydieresis" unicode="&#x178;" horiz-adv-x="581" 
d="M319 737q-17 0 -28 11t-11 28q0 21 17.5 37t37.5 16q17 0 28 -11t11 -28q0 -21 -17.5 -37t-37.5 -16zM459 737q-17 0 -28 11t-11 28q0 21 17.5 37t37.5 16q17 0 28 -11t11 -28q0 -21 -17.5 -37t-37.5 -16zM302 0h-86l48 272l-170 418h91l134 -340l248 340h101l-319 -422z
" />
    <glyph glyph-name="Zacute" unicode="&#x179;" horiz-adv-x="591" 
d="M356 736l70 94h80l-94 -94h-56zM123 70h412l-13 -70h-523l12 66l506 554h-381l13 70h489l-12 -69z" />
    <glyph glyph-name="zacute" unicode="&#x17a;" horiz-adv-x="474" 
d="M260 580l81 110h80l-105 -110h-56zM98 68h309l-12 -68h-413l11 66l375 392h-284l12 68h386l-12 -69z" />
    <glyph glyph-name="Zdotaccent" unicode="&#x17b;" horiz-adv-x="591" 
d="M389 737q-17 0 -28 11t-11 28q0 21 17.5 37t37.5 16q17 0 28 -11t11 -28q0 -21 -17.5 -37t-37.5 -16zM123 70h412l-13 -70h-523l12 66l506 554h-381l13 70h489l-12 -69z" />
    <glyph glyph-name="zdotaccent" unicode="&#x17c;" horiz-adv-x="474" 
d="M298 594q-21 0 -34 13t-13 33q0 27 19 45.5t46 18.5q21 0 34 -13t13 -33q0 -27 -19 -45.5t-46 -18.5zM98 68h309l-12 -68h-413l11 66l375 392h-284l12 68h386l-12 -69z" />
    <glyph glyph-name="Zcaron" unicode="&#x17d;" horiz-adv-x="591" 
d="M309 830h67l21 -55l39 55h68l-83 -94h-61zM123 70h412l-13 -70h-523l12 66l506 554h-381l13 70h489l-12 -69z" />
    <glyph glyph-name="zcaron" unicode="&#x17e;" horiz-adv-x="474" 
d="M218 690h64l22 -63l44 63h63l-87 -110h-59zM98 68h309l-12 -68h-413l11 66l375 392h-284l12 68h386l-12 -69z" />
    <glyph glyph-name="Scommaaccent" unicode="&#x218;" horiz-adv-x="565" 
d="M360 704q54 0 93.5 -15.5t65 -43t37 -65t8.5 -81.5h-92q5 66 -30 101.5t-101 35.5q-62 0 -103 -33.5t-41 -94.5q0 -45 31 -69t97 -40q97 -23 145.5 -67.5t48.5 -122.5q0 -51 -21 -92t-58 -70.5t-87.5 -45t-109.5 -15.5q-53 0 -96 14t-73 41t-45 66t-12 89h92
q3 -69 41.5 -105.5t106.5 -36.5q35 0 65 9t52.5 27t35.5 44t13 60q0 50 -34.5 78t-110.5 47q-39 10 -71.5 23.5t-56 33t-36.5 45.5t-13 61q0 52 20.5 93.5t56 70t82.5 43.5t100 15zM212 -195h-48l60 144h69v-7z" />
    <glyph glyph-name="scommaaccent" unicode="&#x219;" horiz-adv-x="451" 
d="M253 544q92 0 134 -46t43 -119h-90q-2 47 -24 73t-67 26q-55 0 -79 -26t-24 -59q0 -37 26.5 -57t69.5 -33q77 -23 117 -58.5t40 -101.5q0 -34 -14 -64t-40 -52t-64.5 -34.5t-88.5 -12.5q-56 0 -94 15t-61.5 39.5t-34.5 55t-12 60.5h90q5 -58 38 -81t81 -23q45 0 75.5 24
t30.5 66q0 35 -24.5 57.5t-81.5 39.5q-31 9 -57.5 21t-46.5 29.5t-31.5 42t-11.5 58.5q0 33 12.5 62t38 50.5t63 34.5t87.5 13zM126 -195h-48l60 144h69v-7z" />
    <glyph glyph-name="uni021A" unicode="&#x21a;" horiz-adv-x="613" 
d="M430 620l-110 -620h-86l110 620h-247l13 70h578l-13 -70h-245zM312 -51v-7l-81 -137h-48l60 144h69z" />
    <glyph glyph-name="uni021B" unicode="&#x21b;" horiz-adv-x="303" 
d="M149 155q-5 -26 -6 -37t-1 -18q0 -29 20.5 -37t64.5 0l-12 -63q-29 -8 -64 -8q-48 0 -73.5 18t-25.5 59q0 11 2.5 30.5t8.5 51.5l55 309h-70l12 66h69l22 123h86l-22 -123h91l-12 -66h-91zM154 -51v-7l-81 -137h-48l60 144h69z" />
    <glyph glyph-name="circumflex" unicode="&#x2c6;" horiz-adv-x="300" 
d="M151 643l-44 -63h-63l87 110h59l47 -110h-64z" />
    <glyph glyph-name="caron" unicode="&#x2c7;" horiz-adv-x="300" 
d="M170 580h-59l-47 110h64l22 -63l44 63h63z" />
    <glyph glyph-name="breve" unicode="&#x2d8;" horiz-adv-x="300" 
d="M263 690q-11 -63 -40.5 -93.5t-83.5 -30.5q-32 0 -50 11t-26 29t-8 40t4 44h53q-1 -13 -1.5 -25.5t3 -22.5t11.5 -15.5t24 -5.5q22 0 37.5 15t23.5 54h53z" />
    <glyph glyph-name="dotaccent" unicode="&#x2d9;" horiz-adv-x="300" 
d="M162 704q21 0 34 -13t13 -33q0 -27 -19 -45.5t-46 -18.5q-21 0 -34 13t-13 33q0 27 19 45.5t46 18.5z" />
    <glyph glyph-name="ring" unicode="&#x2da;" horiz-adv-x="300" 
d="M165 733q35 0 56.5 -19t21.5 -49q0 -21 -8.5 -39.5t-23.5 -32t-34.5 -21t-41.5 -7.5q-35 0 -56.5 19t-21.5 49q0 21 8.5 39.5t23.5 32t34.5 21t41.5 7.5zM158 697q-20 0 -35 -16t-15 -44q0 -36 34 -36q20 0 35 16t15 44q0 36 -34 36z" />
    <glyph glyph-name="ogonek" unicode="&#x2db;" horiz-adv-x="300" 
d="M232 0q-25 -4 -46.5 -18t-37.5 -32.5t-24.5 -39t-8.5 -37.5q0 -23 9.5 -32.5t27.5 -9.5q30 0 59 20l-9 -46q-18 -13 -41.5 -20.5t-51.5 -7.5q-32 0 -56 16.5t-24 56.5q0 48 36 92.5t106 68.5z" />
    <glyph glyph-name="tilde" unicode="&#x2dc;" horiz-adv-x="300" 
d="M103 671q14 0 27 -3t32 -10q17 -6 26 -8.5t16 -2.5q16 0 20 20h38q-8 -42 -24.5 -56.5t-40.5 -14.5q-14 0 -27 3t-32 10q-17 6 -26 8.5t-16 2.5q-16 0 -20 -20h-38q8 42 24.5 56.5t40.5 14.5z" />
    <glyph glyph-name="hungarumlaut" unicode="&#x2dd;" horiz-adv-x="300" 
d="M50 580l81 110h80l-105 -110h-56zM172 580l81 110h80l-105 -110h-56z" />
    <glyph glyph-name="uni0326" unicode="&#x326;" horiz-adv-x="0" 
d="M126 -195h-48l60 144h69v-7z" />
    <glyph glyph-name="Wgrave" unicode="&#x1e80;" horiz-adv-x="953" 
d="M486 830h80l38 -94h-56zM706 0h-113l-50 595l-268 -595h-114l-60 690h95l39 -601l261 591h122l49 -592l258 602h95z" />
    <glyph glyph-name="wgrave" unicode="&#x1e81;" horiz-adv-x="760" 
d="M346 690h80l41 -110h-56zM550 0h-102l-39 444l-196 -444h-103l-75 530h99l44 -440l191 440h109l40 -441l201 441h94z" />
    <glyph glyph-name="Wacute" unicode="&#x1e82;" horiz-adv-x="953" 
d="M539 736l70 94h80l-94 -94h-56zM706 0h-113l-50 595l-268 -595h-114l-60 690h95l39 -601l261 591h122l49 -592l258 602h95z" />
    <glyph glyph-name="wacute" unicode="&#x1e83;" horiz-adv-x="760" 
d="M401 580l81 110h80l-105 -110h-56zM550 0h-102l-39 444l-196 -444h-103l-75 530h99l44 -440l191 440h109l40 -441l201 441h94z" />
    <glyph glyph-name="Wdieresis" unicode="&#x1e84;" horiz-adv-x="953" 
d="M502 737q-17 0 -28 11t-11 28q0 21 17.5 37t37.5 16q17 0 28 -11t11 -28q0 -21 -17.5 -37t-37.5 -16zM642 737q-17 0 -28 11t-11 28q0 21 17.5 37t37.5 16q17 0 28 -11t11 -28q0 -21 -17.5 -37t-37.5 -16zM706 0h-113l-50 595l-268 -595h-114l-60 690h95l39 -601l261 591
h122l49 -592l258 602h95z" />
    <glyph glyph-name="wdieresis" unicode="&#x1e85;" horiz-adv-x="760" 
d="M362 583q-17 0 -28 11t-11 28q0 21 17.5 37t37.5 16q17 0 28 -11t11 -28q0 -21 -17.5 -37t-37.5 -16zM508 583q-17 0 -28 11t-11 28q0 21 17.5 37t37.5 16q17 0 28 -11t11 -28q0 -21 -17.5 -37t-37.5 -16zM550 0h-102l-39 444l-196 -444h-103l-75 530h99l44 -440l191 440
h109l40 -441l201 441h94z" />
    <glyph glyph-name="Ygrave" unicode="&#x1ef2;" horiz-adv-x="581" 
d="M303 830h80l38 -94h-56zM302 0h-86l48 272l-170 418h91l134 -340l248 340h101l-319 -422z" />
    <glyph glyph-name="ygrave" unicode="&#x1ef3;" horiz-adv-x="494" 
d="M211 690h80l41 -110h-56zM252 0q-34 -61 -62 -101.5t-55 -64.5t-56 -34t-67 -10q-23 0 -42 3l12 71q16 -3 31 -3q40 0 68.5 19.5t57.5 73.5l9 17l-113 559h98l76 -467l239 467h99z" />
    <glyph glyph-name="endash" unicode="&#x2013;" horiz-adv-x="500" 
d="M65 264l10 56h360l-10 -56h-360z" />
    <glyph glyph-name="emdash" unicode="&#x2014;" horiz-adv-x="1000" 
d="M65 264l10 56h860l-10 -56h-860z" />
    <glyph glyph-name="quoteleft" unicode="&#x2018;" horiz-adv-x="222" 
d="M218 690h81l-117 -220h-93l2 12z" />
    <glyph glyph-name="quoteright" unicode="&#x2019;" horiz-adv-x="222" 
d="M118 470h-81l117 220h93l-2 -12z" />
    <glyph glyph-name="quotesinglbase" unicode="&#x201a;" horiz-adv-x="233" 
d="M-6 -120h-81l117 220h94l-2 -12z" />
    <glyph glyph-name="quotedblleft" unicode="&#x201c;" horiz-adv-x="392" 
d="M218 690h81l-117 -220h-93l2 12zM388 690h81l-117 -220h-93l2 12z" />
    <glyph glyph-name="quotedblright" unicode="&#x201d;" horiz-adv-x="392" 
d="M118 470h-81l117 220h93l-2 -12zM288 470h-81l117 220h93l-2 -12z" />
    <glyph glyph-name="quotedblbase" unicode="&#x201e;" horiz-adv-x="403" 
d="M-6 -120h-81l117 220h94l-2 -12zM164 -120h-81l117 220h94l-2 -12z" />
    <glyph glyph-name="dagger" unicode="&#x2020;" horiz-adv-x="560" 
d="M335 382l-84 -542h-102l108 542l-182 -8l14 78l179 -8l31 246h102l-55 -246l181 8l-14 -78z" />
    <glyph glyph-name="daggerdbl" unicode="&#x2021;" horiz-adv-x="530" 
d="M293 148l182 8l-14 -78l-179 8l-31 -246h-102l55 246l-181 -8l14 78l178 -8l42 234l-182 -8l14 78l179 -8l31 246h102l-55 -246l181 8l-14 -78l-178 8z" />
    <glyph glyph-name="bullet" unicode="&#x2022;" horiz-adv-x="364" 
d="M200 409q40 0 64 -24t24 -61q0 -25 -10 -47.5t-27.5 -39.5t-40 -26.5t-46.5 -9.5q-40 0 -64 24t-24 61q0 26 10 48t27.5 39t40 26.5t46.5 9.5z" />
    <glyph glyph-name="ellipsis" unicode="&#x2026;" horiz-adv-x="633" 
d="M75 114q25 0 39 -15t14 -38q0 -33 -22 -54t-53 -21q-25 0 -39 15t-14 38q0 33 22 54t53 21zM275 114q25 0 39 -15t14 -38q0 -33 -22 -54t-53 -21q-25 0 -39 15t-14 38q0 33 22 54t53 21zM475 114q25 0 39 -15t14 -38q0 -33 -22 -54t-53 -21q-25 0 -39 15t-14 38
q0 33 22 54t53 21z" />
    <glyph glyph-name="perthousand" unicode="&#x2030;" horiz-adv-x="1077" 
d="M214 386q-60 0 -95 36t-35 94q0 35 10.5 68.5t32 60t54 43t76.5 16.5q60 0 95 -36t35 -94q0 -35 -10.5 -68.5t-32 -60t-54 -43t-76.5 -16.5zM714 690l-567 -690h-93l567 690h93zM250 644q-36 0 -58.5 -36.5t-22.5 -96.5q0 -29 12 -47t40 -18q36 0 58.5 36.5t22.5 96.5
q0 29 -12 47t-40 18zM554 304q60 0 95 -36t35 -94q0 -35 -10.5 -68.5t-32 -60t-54 -43t-76.5 -16.5q-60 0 -95 36t-35 94q0 35 10.5 68.5t32 60t54 43t76.5 16.5zM891 304q60 0 95 -36t35 -94q0 -35 -10.5 -68.5t-32 -60t-54 -43t-76.5 -16.5q-60 0 -95 36t-35 94
q0 35 10.5 68.5t32 60t54 43t76.5 16.5zM518 46q36 0 58.5 36.5t22.5 96.5q0 29 -12 47t-40 18q-36 0 -58.5 -36.5t-22.5 -96.5q0 -29 12 -47t40 -18zM855 46q36 0 58.5 36.5t22.5 96.5q0 29 -12 47t-40 18q-36 0 -58.5 -36.5t-22.5 -96.5q0 -29 12 -47t40 -18z" />
    <glyph glyph-name="guilsinglleft" unicode="&#x2039;" horiz-adv-x="377" 
d="M293 82h-71l-108 166l166 166h83l-173 -173z" />
    <glyph glyph-name="guilsinglright" unicode="&#x203a;" horiz-adv-x="377" 
d="M91 82h-83l173 173l-103 159h71l108 -166z" />
    <glyph glyph-name="fraction" unicode="&#x2044;" horiz-adv-x="218" 
d="M-207 0l567 690h93l-567 -690h-93z" />
    <glyph glyph-name="Euro" unicode="&#x20ac;" 
d="M414 704q57 0 95.5 -17t61.5 -46l-49 -54q-20 24 -50 36.5t-66 12.5q-51 0 -89.5 -18t-66 -47.5t-46 -67t-29.5 -77.5h302l-21 -56h-292q-4 -28 -6 -54h281l-19 -56h-263q2 -59 14.5 -98.5t33.5 -63.5t50.5 -34t66.5 -10q43 0 80 9.5t74 30.5l-13 -71q-41 -21 -79 -29
t-79 -8q-50 0 -93.5 12t-76 43t-51.5 84t-21 135h-78l20 56h59q2 27 6 54h-48l20 56h40q14 53 39 103t65 89t96.5 62.5t131.5 23.5z" />
    <glyph glyph-name="trademark" unicode="&#x2122;" horiz-adv-x="539" 
d="M126 456h-50l29 163h-74l7 41h198l-7 -41h-74zM458 456h-50l27 142l-67 -138h-52l-18 137l-24 -141h-50l36 203h75l15 -155l71 155h73z" />
    <glyph glyph-name="partialdiff" unicode="&#x2202;" 
d="M322 758q60 0 100 -20t65 -56t35.5 -85t10.5 -107q0 -83 -14 -172t-48.5 -163t-92.5 -121.5t-147 -47.5q-43 0 -79.5 13t-62.5 37.5t-40.5 61.5t-14.5 85q0 64 16.5 120.5t49 98.5t80.5 66t112 24q58 0 93.5 -20.5t50.5 -56.5q3 38 3 74q0 45 -6.5 82.5t-22 64t-41 41.5
t-63.5 15q-51 0 -85.5 -13t-72.5 -42l-29 53q50 36 96.5 52t106.5 16zM239 52q38 0 68 21t53 58t39.5 88t25.5 111q-15 51 -49.5 73.5t-91.5 22.5q-35 0 -63.5 -17.5t-49 -49t-32 -76t-11.5 -98.5q0 -68 30 -100.5t81 -32.5z" />
    <glyph glyph-name="emptyset" unicode="&#x2205;" horiz-adv-x="838" 
d="M712 607q42 -51 66 -115.5t24 -136.5q0 -81 -29.5 -151.5t-81.5 -123.5t-121.5 -83.5t-150.5 -30.5q-74 0 -138 25t-115 70l-80 -80l-41 41l81 81q-42 51 -66 115.5t-24 136.5q0 81 29.5 151.5t81.5 123.5t121.5 83.5t150.5 30.5q74 0 138 -25t115 -70l80 80l41 -41z
M98 355q0 -60 18.5 -113t52.5 -96l460 460q-42 38 -95.5 59t-114.5 21q-68 0 -126.5 -26t-102 -71t-68 -105.5t-24.5 -128.5zM419 24q68 0 126.5 26t102 71t68 105t24.5 129q0 60 -18.5 113t-52.5 96l-460 -460q42 -38 95.5 -59t114.5 -21z" />
    <glyph glyph-name="product" unicode="&#x220f;" 
d="M537 620l-130 -730h-86l130 730h-224l-130 -730h-86l130 730h-62l13 70h518l-13 -70h-60z" />
    <glyph glyph-name="summation" unicode="&#x2211;" 
d="M206 620l189 -320l-337 -340h391l-13 -70h-489l12 68l336 343l-188 321l12 68h453l-13 -70h-353z" />
    <glyph glyph-name="minus" unicode="&#x2212;" 
d="M65 291l10 56h420l-10 -56h-420z" />
    <glyph glyph-name="radical" unicode="&#x221a;" 
d="M235 -160h-73l-53 414h-67l10 56h113l47 -393l341 863h62z" />
    <glyph glyph-name="infinity" unicode="&#x221e;" horiz-adv-x="992" 
d="M755 544q53 0 92.5 -18t65.5 -49.5t38.5 -75t12.5 -95.5q0 -49 -16 -105.5t-50.5 -104t-89 -79t-131.5 -31.5q-72 0 -125.5 39.5t-76.5 121.5q-50 -82 -104.5 -121.5t-133.5 -39.5q-53 0 -92.5 18t-65.5 49.5t-38.5 75t-12.5 95.5q0 50 16 106t50.5 103.5t89 79
t131.5 31.5q72 0 125.5 -39.5t76.5 -121.5q50 82 104.5 121.5t133.5 39.5zM248 52q25 0 52 11.5t52.5 37t49 66t40.5 98.5q-1 116 -37 164.5t-101 48.5q-45 0 -79 -25t-57 -63t-34.5 -82t-11.5 -82q0 -85 32 -129.5t94 -44.5zM688 52q45 0 79 25t57 63t34.5 82t11.5 82
q0 85 -32 129.5t-94 44.5q-25 0 -52 -11.5t-52.5 -37t-49 -66t-40.5 -98.5q2 -115 38 -164t100 -49z" />
    <glyph glyph-name="integral" unicode="&#x222b;" 
d="M420 754q23 0 40 -4t34 -18l-25 -54q-14 12 -26 16t-30 4q-55 0 -80 -50.5t-25 -133.5q0 -26 1 -50t2.5 -49t3.5 -52t5 -59q7 -62 10 -111.5t3 -107.5q0 -113 -42.5 -179t-131.5 -66q-23 0 -40 4t-34 18l25 54q14 -12 26 -16t30 -4q55 0 80 50.5t25 133.5q0 26 -0.5 50
t-2 49t-4 52t-5.5 59q-7 62 -10 111.5t-3 107.5q0 113 42.5 179t131.5 66z" />
    <glyph glyph-name="approxequal" unicode="&#x2248;" horiz-adv-x="560" 
d="M203 438q30 0 52.5 -10t57.5 -31q26 -16 46.5 -25.5t42.5 -9.5q23 0 41 11.5t38 37.5l39 -33q-32 -38 -63 -57.5t-72 -19.5q-29 0 -51.5 10t-57.5 31q-26 16 -46.5 25.5t-42.5 9.5q-23 0 -41 -11.5t-38 -37.5l-38 37q32 38 62.5 55.5t70.5 17.5zM175 278q30 0 52.5 -10
t57.5 -31q26 -16 46.5 -25.5t42.5 -9.5q23 0 41 11.5t38 37.5l38 -33q-32 -38 -62.5 -57.5t-71.5 -19.5q-29 0 -51.5 10t-57.5 31q-26 16 -46.5 25.5t-42.5 9.5q-23 0 -41 -11.5t-38 -37.5l-38 37q32 38 62.5 55.5t70.5 17.5z" />
    <glyph glyph-name="notequal" unicode="&#x2260;" 
d="M254 243h223l-10 -56h-256l-66 -87h-66l66 87h-98l10 56h131l109 144h-214l10 56h247l66 87h66l-66 -87h107l-10 -56h-140z" />
    <glyph glyph-name="lessequal" unicode="&#x2264;" 
d="M141 305l334 -134l-12 -68l-390 171l12 68l450 171l-12 -70zM455 56l-10 -56h-420l10 56h420z" />
    <glyph glyph-name="greaterequal" unicode="&#x2265;" 
d="M493 274l-450 -171l12 71l382 138l-334 134l12 67l390 -171zM455 56l-10 -56h-420l10 56h420z" />
    <glyph glyph-name="lozenge" unicode="&#x25ca;" horiz-adv-x="512" 
d="M228 0h-66l-106 345l228 345h66l106 -345zM307 631l-185 -286l83 -286l185 286z" />
    <glyph glyph-name="a.alt" horiz-adv-x="612" 
d="M492 0h-86l15 85l-50 -57q-26 -19 -66 -30.5t-81 -11.5q-49 0 -86.5 16.5t-62 46t-37 69t-12.5 84.5q0 62 19 123t58 109.5t98 79t139 30.5q33 0 68.5 -12t52.5 -32l23 -50l14 80h86zM457 291q6 36 2 70t-20 60t-43.5 41.5t-67.5 15.5q-50 0 -89 -23.5t-65.5 -62t-40 -87
t-13.5 -99.5q0 -68 31 -111t97 -43q33 0 65 11t59.5 36t48.5 64.5t31 96.5l5 29v2z" />
    <glyph glyph-name="braceleft.001" horiz-adv-x="303" 
d="M351 724h-12q-27 0 -45.5 -5t-29 -20.5t-14.5 -45t-3 -78.5q1 -44 -3.5 -83t-18 -69t-36.5 -49.5t-59 -24.5q35 -4 54.5 -23.5t19.5 -53.5q0 -12 -1.5 -24.5t-5.5 -29.5t-11.5 -39.5t-18.5 -53.5q-10 -27 -16 -45t-9.5 -30.5t-4.5 -20.5t-1 -16q0 -17 16.5 -27t54.5 -10
h12l-10 -56h-11q-56 0 -89 17.5t-33 70.5q0 10 1.5 19.5t5 23t10.5 33.5t19 51q20 52 26 81t6 48q0 25 -16 39.5t-54 18.5l10 56q28 3 48.5 10.5t33 27t18 55.5t4.5 94q-1 64 6 105.5t26 66t50.5 34t79.5 9.5h11z" />
    </font>
</defs>
</svg>
