<?xml version="1.0" standalone="no"?>
<!DOCTYPE svg PUBLIC "-//W3C//DTD SVG 1.1//EN" "http://www.w3.org/Graphics/SVG/1.1/DTD/svg11.dtd" >
<svg xmlns="http://www.w3.org/2000/svg" xmlns:xlink="http://www.w3.org/1999/xlink" version="1.1">
<metadata>
Created by FontForge 20170910 at Thu Feb 12 23:39:25 2015
 By jimmywarting
No Rights Reserved.
</metadata>
<defs>
<font id="Aileron-Heavy" horiz-adv-x="642" >
  <font-face 
    font-family="Aileron Heavy"
    font-weight="900"
    font-stretch="normal"
    units-per-em="1000"
    panose-1="0 0 10 0 0 0 0 0 0 0"
    ascent="770"
    descent="-230"
    x-height="529"
    cap-height="690"
    bbox="-113 -223 1094 918"
    underline-thickness="50"
    underline-position="-100"
    unicode-range="U+000D-FB02"
  />
<missing-glyph horiz-adv-x="500" 
d="M0 700h500v-700h-500v700zM420 650h-340l170 -255zM450 95v510l-170 -255zM420 50l-170 255l-170 -255h340zM50 95l170 255l-170 255v-510z" />
    <glyph glyph-name="fi" unicode="fi" horiz-adv-x="630" 
d="M570 0h-156v429h-181v-429h-156v429h-57v100h57v7v29t1 30q3 37 17.5 66.5t44.5 50t76.5 31.5t114.5 11q27 0 45 -2t38 -5v-106q-51 3 -84.5 1.5t-53.5 -9t-29.5 -20.5t-11.5 -32q-2 -11 -2 -22v-21v-9h337v-529z" />
    <glyph glyph-name="fl" unicode="fl" horiz-adv-x="635" 
d="M558 133q2 -24 15.5 -31.5t44.5 -5.5v-99q-49 -6 -101 -6q-51 0 -82 23t-34 76q-1 20 -1 40.5v48.5v460q-15 5 -29 6t-34 1q-56 0 -82.5 -16.5t-29.5 -48.5q-2 -11 -2 -22v-21v-9h109v-100h-109v-429h-156v429h-47v100h47v7v25.5t1 26.5q3 37 19 67.5t48 52.5t81.5 34
t121.5 12q69 0 123.5 -7t94.5 -21v-544v-27.5t2 -21.5z" />
    <glyph glyph-name=".notdef" horiz-adv-x="500" 
d="M0 700h500v-700h-500v700zM420 650h-340l170 -255zM450 95v510l-170 -255zM420 50l-170 255l-170 -255h340zM50 95l170 255l-170 255v-510z" />
    <glyph glyph-name=".null" horiz-adv-x="0" 
 />
    <glyph glyph-name=".null" horiz-adv-x="0" 
 />
    <glyph glyph-name="nonmarkingreturn" unicode="&#xd;" horiz-adv-x="250" 
 />
    <glyph glyph-name="space" unicode=" " horiz-adv-x="186" 
 />
    <glyph glyph-name="exclam" unicode="!" horiz-adv-x="271" 
d="M74 203l-12 487h147l-12 -487h-123zM135 152q37 0 60.5 -23t23.5 -60t-23.5 -60t-60.5 -23t-60 23t-23 60t23 60t60 23z" />
    <glyph glyph-name="quotedbl" unicode="&#x22;" horiz-adv-x="392" 
d="M58 451l-15 284h135l-14 -284h-106zM235 451l-14 284h135l-15 -284h-106z" />
    <glyph glyph-name="numbersign" unicode="#" 
d="M444 292h97v-86h-115l-44 -206h-91l44 206h-88l-44 -206h-91l44 206h-85v86h103l23 107h-96v86h114l44 205h91l-44 -205h88l44 205h91l-44 -205h86v-86h-104zM288 399l-23 -107h88l23 107h-88z" />
    <glyph glyph-name="dollar" unicode="$" 
d="M596 186q0 -43 -17 -78t-47 -60t-71 -40t-90 -20v-78h-90v78q-100 9 -163.5 59.5t-72.5 149.5h150q7 -39 29.5 -63t56.5 -33v183q-49 17 -87.5 36.5t-65.5 44t-41 57t-14 74.5q0 48 17 84t45.5 61.5t66 40t79.5 19.5v79h90v-78q105 -11 158.5 -68t63.5 -141h-151
q-5 35 -21.5 60t-49.5 36v-175q60 -19 102.5 -41t69.5 -49t40 -60.5t13 -77.5zM218 513q0 -34 16 -52t47 -30v160q-29 -8 -46 -27.5t-17 -50.5zM371 98q35 7 54 25.5t19 53.5q0 28 -15.5 49.5t-57.5 36.5v-165z" />
    <glyph glyph-name="percent" unicode="%" horiz-adv-x="772" 
d="M191 703q73 0 115 -43.5t42 -122.5t-42 -123t-115 -44q-74 0 -115.5 44t-41.5 123t41.5 122.5t115.5 43.5zM109 0l447 690h114l-447 -690h-114zM191 625q-55 0 -55 -88q0 -43 13.5 -66t41.5 -23q27 0 41 23t14 66q0 88 -55 88zM581 319q74 0 115.5 -43.5t41.5 -122.5
t-41.5 -123t-115.5 -44q-73 0 -115 44t-42 123t42 122.5t115 43.5zM581 241q-55 0 -55 -88q0 -43 14 -66t41 -23q28 0 41.5 23t13.5 66q0 88 -55 88z" />
    <glyph glyph-name="ampersand" unicode="&#x26;" horiz-adv-x="680" 
d="M675 289h-93v-277q-54 -12 -116.5 -19t-135.5 -7q-60 0 -111.5 9.5t-89 31.5t-59 58.5t-21.5 91.5q0 72 45 117.5t120 58.5q-56 16 -91 57t-35 98q0 94 69 145t194 51q62 0 105 -10v-114q-31 5 -53 6.5t-49 1.5q-101 0 -101 -87q0 -46 25 -66.5t62 -22.5q14 -1 29 -1h28
h28v86h157v-86h93v-122zM214 197q0 -55 31.5 -75t88.5 -20q23 0 43 1.5t48 6.5v179h-40h-27.5t-25.5 -1q-59 -4 -88.5 -27.5t-29.5 -63.5z" />
    <glyph glyph-name="quotesingle" unicode="'" horiz-adv-x="209" 
d="M47 451l-14 284h135l-15 -284h-106z" />
    <glyph glyph-name="parenleft" unicode="(" horiz-adv-x="381" 
d="M343 780q-65 -96 -98.5 -200.5t-33.5 -229.5t33.5 -229.5t98.5 -200.5h-81q-72 81 -110 187.5t-38 242.5q0 137 38 243t110 187h81z" />
    <glyph glyph-name="parenright" unicode=")" horiz-adv-x="379" 
d="M116 780q71 -81 109 -187t38 -243q0 -136 -38 -242.5t-109 -187.5h-81q65 96 98.5 200.5t33.5 229.5t-33.5 229.5t-98.5 200.5h81z" />
    <glyph glyph-name="asterisk" unicode="*" horiz-adv-x="613" 
d="M476 379l31 -98l-140 -32l103 -119l-83 -60l-81 132l-80 -132l-83 60l103 119l-140 32l31 98l131 -57l-13 153h103l-13 -153z" />
    <glyph glyph-name="plus" unicode="+" 
d="M366 277v-199h-90v199h-176v80h176v199h90v-199h176v-80h-176z" />
    <glyph glyph-name="comma" unicode="," horiz-adv-x="255" 
d="M97 -123h-124l79 277h149v-10z" />
    <glyph glyph-name="hyphen" unicode="-" horiz-adv-x="304" 
d="M32 240v86h240v-86h-240z" />
    <glyph glyph-name="period" unicode="." horiz-adv-x="255" 
d="M130 168q41 0 66 -25t25 -66q0 -40 -25 -65.5t-66 -25.5q-40 0 -65.5 25.5t-25.5 65.5q0 41 25.5 66t65.5 25z" />
    <glyph glyph-name="slash" unicode="/" horiz-adv-x="335" 
d="M-5 -30l251 750h94l-251 -750h-94z" />
    <glyph glyph-name="zero" unicode="0" 
d="M321 704q74 0 126.5 -24.5t85.5 -71t48.5 -113t15.5 -150.5q0 -83 -15.5 -149.5t-48.5 -113t-85.5 -71.5t-126.5 -25t-126.5 25t-85.5 71.5t-48.5 113t-15.5 149.5q0 84 15.5 150.5t48.5 113t85.5 71t126.5 24.5zM321 102q56 0 83.5 57t27.5 186q0 131 -27.5 187
t-83.5 56t-83.5 -56t-27.5 -187q0 -129 27.5 -186t83.5 -57z" />
    <glyph glyph-name="one" unicode="1" 
d="M483 0h-157v526l-205 -110v143l165 96q30 17 60.5 26t63.5 9h73v-690z" />
    <glyph glyph-name="two" unicode="2" 
d="M576 123v-123h-517v71l225 217q36 35 61.5 62.5t41.5 51.5t23 46.5t7 47.5q0 43 -23 68.5t-66 25.5q-46 0 -70 -29t-29 -88l-1 -10h-157l1 10q11 113 79.5 173t190.5 60q118 0 179 -55t61 -147q0 -32 -8.5 -61t-28 -60t-52 -67.5t-80.5 -83.5l-112 -109h275z" />
    <glyph glyph-name="three" unicode="3" 
d="M444 365q145 -32 145 -163q0 -49 -19.5 -89t-55.5 -68t-86.5 -43.5t-112.5 -15.5q-124 0 -195.5 56.5t-82.5 162.5l-1 10h157l1 -10q8 -45 38 -74t80 -29q51 0 81.5 26.5t30.5 68.5q0 48 -32.5 73.5t-94.5 27.5h-25v105l25 1q53 3 82 30t29 70q0 38 -23 61t-65 23
q-44 0 -67.5 -28.5t-27.5 -71.5l-1 -10h-156l1 10q5 45 23.5 84t51.5 68.5t81 46.5t111 17q59 0 103.5 -14.5t74 -39t44.5 -57.5t15 -71q0 -60 -32 -100.5t-97 -56.5z" />
    <glyph glyph-name="four" unicode="4" 
d="M522 159v-159h-157v159h-328v85l316 446h169v-408h85v-123h-85zM365 519q-11 -20 -21.5 -37t-20.5 -31l-120 -169h162v237z" />
    <glyph glyph-name="five" unicode="5" 
d="M361 466q107 0 168 -62.5t61 -172.5q0 -60 -22.5 -106t-60 -76.5t-85.5 -46.5t-100 -16q-120 0 -186.5 49t-77.5 156l-1 10h157l1 -10q6 -42 29.5 -65.5t68.5 -23.5q55 0 83.5 34.5t28.5 89.5t-28.5 89.5t-80.5 34.5q-38 0 -62.5 -16.5t-39.5 -54.5h-145l50 411h443v-122
h-314l-25 -174l31 46q24 14 51 20t56 6z" />
    <glyph glyph-name="six" unicode="6" 
d="M367 463q57 0 99.5 -17.5t70.5 -48t42 -71t14 -86.5q0 -61 -22 -108.5t-59 -80t-85.5 -49t-102.5 -16.5q-135 0 -204 82t-69 259q0 93 21.5 163.5t60 118t92 71.5t117.5 24q109 0 170.5 -52.5t72.5 -143.5l1 -10h-158l-2 10q-22 80 -93 80q-55 0 -86.5 -53t-35.5 -172
l33 62q28 23 57 30.5t66 7.5zM322 102q51 0 78.5 35t27.5 84q0 57 -27 91.5t-80 34.5q-42 0 -73 -31t-31 -91q0 -55 28.5 -89t76.5 -34z" />
    <glyph glyph-name="seven" unicode="7" 
d="M598 605l-326 -605h-171l311 568h-357v122h543v-85z" />
    <glyph glyph-name="eight" unicode="8" 
d="M461 366q26 -9 50 -24t42 -36t28.5 -49t10.5 -62q0 -56 -21.5 -96t-58.5 -65.5t-86.5 -37t-106.5 -11.5q-60 0 -110 11.5t-85.5 37t-55 65.5t-19.5 96q0 34 11 61.5t29.5 49t43 36.5t50.5 24q-43 15 -72 49.5t-29 95.5q0 43 16.5 78.5t48 61t78 39.5t105.5 14t104.5 -14
t77 -39.5t48 -61t16.5 -78.5q0 -30 -9.5 -54t-25 -41.5t-36.5 -29.5t-44 -20zM328 588q-38 0 -61.5 -22.5t-23.5 -60.5q0 -42 22 -64.5t62 -22.5t64 22.5t24 64.5q0 38 -23 60.5t-64 22.5zM321 101q57 0 82.5 27t25.5 72q0 46 -27.5 75t-81.5 29q-49 0 -78 -28t-29 -74
q0 -48 28 -74.5t80 -26.5z" />
    <glyph glyph-name="nine" unicode="9" 
d="M318 704q134 0 203 -81.5t69 -259.5q0 -93 -21 -163.5t-59 -118t-92 -71.5t-119 -24q-112 0 -172.5 53t-69.5 144l-1 10h158l2 -10q9 -42 31.5 -61.5t61.5 -19.5q55 0 86.5 53t35.5 173l-34 -63q-28 -22 -56.5 -30t-65.5 -8q-58 0 -100.5 17.5t-70.5 48t-41.5 71
t-13.5 86.5q0 62 22 109t59 79.5t85.5 49t102.5 16.5zM321 343q42 0 72.5 31t30.5 91q0 55 -28 89t-77 34q-50 0 -77.5 -35t-27.5 -84q0 -56 26.5 -91t80.5 -35z" />
    <glyph glyph-name="colon" unicode=":" horiz-adv-x="255" 
d="M130 547q41 0 66 -25t25 -66q0 -40 -25 -65.5t-66 -25.5q-40 0 -65.5 25.5t-25.5 65.5q0 41 25.5 66t65.5 25zM130 168q41 0 66 -25t25 -66q0 -40 -25 -65.5t-66 -25.5q-40 0 -65.5 25.5t-25.5 65.5q0 41 25.5 66t65.5 25z" />
    <glyph glyph-name="semicolon" unicode=";" horiz-adv-x="255" 
d="M130 547q41 0 66 -25t25 -66q0 -40 -25 -65.5t-66 -25.5q-40 0 -65.5 25.5t-25.5 65.5q0 41 25.5 66t65.5 25zM97 -123h-124l79 280h149v-18z" />
    <glyph glyph-name="less" unicode="&#x3c;" 
d="M205 266l355 -137v-106l-454 183v119l454 183v-106z" />
    <glyph glyph-name="equal" unicode="=" 
d="M85 377v80h472v-80h-472zM85 177v80h472v-80h-472z" />
    <glyph glyph-name="greater" unicode="&#x3e;" 
d="M523 206l-453 -183v105l354 137l-354 136v107l453 -183v-119z" />
    <glyph glyph-name="question" unicode="?" horiz-adv-x="567" 
d="M287 704q112 0 174 -50.5t62 -139.5q0 -58 -26 -100t-80 -89q-20 -17 -33.5 -31t-22.5 -27.5t-13.5 -28.5t-6.5 -35h-131q1 28 5.5 49.5t13 40.5t21 36t29.5 36q44 47 61.5 76.5t17.5 60.5q0 42 -20 64t-61 22q-39 0 -62 -26.5t-26 -82.5h-158q2 53 20.5 94.5t51.5 70.5
t80 44.5t104 15.5zM277 152q37 0 60.5 -23t23.5 -60t-23.5 -60t-60.5 -23t-60 23t-23 60t23 60t60 23z" />
    <glyph glyph-name="at" unicode="@" horiz-adv-x="911" 
d="M645 305q-10 -43 -12.5 -61t-2.5 -30q0 -26 9 -42t31 -16q40 0 69.5 46t29.5 137q0 64 -20 113.5t-56 83.5t-87 52t-114 18q-65 0 -128 -23.5t-112 -68.5t-79 -110.5t-30 -148.5q0 -69 20 -123.5t58 -92.5t93.5 -58.5t125.5 -20.5q63 0 122.5 17t107.5 52l33 -76
q-66 -43 -138 -61.5t-137 -18.5q-67 0 -134.5 21t-122.5 66t-89.5 116.5t-34.5 172.5q0 98 35.5 180t96.5 140.5t142.5 91t173.5 32.5q90 0 159 -28.5t116 -76t71.5 -110t24.5 -131.5q0 -75 -19 -128t-50.5 -86t-73 -48t-87.5 -15q-54 0 -89.5 23t-49.5 70l-28 -58
q-23 -18 -45.5 -25.5t-45.5 -7.5q-26 0 -50.5 8t-44 27.5t-31 51.5t-11.5 80q0 53 14.5 98t40.5 79t62.5 53t79.5 19q29 0 49 -8t30 -20l15 -54l20 64h133zM430 180q25 0 40 20.5t22 48.5l14 63q8 34 -2 51t-33 17q-18 0 -33 -10t-26.5 -27.5t-17.5 -41.5t-6 -51
q0 -38 11.5 -54t30.5 -16z" />
    <glyph glyph-name="A" unicode="A" horiz-adv-x="690" 
d="M241 195l-64 -195h-167l249 690h194l246 -690h-170l-63 195h-225zM280 318h147l-73 236z" />
    <glyph glyph-name="B" unicode="B" horiz-adv-x="668" 
d="M508 373q130 -34 130 -166q0 -48 -17 -84t-44.5 -61t-62 -39t-69.5 -19q-26 -3 -46.5 -3.5t-51.5 -0.5h-262v690h263q27 0 45 -0.5t44 -3.5q85 -11 130.5 -58t45.5 -116q0 -102 -105 -139zM242 412h94q25 0 46 3q32 5 49.5 23t17.5 53t-18.5 52t-49.5 22q-11 2 -23.5 2.5
t-24.5 0.5h-91v-156zM397 124q31 2 54 24t23 61q0 42 -23.5 62.5t-56.5 23.5q-12 2 -24 2h-24h-104v-174h110h23.5t21.5 1z" />
    <glyph glyph-name="C" unicode="C" horiz-adv-x="725" 
d="M390 704q72 0 126.5 -18t92 -50.5t59 -76t26.5 -94.5l1 -10h-157l-2 10q-12 60 -48.5 91.5t-99.5 31.5q-37 0 -68.5 -15.5t-54.5 -46t-35.5 -75t-12.5 -101.5q0 -65 13.5 -112t36.5 -77t54 -44.5t66 -14.5q61 0 97.5 34.5t48.5 96.5l2 10h157l-1 -10q-6 -58 -30.5 -104
t-65 -78t-94.5 -48.5t-120 -16.5q-71 0 -131 23.5t-104 69t-69 111.5t-25 151q0 87 26 154.5t71.5 114t107.5 70.5t133 24z" />
    <glyph glyph-name="D" unicode="D" horiz-adv-x="739" 
d="M421 686q60 -7 112.5 -29.5t91.5 -63t61.5 -100t22.5 -139.5t-22.5 -142t-62 -106t-92 -69.5t-112.5 -32.5q-26 -3 -43 -3.5t-45 -0.5h-247v690h248q28 0 45 -0.5t43 -3.5zM382 125q73 8 117.5 67.5t44.5 159.5q0 98 -44 151.5t-117 61.5q-17 2 -32.5 2.5t-37.5 0.5h-71
v-445h70h37.5t32.5 2z" />
    <glyph glyph-name="E" unicode="E" horiz-adv-x="626" 
d="M597 0h-512v690h502v-122h-345v-161h322v-122h-322v-162h355v-123z" />
    <glyph glyph-name="F" unicode="F" horiz-adv-x="603" 
d="M242 407h312v-122h-312v-285h-157v690h502v-122h-345v-161z" />
    <glyph glyph-name="G" unicode="G" horiz-adv-x="747" 
d="M696 359v-359h-124l-12 109l-31 -72q-29 -27 -68 -39t-96 -12q-70 0 -128 24t-99 69.5t-63.5 111.5t-22.5 150q0 87 27 154.5t74 114t109.5 70.5t134.5 24t126.5 -18t92 -50.5t59 -76t26.5 -94.5l1 -10h-156l-2 10q-12 60 -49 91.5t-100 31.5q-38 0 -70.5 -15.5
t-56.5 -46t-37.5 -75t-13.5 -101.5q0 -65 13.5 -112t37.5 -77t56 -44.5t69 -14.5q60 0 100 34.5t54 100.5h-140v122h289z" />
    <glyph glyph-name="H" unicode="H" horiz-adv-x="760" 
d="M700 0h-156v277h-302v-277h-157v690h157v-290h302v290h156v-690z" />
    <glyph glyph-name="I" unicode="I" horiz-adv-x="302" 
d="M85 0v690h157v-690h-157z" />
    <glyph glyph-name="J" unicode="J" horiz-adv-x="615" 
d="M562 290q0 -23 -0.5 -43.5t-2.5 -55.5q-3 -45 -19 -82.5t-47 -65t-78 -42.5t-111 -15t-111.5 17t-78 48t-46 75t-17.5 98l-1 33h156l2 -33q5 -69 31.5 -95.5t71.5 -26.5q44 0 66 26t26 72q2 17 2 34v36v420h157v-400z" />
    <glyph glyph-name="K" unicode="K" horiz-adv-x="710" 
d="M699 0h-199l-205 274l-53 -59v-215h-157v690h157v-320l282 320h187l-302 -328z" />
    <glyph glyph-name="L" unicode="L" horiz-adv-x="615" 
d="M597 0h-512v690h157v-558h355v-132z" />
    <glyph glyph-name="M" unicode="M" horiz-adv-x="909" 
d="M849 0h-157v306v113t2 116q-11 -54 -26.5 -116t-30.5 -112l-87 -307h-166l-89 307q-14 50 -29.5 111.5t-25.5 115.5q2 -54 2 -115.5v-112.5v-306h-157v690h246l139 -541l139 541h240v-690z" />
    <glyph glyph-name="N" unicode="N" horiz-adv-x="775" 
d="M506 0l-270 494q4 -55 5 -105.5t1 -88.5v-300h-157v690h201l278 -508q-3 54 -4 108.5t-1 92.5v307h156v-690h-209z" />
    <glyph glyph-name="O" unicode="O" horiz-adv-x="775" 
d="M399 704q80 0 144 -25.5t109 -72t69 -113t24 -148.5t-24 -148t-69 -113t-109 -72.5t-144 -25.5t-144.5 25.5t-109.5 72.5t-69 113t-24 148t24 148.5t69 113t109.5 72t144.5 25.5zM399 102q86 0 135 63.5t49 179.5q0 117 -49 180t-135 63q-87 0 -136 -63t-49 -180
q0 -116 49 -179.5t136 -63.5z" />
    <glyph glyph-name="P" unicode="P" horiz-adv-x="633" 
d="M437 685q39 -4 73 -20t59.5 -42.5t40.5 -64.5t15 -87t-15.5 -87t-41 -64.5t-59.5 -42t-72 -20.5q-26 -3 -49 -4t-54 -1h-92v-252h-157v690h249q31 0 54 -1t49 -4zM383 377q35 5 56.5 27t21.5 67t-21.5 67t-56.5 27q-11 2 -24.5 2h-30.5h-86v-192h86h30.5t24.5 2z" />
    <glyph glyph-name="Q" unicode="Q" horiz-adv-x="777" 
d="M646 114q30 -8 57.5 -23t56.5 -40l-77 -100q-24 15 -43 25t-35 16t-30.5 8t-31.5 2q-21 0 -36.5 -2t-36.5 -7q-31 -7 -71 -7q-80 0 -144.5 25.5t-109.5 72.5t-69 113t-24 148t24 148.5t69 113.5t109.5 72.5t144.5 25.5t144 -25.5t109 -72.5t69 -113.5t24 -148.5
q0 -69 -24.5 -129t-74.5 -102zM214 345q0 -116 49 -179.5t136 -63.5q86 0 135 63.5t49 179.5q0 117 -49 180.5t-135 63.5q-87 0 -136 -63.5t-49 -180.5z" />
    <glyph glyph-name="R" unicode="R" horiz-adv-x="666" 
d="M602 171q7 -61 18.5 -101t32.5 -70h-171q-13 36 -20.5 69.5t-12.5 77.5q-7 57 -29 88.5t-61 34.5q-14 1 -27.5 1h-27.5h-62v-271h-157v690h262q31 0 54 -1t50 -4q38 -4 71 -16.5t58 -34t39.5 -54.5t14.5 -78q0 -66 -35.5 -108.5t-101.5 -61.5q53 -20 76 -60.5t29 -100.5z
M323 386h29.5t23.5 1q38 4 66 23.5t28 66.5q0 48 -25 66t-63 23q-11 1 -23.5 1.5t-29.5 0.5h-87v-182h81z" />
    <glyph glyph-name="S" unicode="S" horiz-adv-x="616" 
d="M320 704q65 0 112 -17t78.5 -46.5t49 -70t23.5 -87.5h-158q-6 48 -33 76.5t-77 28.5q-37 0 -60.5 -17.5t-23.5 -55.5q0 -19 7 -34.5t24 -28t45 -23t70 -20.5q115 -27 166.5 -81t51.5 -136q0 -50 -21.5 -88.5t-58 -64.5t-84 -39.5t-99.5 -13.5q-127 0 -205.5 54.5
t-87.5 166.5h158q11 -54 47.5 -79.5t84.5 -25.5q43 0 72.5 21t29.5 56q0 36 -27.5 61t-98.5 42q-55 14 -99.5 31t-75 42t-47 60.5t-16.5 84.5q0 48 20.5 86t55.5 64.5t81 40t96 13.5z" />
    <glyph glyph-name="T" unicode="T" horiz-adv-x="627" 
d="M405 568v-568h-156v568h-230v122h616v-122h-230z" />
    <glyph glyph-name="U" unicode="U" horiz-adv-x="709" 
d="M663 291q0 -24 -0.5 -42.5t-2.5 -45.5q-3 -43 -20.5 -82.5t-52.5 -69.5t-88.5 -47.5t-129.5 -17.5t-129.5 17.5t-88.5 47.5t-53 69.5t-21 82.5q-2 27 -2 45.5v42.5v399h156v-422v-24.5t1 -21.5q5 -57 38.5 -88.5t98.5 -31.5t98.5 31.5t37.5 88.5q2 11 2 21.5v24.5v422
h156v-399z" />
    <glyph glyph-name="V" unicode="V" horiz-adv-x="712" 
d="M278 0l-246 690h170l175 -569l178 569h166l-249 -690h-194z" />
    <glyph glyph-name="W" unicode="W" horiz-adv-x="1000" 
d="M828 0h-208l-104 559l-111 -559h-209l-170 690h168l106 -568l107 558h223l104 -563l113 573h161z" />
    <glyph glyph-name="X" unicode="X" horiz-adv-x="694" 
d="M353 249l-149 -249h-187l247 348l-230 342h182l143 -244l153 244h180l-241 -339l245 -351h-183z" />
    <glyph glyph-name="Y" unicode="Y" horiz-adv-x="643" 
d="M415 0h-156v264l-244 426h177l150 -288l144 288h172l-243 -424v-266z" />
    <glyph glyph-name="Z" unicode="Z" horiz-adv-x="634" 
d="M606 0h-555v119l362 449h-334v122h522v-121l-358 -446h363v-123z" />
    <glyph glyph-name="bracketleft" unicode="[" horiz-adv-x="384" 
d="M352 694h-156v-688h156v-86h-246v860h246v-86z" />
    <glyph glyph-name="backslash" unicode="\" horiz-adv-x="335" 
d="M246 -30l-251 750h94l251 -750h-94z" />
    <glyph glyph-name="bracketright" unicode="]" horiz-adv-x="381" 
d="M30 -80v86h156v688h-156v86h245v-860h-245z" />
    <glyph glyph-name="asciicircum" unicode="^" 
d="M320 529l-123 -314h-99l171 401h103l171 -401h-101z" />
    <glyph glyph-name="underscore" unicode="_" horiz-adv-x="500" 
d="M50 -88v86h400v-86h-400z" />
    <glyph glyph-name="grave" unicode="`" horiz-adv-x="300" 
d="M124 573l-138 122h140l84 -122h-86z" />
    <glyph glyph-name="a" unicode="a" horiz-adv-x="573" 
d="M359 78l-24 -57q-29 -18 -62 -26.5t-70 -8.5q-34 0 -65 10t-54.5 30t-37.5 49t-14 67q0 88 74.5 136t216.5 48h34v9v21.5t-2 24.5q-2 24 -20.5 41t-53.5 17q-37 0 -57 -21.5t-23 -61.5h-150q1 46 20 81.5t50.5 60t74 37t91.5 12.5q59 0 100.5 -12.5t67.5 -34t39 -51.5
t16 -66q3 -37 3 -86v-162q0 -30 2 -60t8 -75h-153zM265 94q35 0 63.5 25t28.5 75v39q-73 6 -118.5 -12.5t-45.5 -65.5q0 -30 20 -45.5t52 -15.5z" />
    <glyph glyph-name="b" unicode="b" horiz-adv-x="655" 
d="M393 547q55 0 99 -20t74.5 -55.5t46.5 -85t16 -108.5q0 -72 -20.5 -126.5t-55 -91.5t-81 -55.5t-97.5 -18.5q-33 0 -68.5 7.5t-55.5 20.5l-35 56v-70h-157v735h157v-282l40 59q23 17 59.5 26t77.5 9zM338 94q57 0 93.5 43t36.5 131q0 79 -34.5 125t-90.5 46q-27 0 -50 -9
t-40.5 -28.5t-27 -51t-9.5 -77.5v-24q0 -43 10.5 -72.5t28 -48t39.5 -26.5t44 -8z" />
    <glyph glyph-name="c" unicode="c" horiz-adv-x="573" 
d="M299 547q56 0 100.5 -16t76.5 -44.5t50.5 -67t21.5 -83.5h-153q-8 55 -34.5 79t-65.5 24q-50 0 -79 -41t-29 -126q0 -94 29.5 -136t78.5 -42q36 0 62.5 24t35.5 71h155q-16 -100 -87 -151.5t-175 -51.5q-55 0 -103 17.5t-82.5 52.5t-54.5 86.5t-20 119.5q0 69 21.5 122
t58.5 89t86.5 55t106.5 19z" />
    <glyph glyph-name="d" unicode="d" horiz-adv-x="656" 
d="M596 0h-157v80l-40 -59q-23 -17 -59.5 -26t-77.5 -9q-55 0 -99 20t-74.5 56t-46.5 85.5t-16 108.5q0 72 20.5 126t55 91t81 55.5t97.5 18.5q33 0 68.5 -7.5t55.5 -20.5l35 -56v272h157v-735zM312 94q27 0 50 9t40 28.5t27 51t10 77.5v25q0 43 -11 72.5t-28 47.5t-39 26
t-44 8q-57 0 -93.5 -43t-36.5 -131q0 -79 34.5 -125t90.5 -46z" />
    <glyph glyph-name="e" unicode="e" horiz-adv-x="588" 
d="M560 276q0 -21 -3 -50h-374q3 -38 13 -63.5t24.5 -40.5t33.5 -21.5t41 -6.5q42 0 68 21t33 59h155q-22 -93 -91.5 -140.5t-167.5 -47.5q-56 0 -104.5 17t-84.5 52t-56.5 87.5t-20.5 122.5q0 60 19.5 111.5t55.5 89.5t87 59.5t114 21.5q64 0 112 -22.5t80.5 -60t49 -86.5
t16.5 -102zM295 439q-42 0 -70 -27t-38 -87h210q-14 114 -102 114z" />
    <glyph glyph-name="f" unicode="f" horiz-adv-x="356" 
d="M235 589q-2 -11 -2 -22v-22v-16h109v-100h-109v-429h-156v429h-57v100h57v14v29.5t1 30.5q6 71 55.5 111t157.5 40q16 0 31 -2t29 -5v-106q-49 9 -80.5 -4t-35.5 -48z" />
    <glyph glyph-name="g" unicode="g" horiz-adv-x="656" 
d="M596 135v-53t-1 -50q-2 -64 -24 -111t-60 -78t-91.5 -46t-118.5 -15q-118 0 -185 47t-76 137l-1 10h152l1 -9q4 -32 34 -50.5t79 -18.5q58 0 93.5 28t38.5 88q1 14 1.5 31t0.5 36v14l-40 -59q-23 -17 -55.5 -26t-73.5 -9q-55 0 -100.5 18.5t-77 52.5t-49 82.5
t-17.5 107.5q0 72 20.5 125.5t55 89t81 53t97.5 17.5q33 0 68.5 -7.5t55.5 -20.5l35 -56v70h157v-398zM312 109q27 0 50 9t40 28.5t27 51t10 77.5v10q0 43 -11 72.5t-28 47.5t-39 26t-44 8q-57 0 -93.5 -39t-36.5 -126q0 -79 34.5 -122t90.5 -43z" />
    <glyph glyph-name="h" unicode="h" horiz-adv-x="631" 
d="M573 400q3 -20 4 -43.5t1 -55.5v-301h-157v277v34.5t-2 39.5q-3 41 -26 64.5t-69 23.5q-46 -1 -77 -45.5t-31 -146.5v-247h-157v740h157v-291l44 64q27 18 56.5 26t67.5 8q85 0 132.5 -38.5t56.5 -108.5z" />
    <glyph glyph-name="i" unicode="i" horiz-adv-x="276" 
d="M137 739q38 0 61 -21.5t23 -57.5q0 -37 -23 -58.5t-61 -21.5t-60.5 21.5t-22.5 58.5q0 36 22.5 57.5t60.5 21.5zM59 0v533h157v-533h-157z" />
    <glyph glyph-name="j" unicode="j" horiz-adv-x="270" 
d="M135 739q83 0 83 -79q0 -80 -83 -80q-84 0 -84 80q0 79 84 79zM213 1q0 -16 -0.5 -33.5t-1.5 -31.5q-5 -68 -49.5 -107t-146.5 -39q-31 0 -56 3v109q48 -5 70 6t25 44q2 11 2 23.5v23.5v534h157v-532z" />
    <glyph glyph-name="k" unicode="k" horiz-adv-x="605" 
d="M216 159v-159h-157v735h157v-436l202 234h186l-231 -246l234 -287h-195l-155 204z" />
    <glyph glyph-name="l" unicode="l" horiz-adv-x="291" 
d="M212 182v-27.5t1 -21.5q2 -18 14 -25t47 -5v-107q-23 -2 -45.5 -3.5t-48.5 -1.5q-57 0 -88.5 23t-34.5 76q-2 20 -2 40.5v48.5v556h157v-553z" />
    <glyph glyph-name="m" unicode="m" horiz-adv-x="938" 
d="M880 414q3 -20 4 -43.5t1 -55.5v-315h-157v275q0 19 -1 40t-3 41q-5 40 -25.5 61.5t-58.5 21.5q-90 0 -90 -162v-277h-156v275q0 19 -1 40t-3 41q-5 40 -26 61.5t-59 21.5q-89 0 -89 -162v-277h-157v533h157v-83l40 66q24 16 51 23.5t64 7.5q67 0 108 -29t58 -74l54 72
q23 16 50.5 23.5t63.5 7.5q39 0 69.5 -10.5t52.5 -28.5t35.5 -42.5t17.5 -51.5z" />
    <glyph glyph-name="n" unicode="n" horiz-adv-x="631" 
d="M573 400q3 -20 4 -43.5t1 -55.5v-301h-157v277v34.5t-2 39.5q-3 41 -26 64.5t-69 23.5t-77 -45t-31 -147v-247h-157v533h157v-84l44 64q27 18 56.5 26t67.5 8q85 0 132.5 -38.5t56.5 -108.5z" />
    <glyph glyph-name="o" unicode="o" horiz-adv-x="613" 
d="M307 547q66 0 118 -20.5t88.5 -57.5t55.5 -88.5t19 -113.5t-19 -114t-55.5 -89t-88.5 -57.5t-118 -20.5t-118.5 20.5t-88.5 57.5t-55 89t-19 114t19 113.5t55 88.5t88.5 57.5t118.5 20.5zM307 94q56 0 87.5 44.5t31.5 128.5t-31.5 128t-87.5 44q-57 0 -88.5 -44
t-31.5 -128t31.5 -128.5t88.5 -44.5z" />
    <glyph glyph-name="p" unicode="p" horiz-adv-x="655" 
d="M393 547q55 0 99 -20t74.5 -55.5t46.5 -85t16 -108.5q0 -72 -20.5 -126.5t-55 -91.5t-81 -55.5t-97.5 -18.5q-33 0 -68.5 7.5t-55.5 20.5l-35 56v-266h-157v729h157v-80l40 59q23 17 59.5 26t77.5 9zM338 94q57 0 93.5 43t36.5 131q0 79 -34.5 125t-90.5 46q-27 0 -50 -9
t-40.5 -28.5t-27 -51t-9.5 -77.5v-24q0 -43 10.5 -72.5t28 -48t39.5 -26.5t44 -8z" />
    <glyph glyph-name="q" unicode="q" horiz-adv-x="656" 
d="M596 -196h-157v276l-40 -59q-23 -17 -59.5 -26t-77.5 -9q-55 0 -99 20t-74.5 56t-46.5 85.5t-16 108.5q0 72 20.5 126t55 91t81 55.5t97.5 18.5q33 0 68.5 -7.5t55.5 -20.5l35 -56v70h157v-729zM312 94q27 0 50 9t40 28.5t27 51t10 77.5v25q0 43 -11 72.5t-28 47.5
t-39 26t-44 8q-57 0 -93.5 -43t-36.5 -131q0 -79 34.5 -125t90.5 -46z" />
    <glyph glyph-name="r" unicode="r" horiz-adv-x="398" 
d="M353 547q13 0 22 -1t18 -3v-127q-46 3 -79.5 -5.5t-55.5 -31.5t-32 -61t-10 -95v-223h-157v533h157v-102l40 74q20 21 47 31.5t50 10.5z" />
    <glyph glyph-name="s" unicode="s" horiz-adv-x="511" 
d="M263 547q48 0 86 -13t65.5 -35.5t43.5 -53.5t21 -67h-155q-7 33 -24.5 51t-46.5 18q-26 0 -40.5 -14t-14.5 -35q0 -27 26.5 -44.5t97.5 -35.5q39 -10 70 -23.5t53 -33.5t34 -47t12 -65q0 -42 -17.5 -72.5t-48.5 -50.5t-72 -30t-88 -10q-102 0 -168 44t-77 134h155
q8 -38 33 -57.5t58 -19.5q29 0 48.5 12t19.5 38q0 29 -28.5 46.5t-99.5 34.5q-75 19 -120 56t-45 105q0 39 16 70t45 53t70 33.5t91 11.5z" />
    <glyph glyph-name="t" unicode="t" horiz-adv-x="378" 
d="M247 205v-26.5t1 -23.5q2 -20 6.5 -32.5t16 -19t30.5 -8.5t49 0v-100q-24 -4 -47.5 -6t-49.5 -2q-44 0 -73.5 7t-48.5 21.5t-28 36.5t-11 51q-2 20 -2 39v42v245h-81v100h81v134h157v-134h113v-100h-113v-224z" />
    <glyph glyph-name="u" unicode="u" horiz-adv-x="628" 
d="M568 0h-156v91l-45 -71q-27 -18 -56.5 -26t-67.5 -8q-41 0 -74 11t-57 29.5t-38 43t-19 51.5q-3 20 -4 43.5t-1 55.5v313h156v-279q0 -13 1 -33t3 -40q5 -41 27.5 -63.5t68.5 -22.5q48 0 77 39.5t29 113.5v285h156v-533z" />
    <glyph glyph-name="v" unicode="v" horiz-adv-x="585" 
d="M381 0h-172l-209 533h174l123 -412l122 412h170z" />
    <glyph glyph-name="w" unicode="w" horiz-adv-x="847" 
d="M683 0h-176l-80 387l-81 -387h-177l-169 533h174l83 -402l77 399h187l81 -400l81 403h169z" />
    <glyph glyph-name="x" unicode="x" horiz-adv-x="563" 
d="M561 0h-183l-98 174l-102 -174h-180l187 270l-180 263h183l96 -167l95 167h180l-183 -264z" />
    <glyph glyph-name="y" unicode="y" horiz-adv-x="584" 
d="M376 -11q-23 -58 -46 -96.5t-50.5 -61t-61 -32t-77.5 -9.5q-20 0 -35.5 1t-32.5 3v105q11 -2 21.5 -2h22.5q34 0 57 13.5t38 48.5l7 17l-219 557h175l122 -412l121 412h171z" />
    <glyph glyph-name="z" unicode="z" horiz-adv-x="510" 
d="M481 0h-450v95l280 333h-264v101h431v-100l-278 -328h281v-101z" />
    <glyph glyph-name="braceleft" unicode="{" horiz-adv-x="398" 
d="M318 694q-38 0 -52.5 -8t-14.5 -34q0 -12 2 -30.5t8 -61.5q12 -76 12 -108q0 -82 -85 -100q85 -18 85 -104q0 -31 -12 -108q-6 -42 -8 -60.5t-2 -31.5q0 -26 14.5 -34t52.5 -8h20v-86h-41q-73 0 -104.5 27t-31.5 87q0 23 3 48t9 68q5 33 7.5 55t2.5 40q0 23 -16 41
t-66 21v86q50 4 66 22t16 40q0 18 -2.5 40t-7.5 55q-6 43 -9 68.5t-3 48.5q0 60 31.5 86.5t104.5 26.5h41v-86h-20z" />
    <glyph glyph-name="bar" unicode="|" horiz-adv-x="297" 
d="M98 -200v1000h101v-1000h-101z" />
    <glyph glyph-name="braceright" unicode="}" horiz-adv-x="398" 
d="M298 307q-50 -3 -66 -21t-16 -41q0 -18 2 -40t7 -55q7 -43 9.5 -68t2.5 -48q0 -60 -31.5 -87t-103.5 -27h-41v86h19q39 0 53.5 8t14.5 34q0 13 -2 31.5t-9 60.5q-5 38 -8 65.5t-3 42.5q0 84 84 100q-43 9 -63.5 35.5t-20.5 68.5q0 15 3 42.5t8 65.5q7 43 9 61.5t2 30.5
q0 26 -14.5 34t-53.5 8h-19v86h41q72 0 103.5 -26.5t31.5 -86.5q0 -23 -2.5 -48.5t-9.5 -68.5q-5 -33 -7 -55t-2 -40q0 -22 16 -40t66 -22v-86z" />
    <glyph glyph-name="asciitilde" unicode="~" 
d="M558 394q0 -88 -32.5 -129.5t-94.5 -41.5q-32 0 -58.5 10.5t-64.5 30.5q-35 19 -54.5 27t-36.5 8q-26 0 -36 -19.5t-10 -56.5h-86q0 88 32 129.5t94 41.5q33 0 60 -11t64 -30q32 -17 52 -26t39 -9q24 0 35 17t11 59h86z" />
    <glyph glyph-name="exclamdown" unicode="&#xa1;" horiz-adv-x="271" 
d="M135 378q-37 0 -60 23t-23 60t23 60t60 23t60.5 -23t23.5 -60t-23.5 -60t-60.5 -23zM197 328l12 -488h-147l12 488h123z" />
    <glyph glyph-name="cent" unicode="&#xa2;" horiz-adv-x="637" 
d="M371 102q25 11 44.5 32.5t26.5 54.5h140q-14 -88 -70 -138t-141 -62v-79h-90v78q-48 6 -88.5 27.5t-70 56t-46 82t-16.5 106.5q0 60 17 108.5t46.5 84t70 57.5t87.5 30v80h90v-78q48 -5 86 -23t65 -46t42 -63.5t18 -76.5h-138q-6 40 -26.5 63t-46.5 33v-327zM206 270
q0 -69 21.5 -109t53.5 -56v321q-32 -16 -53.5 -54.5t-21.5 -101.5z" />
    <glyph glyph-name="sterling" unicode="&#xa3;" 
d="M580 0h-516v109q57 11 79.5 41.5t22.5 72.5q0 33 -13 73h-80v80h45q-12 29 -18 55t-6 60q0 50 17.5 89t49.5 67t76.5 42.5t97.5 14.5q60 0 103.5 -17t73 -45.5t44.5 -66t18 -78.5h-158q-4 42 -24 66.5t-58 24.5q-36 0 -55.5 -25t-19.5 -59q0 -31 6.5 -57.5t24.5 -70.5
h199v-80h-171q7 -27 7 -54q0 -38 -21 -69t-62 -50h338v-123z" />
    <glyph glyph-name="currency" unicode="&#xa4;" 
d="M501 301q0 -54 -28 -98l53 -53l-53 -53l-53 53q-21 -14 -46 -21.5t-53 -7.5t-53 7.5t-46 21.5l-53 -53l-53 53l53 53q-28 44 -28 98q0 55 29 98l-54 54l53 53l53 -54q22 14 46.5 21.5t52.5 7.5t52.5 -7.5t46.5 -21.5l53 54l53 -53l-54 -54q29 -43 29 -98zM321 206
q38 0 62 26t24 69t-24 69t-62 26t-62.5 -26t-24.5 -69t24.5 -69t62.5 -26z" />
    <glyph glyph-name="yen" unicode="&#xa5;" 
d="M552 374v-86h-153v-58h153v-86h-153v-144h-156v144h-153v86h153v58h-153v86h109l-175 316h166l135 -308l132 308h161l-175 -316h109z" />
    <glyph glyph-name="brokenbar" unicode="&#xa6;" horiz-adv-x="285" 
d="M98 350v340h89v-340h-89zM98 -160v340h89v-340h-89z" />
    <glyph glyph-name="section" unicode="&#xa7;" horiz-adv-x="613" 
d="M588 237q0 -51 -24 -87t-63 -59q26 -37 26 -88q0 -43 -18 -76t-49 -55.5t-72.5 -34t-89.5 -11.5q-49 0 -91.5 11t-74.5 33t-52 56t-25 79h155q9 -38 34 -58.5t57 -20.5q29 0 48.5 15.5t19.5 46.5q0 17 -6.5 32t-23.5 29t-46.5 27.5t-76.5 26.5q-44 13 -79.5 29.5t-60 39
t-38 53t-13.5 71.5q0 49 22 86t60 60q-20 32 -20 73q0 42 16 77t45 59.5t70 38.5t90 14q97 0 151.5 -48.5t64.5 -126.5h-155q-14 75 -69 75q-23 0 -39 -16.5t-16 -46.5q0 -19 5.5 -34t20 -27t39 -22t61.5 -20q112 -30 164.5 -76.5t52.5 -124.5zM293 206q60 -18 105 -39
q14 8 23 22t9 34q0 36 -27.5 59.5t-94.5 43.5q-54 15 -98 35q-27 -17 -27 -60q0 -35 28 -56.5t82 -38.5z" />
    <glyph glyph-name="dieresis" unicode="&#xa8;" horiz-adv-x="300" 
d="M57 705q30 0 49 -18t19 -48t-19 -48t-49 -18t-49 18t-19 48t19 48t49 18zM243 705q30 0 49 -18t19 -48t-19 -48t-49 -18t-48.5 18t-18.5 48t18.5 48t48.5 18z" />
    <glyph glyph-name="copyright" unicode="&#xa9;" horiz-adv-x="855" 
d="M427 755q89 0 163.5 -29.5t128.5 -83t84.5 -127t30.5 -160.5t-30.5 -160.5t-84.5 -127t-128.5 -83t-163.5 -29.5q-88 0 -162.5 29.5t-128.5 83t-84.5 127t-30.5 160.5t30.5 160.5t84.5 127t128.5 83t162.5 29.5zM427 669q-67 0 -123.5 -23.5t-98 -65.5t-64.5 -99.5
t-23 -125.5t23 -125t64.5 -98.5t98 -65t123.5 -23.5q68 0 124.5 23.5t98 65t64.5 98.5t23 125t-23 125.5t-64.5 99.5t-98 65.5t-124.5 23.5zM436 583q94 0 146.5 -50t60.5 -131h-133q-4 40 -22.5 64t-56.5 24q-44 0 -63 -35.5t-19 -98.5q0 -69 22.5 -103t62.5 -34
q29 0 50.5 21.5t24.5 66.5h133q-13 -82 -65 -131.5t-149 -49.5q-48 0 -88.5 15.5t-69.5 45t-45 72t-16 96.5q0 52 16 94t46 72t72 46t93 16z" />
    <glyph glyph-name="guillemotleft" unicode="&#xab;" horiz-adv-x="662" 
d="M256 248l137 -166h-115l-137 166l137 166h115zM478 248l137 -166h-115l-137 166l137 166h115z" />
    <glyph glyph-name="logicalnot" unicode="&#xac;" 
d="M427 182v127h-312v86h401v-213h-89z" />
    <glyph glyph-name="registered" unicode="&#xae;" horiz-adv-x="492" 
d="M246 764q47 0 85.5 -15.5t66 -43.5t43 -66.5t15.5 -84.5t-15.5 -84.5t-43 -66.5t-66 -43.5t-85.5 -15.5q-46 0 -85 15.5t-66.5 43.5t-43 66.5t-15.5 84.5t15.5 84.5t43 66.5t66.5 43.5t85 15.5zM246 398q34 0 62 11.5t48.5 32.5t31.5 49.5t11 62.5q0 35 -11 63.5
t-31.5 49.5t-48.5 32.5t-62 11.5t-62 -11.5t-48 -32.5t-31.5 -49.5t-11.5 -63.5q0 -34 11.5 -62.5t31.5 -49.5t48 -32.5t62 -11.5zM298 554q14 -5 20.5 -17t8.5 -29q2 -20 5.5 -33t7.5 -21h-65q-2 9 -3.5 19.5t-3.5 22.5q-3 27 -29 27h-15v-69h-58v211h76h14t13 -1
q35 -4 52 -19.5t17 -39.5q0 -21 -11.5 -33.5t-28.5 -17.5zM255 569q11 2 15.5 9t4.5 16q0 23 -20 26q-5 1 -8.5 1h-10.5h-12v-53h12h10t9 1z" />
    <glyph glyph-name="macron" unicode="&#xaf;" horiz-adv-x="300" 
d="M8 591v85h285v-85h-285z" />
    <glyph glyph-name="degree" unicode="&#xb0;" horiz-adv-x="315" 
d="M157 704q60 0 98 -36.5t38 -94.5t-38 -94.5t-98 -36.5t-97.5 36.5t-37.5 94.5t37.5 94.5t97.5 36.5zM157 624q-20 0 -34.5 -14t-14.5 -37t14.5 -37t34.5 -14t35 14t15 37t-15 37t-35 14z" />
    <glyph glyph-name="plusminus" unicode="&#xb1;" 
d="M523 361v-86h-157v-153h-90v153h-158v86h158v151h90v-151h157zM118 0v80h405v-80h-405z" />
    <glyph glyph-name="acute" unicode="&#xb4;" horiz-adv-x="300" 
d="M101 573l84 122h140l-138 -122h-86z" />
    <glyph glyph-name="paragraph" unicode="&#xb6;" horiz-adv-x="605" 
d="M545 -110h-89v714h-108v-714h-90v430h-5h-28.5t-27.5 1q-38 2 -67.5 18t-49.5 41t-30 57t-10 68t10 68t30 57t49.5 41t67.5 18q13 1 27.5 1h28.5h292v-800z" />
    <glyph glyph-name="periodcentered" unicode="&#xb7;" horiz-adv-x="261" 
d="M130 397q41 0 67 -25.5t26 -66.5t-26 -66.5t-67 -25.5t-66.5 25.5t-25.5 66.5t25.5 66.5t66.5 25.5z" />
    <glyph glyph-name="cedilla" unicode="&#xb8;" horiz-adv-x="300" 
d="M166 -41q92 -12 92 -79q0 -25 -12.5 -42t-33.5 -27.5t-50 -15.5t-62 -5q-14 0 -27.5 1t-27.5 6v63q17 -5 31.5 -6.5t25.5 -1.5q32 0 46 8t14 23q0 18 -20.5 26.5t-75.5 4.5l47 95h79z" />
    <glyph glyph-name="guillemotright" unicode="&#xbb;" horiz-adv-x="637" 
d="M162 82h-115l137 166l-137 166h115l137 -166zM385 82h-115l137 166l-137 166h115l137 -166z" />
    <glyph glyph-name="questiondown" unicode="&#xbf;" horiz-adv-x="542" 
d="M298 381q-37 0 -60 23t-23 60t23 60t60 23t60.5 -23t23.5 -60t-23.5 -60t-60.5 -23zM288 -171q-112 0 -173.5 50.5t-61.5 140.5q0 58 25.5 100t79.5 88q20 17 33.5 31t22.5 28t13.5 29.5t6.5 34.5h131q-1 -28 -5.5 -50t-12.5 -41t-20.5 -36t-29.5 -36
q-44 -47 -61.5 -76.5t-17.5 -60.5q0 -42 20 -64t61 -22q39 0 62 26.5t26 82.5h157q-1 -52 -20 -94t-52 -71t-79.5 -44.5t-104.5 -15.5z" />
    <glyph glyph-name="Agrave" unicode="&#xc0;" horiz-adv-x="690" 
d="M188 853h140l82 -118h-86zM241 195l-64 -195h-167l249 690h194l246 -690h-170l-63 195h-225zM280 318h147l-73 236z" />
    <glyph glyph-name="Aacute" unicode="&#xc1;" horiz-adv-x="690" 
d="M307 735l82 118h140l-136 -118h-86zM241 195l-64 -195h-167l249 690h194l246 -690h-170l-63 195h-225zM280 318h147l-73 236z" />
    <glyph glyph-name="Acircumflex" unicode="&#xc2;" horiz-adv-x="690" 
d="M230 735l63 118h127l63 -118h-95l-33 71l-31 -71h-94zM241 195l-64 -195h-167l249 690h194l246 -690h-170l-63 195h-225zM280 318h147l-73 236z" />
    <glyph glyph-name="Atilde" unicode="&#xc3;" horiz-adv-x="690" 
d="M303 772q-15 0 -15 -28h-81q0 63 19.5 90.5t60.5 27.5q20 0 35.5 -3t41.5 -14q34 -14 45 -14q15 0 15 28h82q0 -63 -19.5 -90.5t-61.5 -27.5q-20 0 -35.5 3t-41.5 14q-34 14 -45 14zM241 195l-64 -195h-167l249 690h194l246 -690h-170l-63 195h-225zM280 318h147l-73 236
z" />
    <glyph glyph-name="Adieresis" unicode="&#xc4;" horiz-adv-x="690" 
d="M264 726q-30 0 -49 18t-19 48t19 48t49 18t48.5 -18t18.5 -48t-18.5 -48t-48.5 -18zM449 726q-30 0 -49 18t-19 48t19 48t49 18t48.5 -18t18.5 -48t-18.5 -48t-48.5 -18zM241 195l-64 -195h-167l249 690h194l246 -690h-170l-63 195h-225zM280 318h147l-73 236z" />
    <glyph glyph-name="Aring" unicode="&#xc5;" horiz-adv-x="690" 
d="M356 721q-50 0 -81 27t-31 71t31 71.5t81 27.5t81 -27.5t31 -71.5t-31 -71t-81 -27zM356 859q-17 0 -27 -11t-10 -29q0 -17 10 -28.5t27 -11.5t27 11.5t10 28.5q0 18 -10 29t-27 11zM241 195l-64 -195h-167l249 690h194l246 -690h-170l-63 195h-225zM280 318h147l-73 236
z" />
    <glyph glyph-name="AE" unicode="&#xc6;" horiz-adv-x="974" 
d="M945 0h-481l-22 218h-207l-109 -218h-166l369 690h606v-122h-373l17 -161h333v-122h-321l17 -162h337v-123zM407 563l-111 -223h134z" />
    <glyph glyph-name="Ccedilla" unicode="&#xc7;" horiz-adv-x="725" 
d="M692 243l-1 -10q-6 -56 -29 -101t-60.5 -76.5t-88.5 -49t-113 -20.5l-14 -27q92 -12 92 -79q0 -25 -12.5 -42t-33.5 -27.5t-50 -15.5t-62 -5q-14 0 -27.5 1t-27.5 6v63q17 -5 31.5 -6.5t25.5 -1.5q32 0 46 8t14 23q0 18 -20.5 26.5t-75.5 4.5l38 76q-60 9 -110 36.5
t-86 72t-56 105.5t-20 137q0 87 26 154.5t71.5 114t107.5 70.5t133 24q72 0 126.5 -18t92 -50.5t59 -76t26.5 -94.5l1 -10h-157l-2 10q-12 60 -48.5 91.5t-99.5 31.5q-37 0 -68.5 -15.5t-54.5 -46t-35.5 -75t-12.5 -101.5q0 -65 13.5 -112t36.5 -77t54 -44.5t66 -14.5
q61 0 97.5 34.5t48.5 96.5l2 10h157z" />
    <glyph glyph-name="Egrave" unicode="&#xc8;" horiz-adv-x="626" 
d="M171 853h140l82 -118h-86zM597 0h-512v690h502v-122h-345v-161h322v-122h-322v-162h355v-123z" />
    <glyph glyph-name="Eacute" unicode="&#xc9;" horiz-adv-x="626" 
d="M290 735l82 118h140l-136 -118h-86zM597 0h-512v690h502v-122h-345v-161h322v-122h-322v-162h355v-123z" />
    <glyph glyph-name="Ecircumflex" unicode="&#xca;" horiz-adv-x="626" 
d="M213 735l63 118h127l63 -118h-95l-33 71l-31 -71h-94zM597 0h-512v690h502v-122h-345v-161h322v-122h-322v-162h355v-123z" />
    <glyph glyph-name="Edieresis" unicode="&#xcb;" horiz-adv-x="626" 
d="M247 726q-30 0 -49 18t-19 48t19 48t49 18t48.5 -18t18.5 -48t-18.5 -48t-48.5 -18zM432 726q-30 0 -49 18t-19 48t19 48t49 18t48.5 -18t18.5 -48t-18.5 -48t-48.5 -18zM597 0h-512v690h502v-122h-345v-161h322v-122h-322v-162h355v-123z" />
    <glyph glyph-name="Igrave" unicode="&#xcc;" horiz-adv-x="302" 
d="M131 735l-136 118h140l82 -118h-86zM85 0v690h157v-690h-157z" />
    <glyph glyph-name="Iacute" unicode="&#xcd;" horiz-adv-x="302" 
d="M114 735l82 118h140l-136 -118h-86zM85 0v690h157v-690h-157z" />
    <glyph glyph-name="Icircumflex" unicode="&#xce;" horiz-adv-x="302" 
d="M37 735l63 118h127l63 -118h-95l-33 71l-31 -71h-94zM242 690v-690h-157v690h157z" />
    <glyph glyph-name="Idieresis" unicode="&#xcf;" horiz-adv-x="302" 
d="M71 858q30 0 48.5 -18t18.5 -48t-18.5 -48t-48.5 -18t-49 18t-19 48t19 48t49 18zM256 858q30 0 48.5 -18t18.5 -48t-18.5 -48t-48.5 -18t-49 18t-19 48t19 48t49 18zM85 0v690h157v-690h-157z" />
    <glyph glyph-name="Eth" unicode="&#xd0;" horiz-adv-x="745" 
d="M427 686q60 -7 112.5 -29.5t91 -63t61 -100t22.5 -139.5t-22.5 -142t-61.5 -106t-91.5 -69.5t-112.5 -32.5q-26 -3 -43 -3.5t-45 -0.5h-247v296h-59v86h59v308h248q28 0 45 -0.5t43 -3.5zM387 125q73 8 118 67.5t45 159.5q0 98 -44.5 151.5t-116.5 61.5q-17 2 -33 2.5
t-37 0.5h-72v-186h111v-86h-111v-173h71h36.5t32.5 2z" />
    <glyph glyph-name="Ntilde" unicode="&#xd1;" horiz-adv-x="775" 
d="M327 862q20 0 35.5 -3t41.5 -14q34 -14 45 -14q15 0 15 28h82q0 -63 -19.5 -90.5t-61.5 -27.5q-20 0 -35.5 3t-41.5 14q-34 14 -45 14q-15 0 -15 -28h-81q0 63 19.5 90.5t60.5 27.5zM506 0l-270 494q4 -55 5 -105.5t1 -88.5v-300h-157v690h201l278 -508q-3 54 -4 108.5
t-1 92.5v307h156v-690h-209z" />
    <glyph glyph-name="Ograve" unicode="&#xd2;" horiz-adv-x="775" 
d="M231 853h140l82 -118h-86zM399 704q80 0 144 -25.5t109 -72t69 -113t24 -148.5t-24 -148t-69 -113t-109 -72.5t-144 -25.5t-144.5 25.5t-109.5 72.5t-69 113t-24 148t24 148.5t69 113t109.5 72t144.5 25.5zM399 102q86 0 135 63.5t49 179.5q0 117 -49 180t-135 63
q-87 0 -136 -63t-49 -180q0 -116 49 -179.5t136 -63.5z" />
    <glyph glyph-name="Oacute" unicode="&#xd3;" horiz-adv-x="775" 
d="M350 735l82 118h140l-136 -118h-86zM399 704q80 0 144 -25.5t109 -72t69 -113t24 -148.5t-24 -148t-69 -113t-109 -72.5t-144 -25.5t-144.5 25.5t-109.5 72.5t-69 113t-24 148t24 148.5t69 113t109.5 72t144.5 25.5zM399 102q86 0 135 63.5t49 179.5q0 117 -49 180
t-135 63q-87 0 -136 -63t-49 -180q0 -116 49 -179.5t136 -63.5z" />
    <glyph glyph-name="Ocircumflex" unicode="&#xd4;" horiz-adv-x="775" 
d="M273 735l63 118h127l63 -118h-95l-33 71l-31 -71h-94zM399 704q80 0 144 -25.5t109 -72t69 -113t24 -148.5t-24 -148t-69 -113t-109 -72.5t-144 -25.5t-144.5 25.5t-109.5 72.5t-69 113t-24 148t24 148.5t69 113t109.5 72t144.5 25.5zM399 102q86 0 135 63.5t49 179.5
q0 117 -49 180t-135 63q-87 0 -136 -63t-49 -180q0 -116 49 -179.5t136 -63.5z" />
    <glyph glyph-name="Otilde" unicode="&#xd5;" horiz-adv-x="775" 
d="M346 772q-15 0 -15 -28h-81q0 63 19.5 90.5t60.5 27.5q20 0 35.5 -3t41.5 -14q34 -14 45 -14q15 0 15 28h82q0 -63 -19.5 -90.5t-61.5 -27.5q-20 0 -35.5 3t-41.5 14q-34 14 -45 14zM399 704q80 0 144 -25.5t109 -72t69 -113t24 -148.5t-24 -148t-69 -113t-109 -72.5
t-144 -25.5t-144.5 25.5t-109.5 72.5t-69 113t-24 148t24 148.5t69 113t109.5 72t144.5 25.5zM399 102q86 0 135 63.5t49 179.5q0 117 -49 180t-135 63q-87 0 -136 -63t-49 -180q0 -116 49 -179.5t136 -63.5z" />
    <glyph glyph-name="Odieresis" unicode="&#xd6;" horiz-adv-x="775" 
d="M307 726q-30 0 -49 18t-19 48t19 48t49 18t48.5 -18t18.5 -48t-18.5 -48t-48.5 -18zM492 726q-30 0 -49 18t-19 48t19 48t49 18t48.5 -18t18.5 -48t-18.5 -48t-48.5 -18zM399 704q80 0 144 -25.5t109 -72t69 -113t24 -148.5t-24 -148t-69 -113t-109 -72.5t-144 -25.5
t-144.5 25.5t-109.5 72.5t-69 113t-24 148t24 148.5t69 113t109.5 72t144.5 25.5zM399 102q86 0 135 63.5t49 179.5q0 117 -49 180t-135 63q-87 0 -136 -63t-49 -180q0 -116 49 -179.5t136 -63.5z" />
    <glyph glyph-name="multiply" unicode="&#xd7;" 
d="M534 175l-63 -62l-150 150l-150 -150l-63 62l150 150l-150 150l63 63l150 -150l150 150l63 -63l-150 -150z" />
    <glyph glyph-name="Oslash" unicode="&#xd8;" horiz-adv-x="779" 
d="M685 567q30 -44 46 -100t16 -122q0 -82 -24 -148t-69 -113t-109.5 -72.5t-144.5 -25.5q-69 0 -125 18.5t-99 53.5l-65 -65l-63 63l67 67q-29 45 -45 100.5t-16 121.5q0 82 24 148.5t69 113t109 72t144 25.5q138 0 225 -72l65 65l62 -63zM216 345q0 -59 14 -107l297 297
q-47 53 -127 53q-86 0 -135 -63t-49 -180zM585 345q0 31 -3 58t-11 50l-297 -297q48 -54 126 -54q87 0 136 63.5t49 179.5z" />
    <glyph glyph-name="Ugrave" unicode="&#xd9;" horiz-adv-x="709" 
d="M337 735l-136 118h140l82 -118h-86zM663 291q0 -24 -0.5 -42.5t-2.5 -45.5q-3 -43 -20.5 -82.5t-52.5 -69.5t-88.5 -47.5t-129.5 -17.5t-129.5 17.5t-88.5 47.5t-53 69.5t-21 82.5q-2 27 -2 45.5v42.5v399h156v-422v-24.5t1 -21.5q5 -57 38.5 -88.5t98.5 -31.5t98.5 31.5
t37.5 88.5q2 11 2 21.5v24.5v422h156v-399z" />
    <glyph glyph-name="Uacute" unicode="&#xda;" horiz-adv-x="709" 
d="M320 735l82 118h140l-136 -118h-86zM663 291q0 -24 -0.5 -42.5t-2.5 -45.5q-3 -43 -20.5 -82.5t-52.5 -69.5t-88.5 -47.5t-129.5 -17.5t-129.5 17.5t-88.5 47.5t-53 69.5t-21 82.5q-2 27 -2 45.5v42.5v399h156v-422v-24.5t1 -21.5q5 -57 38.5 -88.5t98.5 -31.5t98.5 31.5
t37.5 88.5q2 11 2 21.5v24.5v422h156v-399z" />
    <glyph glyph-name="Ucircumflex" unicode="&#xdb;" horiz-adv-x="709" 
d="M243 735l63 118h127l63 -118h-95l-33 71l-31 -71h-94zM663 291q0 -24 -0.5 -42.5t-2.5 -45.5q-3 -43 -20.5 -82.5t-52.5 -69.5t-88.5 -47.5t-129.5 -17.5t-129.5 17.5t-88.5 47.5t-53 69.5t-21 82.5q-2 27 -2 45.5v42.5v399h156v-422v-24.5t1 -21.5q5 -57 38.5 -88.5
t98.5 -31.5t98.5 31.5t37.5 88.5q2 11 2 21.5v24.5v422h156v-399z" />
    <glyph glyph-name="Udieresis" unicode="&#xdc;" horiz-adv-x="709" 
d="M277 858q30 0 48.5 -18t18.5 -48t-18.5 -48t-48.5 -18t-49 18t-19 48t19 48t49 18zM462 858q30 0 48.5 -18t18.5 -48t-18.5 -48t-48.5 -18t-49 18t-19 48t19 48t49 18zM663 291q0 -24 -0.5 -42.5t-2.5 -45.5q-3 -43 -20.5 -82.5t-52.5 -69.5t-88.5 -47.5t-129.5 -17.5
t-129.5 17.5t-88.5 47.5t-53 69.5t-21 82.5q-2 27 -2 45.5v42.5v399h156v-422v-24.5t1 -21.5q5 -57 38.5 -88.5t98.5 -31.5t98.5 31.5t37.5 88.5q2 11 2 21.5v24.5v422h156v-399z" />
    <glyph glyph-name="Yacute" unicode="&#xdd;" horiz-adv-x="643" 
d="M288 735l82 118h140l-136 -118h-86zM415 0h-156v264l-244 426h177l150 -288l144 288h172l-243 -424v-266z" />
    <glyph glyph-name="Thorn" unicode="&#xde;" horiz-adv-x="647" 
d="M445 597q38 -4 70.5 -18.5t57 -40t38.5 -61.5t14 -84t-14 -84.5t-38.5 -61.5t-57 -39.5t-70.5 -19.5q-26 -3 -49 -4t-54 -1h-100v-183h-157v690h157v-88h100q31 0 54 -1t49 -4zM383 308q35 5 56.5 24t21.5 61q0 41 -21.5 60t-56.5 24q-11 2 -25 2h-31h-85v-173h85
q17 0 31 0.5t25 1.5z" />
    <glyph glyph-name="germandbls" unicode="&#xdf;" horiz-adv-x="652" 
d="M328 754q60 0 107.5 -14t80 -38.5t49.5 -59.5t17 -77q0 -49 -27 -89q-32 -18 -46 -36.5t-14 -41.5q0 -22 12.5 -42t39.5 -46q20 -20 34 -37t23 -35t13.5 -39t4.5 -49q0 -39 -16.5 -67.5t-43.5 -48t-62.5 -29t-74.5 -9.5q-24 0 -41.5 0.5t-31.5 1.5t-27 3t-28 5v119
q33 -8 55 -10.5t39 -2.5q33 0 49.5 15t16.5 42q0 21 -11 41.5t-38 46.5q-20 20 -35 36.5t-24.5 32.5t-14 33.5t-4.5 38.5q0 37 17.5 65t55.5 51q8 12 11 23.5t3 25.5q0 35 -23 55t-72 20q-48 0 -74.5 -26.5t-29.5 -76.5q-1 -11 -1.5 -28.5t-0.5 -55.5v-451h-157v443
q0 38 0.5 59t1.5 35q7 104 78 160.5t189 56.5z" />
    <glyph glyph-name="agrave" unicode="&#xe0;" horiz-adv-x="573" 
d="M122 695h140l84 -122h-86zM359 78l-24 -57q-29 -18 -62 -26.5t-70 -8.5q-34 0 -65 10t-54.5 30t-37.5 49t-14 67q0 88 74.5 136t216.5 48h34v9v21.5t-2 24.5q-2 24 -20.5 41t-53.5 17q-37 0 -57 -21.5t-23 -61.5h-150q1 46 20 81.5t50.5 60t74 37t91.5 12.5
q59 0 100.5 -12.5t67.5 -34t39 -51.5t16 -66q3 -37 3 -86v-162q0 -30 2 -60t8 -75h-153zM265 94q35 0 63.5 25t28.5 75v39q-73 6 -118.5 -12.5t-45.5 -65.5q0 -30 20 -45.5t52 -15.5z" />
    <glyph glyph-name="aacute" unicode="&#xe1;" horiz-adv-x="573" 
d="M237 573l84 122h140l-138 -122h-86zM359 78l-24 -57q-29 -18 -62 -26.5t-70 -8.5q-34 0 -65 10t-54.5 30t-37.5 49t-14 67q0 88 74.5 136t216.5 48h34v9v21.5t-2 24.5q-2 24 -20.5 41t-53.5 17q-37 0 -57 -21.5t-23 -61.5h-150q1 46 20 81.5t50.5 60t74 37t91.5 12.5
q59 0 100.5 -12.5t67.5 -34t39 -51.5t16 -66q3 -37 3 -86v-162q0 -30 2 -60t8 -75h-153zM265 94q35 0 63.5 25t28.5 75v39q-73 6 -118.5 -12.5t-45.5 -65.5q0 -30 20 -45.5t52 -15.5z" />
    <glyph glyph-name="acircumflex" unicode="&#xe2;" horiz-adv-x="573" 
d="M160 573l63 122h127l63 -122h-94l-33 72l-33 -72h-93zM359 78l-24 -57q-29 -18 -62 -26.5t-70 -8.5q-34 0 -65 10t-54.5 30t-37.5 49t-14 67q0 88 74.5 136t216.5 48h34v9v21.5t-2 24.5q-2 24 -20.5 41t-53.5 17q-37 0 -57 -21.5t-23 -61.5h-150q1 46 20 81.5t50.5 60
t74 37t91.5 12.5q59 0 100.5 -12.5t67.5 -34t39 -51.5t16 -66q3 -37 3 -86v-162q0 -30 2 -60t8 -75h-153zM265 94q35 0 63.5 25t28.5 75v39q-73 6 -118.5 -12.5t-45.5 -65.5q0 -30 20 -45.5t52 -15.5z" />
    <glyph glyph-name="atilde" unicode="&#xe3;" horiz-adv-x="573" 
d="M233 609q-15 0 -15 -28h-81q0 63 19.5 90.5t60.5 27.5q20 0 35.5 -3.5t41.5 -14.5q34 -14 45 -14q15 0 15 29h82q0 -63 -19.5 -91t-61.5 -28q-20 0 -35.5 3.5t-41.5 14.5q-18 7 -28 10.5t-17 3.5zM359 78l-24 -57q-29 -18 -62 -26.5t-70 -8.5q-34 0 -65 10t-54.5 30
t-37.5 49t-14 67q0 88 74.5 136t216.5 48h34v9v21.5t-2 24.5q-2 24 -20.5 41t-53.5 17q-37 0 -57 -21.5t-23 -61.5h-150q1 46 20 81.5t50.5 60t74 37t91.5 12.5q59 0 100.5 -12.5t67.5 -34t39 -51.5t16 -66q3 -37 3 -86v-162q0 -30 2 -60t8 -75h-153zM265 94q35 0 63.5 25
t28.5 75v39q-73 6 -118.5 -12.5t-45.5 -65.5q0 -30 20 -45.5t52 -15.5z" />
    <glyph glyph-name="adieresis" unicode="&#xe4;" horiz-adv-x="573" 
d="M193 573q-30 0 -49 18t-19 48t19 48t49 18t49 -18t19 -48t-19 -48t-49 -18zM379 573q-30 0 -48.5 18t-18.5 48t18.5 48t48.5 18t49 -18t19 -48t-19 -48t-49 -18zM359 78l-24 -57q-29 -18 -62 -26.5t-70 -8.5q-34 0 -65 10t-54.5 30t-37.5 49t-14 67q0 88 74.5 136
t216.5 48h34v9v21.5t-2 24.5q-2 24 -20.5 41t-53.5 17q-37 0 -57 -21.5t-23 -61.5h-150q1 46 20 81.5t50.5 60t74 37t91.5 12.5q59 0 100.5 -12.5t67.5 -34t39 -51.5t16 -66q3 -37 3 -86v-162q0 -30 2 -60t8 -75h-153zM265 94q35 0 63.5 25t28.5 75v39q-73 6 -118.5 -12.5
t-45.5 -65.5q0 -30 20 -45.5t52 -15.5z" />
    <glyph glyph-name="aring" unicode="&#xe5;" horiz-adv-x="573" 
d="M286 567q-50 0 -81 28t-31 73t31 73t81 28t81 -28t31 -73t-31 -73t-81 -28zM286 711q-17 0 -27 -11.5t-10 -31.5t10 -31.5t27 -11.5t27 11.5t10 31.5t-10 31.5t-27 11.5zM359 78l-24 -57q-29 -18 -62 -26.5t-70 -8.5q-34 0 -65 10t-54.5 30t-37.5 49t-14 67
q0 88 74.5 136t216.5 48h34v9v21.5t-2 24.5q-2 24 -20.5 41t-53.5 17q-37 0 -57 -21.5t-23 -61.5h-150q1 46 20 81.5t50.5 60t74 37t91.5 12.5q59 0 100.5 -12.5t67.5 -34t39 -51.5t16 -66q3 -37 3 -86v-162q0 -30 2 -60t8 -75h-153zM265 94q35 0 63.5 25t28.5 75v39
q-73 6 -118.5 -12.5t-45.5 -65.5q0 -30 20 -45.5t52 -15.5z" />
    <glyph glyph-name="ae" unicode="&#xe6;" horiz-adv-x="953" 
d="M925 276q0 -21 -3 -50h-375q7 -74 38 -103t74 -29q42 0 68.5 21t32.5 59h155q-21 -93 -90.5 -140.5t-167.5 -47.5q-72 0 -127.5 27.5t-89.5 87.5l-57 -73q-31 -22 -70.5 -32t-78.5 -10q-90 0 -146 40.5t-56 119.5q0 46 20.5 79.5t58.5 55.5t92.5 33t121.5 11h52v12
q0 50 -21 76t-67 26q-38 0 -62 -21.5t-26 -61.5h-150q0 46 18.5 81.5t50.5 60t75 37t92 12.5q73 0 119 -24t69 -69q32 47 83.5 70t115.5 23q61 0 108 -22.5t78.5 -60t48 -86.5t16.5 -102zM762 325q-7 56 -32.5 85t-69.5 29q-42 0 -70.5 -28t-37.5 -86h210zM378 226
q-94 5 -139.5 -10t-45.5 -58q0 -32 21 -48t60 -16q46 0 75 31t29 88v13z" />
    <glyph glyph-name="ccedilla" unicode="&#xe7;" horiz-adv-x="573" 
d="M295 94q36 0 62.5 24t35.5 71h155q-14 -94 -76.5 -144.5t-155.5 -57.5l-15 -28q92 -12 92 -79q0 -25 -12.5 -42t-33.5 -27.5t-50 -15.5t-62 -5q-14 0 -27.5 1t-27.5 6v63q17 -5 31.5 -6.5t25.5 -1.5q32 0 46 8t14 23q0 18 -20.5 26.5t-75.5 4.5l37 75q-46 7 -85 28
t-67 55.5t-44 82t-16 107.5q0 69 21.5 122t58.5 89t86.5 55t106.5 19q56 0 100.5 -16t76.5 -44.5t50.5 -67t21.5 -83.5h-153q-8 55 -34.5 79t-65.5 24q-50 0 -79 -41t-29 -126q0 -94 29.5 -136t78.5 -42z" />
    <glyph glyph-name="egrave" unicode="&#xe8;" horiz-adv-x="588" 
d="M132 695h140l84 -122h-86zM560 276q0 -21 -3 -50h-374q3 -38 13 -63.5t24.5 -40.5t33.5 -21.5t41 -6.5q42 0 68 21t33 59h155q-22 -93 -91.5 -140.5t-167.5 -47.5q-56 0 -104.5 17t-84.5 52t-56.5 87.5t-20.5 122.5q0 60 19.5 111.5t55.5 89.5t87 59.5t114 21.5
q64 0 112 -22.5t80.5 -60t49 -86.5t16.5 -102zM295 439q-42 0 -70 -27t-38 -87h210q-14 114 -102 114z" />
    <glyph glyph-name="eacute" unicode="&#xe9;" horiz-adv-x="588" 
d="M247 573l84 122h140l-138 -122h-86zM560 276q0 -21 -3 -50h-374q3 -38 13 -63.5t24.5 -40.5t33.5 -21.5t41 -6.5q42 0 68 21t33 59h155q-22 -93 -91.5 -140.5t-167.5 -47.5q-56 0 -104.5 17t-84.5 52t-56.5 87.5t-20.5 122.5q0 60 19.5 111.5t55.5 89.5t87 59.5t114 21.5
q64 0 112 -22.5t80.5 -60t49 -86.5t16.5 -102zM295 439q-42 0 -70 -27t-38 -87h210q-14 114 -102 114z" />
    <glyph glyph-name="ecircumflex" unicode="&#xea;" horiz-adv-x="588" 
d="M170 573l63 122h127l63 -122h-94l-33 72l-33 -72h-93zM560 276q0 -21 -3 -50h-374q3 -38 13 -63.5t24.5 -40.5t33.5 -21.5t41 -6.5q42 0 68 21t33 59h155q-22 -93 -91.5 -140.5t-167.5 -47.5q-56 0 -104.5 17t-84.5 52t-56.5 87.5t-20.5 122.5q0 60 19.5 111.5t55.5 89.5
t87 59.5t114 21.5q64 0 112 -22.5t80.5 -60t49 -86.5t16.5 -102zM295 439q-42 0 -70 -27t-38 -87h210q-14 114 -102 114z" />
    <glyph glyph-name="edieresis" unicode="&#xeb;" horiz-adv-x="588" 
d="M203 573q-30 0 -49 18t-19 48t19 48t49 18t49 -18t19 -48t-19 -48t-49 -18zM389 573q-30 0 -48.5 18t-18.5 48t18.5 48t48.5 18t49 -18t19 -48t-19 -48t-49 -18zM560 276q0 -21 -3 -50h-374q3 -38 13 -63.5t24.5 -40.5t33.5 -21.5t41 -6.5q42 0 68 21t33 59h155
q-22 -93 -91.5 -140.5t-167.5 -47.5q-56 0 -104.5 17t-84.5 52t-56.5 87.5t-20.5 122.5q0 60 19.5 111.5t55.5 89.5t87 59.5t114 21.5q64 0 112 -22.5t80.5 -60t49 -86.5t16.5 -102zM295 439q-42 0 -70 -27t-38 -87h210q-14 114 -102 114z" />
    <glyph glyph-name="igrave" unicode="&#xec;" horiz-adv-x="276" 
d="M111 573l-138 122h140l84 -122h-86zM59 0v533h157v-533h-157z" />
    <glyph glyph-name="iacute" unicode="&#xed;" horiz-adv-x="276" 
d="M88 573l84 122h140l-138 -122h-86zM59 0v533h157v-533h-157z" />
    <glyph glyph-name="icircumflex" unicode="&#xee;" horiz-adv-x="276" 
d="M11 573l63 122h127l63 -122h-94l-33 72l-33 -72h-93zM216 533v-533h-157v533h157z" />
    <glyph glyph-name="idieresis" unicode="&#xef;" horiz-adv-x="276" 
d="M44 705q30 0 49 -18t19 -48t-19 -48t-49 -18t-49 18t-19 48t19 48t49 18zM230 705q30 0 49 -18t19 -48t-19 -48t-49 -18t-48.5 18t-18.5 48t18.5 48t48.5 18zM59 0v533h157v-533h-157z" />
    <glyph glyph-name="eth" unicode="&#xf0;" horiz-adv-x="643" 
d="M524 623q38 -55 56.5 -131.5t18.5 -184.5q0 -89 -25 -150.5t-65.5 -99.5t-91.5 -54.5t-102 -16.5q-73 0 -127.5 20.5t-90.5 57.5t-53.5 88.5t-17.5 112.5q0 68 20.5 120.5t55.5 88.5t82 54.5t100 18.5q26 0 48 -6t50 -23l44 -56q-5 35 -17.5 66.5t-35.5 60.5l-129 -30
l-14 67l79 19q-15 10 -33 19.5t-39 17.5l130 63q30 -14 55.5 -29t47.5 -34l82 19l14 -68zM437 289q0 69 -34.5 106t-85.5 37q-62 0 -94.5 -45t-32.5 -120q0 -84 33 -124.5t93 -40.5t90.5 42.5t30.5 115.5v29z" />
    <glyph glyph-name="ntilde" unicode="&#xf1;" horiz-adv-x="631" 
d="M264 609q-15 0 -15 -28h-81q0 63 19.5 90.5t60.5 27.5q20 0 35.5 -3.5t41.5 -14.5q34 -14 45 -14q15 0 15 29h82q0 -63 -19.5 -91t-61.5 -28q-20 0 -35.5 3.5t-41.5 14.5q-18 7 -28 10.5t-17 3.5zM573 400q3 -20 4 -43.5t1 -55.5v-301h-157v277v34.5t-2 39.5
q-3 41 -26 64.5t-69 23.5t-77 -45t-31 -147v-247h-157v533h157v-84l44 64q27 18 56.5 26t67.5 8q85 0 132.5 -38.5t56.5 -108.5z" />
    <glyph glyph-name="ograve" unicode="&#xf2;" horiz-adv-x="613" 
d="M143 695h140l84 -122h-86zM307 547q66 0 118 -20.5t88.5 -57.5t55.5 -88.5t19 -113.5t-19 -114t-55.5 -89t-88.5 -57.5t-118 -20.5t-118.5 20.5t-88.5 57.5t-55 89t-19 114t19 113.5t55 88.5t88.5 57.5t118.5 20.5zM307 94q56 0 87.5 44.5t31.5 128.5t-31.5 128t-87.5 44
q-57 0 -88.5 -44t-31.5 -128t31.5 -128.5t88.5 -44.5z" />
    <glyph glyph-name="oacute" unicode="&#xf3;" horiz-adv-x="613" 
d="M258 573l84 122h140l-138 -122h-86zM307 547q66 0 118 -20.5t88.5 -57.5t55.5 -88.5t19 -113.5t-19 -114t-55.5 -89t-88.5 -57.5t-118 -20.5t-118.5 20.5t-88.5 57.5t-55 89t-19 114t19 113.5t55 88.5t88.5 57.5t118.5 20.5zM307 94q56 0 87.5 44.5t31.5 128.5t-31.5 128
t-87.5 44q-57 0 -88.5 -44t-31.5 -128t31.5 -128.5t88.5 -44.5z" />
    <glyph glyph-name="ocircumflex" unicode="&#xf4;" horiz-adv-x="613" 
d="M181 573l63 122h127l63 -122h-94l-33 72l-33 -72h-93zM307 547q66 0 118 -20.5t88.5 -57.5t55.5 -88.5t19 -113.5t-19 -114t-55.5 -89t-88.5 -57.5t-118 -20.5t-118.5 20.5t-88.5 57.5t-55 89t-19 114t19 113.5t55 88.5t88.5 57.5t118.5 20.5zM307 94q56 0 87.5 44.5
t31.5 128.5t-31.5 128t-87.5 44q-57 0 -88.5 -44t-31.5 -128t31.5 -128.5t88.5 -44.5z" />
    <glyph glyph-name="otilde" unicode="&#xf5;" horiz-adv-x="613" 
d="M254 609q-15 0 -15 -28h-81q0 63 19.5 90.5t60.5 27.5q20 0 35.5 -3.5t41.5 -14.5q34 -14 45 -14q15 0 15 29h82q0 -63 -19.5 -91t-61.5 -28q-20 0 -35.5 3.5t-41.5 14.5q-18 7 -28 10.5t-17 3.5zM307 547q66 0 118 -20.5t88.5 -57.5t55.5 -88.5t19 -113.5t-19 -114
t-55.5 -89t-88.5 -57.5t-118 -20.5t-118.5 20.5t-88.5 57.5t-55 89t-19 114t19 113.5t55 88.5t88.5 57.5t118.5 20.5zM307 94q56 0 87.5 44.5t31.5 128.5t-31.5 128t-87.5 44q-57 0 -88.5 -44t-31.5 -128t31.5 -128.5t88.5 -44.5z" />
    <glyph glyph-name="odieresis" unicode="&#xf6;" horiz-adv-x="613" 
d="M214 573q-30 0 -49 18t-19 48t19 48t49 18t49 -18t19 -48t-19 -48t-49 -18zM400 573q-30 0 -48.5 18t-18.5 48t18.5 48t48.5 18t49 -18t19 -48t-19 -48t-49 -18zM307 547q66 0 118 -20.5t88.5 -57.5t55.5 -88.5t19 -113.5t-19 -114t-55.5 -89t-88.5 -57.5t-118 -20.5
t-118.5 20.5t-88.5 57.5t-55 89t-19 114t19 113.5t55 88.5t88.5 57.5t118.5 20.5zM307 94q56 0 87.5 44.5t31.5 128.5t-31.5 128t-87.5 44q-57 0 -88.5 -44t-31.5 -128t31.5 -128.5t88.5 -44.5z" />
    <glyph glyph-name="divide" unicode="&#xf7;" 
d="M321 572q32 0 53 -21t21 -53t-21 -53t-53 -21q-31 0 -52.5 21t-21.5 53t21.5 53t52.5 21zM85 275v86h472v-86h-472zM321 210q32 0 53 -21t21 -53t-21 -53t-53 -21q-31 0 -52.5 21t-21.5 53t21.5 53t52.5 21z" />
    <glyph glyph-name="oslash" unicode="&#xf8;" horiz-adv-x="634" 
d="M547 433q46 -69 46 -166q0 -62 -19 -114t-55.5 -89t-88.5 -57.5t-118 -20.5q-97 0 -167 45l-60 -60l-63 64l59 59q-50 70 -50 173q0 62 19 113.5t55.5 88.5t88.5 57.5t118 20.5q52 0 95.5 -13t77.5 -36l64 64l63 -64zM192 267q0 -16 1.5 -30t3.5 -27l195 195
q-31 34 -80 34q-57 0 -88.5 -44t-31.5 -128zM431 267q0 26 -3 47l-191 -191q29 -29 75 -29q57 0 88 44.5t31 128.5z" />
    <glyph glyph-name="ugrave" unicode="&#xf9;" horiz-adv-x="628" 
d="M145 695h140l84 -122h-86zM568 0h-156v91l-45 -71q-27 -18 -56.5 -26t-67.5 -8q-41 0 -74 11t-57 29.5t-38 43t-19 51.5q-3 20 -4 43.5t-1 55.5v313h156v-279q0 -13 1 -33t3 -40q5 -41 27.5 -63.5t68.5 -22.5q48 0 77 39.5t29 113.5v285h156v-533z" />
    <glyph glyph-name="uacute" unicode="&#xfa;" horiz-adv-x="628" 
d="M260 573l84 122h140l-138 -122h-86zM568 0h-156v91l-45 -71q-27 -18 -56.5 -26t-67.5 -8q-41 0 -74 11t-57 29.5t-38 43t-19 51.5q-3 20 -4 43.5t-1 55.5v313h156v-279q0 -13 1 -33t3 -40q5 -41 27.5 -63.5t68.5 -22.5q48 0 77 39.5t29 113.5v285h156v-533z" />
    <glyph glyph-name="ucircumflex" unicode="&#xfb;" horiz-adv-x="628" 
d="M183 573l63 122h127l63 -122h-94l-33 72l-33 -72h-93zM568 0h-156v91l-45 -71q-27 -18 -56.5 -26t-67.5 -8q-41 0 -74 11t-57 29.5t-38 43t-19 51.5q-3 20 -4 43.5t-1 55.5v313h156v-279q0 -13 1 -33t3 -40q5 -41 27.5 -63.5t68.5 -22.5q48 0 77 39.5t29 113.5v285h156
v-533z" />
    <glyph glyph-name="udieresis" unicode="&#xfc;" horiz-adv-x="628" 
d="M216 573q-30 0 -49 18t-19 48t19 48t49 18t49 -18t19 -48t-19 -48t-49 -18zM402 573q-30 0 -48.5 18t-18.5 48t18.5 48t48.5 18t49 -18t19 -48t-19 -48t-49 -18zM568 0h-156v91l-45 -71q-27 -18 -56.5 -26t-67.5 -8q-41 0 -74 11t-57 29.5t-38 43t-19 51.5q-3 20 -4 43.5
t-1 55.5v313h156v-279q0 -13 1 -33t3 -40q5 -41 27.5 -63.5t68.5 -22.5q48 0 77 39.5t29 113.5v285h156v-533z" />
    <glyph glyph-name="yacute" unicode="&#xfd;" horiz-adv-x="584" 
d="M240 573l84 122h140l-138 -122h-86zM376 -11q-23 -58 -46 -96.5t-50.5 -61t-61 -32t-77.5 -9.5q-20 0 -35.5 1t-32.5 3v105q11 -2 21.5 -2h22.5q34 0 57 13.5t38 48.5l7 17l-219 557h175l122 -412l121 412h171z" />
    <glyph glyph-name="thorn" unicode="&#xfe;" horiz-adv-x="655" 
d="M393 547q55 0 99 -20t74.5 -55.5t46.5 -85t16 -108.5q0 -72 -20.5 -126.5t-55 -91.5t-81 -55.5t-97.5 -18.5q-33 0 -68.5 7.5t-55.5 20.5l-35 56v-266h-157v931h157v-282l40 59q23 17 59.5 26t77.5 9zM338 94q57 0 93.5 43t36.5 131q0 79 -34.5 125t-90.5 46
q-27 0 -50 -9t-40.5 -28.5t-27 -51t-9.5 -77.5v-24q0 -43 10.5 -72.5t28 -48t39.5 -26.5t44 -8z" />
    <glyph glyph-name="ydieresis" unicode="&#xff;" horiz-adv-x="584" 
d="M196 573q-30 0 -49 18t-19 48t19 48t49 18t49 -18t19 -48t-19 -48t-49 -18zM382 573q-30 0 -48.5 18t-18.5 48t18.5 48t48.5 18t49 -18t19 -48t-19 -48t-49 -18zM376 -11q-23 -58 -46 -96.5t-50.5 -61t-61 -32t-77.5 -9.5q-20 0 -35.5 1t-32.5 3v105q11 -2 21.5 -2h22.5
q34 0 57 13.5t38 48.5l7 17l-219 557h175l122 -412l121 412h171z" />
    <glyph glyph-name="Amacron" unicode="&#x100;" horiz-adv-x="690" 
d="M214 759v85h285v-85h-285zM241 195l-64 -195h-167l249 690h194l246 -690h-170l-63 195h-225zM280 318h147l-73 236z" />
    <glyph glyph-name="amacron" unicode="&#x101;" horiz-adv-x="573" 
d="M144 591v85h285v-85h-285zM359 78l-24 -57q-29 -18 -62 -26.5t-70 -8.5q-34 0 -65 10t-54.5 30t-37.5 49t-14 67q0 88 74.5 136t216.5 48h34v9v21.5t-2 24.5q-2 24 -20.5 41t-53.5 17q-37 0 -57 -21.5t-23 -61.5h-150q1 46 20 81.5t50.5 60t74 37t91.5 12.5
q59 0 100.5 -12.5t67.5 -34t39 -51.5t16 -66q3 -37 3 -86v-162q0 -30 2 -60t8 -75h-153zM265 94q35 0 63.5 25t28.5 75v39q-73 6 -118.5 -12.5t-45.5 -65.5q0 -30 20 -45.5t52 -15.5z" />
    <glyph glyph-name="Abreve" unicode="&#x102;" horiz-adv-x="690" 
d="M356 727q-54 0 -90.5 28.5t-36.5 97.5h81q3 -49 46 -49t46 49h81q0 -34 -10 -58t-27 -39t-40 -22t-50 -7zM241 195l-64 -195h-167l249 690h194l246 -690h-170l-63 195h-225zM280 318h147l-73 236z" />
    <glyph glyph-name="abreve" unicode="&#x103;" horiz-adv-x="573" 
d="M286 568q-27 0 -50 6.5t-40.5 21.5t-27 39t-9.5 60h81q3 -50 46 -50t46 50h81q0 -36 -10 -60t-27 -39t-40 -21.5t-50 -6.5zM359 78l-24 -57q-29 -18 -62 -26.5t-70 -8.5q-34 0 -65 10t-54.5 30t-37.5 49t-14 67q0 88 74.5 136t216.5 48h34v9v21.5t-2 24.5q-2 24 -20.5 41
t-53.5 17q-37 0 -57 -21.5t-23 -61.5h-150q1 46 20 81.5t50.5 60t74 37t91.5 12.5q59 0 100.5 -12.5t67.5 -34t39 -51.5t16 -66q3 -37 3 -86v-162q0 -30 2 -60t8 -75h-153zM265 94q35 0 63.5 25t28.5 75v39q-73 6 -118.5 -12.5t-45.5 -65.5q0 -30 20 -45.5t52 -15.5z" />
    <glyph glyph-name="Aogonek" unicode="&#x104;" horiz-adv-x="690" 
d="M579 -82q0 -29 12.5 -40t29.5 -11q23 0 47 21v-67q-21 -20 -51.5 -32t-72.5 -12q-48 0 -78.5 19t-30.5 67t28 86t64 57l-61 189h-225l-64 -195h-167l249 690h194l246 -690h-63q-23 -2 -40 -25.5t-17 -56.5zM280 318h147l-73 236z" />
    <glyph glyph-name="aogonek" unicode="&#x105;" horiz-adv-x="573" 
d="M421 -82q0 -29 12.5 -40t29.5 -11q23 0 47 21v-67q-21 -20 -51.5 -32t-72.5 -12q-48 0 -78.5 19t-30.5 67t28 86t64 58l-10 71l-24 -57q-29 -18 -62 -26.5t-70 -8.5q-34 0 -65 10t-54.5 30t-37.5 49t-14 67q0 88 74.5 136t216.5 48h34v9v21.5t-2 24.5q-2 24 -20.5 41
t-53.5 17q-37 0 -57 -21.5t-23 -61.5h-150q1 46 20 81.5t50.5 60t74 37t91.5 12.5q59 0 100.5 -12.5t67.5 -34t39 -51.5t16 -66q3 -37 3 -86v-162q0 -30 2 -60t8 -75h-45q-23 -2 -40 -25.5t-17 -56.5zM265 94q35 0 63.5 25t28.5 75v39q-73 6 -118.5 -12.5t-45.5 -65.5
q0 -30 20 -45.5t52 -15.5z" />
    <glyph glyph-name="Cacute" unicode="&#x106;" horiz-adv-x="725" 
d="M331 735l82 118h140l-136 -118h-86zM390 704q72 0 126.5 -18t92 -50.5t59 -76t26.5 -94.5l1 -10h-157l-2 10q-12 60 -48.5 91.5t-99.5 31.5q-37 0 -68.5 -15.5t-54.5 -46t-35.5 -75t-12.5 -101.5q0 -65 13.5 -112t36.5 -77t54 -44.5t66 -14.5q61 0 97.5 34.5t48.5 96.5
l2 10h157l-1 -10q-6 -58 -30.5 -104t-65 -78t-94.5 -48.5t-120 -16.5q-71 0 -131 23.5t-104 69t-69 111.5t-25 151q0 87 26 154.5t71.5 114t107.5 70.5t133 24z" />
    <glyph glyph-name="cacute" unicode="&#x107;" horiz-adv-x="573" 
d="M238 573l84 122h140l-138 -122h-86zM299 547q56 0 100.5 -16t76.5 -44.5t50.5 -67t21.5 -83.5h-153q-8 55 -34.5 79t-65.5 24q-50 0 -79 -41t-29 -126q0 -94 29.5 -136t78.5 -42q36 0 62.5 24t35.5 71h155q-16 -100 -87 -151.5t-175 -51.5q-55 0 -103 17.5t-82.5 52.5
t-54.5 86.5t-20 119.5q0 69 21.5 122t58.5 89t86.5 55t106.5 19z" />
    <glyph glyph-name="Cdotaccent" unicode="&#x10a;" horiz-adv-x="725" 
d="M380 883q36 0 58.5 -21t22.5 -56t-22.5 -56.5t-58.5 -21.5t-58.5 21.5t-22.5 56.5t22.5 56t58.5 21zM390 704q72 0 126.5 -18t92 -50.5t59 -76t26.5 -94.5l1 -10h-157l-2 10q-12 60 -48.5 91.5t-99.5 31.5q-37 0 -68.5 -15.5t-54.5 -46t-35.5 -75t-12.5 -101.5
q0 -65 13.5 -112t36.5 -77t54 -44.5t66 -14.5q61 0 97.5 34.5t48.5 96.5l2 10h157l-1 -10q-6 -58 -30.5 -104t-65 -78t-94.5 -48.5t-120 -16.5q-71 0 -131 23.5t-104 69t-69 111.5t-25 151q0 87 26 154.5t71.5 114t107.5 70.5t133 24z" />
    <glyph glyph-name="cdotaccent" unicode="&#x10b;" horiz-adv-x="573" 
d="M287 739q38 0 61 -21.5t23 -57.5q0 -37 -23 -58.5t-61 -21.5t-60.5 21.5t-22.5 58.5q0 36 22.5 57.5t60.5 21.5zM299 547q56 0 100.5 -16t76.5 -44.5t50.5 -67t21.5 -83.5h-153q-8 55 -34.5 79t-65.5 24q-50 0 -79 -41t-29 -126q0 -94 29.5 -136t78.5 -42q36 0 62.5 24
t35.5 71h155q-16 -100 -87 -151.5t-175 -51.5q-55 0 -103 17.5t-82.5 52.5t-54.5 86.5t-20 119.5q0 69 21.5 122t58.5 89t86.5 55t106.5 19z" />
    <glyph glyph-name="Ccaron" unicode="&#x10c;" horiz-adv-x="725" 
d="M254 853h95l33 -71l31 71h94l-63 -118h-127zM692 243l-1 -10q-6 -58 -30.5 -104t-65 -78t-94.5 -48.5t-120 -16.5q-71 0 -131 23.5t-104 69t-69 111.5t-25 151q0 87 26 154.5t71.5 114t107.5 70.5t133 24q72 0 126.5 -18t92 -50.5t59 -76t26.5 -94.5l1 -10h-157l-2 10
q-12 60 -48.5 91.5t-99.5 31.5q-37 0 -68.5 -15.5t-54.5 -46t-35.5 -75t-12.5 -101.5q0 -65 13.5 -112t36.5 -77t54 -44.5t66 -14.5q61 0 97.5 34.5t48.5 96.5l2 10h157z" />
    <glyph glyph-name="ccaron" unicode="&#x10d;" horiz-adv-x="573" 
d="M161 695h94l34 -72l32 72h93l-63 -122h-127zM295 94q36 0 62.5 24t35.5 71h155q-16 -100 -87 -151.5t-175 -51.5q-55 0 -103 17.5t-82.5 52.5t-54.5 86.5t-20 119.5q0 69 21.5 122t58.5 89t86.5 55t106.5 19q56 0 100.5 -16t76.5 -44.5t50.5 -67t21.5 -83.5h-153
q-8 55 -34.5 79t-65.5 24q-50 0 -79 -41t-29 -126q0 -94 29.5 -136t78.5 -42z" />
    <glyph glyph-name="Dcaron" unicode="&#x10e;" horiz-adv-x="739" 
d="M255 853h95l33 -71l31 71h94l-63 -118h-127zM421 686q60 -7 112.5 -29.5t91.5 -63t61.5 -100t22.5 -139.5t-22.5 -142t-62 -106t-92 -69.5t-112.5 -32.5q-26 -3 -43 -3.5t-45 -0.5h-247v690h248q28 0 45 -0.5t43 -3.5zM382 125q73 8 117.5 67.5t44.5 159.5
q0 98 -44 151.5t-117 61.5q-17 2 -32.5 2.5t-37.5 0.5h-71v-445h70h37.5t32.5 2z" />
    <glyph glyph-name="dcaron" unicode="&#x10f;" horiz-adv-x="656" 
d="M799 725l-91 -160h-88l76 171h103v-11zM596 735v-735h-157v80l-40 -59q-23 -17 -59.5 -26t-77.5 -9q-55 0 -99 20t-74.5 56t-46.5 85.5t-16 108.5q0 72 20.5 126t55 91t81 55.5t97.5 18.5q33 0 68.5 -7.5t55.5 -20.5l35 -56v272h157zM312 94q27 0 50 9t40 28.5t27 51
t10 77.5v25q0 43 -11 72.5t-28 47.5t-39 26t-44 8q-57 0 -93.5 -43t-36.5 -131q0 -79 34.5 -125t90.5 -46z" />
    <glyph glyph-name="Dcroat" unicode="&#x110;" horiz-adv-x="745" 
d="M427 686q60 -7 112.5 -29.5t91 -63t61 -100t22.5 -139.5t-22.5 -142t-61.5 -106t-91.5 -69.5t-112.5 -32.5q-26 -3 -43 -3.5t-45 -0.5h-247v296h-59v86h59v308h248q28 0 45 -0.5t43 -3.5zM387 125q73 8 118 67.5t45 159.5q0 98 -44.5 151.5t-116.5 61.5q-17 2 -33 2.5
t-37 0.5h-72v-186h111v-86h-111v-173h71h36.5t32.5 2z" />
    <glyph glyph-name="dcroat" unicode="&#x111;" horiz-adv-x="657" 
d="M596 580v-580h-157v80l-40 -59q-23 -17 -59.5 -26t-77.5 -9q-55 0 -99 20t-74.5 56t-46.5 85.5t-16 108.5q0 72 20.5 126t55 91t81 55.5t97.5 18.5q33 0 68.5 -7.5t55.5 -20.5l35 -56v117h-119v86h119v69h157v-69h41v-86h-41zM312 94q27 0 50 9t40 28.5t27 51t10 77.5v25
q0 43 -11 72.5t-28 47.5t-39 26t-44 8q-57 0 -93.5 -43t-36.5 -131q0 -79 34.5 -125t90.5 -46z" />
    <glyph glyph-name="Emacron" unicode="&#x112;" horiz-adv-x="626" 
d="M197 759v85h285v-85h-285zM597 0h-512v690h502v-122h-345v-161h322v-122h-322v-162h355v-123z" />
    <glyph glyph-name="emacron" unicode="&#x113;" horiz-adv-x="588" 
d="M154 591v85h285v-85h-285zM560 276q0 -21 -3 -50h-374q3 -38 13 -63.5t24.5 -40.5t33.5 -21.5t41 -6.5q42 0 68 21t33 59h155q-22 -93 -91.5 -140.5t-167.5 -47.5q-56 0 -104.5 17t-84.5 52t-56.5 87.5t-20.5 122.5q0 60 19.5 111.5t55.5 89.5t87 59.5t114 21.5
q64 0 112 -22.5t80.5 -60t49 -86.5t16.5 -102zM295 439q-42 0 -70 -27t-38 -87h210q-14 114 -102 114z" />
    <glyph glyph-name="Edotaccent" unicode="&#x116;" horiz-adv-x="626" 
d="M339 728q-36 0 -58.5 21.5t-22.5 56.5t22.5 56t58.5 21t58.5 -21t22.5 -56t-22.5 -56.5t-58.5 -21.5zM597 0h-512v690h502v-122h-345v-161h322v-122h-322v-162h355v-123z" />
    <glyph glyph-name="edotaccent" unicode="&#x117;" horiz-adv-x="588" 
d="M296 580q-38 0 -60.5 21.5t-22.5 58.5q0 36 22.5 57.5t60.5 21.5t61 -21.5t23 -57.5q0 -37 -23 -58.5t-61 -21.5zM560 276q0 -21 -3 -50h-374q3 -38 13 -63.5t24.5 -40.5t33.5 -21.5t41 -6.5q42 0 68 21t33 59h155q-22 -93 -91.5 -140.5t-167.5 -47.5q-56 0 -104.5 17
t-84.5 52t-56.5 87.5t-20.5 122.5q0 60 19.5 111.5t55.5 89.5t87 59.5t114 21.5q64 0 112 -22.5t80.5 -60t49 -86.5t16.5 -102zM295 439q-42 0 -70 -27t-38 -87h210q-14 114 -102 114z" />
    <glyph glyph-name="Eogonek" unicode="&#x118;" horiz-adv-x="626" 
d="M559 0q-23 -2 -40 -25.5t-17 -56.5q0 -29 12.5 -40t29.5 -11q23 0 47 21v-67q-21 -20 -51.5 -32t-72.5 -12q-48 0 -78.5 19t-30.5 67q0 45 24.5 81t56.5 56h-354v690h502v-122h-345v-161h322v-122h-322v-162h355v-123h-38z" />
    <glyph glyph-name="eogonek" unicode="&#x119;" horiz-adv-x="588" 
d="M560 276q0 -21 -3 -50h-374q3 -38 13 -63.5t24.5 -40.5t33.5 -21.5t41 -6.5q42 0 68 21t33 59h155q-16 -68 -58 -111.5t-103 -62.5q-5 -2 -8.5 -2.5t-8.5 -2.5q-17 -8 -28.5 -29t-11.5 -48q0 -29 12.5 -40t29.5 -11q23 0 47 21v-67q-21 -20 -51.5 -32t-72.5 -12
q-48 0 -78.5 19t-30.5 67q0 38 19 70.5t45 54.5q-49 6 -90.5 26t-72 54.5t-47.5 83.5t-17 113q0 60 19.5 111.5t55.5 89.5t87 59.5t114 21.5q64 0 112 -22.5t80.5 -60t49 -86.5t16.5 -102zM295 439q-42 0 -70 -27t-38 -87h210q-14 114 -102 114z" />
    <glyph glyph-name="Ecaron" unicode="&#x11a;" horiz-adv-x="626" 
d="M213 853h95l33 -71l31 71h94l-63 -118h-127zM597 0h-512v690h502v-122h-345v-161h322v-122h-322v-162h355v-123z" />
    <glyph glyph-name="ecaron" unicode="&#x11b;" horiz-adv-x="588" 
d="M170 695h94l34 -72l32 72h93l-63 -122h-127zM560 276q0 -21 -3 -50h-374q3 -38 13 -63.5t24.5 -40.5t33.5 -21.5t41 -6.5q42 0 68 21t33 59h155q-22 -93 -91.5 -140.5t-167.5 -47.5q-56 0 -104.5 17t-84.5 52t-56.5 87.5t-20.5 122.5q0 60 19.5 111.5t55.5 89.5t87 59.5
t114 21.5q64 0 112 -22.5t80.5 -60t49 -86.5t16.5 -102zM295 439q-42 0 -70 -27t-38 -87h210q-14 114 -102 114z" />
    <glyph glyph-name="Gbreve" unicode="&#x11e;" horiz-adv-x="747" 
d="M382 727q-54 0 -90.5 28.5t-36.5 97.5h81q3 -49 46 -49t46 49h81q0 -34 -10 -58t-27 -39t-40 -22t-50 -7zM696 359v-359h-124l-12 109l-31 -72q-29 -27 -68 -39t-96 -12q-70 0 -128 24t-99 69.5t-63.5 111.5t-22.5 150q0 87 27 154.5t74 114t109.5 70.5t134.5 24
t126.5 -18t92 -50.5t59 -76t26.5 -94.5l1 -10h-156l-2 10q-12 60 -49 91.5t-100 31.5q-38 0 -70.5 -15.5t-56.5 -46t-37.5 -75t-13.5 -101.5q0 -65 13.5 -112t37.5 -77t56 -44.5t69 -14.5q60 0 100 34.5t54 100.5h-140v122h289z" />
    <glyph glyph-name="gbreve" unicode="&#x11f;" horiz-adv-x="656" 
d="M323 568q-27 0 -50 6.5t-40.5 21.5t-27 39t-9.5 60h81q3 -50 46 -50t46 50h81q0 -36 -10 -60t-27 -39t-40 -21.5t-50 -6.5zM596 135v-53t-1 -50q-2 -64 -24 -111t-60 -78t-91.5 -46t-118.5 -15q-118 0 -185 47t-76 137l-1 10h152l1 -9q4 -32 34 -50.5t79 -18.5
q58 0 93.5 28t38.5 88q1 14 1.5 31t0.5 36v14l-40 -59q-23 -17 -55.5 -26t-73.5 -9q-55 0 -100.5 18.5t-77 52.5t-49 82.5t-17.5 107.5q0 72 20.5 125.5t55 89t81 53t97.5 17.5q33 0 68.5 -7.5t55.5 -20.5l35 -56v70h157v-398zM312 109q27 0 50 9t40 28.5t27 51t10 77.5v10
q0 43 -11 72.5t-28 47.5t-39 26t-44 8q-57 0 -93.5 -39t-36.5 -126q0 -79 34.5 -122t90.5 -43z" />
    <glyph glyph-name="Gdotaccent" unicode="&#x120;" horiz-adv-x="747" 
d="M382 728q-36 0 -58.5 21.5t-22.5 56.5t22.5 56t58.5 21t58.5 -21t22.5 -56t-22.5 -56.5t-58.5 -21.5zM696 359v-359h-124l-12 109l-31 -72q-29 -27 -68 -39t-96 -12q-70 0 -128 24t-99 69.5t-63.5 111.5t-22.5 150q0 87 27 154.5t74 114t109.5 70.5t134.5 24t126.5 -18
t92 -50.5t59 -76t26.5 -94.5l1 -10h-156l-2 10q-12 60 -49 91.5t-100 31.5q-38 0 -70.5 -15.5t-56.5 -46t-37.5 -75t-13.5 -101.5q0 -65 13.5 -112t37.5 -77t56 -44.5t69 -14.5q60 0 100 34.5t54 100.5h-140v122h289z" />
    <glyph glyph-name="gdotaccent" unicode="&#x121;" horiz-adv-x="656" 
d="M323 580q-38 0 -60.5 21.5t-22.5 58.5q0 36 22.5 57.5t60.5 21.5t61 -21.5t23 -57.5q0 -37 -23 -58.5t-61 -21.5zM596 135v-53t-1 -50q-2 -64 -24 -111t-60 -78t-91.5 -46t-118.5 -15q-118 0 -185 47t-76 137l-1 10h152l1 -9q4 -32 34 -50.5t79 -18.5q58 0 93.5 28
t38.5 88q1 14 1.5 31t0.5 36v14l-40 -59q-23 -17 -55.5 -26t-73.5 -9q-55 0 -100.5 18.5t-77 52.5t-49 82.5t-17.5 107.5q0 72 20.5 125.5t55 89t81 53t97.5 17.5q33 0 68.5 -7.5t55.5 -20.5l35 -56v70h157v-398zM312 109q27 0 50 9t40 28.5t27 51t10 77.5v10q0 43 -11 72.5
t-28 47.5t-39 26t-44 8q-57 0 -93.5 -39t-36.5 -126q0 -79 34.5 -122t90.5 -43z" />
    <glyph glyph-name="Gcommaaccent" unicode="&#x122;" horiz-adv-x="747" 
d="M696 359v-359h-124l-12 109l-31 -72q-29 -27 -68 -39t-96 -12q-70 0 -128 24t-99 69.5t-63.5 111.5t-22.5 150q0 87 27 154.5t74 114t109.5 70.5t134.5 24t126.5 -18t92 -50.5t59 -76t26.5 -94.5l1 -10h-156l-2 10q-12 60 -49 91.5t-100 31.5q-38 0 -70.5 -15.5
t-56.5 -46t-37.5 -75t-13.5 -101.5q0 -65 13.5 -112t37.5 -77t56 -44.5t69 -14.5q60 0 100 34.5t54 100.5h-140v122h289zM456 -41v-10l-91 -160h-88l76 170h103z" />
    <glyph glyph-name="gcommaaccent" unicode="&#x123;" horiz-adv-x="656" 
d="M259 571v10l90 160h88l-76 -170h-102zM596 135v-53t-1 -50q-2 -64 -24 -111t-60 -78t-91.5 -46t-118.5 -15q-118 0 -185 47t-76 137l-1 10h152l1 -9q4 -32 34 -50.5t79 -18.5q58 0 93.5 28t38.5 88q1 14 1.5 31t0.5 36v14l-40 -59q-23 -17 -55.5 -26t-73.5 -9
q-55 0 -100.5 18.5t-77 52.5t-49 82.5t-17.5 107.5q0 72 20.5 125.5t55 89t81 53t97.5 17.5q33 0 68.5 -7.5t55.5 -20.5l35 -56v70h157v-398zM312 109q27 0 50 9t40 28.5t27 51t10 77.5v10q0 43 -11 72.5t-28 47.5t-39 26t-44 8q-57 0 -93.5 -39t-36.5 -126q0 -79 34.5 -122
t90.5 -43z" />
    <glyph glyph-name="Hbar" unicode="&#x126;" horiz-adv-x="760" 
d="M700 487v-487h-156v277h-302v-277h-157v487h-40v86h40v117h157v-117h302v117h156v-117h40v-86h-40zM242 487v-87h302v87h-302z" />
    <glyph glyph-name="hbar" unicode="&#x127;" horiz-adv-x="644" 
d="M586 400q3 -20 4 -43.5t1 -55.5v-301h-157v277v34.5t-2 39.5q-3 41 -26 64.5t-69 23.5q-46 -1 -77 -45.5t-31 -146.5v-247h-157v580h-53v86h53v74h157v-74h107v-86h-107v-131l44 64q27 18 56.5 26t67.5 8q85 0 132.5 -38.5t56.5 -108.5z" />
    <glyph glyph-name="Imacron" unicode="&#x12a;" horiz-adv-x="302" 
d="M21 759v85h285v-85h-285zM85 0v690h157v-690h-157z" />
    <glyph glyph-name="imacron" unicode="&#x12b;" horiz-adv-x="276" 
d="M-6 591v85h286v-85h-286zM59 0v533h157v-533h-157z" />
    <glyph glyph-name="Iogonek" unicode="&#x12e;" horiz-adv-x="302" 
d="M193 0q-23 -2 -40 -25.5t-17 -56.5q0 -29 12.5 -40t29.5 -11q23 0 47 21v-67q-21 -20 -51.5 -32t-72.5 -12q-48 0 -78.5 19t-30.5 67q0 24 8 46t20.5 40.5t29.5 33.5t35 24v683h157v-690h-49z" />
    <glyph glyph-name="iogonek" unicode="&#x12f;" horiz-adv-x="276" 
d="M137 580q-38 0 -60.5 21.5t-22.5 58.5q0 36 22.5 57.5t60.5 21.5t61 -21.5t23 -57.5q0 -37 -23 -58.5t-61 -21.5zM216 533v-533h-49q-23 -2 -40 -25.5t-17 -56.5q0 -29 12.5 -40t29.5 -11q23 0 47 21v-67q-21 -20 -51.5 -32t-72.5 -12q-48 0 -78.5 19t-30.5 67q0 24 8 46
t20.5 40.5t29.5 33.5t35 24v526h157z" />
    <glyph glyph-name="Idotaccent" unicode="&#x130;" horiz-adv-x="302" 
d="M163 883q36 0 58.5 -21t22.5 -56t-22.5 -56.5t-58.5 -21.5t-58.5 21.5t-22.5 56.5t22.5 56t58.5 21zM85 0v690h157v-690h-157z" />
    <glyph glyph-name="dotlessi" unicode="&#x131;" horiz-adv-x="276" 
d="M59 0v533h157v-533h-157z" />
    <glyph glyph-name="IJ" unicode="&#x132;" horiz-adv-x="916" 
d="M85 0v690h157v-690h-157zM864 290q0 -23 -0.5 -43.5t-2.5 -55.5q-3 -45 -19 -82.5t-47 -65t-78 -42.5t-111 -15t-111.5 17t-78 48t-46 75t-17.5 98l-1 33h156l2 -33q5 -69 31.5 -95.5t71.5 -26.5q44 0 66 26t26 72q2 17 2 34v36v420h157v-400z" />
    <glyph glyph-name="ij" unicode="&#x133;" horiz-adv-x="546" 
d="M137 739q38 0 61 -21.5t23 -57.5q0 -37 -23 -58.5t-61 -21.5t-60.5 21.5t-22.5 58.5q0 36 22.5 57.5t60.5 21.5zM411 739q83 0 83 -79q0 -80 -83 -80q-84 0 -84 80q0 79 84 79zM59 0v533h157v-533h-157zM489 1q0 -16 -0.5 -33.5t-1.5 -31.5q-5 -68 -49.5 -107t-146.5 -39
q-30 0 -56 3v109q48 -5 70 6t25 44q2 11 2 23.5v23.5v534h157v-532z" />
    <glyph glyph-name="Kcommaaccent" unicode="&#x136;" horiz-adv-x="710" 
d="M699 0h-199l-205 274l-53 -59v-215h-157v690h157v-320l282 320h187l-302 -328zM424 -41v-10l-91 -160h-88l76 170h103z" />
    <glyph glyph-name="kcommaaccent" unicode="&#x137;" horiz-adv-x="605" 
d="M412 0l-155 204l-41 -45v-159h-157v735h157v-436l202 234h186l-231 -246l234 -287h-195zM375 -41v-10l-91 -160h-88l76 170h103z" />
    <glyph glyph-name="Lacute" unicode="&#x139;" horiz-adv-x="615" 
d="M114 735l82 118h140l-136 -118h-86zM597 0h-512v690h157v-558h355v-132z" />
    <glyph glyph-name="lacute" unicode="&#x13a;" horiz-adv-x="291" 
d="M79 780l84 122h140l-138 -122h-86zM212 182v-27.5t1 -21.5q2 -18 14 -25t47 -5v-107q-23 -2 -45.5 -3.5t-48.5 -1.5q-57 0 -88.5 23t-34.5 76q-2 20 -2 40.5v48.5v556h157v-553z" />
    <glyph glyph-name="Lcommaaccent" unicode="&#x13b;" horiz-adv-x="615" 
d="M597 0h-512v690h157v-558h355v-132zM404 -41v-10l-91 -160h-88l76 170h103z" />
    <glyph glyph-name="lcommaaccent" unicode="&#x13c;" horiz-adv-x="291" 
d="M212 182v-27.5t1 -21.5q2 -18 14 -25t47 -5v-107q-23 -2 -45.5 -3.5t-48.5 -1.5q-57 0 -88.5 23t-34.5 76q-2 20 -2 40.5v48.5v556h157v-553zM127 -211h-88l76 170h103v-10z" />
    <glyph glyph-name="Lcaron" unicode="&#x13d;" horiz-adv-x="615" 
d="M597 0h-512v690h157v-558h355v-132z" />
    <glyph glyph-name="lcaron" unicode="&#x13e;" horiz-adv-x="291" 
d="M212 182v-27.5t1 -21.5q2 -18 14 -25t47 -5v-107q-23 -2 -45.5 -3.5t-48.5 -1.5q-57 0 -88.5 23t-34.5 76q-2 20 -2 40.5v48.5v556h157v-553z" />
    <glyph glyph-name="Ldot" unicode="&#x13f;" horiz-adv-x="615" 
d="M597 0h-512v690h157v-558h355v-132zM436 311q-38 0 -63.5 25.5t-25.5 63.5t25.5 63.5t63.5 25.5t63 -25.5t25 -63.5t-25 -63.5t-63 -25.5z" />
    <glyph glyph-name="ldot" unicode="&#x140;" horiz-adv-x="448" 
d="M212 182v-27.5t1 -21.5q2 -18 14 -25t47 -5v-107q-23 -2 -45.5 -3.5t-48.5 -1.5q-57 0 -88.5 23t-34.5 76q-2 20 -2 40.5v48.5v556h157v-553zM355 480q37 0 60.5 -22.5t23.5 -57.5t-23.5 -57.5t-60.5 -22.5q-36 0 -59.5 22.5t-23.5 57.5t23.5 57.5t59.5 22.5z" />
    <glyph glyph-name="Lslash" unicode="&#x141;" horiz-adv-x="650" 
d="M632 0h-511v285l-98 -53v102l98 53v303h156v-218l96 52v-102l-96 -52v-238h355v-132z" />
    <glyph glyph-name="lslash" unicode="&#x142;" horiz-adv-x="324" 
d="M237 133q2 -18 13.5 -25t46.5 -5v-107q-22 -2 -45 -3.5t-49 -1.5q-57 0 -88.5 23t-34.5 76q-2 20 -2 40.5v48.5v41l-61 -38v106l61 38v409h157v-310l61 38v-106l-61 -38v-137v-27.5t2 -21.5z" />
    <glyph glyph-name="Nacute" unicode="&#x143;" horiz-adv-x="775" 
d="M347 735l82 118h140l-136 -118h-86zM506 0l-270 494q4 -55 5 -105.5t1 -88.5v-300h-157v690h201l278 -508q-3 54 -4 108.5t-1 92.5v307h156v-690h-209z" />
    <glyph glyph-name="nacute" unicode="&#x144;" horiz-adv-x="631" 
d="M354 573h-86l84 122h140zM573 400q3 -20 4 -43.5t1 -55.5v-301h-157v277v34.5t-2 39.5q-3 41 -26 64.5t-69 23.5t-77 -45t-31 -147v-247h-157v533h157v-84l44 64q27 18 56.5 26t67.5 8q85 0 132.5 -38.5t56.5 -108.5z" />
    <glyph glyph-name="Ncommaaccent" unicode="&#x145;" horiz-adv-x="775" 
d="M506 0l-270 494q4 -55 5 -105.5t1 -88.5v-300h-157v690h201l278 -508q-3 54 -4 108.5t-1 92.5v307h156v-690h-209zM372 -211h-88l76 170h103v-10z" />
    <glyph glyph-name="ncommaaccent" unicode="&#x146;" horiz-adv-x="631" 
d="M573 400q3 -20 4 -43.5t1 -55.5v-301h-157v277v34.5t-2 39.5q-3 41 -26 64.5t-69 23.5t-77 -45t-31 -147v-247h-157v533h157v-84l44 64q27 18 56.5 26t67.5 8q85 0 132.5 -38.5t56.5 -108.5zM277 -41h103v-10l-91 -160h-88z" />
    <glyph glyph-name="Ncaron" unicode="&#x147;" horiz-adv-x="775" 
d="M270 853h95l33 -71l31 71h94l-63 -118h-127zM715 0h-209l-270 494q4 -55 5 -105.5t1 -88.5v-300h-157v690h201l278 -508q-3 54 -4 108.5t-1 92.5v307h156v-690z" />
    <glyph glyph-name="ncaron" unicode="&#x148;" horiz-adv-x="631" 
d="M254 573l-63 122h94l34 -72l32 72h93l-63 -122h-127zM573 400q3 -20 4 -43.5t1 -55.5v-301h-157v277v34.5t-2 39.5q-3 41 -26 64.5t-69 23.5t-77 -45t-31 -147v-247h-157v533h157v-84l44 64q27 18 56.5 26t67.5 8q85 0 132.5 -38.5t56.5 -108.5z" />
    <glyph glyph-name="Eng" unicode="&#x14a;" horiz-adv-x="775" 
d="M715 -60v-22t-1 -19q-7 -66 -60.5 -94t-169.5 -28v116q45 4 59.5 19t14.5 42v23l-322 515q4 -55 5 -104.5t1 -87.5v-300h-157v690h201l278 -468q-3 54 -4 106t-1 90v272h156v-750z" />
    <glyph glyph-name="eng" unicode="&#x14b;" horiz-adv-x="631" 
d="M573 400q3 -20 4 -43.5t1 -55.5v-340v-22t-1 -19q-3 -34 -16 -58.5t-39.5 -40.5t-69.5 -23.5t-107 -7.5v116q35 0 53.5 9.5t21.5 36.5q1 7 1 15v16v294v34.5t-2 39.5q-3 41 -26 64.5t-69 23.5t-77 -45t-31 -147v-247h-157v533h157v-84l44 64q27 18 56.5 26t67.5 8
q85 0 132.5 -38.5t56.5 -108.5z" />
    <glyph glyph-name="Omacron" unicode="&#x14c;" horiz-adv-x="775" 
d="M257 759v85h285v-85h-285zM399 704q80 0 144 -25.5t109 -72t69 -113t24 -148.5t-24 -148t-69 -113t-109 -72.5t-144 -25.5t-144.5 25.5t-109.5 72.5t-69 113t-24 148t24 148.5t69 113t109.5 72t144.5 25.5zM399 102q86 0 135 63.5t49 179.5q0 117 -49 180t-135 63
q-87 0 -136 -63t-49 -180q0 -116 49 -179.5t136 -63.5z" />
    <glyph glyph-name="omacron" unicode="&#x14d;" horiz-adv-x="613" 
d="M165 591v85h285v-85h-285zM307 547q66 0 118 -20.5t88.5 -57.5t55.5 -88.5t19 -113.5t-19 -114t-55.5 -89t-88.5 -57.5t-118 -20.5t-118.5 20.5t-88.5 57.5t-55 89t-19 114t19 113.5t55 88.5t88.5 57.5t118.5 20.5zM307 94q56 0 87.5 44.5t31.5 128.5t-31.5 128t-87.5 44
q-57 0 -88.5 -44t-31.5 -128t31.5 -128.5t88.5 -44.5z" />
    <glyph glyph-name="Ohungarumlaut" unicode="&#x150;" horiz-adv-x="775" 
d="M240 736l82 117h140l-136 -117h-86zM500 853h140l-136 -117h-86zM399 704q80 0 144 -25.5t109 -72t69 -113t24 -148.5t-24 -148t-69 -113t-109 -72.5t-144 -25.5t-144.5 25.5t-109.5 72.5t-69 113t-24 148t24 148.5t69 113t109.5 72t144.5 25.5zM399 102q86 0 135 63.5
t49 179.5q0 117 -49 180t-135 63q-87 0 -136 -63t-49 -180q0 -116 49 -179.5t136 -63.5z" />
    <glyph glyph-name="ohungarumlaut" unicode="&#x151;" horiz-adv-x="613" 
d="M156 573l83 122h140l-137 -122h-86zM413 695h140l-138 -122h-86zM307 547q66 0 118 -20.5t88.5 -57.5t55.5 -88.5t19 -113.5t-19 -114t-55.5 -89t-88.5 -57.5t-118 -20.5t-118.5 20.5t-88.5 57.5t-55 89t-19 114t19 113.5t55 88.5t88.5 57.5t118.5 20.5zM307 94
q56 0 87.5 44.5t31.5 128.5t-31.5 128t-87.5 44q-57 0 -88.5 -44t-31.5 -128t31.5 -128.5t88.5 -44.5z" />
    <glyph glyph-name="OE" unicode="&#x152;" horiz-adv-x="1124" 
d="M1094 0h-511v112l-31 -68q-19 -17 -38 -28t-40.5 -18t-48 -9.5t-59.5 -2.5q-68 0 -125.5 25.5t-99.5 73t-65.5 113.5t-23.5 147t23.5 147.5t65.5 113.5t99.5 72.5t125.5 25.5q34 0 60 -2.5t48 -9.5t40.5 -17.5t37.5 -27.5l31 -69v112h501v-122h-345v-161h323v-122h-323
v-162h355v-123zM399 102q86 0 135 64t49 179q0 116 -49 179.5t-135 63.5q-87 0 -136 -63.5t-49 -179.5q0 -115 49 -179t136 -64z" />
    <glyph glyph-name="oe" unicode="&#x153;" horiz-adv-x="989" 
d="M961 276q0 -21 -3 -50h-375q7 -74 38 -103t74 -29q42 0 68.5 21t32.5 59h155q-10 -46 -33.5 -81t-57 -59t-75 -36t-89.5 -12q-57 0 -107 22.5t-85 78.5q-34 -54 -84.5 -77.5t-112.5 -23.5q-66 0 -118.5 20.5t-88.5 57.5t-55 89t-19 114t19 113.5t55 88.5t88.5 57.5
t118.5 20.5q63 0 115 -25t87 -82q34 56 86 81.5t115 25.5q61 0 108 -22.5t78.5 -60t48 -86.5t16.5 -102zM307 94q56 0 87.5 44.5t31.5 128.5t-31.5 128t-87.5 44q-57 0 -88.5 -44t-31.5 -128t31.5 -128.5t88.5 -44.5zM798 325q-7 56 -32.5 85t-69.5 29q-42 0 -70.5 -28
t-37.5 -86h210z" />
    <glyph glyph-name="Racute" unicode="&#x154;" horiz-adv-x="666" 
d="M302 735l82 118h140l-136 -118h-86zM602 171q7 -61 18.5 -101t32.5 -70h-171q-13 36 -20.5 69.5t-12.5 77.5q-7 57 -29 88.5t-61 34.5q-14 1 -27.5 1h-27.5h-62v-271h-157v690h262q31 0 54 -1t50 -4q38 -4 71 -16.5t58 -34t39.5 -54.5t14.5 -78q0 -66 -35.5 -108.5
t-101.5 -61.5q53 -20 76 -60.5t29 -100.5zM323 386h29.5t23.5 1q38 4 66 23.5t28 66.5q0 48 -25 66t-63 23q-11 1 -23.5 1.5t-29.5 0.5h-87v-182h81z" />
    <glyph glyph-name="racute" unicode="&#x155;" horiz-adv-x="398" 
d="M157 573l84 122h140l-138 -122h-86zM353 547q13 0 22 -1t18 -3v-127q-46 3 -79.5 -5.5t-55.5 -31.5t-32 -61t-10 -95v-223h-157v533h157v-102l40 74q20 21 47 31.5t50 10.5z" />
    <glyph glyph-name="Rcommaaccent" unicode="&#x156;" horiz-adv-x="666" 
d="M602 171q7 -61 18.5 -101t32.5 -70h-171q-13 36 -20.5 69.5t-12.5 77.5q-7 57 -29 88.5t-61 34.5q-14 1 -27.5 1h-27.5h-62v-271h-157v690h262q31 0 54 -1t50 -4q38 -4 71 -16.5t58 -34t39.5 -54.5t14.5 -78q0 -66 -35.5 -108.5t-101.5 -61.5q53 -20 76 -60.5t29 -100.5z
M323 386h29.5t23.5 1q38 4 66 23.5t28 66.5q0 48 -25 66t-63 23q-11 1 -23.5 1.5t-29.5 0.5h-87v-182h81zM411 -41v-10l-91 -160h-88l76 170h103z" />
    <glyph glyph-name="rcommaaccent" unicode="&#x157;" horiz-adv-x="398" 
d="M353 547q13 0 22 -1t18 -3v-127q-46 3 -79.5 -5.5t-55.5 -31.5t-32 -61t-10 -95v-223h-157v533h157v-102l40 74q20 21 47 31.5t50 10.5zM203 -41v-10l-91 -160h-88l76 170h103z" />
    <glyph glyph-name="Rcaron" unicode="&#x158;" horiz-adv-x="666" 
d="M225 853h95l33 -71l31 71h94l-63 -118h-127zM602 171q7 -61 18.5 -101t32.5 -70h-171q-13 36 -20.5 69.5t-12.5 77.5q-7 57 -29 88.5t-61 34.5q-14 1 -27.5 1h-27.5h-62v-271h-157v690h262q31 0 54 -1t50 -4q38 -4 71 -16.5t58 -34t39.5 -54.5t14.5 -78
q0 -66 -35.5 -108.5t-101.5 -61.5q53 -20 76 -60.5t29 -100.5zM323 386h29.5t23.5 1q38 4 66 23.5t28 66.5q0 48 -25 66t-63 23q-11 1 -23.5 1.5t-29.5 0.5h-87v-182h81z" />
    <glyph glyph-name="rcaron" unicode="&#x159;" horiz-adv-x="398" 
d="M80 695h94l34 -72l32 72h93l-63 -122h-127zM353 547q13 0 22 -1t18 -3v-127q-46 3 -79.5 -5.5t-55.5 -31.5t-32 -61t-10 -95v-223h-157v533h157v-102l40 74q20 21 47 31.5t50 10.5z" />
    <glyph glyph-name="Sacute" unicode="&#x15a;" horiz-adv-x="616" 
d="M272 735l82 118h140l-136 -118h-86zM320 704q65 0 112 -17t78.5 -46.5t49 -70t23.5 -87.5h-158q-6 48 -33 76.5t-77 28.5q-37 0 -60.5 -17.5t-23.5 -55.5q0 -19 7 -34.5t24 -28t45 -23t70 -20.5q115 -27 166.5 -81t51.5 -136q0 -50 -21.5 -88.5t-58 -64.5t-84 -39.5
t-99.5 -13.5q-127 0 -205.5 54.5t-87.5 166.5h158q11 -54 47.5 -79.5t84.5 -25.5q43 0 72.5 21t29.5 56q0 36 -27.5 61t-98.5 42q-55 14 -99.5 31t-75 42t-47 60.5t-16.5 84.5q0 48 20.5 86t55.5 64.5t81 40t96 13.5z" />
    <glyph glyph-name="sacute" unicode="&#x15b;" horiz-adv-x="511" 
d="M297 573h-86l84 122h140zM263 547q48 0 86 -13t65.5 -35.5t43.5 -53.5t21 -67h-155q-7 33 -24.5 51t-46.5 18q-26 0 -40.5 -14t-14.5 -35q0 -27 26.5 -44.5t97.5 -35.5q39 -10 70 -23.5t53 -33.5t34 -47t12 -65q0 -42 -17.5 -72.5t-48.5 -50.5t-72 -30t-88 -10
q-102 0 -168 44t-77 134h155q8 -38 33 -57.5t58 -19.5q29 0 48.5 12t19.5 38q0 29 -28.5 46.5t-99.5 34.5q-75 19 -120 56t-45 105q0 39 16 70t45 53t70 33.5t91 11.5z" />
    <glyph glyph-name="Scedilla" unicode="&#x15e;" horiz-adv-x="616" 
d="M595 192q0 -49 -21 -87t-56 -64t-81 -40t-97 -15l-14 -27q92 -12 92 -79q0 -25 -12.5 -42t-33.5 -27.5t-50 -15.5t-62 -5q-14 0 -27.5 1t-27.5 6v63q17 -5 31.5 -6.5t25.5 -1.5q32 0 46 8t14 23q0 18 -20.5 26.5t-75.5 4.5l38 76q-99 14 -158 67t-67 150h158
q11 -54 47.5 -79.5t84.5 -25.5q43 0 72.5 21t29.5 56q0 36 -27.5 61t-98.5 42q-55 14 -99.5 31t-75 42t-47 60.5t-16.5 84.5q0 48 20.5 86t55.5 64.5t81 40t96 13.5q65 0 112 -17t78.5 -46.5t49 -70t23.5 -87.5h-158q-6 48 -33 76.5t-77 28.5q-37 0 -60.5 -17.5t-23.5 -55.5
q0 -19 7 -34.5t24 -28t45 -23t70 -20.5q115 -27 166.5 -81t51.5 -136z" />
    <glyph glyph-name="scedilla" unicode="&#x15f;" horiz-adv-x="511" 
d="M491 149q0 -39 -15 -68t-42 -49t-63 -31t-78 -14l-15 -28q92 -12 92 -79q0 -25 -12.5 -42t-33.5 -27.5t-50 -15.5t-62 -5q-14 0 -27.5 1t-27.5 6v63q17 -5 31.5 -6.5t25.5 -1.5q32 0 46 8t14 23q0 18 -20.5 26.5t-75.5 4.5l37 75q-82 10 -134 53t-61 122h155
q8 -38 33 -57.5t58 -19.5q29 0 48.5 12t19.5 38q0 29 -28.5 46.5t-99.5 34.5q-75 19 -120 56t-45 105q0 39 16 70t45 53t70 33.5t91 11.5q48 0 86 -13t65.5 -35.5t43.5 -53.5t21 -67h-155q-7 33 -24.5 51t-46.5 18q-26 0 -40.5 -14t-14.5 -35q0 -27 26.5 -44.5t97.5 -35.5
q39 -10 70 -23.5t53 -33.5t34 -47t12 -65z" />
    <glyph glyph-name="Scaron" unicode="&#x160;" horiz-adv-x="616" 
d="M195 853h95l33 -71l31 71h94l-63 -118h-127zM377 409q115 -27 166.5 -81t51.5 -136q0 -50 -21.5 -88.5t-58 -64.5t-84 -39.5t-99.5 -13.5q-127 0 -205.5 54.5t-87.5 166.5h158q11 -54 47.5 -79.5t84.5 -25.5q43 0 72.5 21t29.5 56q0 36 -27.5 61t-98.5 42
q-55 14 -99.5 31t-75 42t-47 60.5t-16.5 84.5q0 48 20.5 86t55.5 64.5t81 40t96 13.5q65 0 112 -17t78.5 -46.5t49 -70t23.5 -87.5h-158q-6 48 -33 76.5t-77 28.5q-37 0 -60.5 -17.5t-23.5 -55.5q0 -19 7 -34.5t24 -28t45 -23t70 -20.5z" />
    <glyph glyph-name="scaron" unicode="&#x161;" horiz-adv-x="511" 
d="M197 573l-63 122h94l34 -72l32 72h93l-63 -122h-127zM322 318q39 -10 70 -23.5t53 -33.5t34 -47t12 -65q0 -42 -17.5 -72.5t-48.5 -50.5t-72 -30t-88 -10q-102 0 -168 44t-77 134h155q8 -38 33 -57.5t58 -19.5q29 0 48.5 12t19.5 38q0 29 -28.5 46.5t-99.5 34.5
q-75 19 -120 56t-45 105q0 39 16 70t45 53t70 33.5t91 11.5q48 0 86 -13t65.5 -35.5t43.5 -53.5t21 -67h-155q-7 33 -24.5 51t-46.5 18q-26 0 -40.5 -14t-14.5 -35q0 -27 26.5 -44.5t97.5 -35.5z" />
    <glyph glyph-name="Tcedilla" unicode="&#x162;" horiz-adv-x="627" 
d="M343 -41q92 -12 92 -79q0 -25 -12.5 -42t-33.5 -27.5t-50 -15.5t-62 -5q-14 0 -27.5 1t-27.5 6v63q17 -5 31.5 -6.5t25.5 -1.5q32 0 46 8t14 23q0 18 -20.5 26.5t-75.5 4.5l43 86h-37v568h-230v122h616v-122h-230v-568h-41z" />
    <glyph glyph-name="tcedilla" unicode="&#x163;" horiz-adv-x="378" 
d="M247 205v-26.5t1 -23.5q2 -20 6.5 -32.5t16 -19t30.5 -8.5t49 0v-100q-24 -4 -47.5 -6t-49.5 -2h-9l-15 -28q92 -12 92 -79q0 -25 -12.5 -42t-33.5 -27.5t-50 -15.5t-62 -5q-14 0 -27.5 1t-27.5 6v63q17 -5 31.5 -6.5t25.5 -1.5q32 0 46 8t14 23q0 18 -20.5 26.5
t-75.5 4.5l41 83q-40 11 -57.5 37.5t-20.5 68.5q-2 20 -2 39v42v245h-81v100h81v134h157v-134h113v-100h-113v-224z" />
    <glyph glyph-name="Tcaron" unicode="&#x164;" horiz-adv-x="627" 
d="M201 853h95l33 -71l31 71h94l-63 -118h-127zM405 568v-568h-156v568h-230v122h616v-122h-230z" />
    <glyph glyph-name="tcaron" unicode="&#x165;" horiz-adv-x="372" 
d="M453 725l-91 -160h-88l76 170h103v-10zM360 529v-100h-113v-224v-26.5t1 -23.5q2 -20 6.5 -32.5t16 -19t30.5 -8.5t49 0v-100q-24 -4 -47.5 -6t-49.5 -2q-44 0 -73.5 7t-48.5 21.5t-28 36.5t-11 51q-2 20 -2 39v42v245h-81v100h81v134h157v-134h113z" />
    <glyph glyph-name="Tbar" unicode="&#x166;" horiz-adv-x="627" 
d="M405 382h96v-86h-96v-296h-156v296h-96v86h96v186h-230v122h616v-122h-230v-186z" />
    <glyph glyph-name="tbar" unicode="&#x167;" horiz-adv-x="378" 
d="M247 345h71v-85h-71v-55v-26.5t1 -23.5q2 -20 6.5 -32.5t16 -19t30.5 -8.5t49 0v-100q-24 -4 -47.5 -6t-49.5 -2q-44 0 -73.5 7t-48.5 21.5t-28 36.5t-11 51q-2 20 -2 39v42v76h-57v85h57v84h-81v100h81v134h157v-134h113v-100h-113v-84z" />
    <glyph glyph-name="Umacron" unicode="&#x16a;" horiz-adv-x="709" 
d="M227 759v85h285v-85h-285zM663 291q0 -24 -0.5 -42.5t-2.5 -45.5q-3 -43 -20.5 -82.5t-52.5 -69.5t-88.5 -47.5t-129.5 -17.5t-129.5 17.5t-88.5 47.5t-53 69.5t-21 82.5q-2 27 -2 45.5v42.5v399h156v-422v-24.5t1 -21.5q5 -57 38.5 -88.5t98.5 -31.5t98.5 31.5
t37.5 88.5q2 11 2 21.5v24.5v422h156v-399z" />
    <glyph glyph-name="umacron" unicode="&#x16b;" horiz-adv-x="628" 
d="M167 591v85h285v-85h-285zM568 0h-156v91l-45 -71q-27 -18 -56.5 -26t-67.5 -8q-41 0 -74 11t-57 29.5t-38 43t-19 51.5q-3 20 -4 43.5t-1 55.5v313h156v-279q0 -13 1 -33t3 -40q5 -41 27.5 -63.5t68.5 -22.5q48 0 77 39.5t29 113.5v285h156v-533z" />
    <glyph glyph-name="Uring" unicode="&#x16e;" horiz-adv-x="709" 
d="M369 918q50 0 81 -27.5t31 -71.5t-31 -71t-81 -27t-81 27t-31 71t31 71.5t81 27.5zM369 859q-17 0 -27 -11t-10 -29q0 -17 10 -28.5t27 -11.5t27 11.5t10 28.5q0 18 -10 29t-27 11zM663 291q0 -24 -0.5 -42.5t-2.5 -45.5q-3 -43 -20.5 -82.5t-52.5 -69.5t-88.5 -47.5
t-129.5 -17.5t-129.5 17.5t-88.5 47.5t-53 69.5t-21 82.5q-2 27 -2 45.5v42.5v399h156v-422v-24.5t1 -21.5q5 -57 38.5 -88.5t98.5 -31.5t98.5 31.5t37.5 88.5q2 11 2 21.5v24.5v422h156v-399z" />
    <glyph glyph-name="uring" unicode="&#x16f;" horiz-adv-x="628" 
d="M309 567q-50 0 -81 28t-31 73t31 73t81 28t81 -28t31 -73t-31 -73t-81 -28zM309 711q-17 0 -27 -11.5t-10 -31.5t10 -31.5t27 -11.5t27 11.5t10 31.5t-10 31.5t-27 11.5zM568 0h-156v91l-45 -71q-27 -18 -56.5 -26t-67.5 -8q-41 0 -74 11t-57 29.5t-38 43t-19 51.5
q-3 20 -4 43.5t-1 55.5v313h156v-279q0 -13 1 -33t3 -40q5 -41 27.5 -63.5t68.5 -22.5q48 0 77 39.5t29 113.5v285h156v-533z" />
    <glyph glyph-name="Uhungarumlaut" unicode="&#x170;" horiz-adv-x="709" 
d="M210 736l82 117h140l-136 -117h-86zM388 736l82 117h140l-136 -117h-86zM663 291q0 -24 -0.5 -42.5t-2.5 -45.5q-3 -43 -20.5 -82.5t-52.5 -69.5t-88.5 -47.5t-129.5 -17.5t-129.5 17.5t-88.5 47.5t-53 69.5t-21 82.5q-2 27 -2 45.5v42.5v399h156v-422v-24.5t1 -21.5
q5 -57 38.5 -88.5t98.5 -31.5t98.5 31.5t37.5 88.5q2 11 2 21.5v24.5v422h156v-399z" />
    <glyph glyph-name="uhungarumlaut" unicode="&#x171;" horiz-adv-x="628" 
d="M158 573l83 122h140l-137 -122h-86zM415 695h140l-138 -122h-86zM568 0h-156v91l-45 -71q-27 -18 -56.5 -26t-67.5 -8q-41 0 -74 11t-57 29.5t-38 43t-19 51.5q-3 20 -4 43.5t-1 55.5v313h156v-279q0 -13 1 -33t3 -40q5 -41 27.5 -63.5t68.5 -22.5q48 0 77 39.5t29 113.5
v285h156v-533z" />
    <glyph glyph-name="Uogonek" unicode="&#x172;" horiz-adv-x="709" 
d="M663 291q0 -24 -0.5 -42.5t-2.5 -45.5q-2 -35 -14 -68t-35 -60t-57.5 -47.5t-82.5 -31.5q-18 -8 -30 -29t-12 -49q0 -29 12.5 -40t29.5 -11q23 0 47 21v-67q-21 -20 -51.5 -32t-72.5 -12q-48 0 -78.5 19t-30.5 67q0 38 18 69.5t44 53.5q-70 3 -119.5 21.5t-82 48
t-49 67.5t-19.5 80q-2 27 -2 45.5v42.5v399h156v-422v-24.5t1 -21.5q5 -57 38.5 -88.5t98.5 -31.5t98.5 31.5t37.5 88.5q2 11 2 21.5v24.5v422h156v-399z" />
    <glyph glyph-name="uogonek" unicode="&#x173;" horiz-adv-x="628" 
d="M520 0q-23 -2 -40 -25.5t-17 -56.5q0 -29 12.5 -40t29.5 -11q23 0 47 21v-67q-21 -20 -51.5 -32t-72.5 -12q-48 0 -78.5 19t-30.5 67q0 24 8 46t20.5 40.5t29.5 33.5t35 24v84l-45 -71q-27 -18 -56.5 -26t-67.5 -8q-41 0 -74 11t-57 29.5t-38 43t-19 51.5q-3 20 -4 43.5
t-1 55.5v313h156v-279q0 -13 1 -33t3 -40q5 -41 27.5 -63.5t68.5 -22.5q48 0 77 39.5t29 113.5v285h156v-533h-48z" />
    <glyph glyph-name="Wcircumflex" unicode="&#x174;" horiz-adv-x="1000" 
d="M392 735l63 118h127l63 -118h-95l-33 71l-31 -71h-94zM828 0h-208l-104 559l-111 -559h-209l-170 690h168l106 -568l107 558h223l104 -563l113 573h161z" />
    <glyph glyph-name="wcircumflex" unicode="&#x175;" horiz-adv-x="847" 
d="M301 573l63 122h127l63 -122h-94l-33 72l-33 -72h-93zM683 0h-176l-80 387l-81 -387h-177l-169 533h174l83 -402l77 399h187l81 -400l81 403h169z" />
    <glyph glyph-name="Ycircumflex" unicode="&#x176;" horiz-adv-x="643" 
d="M211 735l63 118h127l63 -118h-95l-33 71l-31 -71h-94zM415 0h-156v264l-244 426h177l150 -288l144 288h172l-243 -424v-266z" />
    <glyph glyph-name="ycircumflex" unicode="&#x177;" horiz-adv-x="584" 
d="M163 573l63 122h127l63 -122h-94l-33 72l-33 -72h-93zM376 -11q-23 -58 -46 -96.5t-50.5 -61t-61 -32t-77.5 -9.5q-20 0 -35.5 1t-32.5 3v105q11 -2 21.5 -2h22.5q34 0 57 13.5t38 48.5l7 17l-219 557h175l122 -412l121 412h171z" />
    <glyph glyph-name="Ydieresis" unicode="&#x178;" horiz-adv-x="643" 
d="M245 726q-30 0 -49 18t-19 48t19 48t49 18t48.5 -18t18.5 -48t-18.5 -48t-48.5 -18zM430 726q-30 0 -49 18t-19 48t19 48t49 18t48.5 -18t18.5 -48t-18.5 -48t-48.5 -18zM415 0h-156v264l-244 426h177l150 -288l144 288h172l-243 -424v-266z" />
    <glyph glyph-name="Zacute" unicode="&#x179;" horiz-adv-x="634" 
d="M283 735l82 118h140l-136 -118h-86zM606 0h-555v119l362 449h-334v122h522v-121l-358 -446h363v-123z" />
    <glyph glyph-name="zacute" unicode="&#x17a;" horiz-adv-x="510" 
d="M216 573l84 122h140l-138 -122h-86zM481 0h-450v95l280 333h-264v101h431v-100l-278 -328h281v-101z" />
    <glyph glyph-name="Zdotaccent" unicode="&#x17b;" horiz-adv-x="634" 
d="M332 728q-36 0 -58.5 21.5t-22.5 56.5t22.5 56t58.5 21t58.5 -21t22.5 -56t-22.5 -56.5t-58.5 -21.5zM606 0h-555v119l362 449h-334v122h522v-121l-358 -446h363v-123z" />
    <glyph glyph-name="zdotaccent" unicode="&#x17c;" horiz-adv-x="510" 
d="M265 580q-38 0 -60.5 21.5t-22.5 58.5q0 36 22.5 57.5t60.5 21.5t61 -21.5t23 -57.5q0 -37 -23 -58.5t-61 -21.5zM481 0h-450v95l280 333h-264v101h431v-100l-278 -328h281v-101z" />
    <glyph glyph-name="Zcaron" unicode="&#x17d;" horiz-adv-x="634" 
d="M206 853h95l33 -71l31 71h94l-63 -118h-127zM606 0h-555v119l362 449h-334v122h522v-121l-358 -446h363v-123z" />
    <glyph glyph-name="zcaron" unicode="&#x17e;" horiz-adv-x="510" 
d="M139 695h94l34 -72l32 72h93l-63 -122h-127zM481 0h-450v95l280 333h-264v101h431v-100l-278 -328h281v-101z" />
    <glyph glyph-name="Scommaaccent" unicode="&#x218;" horiz-adv-x="616" 
d="M320 704q65 0 112 -17t78.5 -46.5t49 -70t23.5 -87.5h-158q-6 48 -33 76.5t-77 28.5q-37 0 -60.5 -17.5t-23.5 -55.5q0 -19 7 -34.5t24 -28t45 -23t70 -20.5q115 -27 166.5 -81t51.5 -136q0 -50 -21.5 -88.5t-58 -64.5t-84 -39.5t-99.5 -13.5q-127 0 -205.5 54.5
t-87.5 166.5h158q11 -54 47.5 -79.5t84.5 -25.5q43 0 72.5 21t29.5 56q0 36 -27.5 61t-98.5 42q-55 14 -99.5 31t-75 42t-47 60.5t-16.5 84.5q0 48 20.5 86t55.5 64.5t81 40t96 13.5zM286 -211h-88l76 170h103v-10z" />
    <glyph glyph-name="scommaaccent" unicode="&#x219;" horiz-adv-x="511" 
d="M263 547q48 0 86 -13t65.5 -35.5t43.5 -53.5t21 -67h-155q-7 33 -24.5 51t-46.5 18q-26 0 -40.5 -14t-14.5 -35q0 -27 26.5 -44.5t97.5 -35.5q39 -10 70 -23.5t53 -33.5t34 -47t12 -65q0 -42 -17.5 -72.5t-48.5 -50.5t-72 -30t-88 -10q-102 0 -168 44t-77 134h155
q8 -38 33 -57.5t58 -19.5q29 0 48.5 12t19.5 38q0 29 -28.5 46.5t-99.5 34.5q-75 19 -120 56t-45 105q0 39 16 70t45 53t70 33.5t91 11.5zM327 -51l-91 -160h-88l76 170h103v-10z" />
    <glyph glyph-name="uni021A" unicode="&#x21a;" horiz-adv-x="627" 
d="M405 568v-568h-156v568h-230v122h616v-122h-230zM394 -41v-10l-91 -160h-88l76 170h103z" />
    <glyph glyph-name="uni021B" unicode="&#x21b;" horiz-adv-x="378" 
d="M247 205v-26.5t1 -23.5q2 -20 6.5 -32.5t16 -19t30.5 -8.5t49 0v-100q-24 -4 -47.5 -6t-49.5 -2q-44 0 -73.5 7t-48.5 21.5t-28 36.5t-11 51q-2 20 -2 39v42v245h-81v100h81v134h157v-134h113v-100h-113v-224zM279 -41v-10l-91 -160h-88l76 170h103z" />
    <glyph glyph-name="circumflex" unicode="&#x2c6;" horiz-adv-x="300" 
d="M150 645l-33 -72h-93l63 122h127l63 -122h-94z" />
    <glyph glyph-name="caron" unicode="&#x2c7;" horiz-adv-x="300" 
d="M214 573h-127l-63 122h94l34 -72l32 72h93z" />
    <glyph glyph-name="breve" unicode="&#x2d8;" horiz-adv-x="300" 
d="M277 695q0 -36 -10 -60t-27 -39t-40 -21.5t-50 -6.5t-50 6.5t-40.5 21.5t-27 39t-9.5 60h81q3 -50 46 -50t46 50h81z" />
    <glyph glyph-name="dotaccent" unicode="&#x2d9;" horiz-adv-x="300" 
d="M150 739q38 0 61 -21.5t23 -57.5q0 -37 -23 -58.5t-61 -21.5t-60.5 21.5t-22.5 58.5q0 36 22.5 57.5t60.5 21.5z" />
    <glyph glyph-name="ring" unicode="&#x2da;" horiz-adv-x="300" 
d="M150 769q50 0 81 -28t31 -73t-31 -73t-81 -28t-81 28t-31 73t31 73t81 28zM150 711q-17 0 -27 -11.5t-10 -31.5t10 -31.5t27 -11.5t27 11.5t10 31.5t-10 31.5t-27 11.5z" />
    <glyph glyph-name="ogonek" unicode="&#x2db;" horiz-adv-x="300" 
d="M258 0q-23 -2 -40 -25.5t-17 -56.5q0 -29 12.5 -40t29.5 -11q23 0 47 21v-67q-21 -20 -51.5 -32t-72.5 -12q-48 0 -78.5 19t-30.5 67q0 24 8 46t20.5 40.5t29.5 33.5t35 24z" />
    <glyph glyph-name="tilde" unicode="&#x2dc;" horiz-adv-x="300" 
d="M81 699q20 0 35.5 -3.5t41.5 -14.5q34 -14 45 -14q15 0 15 29h82q0 -63 -19.5 -91t-61.5 -28q-20 0 -35.5 3.5t-41.5 14.5q-18 7 -28 10.5t-17 3.5q-15 0 -15 -28h-81q0 63 19.5 90.5t60.5 27.5z" />
    <glyph glyph-name="hungarumlaut" unicode="&#x2dd;" horiz-adv-x="300" 
d="M-2 573l84 122h140l-137 -122h-87zM172 573l84 122h140l-138 -122h-86z" />
    <glyph glyph-name="uni0326" unicode="&#x326;" horiz-adv-x="0" 
d="M126 -211h-88l76 170h103v-10z" />
    <glyph glyph-name="Wgrave" unicode="&#x1e80;" horiz-adv-x="1000" 
d="M350 853h140l82 -118h-86zM828 0h-208l-104 559l-111 -559h-209l-170 690h168l106 -568l107 558h223l104 -563l113 573h161z" />
    <glyph glyph-name="wgrave" unicode="&#x1e81;" horiz-adv-x="847" 
d="M263 695h140l84 -122h-86zM683 0h-176l-80 387l-81 -387h-177l-169 533h174l83 -402l77 399h187l81 -400l81 403h169z" />
    <glyph glyph-name="Wacute" unicode="&#x1e82;" horiz-adv-x="1000" 
d="M469 735l82 118h140l-136 -118h-86zM828 0h-208l-104 559l-111 -559h-209l-170 690h168l106 -568l107 558h223l104 -563l113 573h161z" />
    <glyph glyph-name="wacute" unicode="&#x1e83;" horiz-adv-x="847" 
d="M378 573l84 122h140l-138 -122h-86zM683 0h-176l-80 387l-81 -387h-177l-169 533h174l83 -402l77 399h187l81 -400l81 403h169z" />
    <glyph glyph-name="Wdieresis" unicode="&#x1e84;" horiz-adv-x="1000" 
d="M426 726q-30 0 -49 18t-19 48t19 48t49 18t48.5 -18t18.5 -48t-18.5 -48t-48.5 -18zM611 726q-30 0 -49 18t-19 48t19 48t49 18t48.5 -18t18.5 -48t-18.5 -48t-48.5 -18zM828 0h-208l-104 559l-111 -559h-209l-170 690h168l106 -568l107 558h223l104 -563l113 573h161z
" />
    <glyph glyph-name="wdieresis" unicode="&#x1e85;" horiz-adv-x="847" 
d="M334 573q-30 0 -49 18t-19 48t19 48t49 18t49 -18t19 -48t-19 -48t-49 -18zM520 573q-30 0 -48.5 18t-18.5 48t18.5 48t48.5 18t49 -18t19 -48t-19 -48t-49 -18zM683 0h-176l-80 387l-81 -387h-177l-169 533h174l83 -402l77 399h187l81 -400l81 403h169z" />
    <glyph glyph-name="Ygrave" unicode="&#x1ef2;" horiz-adv-x="643" 
d="M169 853h140l82 -118h-86zM415 0h-156v264l-244 426h177l150 -288l144 288h172l-243 -424v-266z" />
    <glyph glyph-name="ygrave" unicode="&#x1ef3;" horiz-adv-x="584" 
d="M125 695h140l84 -122h-86zM376 -11q-23 -58 -46 -96.5t-50.5 -61t-61 -32t-77.5 -9.5q-20 0 -35.5 1t-32.5 3v105q11 -2 21.5 -2h22.5q34 0 57 13.5t38 48.5l7 17l-219 557h175l122 -412l121 412h171z" />
    <glyph glyph-name="endash" unicode="&#x2013;" horiz-adv-x="500" 
d="M85 248v86h330v-86h-330z" />
    <glyph glyph-name="emdash" unicode="&#x2014;" horiz-adv-x="1000" 
d="M85 248v86h830v-86h-830z" />
    <glyph glyph-name="quoteleft" unicode="&#x2018;" horiz-adv-x="303" 
d="M162 735h123l-79 -284h-149v10z" />
    <glyph glyph-name="quoteright" unicode="&#x2019;" horiz-adv-x="303" 
d="M141 451h-123l80 284h148v-10z" />
    <glyph glyph-name="quotesinglbase" unicode="&#x201a;" horiz-adv-x="255" 
d="M97 -123h-124l79 277h149v-10z" />
    <glyph glyph-name="quotedblleft" unicode="&#x201c;" horiz-adv-x="526" 
d="M162 736h123l-80 -285h-148v10zM385 736h123l-80 -285h-148v10z" />
    <glyph glyph-name="quotedblright" unicode="&#x201d;" horiz-adv-x="526" 
d="M141 451h-123l80 284h148v-10zM364 451h-123l79 284h149v-10z" />
    <glyph glyph-name="quotedblbase" unicode="&#x201e;" horiz-adv-x="477" 
d="M97 -123h-124l79 277h149v-10zM319 -123h-124l80 277h148v-10z" />
    <glyph glyph-name="dagger" unicode="&#x2020;" horiz-adv-x="565" 
d="M345 352l11 -512h-147l11 512l-179 -5v132l178 -5l-10 216h147l-10 -216l178 5v-132z" />
    <glyph glyph-name="daggerdbl" unicode="&#x2021;" horiz-adv-x="565" 
d="M344 178l180 5v-132l-178 5l10 -216h-147l10 216l-178 -5v132l180 -5v174l-180 -5v132l178 -5l-10 216h147l-10 -216l178 5v-132l-180 5v-174z" />
    <glyph glyph-name="bullet" unicode="&#x2022;" horiz-adv-x="385" 
d="M193 429q55 0 89 -34.5t34 -89.5t-34 -89t-89 -34q-56 0 -90 34t-34 89t34 89.5t90 34.5z" />
    <glyph glyph-name="ellipsis" unicode="&#x2026;" horiz-adv-x="775" 
d="M130 168q41 0 66 -25t25 -66q0 -40 -25 -65.5t-66 -25.5q-40 0 -65.5 25.5t-25.5 65.5q0 41 25.5 66t65.5 25zM390 168q41 0 66 -25t25 -66q0 -40 -25 -65.5t-66 -25.5q-40 0 -65.5 25.5t-25.5 65.5q0 41 25.5 66t65.5 25zM650 168q41 0 66 -25t25 -66q0 -40 -25 -65.5
t-66 -25.5q-40 0 -65.5 25.5t-25.5 65.5q0 41 25.5 66t65.5 25z" />
    <glyph glyph-name="perthousand" unicode="&#x2030;" horiz-adv-x="1118" 
d="M348 537q0 -79 -42 -123t-115 -44q-74 0 -115.5 44t-41.5 123t41.5 122.5t115.5 43.5q73 0 115 -43.5t42 -122.5zM223 0h-114l447 690h114zM136 537q0 -43 13.5 -66t41.5 -23q27 0 41 23t14 66q0 88 -55 88t-55 -88zM581 319q74 0 115.5 -43.5t41.5 -122.5t-41.5 -123
t-115.5 -44q-73 0 -115 44t-42 123t42 122.5t115 43.5zM928 319q73 0 115 -43.5t42 -122.5t-42 -123t-115 -44q-74 0 -115.5 44t-41.5 123t41.5 122.5t115.5 43.5zM581 64q28 0 41.5 23t13.5 66q0 88 -55 88t-55 -88q0 -43 14 -66t41 -23zM928 64q27 0 41 23t14 66
q0 88 -55 88t-55 -88q0 -43 13.5 -66t41.5 -23z" />
    <glyph glyph-name="guilsinglleft" unicode="&#x2039;" horiz-adv-x="440" 
d="M255 248l137 -166h-115l-137 166l137 166h115z" />
    <glyph glyph-name="guilsinglright" unicode="&#x203a;" horiz-adv-x="415" 
d="M162 82h-115l137 166l-137 166h115l137 -166z" />
    <glyph glyph-name="fraction" unicode="&#x2044;" horiz-adv-x="336" 
d="M-113 0l448 690h114l-447 -690h-115z" />
    <glyph glyph-name="Euro" unicode="&#x20ac;" 
d="M284 233q16 -75 54 -103t95 -28q81 0 147 39v-114q-37 -21 -77 -31t-106 -10q-55 0 -102 13.5t-83 43t-60 76.5t-35 114h-82l18 86h56v23v14.5t1 13.5h-47l18 86h39q14 64 42 110.5t67 77t88 45.5t104 15q70 0 117.5 -16.5t75.5 -45.5l-57 -97q-29 23 -59.5 33t-69.5 10
q-55 0 -91.5 -32t-51.5 -100h246l-19 -86h-238v-24v-27h228l-17 -86h-201z" />
    <glyph glyph-name="trademark" unicode="&#x2122;" horiz-adv-x="538" 
d="M224 616h-72v-160h-58v160h-72v44h202v-44zM490 456h-58l2 142l-35 -138h-59l-35 137l1 -141h-58v203h87l36 -145l35 145h84v-203z" />
    <glyph glyph-name="partialdiff" unicode="&#x2202;" 
d="M299 758q77 0 132.5 -29t91.5 -82t53.5 -127.5t17.5 -166.5q0 -95 -20 -164.5t-57.5 -114.5t-90 -66.5t-117.5 -21.5q-55 0 -103.5 15.5t-84.5 47.5t-57 80.5t-21 114.5q0 64 18.5 113.5t52.5 83t80.5 51t101.5 17.5q51 0 82 -14.5t48 -37.5q-8 90 -42 138t-107 48
q-38 0 -68.5 -10.5t-62.5 -32.5l-50 99q49 32 94.5 45.5t108.5 13.5zM316 102q60 0 88 54.5t29 176.5q-17 35 -45 48t-63 13q-57 0 -87.5 -39t-30.5 -106q0 -72 30 -109.5t79 -37.5z" />
    <glyph glyph-name="emptyset" unicode="&#x2205;" horiz-adv-x="838" 
d="M739 598q38 -51 59 -112.5t21 -130.5q0 -85 -31.5 -158.5t-86 -128t-127.5 -85.5t-155 -31q-69 0 -130.5 21.5t-112.5 60.5l-94 -94l-62 63l92 92q-44 53 -68.5 119t-24.5 141q0 85 31.5 158.5t86 128t127.5 85.5t155 31q75 0 141 -25.5t119 -70.5l78 78l62 -62zM115 355
q0 -56 16.5 -105t46.5 -89l437 437q-40 35 -90 54t-106 19q-63 0 -118 -24t-96.5 -66.5t-65.5 -100t-24 -125.5zM723 355q0 50 -13.5 94.5t-36.5 81.5l-433 -433q38 -28 83 -43.5t96 -15.5q63 0 118 24t96.5 66.5t65.5 100.5t24 125z" />
    <glyph glyph-name="product" unicode="&#x220f;" 
d="M548 568v-678h-156v678h-142v-678h-156v678h-58v122h570v-122h-58z" />
    <glyph glyph-name="summation" unicode="&#x2211;" 
d="M592 -110h-541v101l252 310l-222 288v101h505v-122h-311l209 -268l-237 -287h345v-123z" />
    <glyph glyph-name="minus" unicode="&#x2212;" 
d="M100 275v86h442v-86h-442z" />
    <glyph glyph-name="radical" unicode="&#x221a;" 
d="M376 -160h-118l-127 390h-78v80h150l112 -370l189 840h95z" />
    <glyph glyph-name="infinity" unicode="&#x221e;" horiz-adv-x="1013" 
d="M734 544q57 0 103.5 -20t80 -57t52 -88t18.5 -114q0 -62 -18.5 -113.5t-52.5 -88t-82.5 -57t-107.5 -20.5q-75 0 -131.5 27.5t-95.5 96.5q-38 -69 -91.5 -96.5t-129.5 -27.5q-57 0 -103.5 20.5t-79.5 57t-51.5 88t-18.5 113.5q0 63 18.5 114t52.5 88t82 57t108 20
q75 0 132.5 -27.5t96.5 -96.5q38 69 90 96.5t128 27.5zM295 94q44 0 74.5 39t40.5 132q-14 95 -42.5 133t-72.5 38q-49 0 -78.5 -46.5t-29.5 -124.5t29.5 -124.5t78.5 -46.5zM718 94q50 0 79 46.5t29 124.5t-29 124.5t-79 46.5q-44 0 -73 -38.5t-39 -132.5
q14 -94 41.5 -132.5t70.5 -38.5z" />
    <glyph glyph-name="integral" unicode="&#x222b;" horiz-adv-x="641" 
d="M368 754q28 0 49 -4.5t41 -17.5l-15 -81q-16 10 -30.5 13.5t-32.5 3.5q-30 0 -52 -20.5t-22 -65.5q0 -21 2 -43.5t8.5 -53t19 -74t33.5 -107.5q18 -55 30 -97t19 -75t10 -60t3 -54q0 -39 -11 -72t-32 -56.5t-50.5 -36.5t-65.5 -13q-28 0 -49 4.5t-41 17.5l15 81
q16 -10 30.5 -13.5t33.5 -3.5q29 0 51.5 20.5t22.5 66.5q0 21 -2 43t-8.5 53t-19 74t-33.5 107q-18 56 -30 97.5t-19 74.5t-10 60.5t-3 54.5q0 39 11 71.5t31.5 56t50 36.5t65.5 13z" />
    <glyph glyph-name="approxequal" unicode="&#x2248;" 
d="M213 482q31 0 56 -10t65 -31q37 -20 55.5 -27.5t37.5 -7.5q25 0 44 11.5t39 34.5l54 -55q-29 -48 -62.5 -66.5t-74.5 -18.5q-30 0 -54.5 9.5t-65.5 31.5q-38 20 -56 27.5t-37 7.5q-25 0 -44.5 -11.5t-38.5 -35.5l-54 56q29 48 62.5 66.5t73.5 18.5zM213 292q31 0 56 -10
t65 -31q37 -20 55.5 -27.5t37.5 -7.5q25 0 44 11.5t39 34.5l54 -55q-29 -48 -62.5 -66.5t-74.5 -18.5q-30 0 -54.5 9.5t-65.5 31.5q-38 20 -56 27.5t-37 7.5q-25 0 -44.5 -11.5t-38.5 -35.5l-54 56q29 48 62.5 66.5t73.5 18.5z" />
    <glyph glyph-name="notequal" unicode="&#x2260;" 
d="M338 257h219v-80h-260l-54 -105h-95l54 105h-117v80h158l61 120h-219v80h260l54 105h95l-54 -105h117v-80h-158z" />
    <glyph glyph-name="lessequal" unicode="&#x2264;" 
d="M204 317l344 -106v-95l-435 142v119l435 141v-99zM548 86v-86h-435v86h435z" />
    <glyph glyph-name="greaterequal" unicode="&#x2265;" 
d="M522 258l-428 -142v99l338 102l-338 106v95l428 -141v-119zM522 86v-86h-428v86h428z" />
    <glyph glyph-name="lozenge" unicode="&#x25ca;" horiz-adv-x="544" 
d="M337 0h-130l-160 345l160 345h130l160 -345zM272 590l-109 -245l109 -245l109 245z" />
    </font>
</defs>
</svg>
