<?xml version="1.0" standalone="no"?>
<!DOCTYPE svg PUBLIC "-//W3C//DTD SVG 1.1//EN" "http://www.w3.org/Graphics/SVG/1.1/DTD/svg11.dtd" >
<svg xmlns="http://www.w3.org/2000/svg" xmlns:xlink="http://www.w3.org/1999/xlink" version="1.1">
<metadata>
Created by FontForge 20170910 at Thu Feb 12 23:39:25 2015
 By jimmywarting
No Rights Reserved.
</metadata>
<defs>
<font id="Aileron-HeavyItalic" horiz-adv-x="642" >
  <font-face 
    font-family="Aileron Heavy"
    font-weight="900"
    font-style="italic"
    font-stretch="normal"
    units-per-em="1000"
    panose-1="0 0 10 0 0 0 0 0 0 0"
    ascent="770"
    descent="-230"
    x-height="529"
    cap-height="690"
    bbox="-200 -223 1171 918"
    underline-thickness="50"
    underline-position="-100"
    slope="-10"
    unicode-range="U+000D-FB02"
  />
<missing-glyph horiz-adv-x="573" 
d="M73 700h500v-700h-500v700zM493 650h-340l170 -255zM523 95v510l-170 -255zM493 50l-170 255l-170 -255h340zM123 95l170 255l-170 255v-510z" />
    <glyph glyph-name="fi" unicode="fi" horiz-adv-x="603" 
d="M497 0h-156l75 429h-165l-76 -429h-156l75 429h-47l17 100h48l1 7q2 13 5 29t7 30q20 75 85.5 117t179.5 42q27 0 45 -2t37 -5l-19 -106q-83 11 -123 -5.5t-51 -54.5q-3 -11 -5 -22t-4 -21l-2 -9h322z" />
    <glyph glyph-name="fl" unicode="fl" horiz-adv-x="629" 
d="M528 129q0 -21 12.5 -28t41.5 -5l-18 -99q-20 -3 -40.5 -4.5t-46.5 -1.5q-57 0 -85 18t-28 60q0 20 3 46t11 64l82 460q-19 5 -33 6t-34 1q-97 0 -114 -65q-3 -11 -5 -22t-4 -21l-2 -9h109l-18 -100h-108l-77 -429h-156l76 429h-48l18 100h48l1 7q2 13 5 29t6 30
q10 37 31 66.5t56.5 50t87 31.5t121.5 11q61 0 111 -6t93 -17h9l-98 -549q-3 -17 -5 -30t-2 -23z" />
    <glyph glyph-name=".notdef" horiz-adv-x="573" 
d="M73 700h500v-700h-500v700zM493 650h-340l170 -255zM523 95v510l-170 -255zM493 50l-170 255l-170 -255h340zM123 95l170 255l-170 255v-510z" />
    <glyph glyph-name=".null" horiz-adv-x="0" 
 />
    <glyph glyph-name=".null" horiz-adv-x="0" 
 />
    <glyph glyph-name="nonmarkingreturn" unicode="&#xd;" horiz-adv-x="250" 
 />
    <glyph glyph-name="space" unicode=" " horiz-adv-x="145" 
 />
    <glyph glyph-name="exclam" unicode="!" horiz-adv-x="298" 
d="M75 203l89 487h147l-113 -487h-123zM125 152q35 0 55 -19t20 -51q0 -18 -6.5 -35t-18.5 -30.5t-30 -22t-42 -8.5q-35 0 -55 19t-20 51q0 18 6.5 35.5t18.5 31t30 21.5t42 8z" />
    <glyph glyph-name="quotedbl" unicode="&#x22;" horiz-adv-x="384" 
d="M44 451l51 284h127l-72 -284h-106zM222 451l50 284h128l-72 -284h-106z" />
    <glyph glyph-name="numbersign" unicode="#" 
d="M450 292h96l-15 -86h-115l-80 -206h-91l80 206h-88l-80 -206h-91l80 206h-85l15 86h104l42 107h-98l16 86h115l80 205h91l-80 -205h88l80 205h91l-80 -205h85l-16 -86h-102zM313 399l-42 -107h88l42 107h-88z" />
    <glyph glyph-name="dollar" unicode="$" 
d="M386 403q48 -21 84 -42t59.5 -45.5t35 -55t11.5 -70.5q0 -46 -19.5 -83t-54 -63.5t-83 -41t-107.5 -16.5l-13 -76h-89l14 81q-52 7 -88 25.5t-59 45.5t-35 61.5t-15 73.5h150q6 -73 67 -94l33 187q-86 32 -132 77.5t-46 122.5q0 42 17 79t49 65.5t78.5 46.5t106.5 22
l14 77h89l-14 -80q87 -15 132.5 -70.5t50.5 -136.5h-151q1 31 -14 54t-39 36zM247 502q0 -28 14.5 -45t40.5 -30l29 166q-40 -7 -62 -30.5t-22 -60.5zM332 97q44 5 67.5 24.5t23.5 56.5q0 29 -15 48t-47 33z" />
    <glyph glyph-name="percent" unicode="%" horiz-adv-x="787" 
d="M215 371q-64 0 -102.5 37t-38.5 103q0 37 11.5 71.5t34.5 61.5t57 43.5t79 16.5q63 0 101.5 -36.5t38.5 -103.5q0 -37 -11.5 -71.5t-34.5 -61.5t-56.5 -43.5t-78.5 -16.5zM189 0h-130l567 690h131zM246 626q-31 0 -50 -33.5t-19 -81.5q0 -32 12.5 -47t34.5 -15
q31 0 50.5 33.5t19.5 81.5q0 32 -12.5 47t-35.5 15zM600 319q63 0 101.5 -36.5t38.5 -103.5q0 -37 -11.5 -71.5t-34 -61.5t-56.5 -43.5t-79 -16.5q-63 0 -101.5 37t-38.5 103q0 37 11.5 71.5t34 61.5t56.5 43.5t79 16.5zM568 64q32 0 51 33.5t19 81.5q0 32 -12.5 47
t-34.5 15q-32 0 -51 -33.5t-19 -81.5q0 -32 12.5 -47t34.5 -15z" />
    <glyph glyph-name="ampersand" unicode="&#x26;" horiz-adv-x="680" 
d="M658 289h-93l-48 -277q-56 -12 -120 -19t-137 -7q-54 0 -99.5 8t-79.5 26.5t-53 49t-19 75.5q0 44 15 79.5t41.5 61.5t63.5 43t81 24q-48 15 -75.5 50.5t-27.5 84.5q0 50 21 90t60 68t94.5 43t125.5 15q62 0 103 -10l-20 -115q-30 6 -52 7.5t-49 1.5q-119 0 -119 -105
q0 -36 21 -52.5t53 -18.5q14 -1 29 -1h28h28l15 86h157l-15 -86h93zM179 177q0 -43 28 -59t77 -16q24 0 44 1.5t49 6.5l32 179h-40h-28t-26 -1q-68 -5 -102 -33t-34 -78z" />
    <glyph glyph-name="quotesingle" unicode="'" horiz-adv-x="206" 
d="M44 451l51 284h127l-72 -284h-106z" />
    <glyph glyph-name="parenleft" unicode="(" horiz-adv-x="381" 
d="M203 -80q-42 55 -63.5 129.5t-21.5 174.5q0 66 13 138.5t41.5 145.5t73.5 142.5t109 129.5h81q-60 -70 -102 -141.5t-68.5 -142t-38.5 -139t-12 -131.5q0 -92 17.5 -167.5t51.5 -138.5h-81z" />
    <glyph glyph-name="parenright" unicode=")" horiz-adv-x="381" 
d="M208 780q42 -55 63.5 -129.5t21.5 -174.5q0 -66 -13 -138t-41.5 -145t-73.5 -143t-109 -130h-81q60 70 102 142t68.5 142.5t38.5 138.5t12 131q0 92 -17 167.5t-52 138.5h81z" />
    <glyph glyph-name="asterisk" unicode="*" horiz-adv-x="553" 
d="M464 379l14 -98l-145 -32l82 -119l-94 -60l-56 129l-105 -129l-72 60l123 119l-133 32l48 98l121 -56l14 152h102l-39 -152z" />
    <glyph glyph-name="plus" unicode="+" 
d="M365 277l-35 -199h-90l35 199h-177l15 80h176l35 199h89l-35 -199h177l-14 -80h-176z" />
    <glyph glyph-name="comma" unicode="," horiz-adv-x="271" 
d="M26 -123h-124l129 277h149l-1 -10z" />
    <glyph glyph-name="hyphen" unicode="-" horiz-adv-x="304" 
d="M25 240l14 86h240l-14 -86h-240z" />
    <glyph glyph-name="period" unicode="." horiz-adv-x="271" 
d="M101 168q32 0 54 -18t22 -53q0 -51 -30.5 -81t-78.5 -30q-32 0 -54 18t-22 53q0 51 30.5 81t78.5 30z" />
    <glyph glyph-name="slash" unicode="/" horiz-adv-x="335" 
d="M-68 -30l384 750h94l-383 -750h-95z" />
    <glyph glyph-name="zero" unicode="0" 
d="M366 704q66 0 114.5 -19t80 -54t47 -84t15.5 -109q0 -70 -16 -149.5t-53.5 -146.5t-100 -111.5t-155.5 -44.5q-66 0 -114.5 19t-80 54t-47 84t-15.5 109q0 72 16 152t54 146.5t100 110t155 43.5zM298 102q31 0 55 18.5t41.5 49t29.5 68.5t19.5 77t10.5 75.5t3 62.5
q0 66 -22.5 100.5t-68.5 34.5q-31 0 -55 -18.5t-41.5 -48t-29.5 -67.5t-19.5 -77t-10.5 -76t-3 -64q0 -65 22 -100t69 -35z" />
    <glyph glyph-name="one" unicode="1" 
d="M423 0h-156l92 526l-224 -110l25 143l181 96q34 17 66 26t65 9h72z" />
    <glyph glyph-name="two" unicode="2" 
d="M548 123l-22 -123h-517l13 71l264 217q47 39 80 69.5t53.5 56.5t29.5 50.5t9 51.5q0 35 -19 54.5t-57 19.5q-46 0 -74.5 -28.5t-44.5 -88.5l-3 -10h-156l2 10q31 115 105 174t205 59q104 0 157 -45.5t53 -122.5q0 -34 -10 -65.5t-35.5 -67t-68 -77.5t-108.5 -96
l-131 -109h275z" />
    <glyph glyph-name="three" unicode="3" 
d="M467 364q119 -27 119 -133q0 -54 -23.5 -99.5t-65 -77.5t-99.5 -50t-127 -18q-124 0 -185.5 56.5t-53.5 162.5l1 10h157l-1 -10q-1 -45 25.5 -74t81.5 -29q26 0 48 8t39 23t26.5 35.5t9.5 45.5q0 40 -28.5 61t-82.5 23h-24l18 105l24 1q60 4 96 35.5t36 79.5
q0 32 -20 50.5t-56 18.5q-45 0 -73.5 -28.5t-39.5 -71.5l-2 -10h-156l2 10q12 45 35 84t59.5 68.5t89 46.5t122.5 17q53 0 92 -12.5t64.5 -33.5t38 -49.5t12.5 -60.5q0 -70 -39.5 -118t-119.5 -66z" />
    <glyph glyph-name="four" unicode="4" 
d="M503 159l-28 -159h-156l28 159h-329l15 85l403 446h168l-78 -408h83l-21 -123h-85zM415 515q-14 -18 -26 -34t-25 -30l-156 -169h161z" />
    <glyph glyph-name="five" unicode="5" 
d="M245 394l39 46q26 14 54.5 20t57.5 6q93 0 142.5 -50.5t49.5 -138.5q0 -71 -26.5 -125.5t-70 -91t-100.5 -55.5t-119 -19q-55 0 -99 12t-74 37t-44 64t-10 92v10h156v-10q-2 -43 18 -66t64 -23q33 0 58.5 12t43 32t26.5 47t9 58q0 45 -22.5 72t-67.5 27q-38 0 -65 -16.5
t-49 -54.5h-145l125 411h440l-21 -122h-315z" />
    <glyph glyph-name="six" unicode="6" 
d="M419 704q109 0 160.5 -52.5t46.5 -143.5l-1 -10h-158v10q-7 80 -78 80q-57 0 -99.5 -55t-65.5 -172l47 64q32 23 62.5 30.5t67.5 7.5q50 0 86 -14t59 -38.5t34.5 -58t11.5 -71.5q0 -70 -27 -125t-71.5 -92.5t-101.5 -57.5t-116 -20q-110 0 -168 62t-58 177
q0 111 29 199.5t79 151t117 95.5t144 33zM334 347q-24 0 -47 -10t-41 -29t-29 -46t-11 -62q0 -44 22.5 -71t64.5 -27q29 0 53 12t41 32t26 46.5t9 56.5q0 44 -21.5 71t-66.5 27z" />
    <glyph glyph-name="seven" unicode="7" 
d="M653 605l-432 -605h-173l411 568h-355l22 122h543z" />
    <glyph glyph-name="eight" unicode="8" 
d="M478 366q43 -17 73.5 -52t30.5 -92q0 -62 -25 -106.5t-68 -73.5t-100 -43t-120 -14q-54 0 -97.5 9.5t-74.5 30.5t-48 54t-17 79q0 44 14.5 78t38 59.5t54 43t61.5 27.5q-34 14 -56 42t-22 75q0 48 19.5 88.5t56.5 70t90 46t119 16.5q106 0 160 -45.5t54 -118.5
q0 -38 -12 -67t-32 -50t-46 -35t-53 -22zM353 418q46 0 75.5 27t29.5 75q0 31 -19 49.5t-55 18.5q-44 0 -73 -27.5t-29 -73.5q0 -33 18.5 -51t52.5 -18zM292 101q66 0 96.5 33.5t30.5 84.5q0 38 -22.5 61.5t-69.5 23.5q-57 0 -92.5 -33.5t-35.5 -87.5q0 -38 23.5 -60
t69.5 -22z" />
    <glyph glyph-name="nine" unicode="9" 
d="M388 704q110 0 168 -61.5t58 -176.5q0 -111 -29 -200t-78.5 -151.5t-116.5 -95.5t-144 -33q-109 0 -161 53t-47 144l1 10h158v-10q4 -42 22.5 -61.5t55.5 -19.5q57 0 100 55.5t66 173.5l-48 -66q-32 -22 -62.5 -30t-67.5 -8q-49 0 -85 14t-59 39t-34.5 58t-11.5 71
q0 70 27 125t71.5 92.5t101 57.5t115.5 20zM330 343q24 0 47 10t41 29t29 46.5t11 62.5q0 44 -22.5 70.5t-64.5 26.5q-29 0 -52.5 -11.5t-40.5 -32t-26.5 -47t-9.5 -56.5q0 -44 21.5 -71t66.5 -27z" />
    <glyph glyph-name="colon" unicode=":" horiz-adv-x="271" 
d="M177 547q32 0 54 -18t22 -53q0 -51 -30 -81t-78 -30q-32 0 -54.5 18t-22.5 53q0 51 30.5 81t78.5 30zM110 168q32 0 54.5 -18t22.5 -53q0 -51 -30.5 -81t-78.5 -30q-32 0 -54 18t-22 53q0 51 30 81t78 30z" />
    <glyph glyph-name="semicolon" unicode=";" horiz-adv-x="271" 
d="M177 547q32 0 54 -18t22 -53q0 -51 -30 -81t-78 -30q-32 0 -54.5 18t-22.5 53q0 51 30.5 81t78.5 30zM27 -123h-124l129 277h148l-3 -18z" />
    <glyph glyph-name="less" unicode="&#x3c;" 
d="M205 264l330 -136l-19 -105l-421 183l21 119l485 183l-19 -107z" />
    <glyph glyph-name="equal" unicode="=" 
d="M101 377l14 80h472l-13 -80h-473zM66 177l14 80h472l-14 -80h-472z" />
    <glyph glyph-name="greater" unicode="&#x3e;" 
d="M512 206l-486 -183l19 106l378 137l-331 136l19 106l422 -183z" />
    <glyph glyph-name="question" unicode="?" horiz-adv-x="627" 
d="M407 704q100 0 153.5 -42t53.5 -116q0 -34 -7.5 -61.5t-24 -53t-44 -51t-66.5 -55.5q-22 -16 -38 -30t-27 -28t-19 -29t-14 -35h-131q6 28 14 49t19.5 40t27 36.5t37.5 37.5q31 29 51.5 50t32.5 39t17 34t5 34q0 65 -70 65q-39 0 -66.5 -26t-39.5 -83h-157
q10 53 35.5 94.5t63.5 70.5t87.5 44.5t106.5 15.5zM299 152q35 0 55 -19t20 -51q0 -18 -6.5 -35t-18.5 -30.5t-30 -22t-42 -8.5q-35 0 -55 19t-20 51q0 18 6.5 35.5t18.5 31t30 21.5t42 8z" />
    <glyph glyph-name="at" unicode="@" horiz-adv-x="911" 
d="M638 305q-10 -43 -12.5 -61t-2.5 -30q0 -26 9 -42t31 -16q39 0 69 46t30 137q0 64 -20 113.5t-56 83.5t-87.5 52t-114.5 18q-65 0 -127.5 -22.5t-111.5 -66.5t-79 -110t-30 -152q0 -69 20 -123.5t57.5 -92.5t93 -58.5t125.5 -20.5q64 0 123 17t107 52l34 -76
q-66 -43 -138.5 -61.5t-136.5 -18.5q-67 0 -135 21t-123 66t-89.5 116.5t-34.5 172.5q0 98 36 180t97.5 140.5t143 91t172.5 32.5q89 0 158 -28.5t116 -76t71.5 -110t24.5 -131.5q0 -75 -19 -128t-50.5 -86t-73 -48t-86.5 -15q-54 0 -90 23t-49 70l-29 -58
q-23 -18 -45.5 -25.5t-45.5 -7.5q-25 0 -49.5 8t-44 27.5t-31 51.5t-11.5 80q0 53 14.5 98t40 79t62 53t79.5 19q29 0 49.5 -8t30.5 -20l14 -53l20 63h134zM423 180q24 0 39.5 20.5t22.5 48.5l14 63q8 34 -2.5 51t-33.5 17q-18 0 -33 -10t-26.5 -27.5t-17.5 -41.5t-6 -51
q0 -38 11.5 -54t31.5 -16z" />
    <glyph glyph-name="A" unicode="A" horiz-adv-x="692" 
d="M228 195l-97 -195h-168l366 690h205l120 -690h-170l-28 195h-228zM404 548l-115 -230h148z" />
    <glyph glyph-name="B" unicode="B" horiz-adv-x="665" 
d="M515 372q108 -36 108 -152q0 -52 -21.5 -90.5t-55.5 -64.5t-75.5 -41t-80.5 -20q-27 -3 -47.5 -3.5t-51.5 -0.5h-262l122 690h263q27 0 44.5 -0.5t43.5 -3.5q73 -9 110.5 -49t37.5 -98q0 -63 -34.5 -105t-100.5 -62zM258 412h94q24 0 48 3q81 12 81 90q0 28 -15 42
t-41 18q-22 3 -48 3h-91zM362 124q17 1 34 8.5t30.5 20t22 31t8.5 41.5q0 33 -19 50t-48 20q-11 2 -23 2h-24h-105l-31 -174h109h23.5t22.5 1z" />
    <glyph glyph-name="C" unicode="C" horiz-adv-x="755" 
d="M461 704q72 0 124.5 -18t86.5 -50.5t49 -76t11 -94.5l-1 -10h-156v10q-2 64 -34.5 93.5t-95.5 29.5q-45 0 -85 -21t-69 -60.5t-46 -96t-17 -127.5q0 -48 10.5 -82.5t28.5 -56.5t42.5 -32t53.5 -10q61 0 103 34.5t65 96.5l4 10h156l-3 -10q-33 -119 -122 -183t-222 -64
q-64 0 -116.5 19t-89.5 55t-56.5 89t-19.5 122q0 99 31.5 179t86 136.5t127 87t154.5 30.5z" />
    <glyph glyph-name="D" unicode="D" horiz-adv-x="734" 
d="M477 686q51 -6 95.5 -26t77.5 -55.5t51.5 -87.5t18.5 -121q0 -73 -22 -140.5t-67 -121t-113 -88t-159 -43.5q-27 -2 -44.5 -2.5t-44.5 -0.5h-241l122 690h232q28 0 48 -0.5t46 -3.5zM348 125q53 6 92 30t64.5 60t37.5 81.5t12 95.5q0 85 -35.5 126t-95.5 47
q-17 2 -32 2.5t-35 0.5h-70l-79 -445h72h36.5t32.5 2z" />
    <glyph glyph-name="E" unicode="E" horiz-adv-x="619" 
d="M257 407h323l-22 -122h-323l-28 -162h355l-22 -123h-511l122 690h501l-22 -122h-345z" />
    <glyph glyph-name="F" unicode="F" horiz-adv-x="597" 
d="M257 407h313l-22 -122h-313l-50 -285h-156l122 690h501l-22 -122h-345z" />
    <glyph glyph-name="G" unicode="G" horiz-adv-x="773" 
d="M478 704q72 0 123.5 -18t84 -50.5t46 -76t9.5 -94.5l-1 -10h-157v10q-1 64 -32.5 93.5t-94.5 29.5q-45 0 -86.5 -20.5t-73 -59.5t-50 -95.5t-18.5 -128.5q0 -94 39.5 -138t100.5 -44q60 0 106 34.5t72 100.5h-141l22 122h290l-64 -359h-124l7 108l-43 -71
q-34 -27 -75 -39t-98 -12q-121 0 -190 73t-69 207q0 104 34.5 185.5t92.5 137.5t133.5 85.5t156.5 29.5z" />
    <glyph glyph-name="H" unicode="H" horiz-adv-x="754" 
d="M644 0h-157l49 277h-302l-49 -277h-156l122 690h156l-51 -290h302l51 290h157z" />
    <glyph glyph-name="I" unicode="I" horiz-adv-x="295" 
d="M29 0l122 690h156l-122 -690h-156z" />
    <glyph glyph-name="J" unicode="J" horiz-adv-x="608" 
d="M542 290q-4 -23 -8 -43.5t-12 -55.5q-10 -45 -31.5 -82.5t-56 -65t-84 -42.5t-116.5 -15q-118 0 -174 64.5t-40 173.5l4 33h157l-4 -33q-8 -69 14.5 -95.5t67.5 -26.5q43 0 69.5 25t39.5 73q5 17 8 34t7 36l73 420h156z" />
    <glyph glyph-name="K" unicode="K" horiz-adv-x="694" 
d="M644 0h-193l-169 275l-58 -53l-39 -222h-156l122 690h156l-56 -314l338 314h187l-374 -336z" />
    <glyph glyph-name="L" unicode="L" horiz-adv-x="607" 
d="M540 0h-511l122 690h156l-99 -558h356z" />
    <glyph glyph-name="M" unicode="M" horiz-adv-x="903" 
d="M793 0h-157l96 533l-229 -533h-184l-41 536l-93 -536h-156l122 690h255l36 -524l212 524h261z" />
    <glyph glyph-name="N" unicode="N" horiz-adv-x="769" 
d="M659 0h-209l-178 494l-87 -494h-156l122 690h201l183 -509l89 509h157z" />
    <glyph glyph-name="O" unicode="O" horiz-adv-x="793" 
d="M462 704q77 0 136 -23t99 -63t61 -95t21 -118q0 -92 -29 -169t-81.5 -132.5t-126 -86.5t-161.5 -31q-76 0 -135.5 23t-99.5 63t-61 95t-21 118q0 93 29 170t81.5 132.5t126 86t161.5 30.5zM390 102q57 0 98.5 27.5t69.5 71t41.5 96.5t13.5 104q0 84 -41 135.5t-119 51.5
q-57 0 -99 -27.5t-69.5 -71t-41 -96.5t-13.5 -104q0 -82 41 -134.5t119 -52.5z" />
    <glyph glyph-name="P" unicode="P" horiz-adv-x="638" 
d="M495 685q33 -4 62.5 -17t51.5 -34.5t35 -52.5t13 -71q0 -58 -20 -103t-52 -76.5t-73.5 -50t-85.5 -23.5q-27 -3 -50 -4t-54 -1h-92l-45 -252h-156l122 690h241q31 0 54 -1t49 -4zM394 377q43 5 70 33.5t27 80.5q0 35 -17 53t-46 21q-11 2 -25 2h-31h-87l-34 -192h87h30.5
t25.5 2z" />
    <glyph glyph-name="Q" unicode="Q" horiz-adv-x="788" 
d="M771 413q0 -99 -36 -179.5t-99 -123.5q26 -8 49 -22.5t48 -36.5l-80 -100q-49 31 -78 43t-61 12q-20 0 -36 -2.5t-37 -8.5q-34 -9 -70 -9q-76 0 -133.5 22t-96.5 61t-58.5 92.5t-19.5 116.5q0 94 28.5 172.5t81 134.5t126 87.5t163.5 31.5q76 0 133.5 -21.5t96.5 -60.5
t59 -92.5t20 -116.5zM229 281q0 -83 38 -131t110 -48q60 0 103 29t71 73.5t41 99t13 105.5q0 83 -38.5 131t-110.5 48q-60 0 -102.5 -29t-70.5 -73.5t-41 -99t-13 -105.5z" />
    <glyph glyph-name="R" unicode="R" horiz-adv-x="655" 
d="M671 535q0 -82 -46.5 -133t-130.5 -72q46 -17 63.5 -63.5t17.5 -138.5q0 -81 21 -128h-170q-2 13 -3.5 27t-2 33t-1.5 43.5t-1 58.5q0 49 -16 77.5t-51 30.5q-14 1 -27.5 1h-27.5h-63l-48 -271h-156l122 690h262q31 0 54 -1t49 -4q32 -4 60.5 -14.5t49.5 -28.5t33 -44.5
t12 -62.5zM389 387q22 2 42 8.5t35.5 19.5t24.5 33t9 48q0 36 -21 51.5t-53 18.5q-11 1 -23.5 1.5t-29.5 0.5h-88l-32 -182h83h29.5t23.5 1z" />
    <glyph glyph-name="S" unicode="S" horiz-adv-x="612" 
d="M375 704q65 0 110 -17t73.5 -46.5t40.5 -70t9 -87.5h-158q3 48 -19.5 76.5t-72.5 28.5q-42 0 -70 -22t-28 -65q0 -32 29 -53.5t101 -38.5q95 -23 139 -70t44 -116q0 -58 -25 -102t-66.5 -74t-96.5 -45.5t-115 -15.5t-109.5 13.5t-83 41t-50 69t-11.5 97.5h158
q1 -54 33.5 -79.5t80.5 -25.5t82 24.5t34 66.5q0 29 -25.5 52.5t-85.5 39.5q-47 12 -84.5 27.5t-63.5 37t-40 50t-14 66.5q0 57 23.5 101.5t63 74.5t91 46t106.5 16z" />
    <glyph glyph-name="T" unicode="T" horiz-adv-x="627" 
d="M458 568l-100 -568h-156l100 568h-230l22 122h616l-23 -122h-229z" />
    <glyph glyph-name="U" unicode="U" horiz-adv-x="710" 
d="M671 306q-5 -29 -9 -49t-11 -47q-12 -50 -35 -91.5t-60.5 -71t-92 -45.5t-129.5 -16q-67 0 -117 15t-83 41.5t-49 63t-16 80.5q0 26 3.5 53.5t11.5 75.5l66 375h156l-74 -420q-4 -21 -5.5 -35.5t-1.5 -29.5q0 -50 33.5 -76.5t87.5 -26.5q60 0 97.5 26t54.5 94
q3 11 5 21.5t5 24.5l74 422h156z" />
    <glyph glyph-name="V" unicode="V" horiz-adv-x="720" 
d="M227 0l-120 690h170l75 -569l278 569h168l-366 -690h-205z" />
    <glyph glyph-name="W" unicode="W" horiz-adv-x="1000" 
d="M783 0h-208l-11 536l-200 -536h-210l-53 690h163l19 -557l195 547h225v-552l207 562h173z" />
    <glyph glyph-name="X" unicode="X" horiz-adv-x="685" 
d="M634 0h-180l-130 247l-194 -247h-188l315 352l-176 338h177l111 -240l194 240h181l-307 -345z" />
    <glyph glyph-name="Y" unicode="Y" horiz-adv-x="658" 
d="M376 0h-157l47 266l-168 424h167l104 -292l197 292h175l-319 -429z" />
    <glyph glyph-name="Z" unicode="Z" horiz-adv-x="634" 
d="M222 123h359l-22 -123h-555l21 119l437 449h-330l22 122h522l-21 -121z" />
    <glyph glyph-name="bracketleft" unicode="[" horiz-adv-x="384" 
d="M433 780l-15 -86h-156l-122 -688h156l-15 -86h-246l152 860h246z" />
    <glyph glyph-name="backslash" unicode="\" horiz-adv-x="335" 
d="M184 -30l-119 750h94l119 -750h-94z" />
    <glyph glyph-name="bracketright" unicode="]" horiz-adv-x="384" 
d="M-29 -80l16 86h156l121 688h-156l16 86h245l-152 -860h-246z" />
    <glyph glyph-name="asciicircum" unicode="^" 
d="M353 529l-177 -314h-101l239 401h105l101 -401h-99z" />
    <glyph glyph-name="underscore" unicode="_" horiz-adv-x="500" 
d="M43 -88l14 86h400l-14 -86h-400z" />
    <glyph glyph-name="grave" unicode="`" horiz-adv-x="300" 
d="M113 572l-116 121h140l62 -121h-86z" />
    <glyph glyph-name="a" unicode="a" horiz-adv-x="568" 
d="M333 547q55 0 93.5 -11t62.5 -30t35 -45.5t11 -57.5q0 -22 -3.5 -46.5t-10.5 -62.5l-28 -159q-5 -30 -8.5 -60t-5.5 -75h-153l2 77l-33 -53q-27 -20 -61.5 -29t-72.5 -9q-31 0 -58 8.5t-47 26.5t-32 44.5t-12 62.5q0 48 24.5 87t70.5 65t113 38.5t151 7.5l1 6
q2 14 3.5 26.5t1.5 25.5q0 23 -13.5 39t-46.5 16q-41 0 -65 -21.5t-34 -61.5h-150q9 46 32.5 81.5t59 60t80 37t93.5 12.5zM354 235q-39 4 -71.5 0.5t-56.5 -14.5t-37.5 -29t-13.5 -43q0 -28 17 -41.5t46 -13.5q16 0 33.5 6.5t32.5 19t27 30.5t16 42v2z" />
    <glyph glyph-name="b" unicode="b" horiz-adv-x="663" 
d="M436 547q100 0 153.5 -55t53.5 -157q0 -67 -19.5 -129.5t-59 -111.5t-98.5 -78.5t-139 -29.5q-33 0 -67 8.5t-51 22.5l-26 58l-13 -75h-157l130 735h157l-50 -281l51 58q25 17 59.5 26t75.5 9zM317 94q36 0 65.5 18t50.5 48.5t32.5 70t11.5 81.5q0 63 -27 95t-75 32
q-27 0 -51.5 -9t-45.5 -28.5t-36.5 -51.5t-23.5 -77l-5 -24l-2 -9l3 9q-5 -30 -3 -57.5t14 -49.5t34 -35t58 -13z" />
    <glyph glyph-name="c" unicode="c" horiz-adv-x="587" 
d="M345 544q60 0 103 -16t71 -44t41.5 -66.5t13.5 -84.5h-153q-1 53 -24 78t-65 25q-33 0 -60 -18t-45.5 -49t-28.5 -72.5t-10 -87.5q0 -57 24.5 -86t60.5 -29q88 0 122 95h156q-37 -101 -108 -152t-183 -51q-51 0 -95 13t-75.5 40.5t-49.5 70t-18 100.5q0 69 23 130
t65 106.5t101.5 71.5t133.5 26z" />
    <glyph glyph-name="d" unicode="d" horiz-adv-x="662" 
d="M556 0h-157l14 79l-50 -58q-25 -17 -59.5 -26t-75.5 -9q-100 0 -153.5 55t-53.5 157q0 67 19.5 130t59 111.5t98.5 78t138 29.5q33 0 67 -8t52 -22l26 -58l48 276h157zM450 285q5 29 2.5 57t-14 49.5t-34 34.5t-57.5 13q-36 0 -65.5 -18t-50.5 -48.5t-32.5 -70
t-11.5 -81.5q0 -63 27 -95t75 -32q53 0 96.5 38t59.5 127v1z" />
    <glyph glyph-name="e" unicode="e" horiz-adv-x="594" 
d="M181 205q0 -60 25 -85.5t65 -25.5q42 0 72 21t43 59h155q-32 -93 -105.5 -140.5t-176.5 -47.5q-49 0 -92 12.5t-75.5 39t-51 68t-18.5 99.5q0 73 22.5 135.5t64 108.5t100 72t130.5 26q59 0 103 -17t73 -46t43 -68.5t14 -83.5q0 -25 -5 -53t-13 -53h-373v-21zM324 439
q-45 0 -76.5 -31.5t-48.5 -82.5h213q1 6 1 10v8q0 45 -22 70.5t-67 25.5z" />
    <glyph glyph-name="f" unicode="f" horiz-adv-x="330" 
d="M281 589q-7 -24 -10 -43l-3 -17h109l-17 -100h-109l-75 -429h-157l76 429h-48l17 100h49l2 14q2 14 5.5 30t7.5 30q20 76 68.5 113.5t121.5 37.5q41 0 64.5 -2t42.5 -5l-19 -106q-9 2 -17.5 3t-16.5 1q-35 0 -58.5 -14.5t-32.5 -41.5z" />
    <glyph glyph-name="g" unicode="g" horiz-adv-x="663" 
d="M580 135q-5 -25 -9.5 -53t-9.5 -50q-27 -128 -107.5 -189t-229.5 -61q-115 0 -176 47t-54 137l1 10h153l-1 -9q-2 -32 25 -50.5t76 -18.5q57 0 98 28t55 88q3 14 6.5 31t6.5 36l1 4l-52 -59q-52 -36 -135 -36q-100 0 -153.5 56t-53.5 152q0 67 19.5 130t59 111.5t98.5 78
t138 29.5q33 0 67 -8t52 -22l26 -58l13 74h157zM289 99q27 0 51.5 8.5t45 27t36 49.5t23.5 76l-1 -7l6 33v-1q5 29 2.5 57t-14 49.5t-34 34.5t-57.5 13q-36 0 -65.5 -18t-50.5 -48.5t-32.5 -70t-11.5 -81.5q0 -63 27 -92.5t75 -29.5z" />
    <glyph glyph-name="h" unicode="h" horiz-adv-x="631" 
d="M436 547q82 0 121.5 -38.5t39.5 -98.5q0 -21 -2.5 -44t-9.5 -60l-55 -306h-156l49 274q5 29 7.5 50t2.5 35q0 36 -17 58t-62 22q-48 -1 -85.5 -46.5t-56.5 -148.5l-42 -244h-157l130 740h157l-51 -286l56 59q30 18 61.5 26t69.5 8z" />
    <glyph glyph-name="i" unicode="i" horiz-adv-x="276" 
d="M222 739q34 0 53.5 -18t19.5 -49q0 -17 -6 -33.5t-18 -29.5t-29.5 -21t-40.5 -8q-34 0 -53.5 18t-19.5 50q0 17 6 33.5t18 29t29.5 20.5t40.5 8zM13 0l95 533h156l-94 -533h-157z" />
    <glyph glyph-name="j" unicode="j" horiz-adv-x="253" 
d="M198 739q38 0 58.5 -18t20.5 -48q0 -46 -24 -69.5t-68 -23.5q-38 0 -58.5 18t-20.5 48q0 46 24 69.5t68 23.5zM154 1q-2 -16 -6 -33.5t-8 -31.5q-16 -68 -67 -107t-154 -39q-31 0 -55 3l19 109q45 -5 69.5 6t33.5 43q4 11 6.5 23.5t5.5 26.5l93 532h157z" />
    <glyph glyph-name="k" unicode="k" horiz-adv-x="610" 
d="M575 0h-190l-131 209l-56 -49l-28 -160h-157l130 735h157l-77 -434l243 232h186l-275 -249z" />
    <glyph glyph-name="l" unicode="l" horiz-adv-x="292" 
d="M198 182q-7 -32 -7 -53q0 -23 12.5 -29t41.5 -4l-18 -99q-20 -3 -40.5 -4.5t-46.5 -1.5q-57 0 -85 18t-28 60q0 20 3 46t10 64l100 556h156z" />
    <glyph glyph-name="m" unicode="m" horiz-adv-x="939" 
d="M748 547q42 0 72 -10.5t49.5 -28t28.5 -41.5t9 -51q0 -21 -3.5 -44.5t-9.5 -56.5l-55 -315h-157l49 275q4 23 7 47t3 43q0 35 -16.5 54.5t-48.5 19.5q-41 0 -74.5 -42t-47.5 -112l-1 -8l-49 -277h-156l48 275q4 26 7 49t3 41q0 35 -17 54.5t-52 19.5q-40 0 -72 -42
t-46 -117v-3l-49 -277h-157l94 533h156l-13 -75l51 58q27 16 55.5 23.5t64.5 7.5q65 0 101 -27.5t46 -69.5l53 60q30 22 60.5 29.5t66.5 7.5z" />
    <glyph glyph-name="n" unicode="n" horiz-adv-x="631" 
d="M436 547q82 0 121.5 -38.5t39.5 -98.5q0 -21 -2.5 -44t-9.5 -60l-55 -306h-156l49 274q5 29 7.5 50t2.5 35q0 36 -17 58t-62 22q-48 -1 -85.5 -46.5t-56.5 -148.5l-42 -244h-157l94 533h156l-14 -79l56 59q30 18 61.5 26t69.5 8z" />
    <glyph glyph-name="o" unicode="o" horiz-adv-x="626" 
d="M350 547q64 0 111.5 -18t79 -49.5t47 -75t15.5 -94.5q0 -62 -20 -120.5t-60.5 -103.5t-101.5 -72.5t-143 -27.5q-64 0 -112 18t-79.5 49.5t-47 75t-15.5 94.5q0 62 20 120.5t60.5 103.5t102 72.5t143.5 27.5zM290 94q37 0 64.5 18.5t46 48.5t27.5 68t9 78q0 57 -24 94.5
t-76 37.5q-36 0 -63.5 -18t-46 -48t-28 -68t-9.5 -78q0 -57 24.5 -95t75.5 -38z" />
    <glyph glyph-name="p" unicode="p" horiz-adv-x="663" 
d="M436 547q100 0 153.5 -55t53.5 -157q0 -67 -19.5 -129.5t-59 -111.5t-98.5 -78.5t-139 -29.5q-33 0 -67 8.5t-51 22.5l-26 58l-48 -271h-157l130 729h156l-14 -79l51 58q25 17 59.5 26t75.5 9zM317 94q36 0 65.5 18t50.5 48.5t32.5 70t11.5 81.5q0 63 -27 95t-75 32
q-27 0 -51.5 -9t-45.5 -28.5t-36.5 -51.5t-23.5 -77l-4 -24q-5 -30 -3 -57.5t14 -49.5t34 -35t58 -13z" />
    <glyph glyph-name="q" unicode="q" horiz-adv-x="663" 
d="M521 -196h-157l49 275l-50 -58q-25 -17 -59.5 -26t-75.5 -9q-100 0 -153.5 55t-53.5 157q0 67 19.5 130t59 111.5t98.5 78t138 29.5q33 0 67 -8t52 -22l26 -58l13 74h157zM450 285q5 29 2.5 57t-14 49.5t-34 34.5t-57.5 13q-36 0 -65.5 -18t-50.5 -48.5t-32.5 -70
t-11.5 -81.5q0 -63 27 -95t75 -32q53 0 96.5 38t59.5 126v2z" />
    <glyph glyph-name="r" unicode="r" horiz-adv-x="393" 
d="M404 547q12 0 21 -1t18 -3l-22 -127q-35 3 -68 -2t-61 -25.5t-49.5 -60t-33.5 -105.5l-39 -223h-157l93 530h157l-18 -100l55 75q23 21 51.5 31.5t52.5 10.5z" />
    <glyph glyph-name="s" unicode="s" horiz-adv-x="499" 
d="M275 544q55 0 94 -13t64.5 -35.5t38.5 -53.5t15 -67h-154q-4 33 -19.5 51t-44.5 18t-44 -14.5t-15 -34.5q0 -14 5 -25t17 -20t32.5 -17.5t50.5 -18.5q78 -26 114 -62.5t36 -98.5q0 -41 -17.5 -73t-49.5 -54.5t-76.5 -34t-97.5 -11.5q-112 0 -171.5 47t-64.5 131h156
q4 -42 28 -59.5t58 -17.5q31 0 51 14t20 42q0 13 -5.5 24t-18.5 21t-35 20t-55 21q-32 11 -58 24t-44.5 30.5t-28.5 41t-10 56.5q0 34 14.5 64.5t43.5 54t71.5 37t99.5 13.5z" />
    <glyph glyph-name="t" unicode="t" horiz-adv-x="372" 
d="M229 205q-5 -22 -6 -34.5t-1 -25.5q0 -33 23.5 -42.5t74.5 -2.5l-18 -101q-54 -12 -110 -12q-73 0 -104 24t-31 73q0 17 2.5 40t8.5 60l43 245h-77l18 100h77l24 134h157l-24 -134h110l-18 -100h-109z" />
    <glyph glyph-name="u" unicode="u" horiz-adv-x="626" 
d="M520 0h-156l14 79l-56 -59q-30 -18 -61.5 -26t-69.5 -8q-81 0 -121 38.5t-40 98.5q0 21 2.5 44t9.5 61l55 305h157l-50 -274q-5 -28 -7.5 -49.5t-2.5 -35.5q0 -35 17.5 -57.5t61.5 -21.5q48 0 86 45.5t56 148.5l43 244h156z" />
    <glyph glyph-name="v" unicode="v" horiz-adv-x="562" 
d="M321 0h-177l-112 533h175l50 -405l193 405h172z" />
    <glyph glyph-name="w" unicode="w" horiz-adv-x="823" 
d="M621 0h-177l-12 388l-148 -388h-177l-75 533h173l15 -395l144 392h188l12 -394l151 397h169z" />
    <glyph glyph-name="x" unicode="x" horiz-adv-x="553" 
d="M506 0h-183l-75 161l-125 -161h-181l238 266l-136 267h183l64 -162l127 162h181l-242 -267z" />
    <glyph glyph-name="y" unicode="y" horiz-adv-x="562" 
d="M321 0q-33 -59 -63.5 -99t-62.5 -65t-67.5 -35.5t-79.5 -10.5q-19 0 -34.5 1.5t-32.5 3.5l17 103q23 -3 46 -3q32 0 56 15.5t44 53.5l6 11l-118 558h175l50 -404l193 404h172z" />
    <glyph glyph-name="z" unicode="z" horiz-adv-x="526" 
d="M185 101h285l-17 -101h-473l16 95l339 333h-257l17 101h443l-18 -100z" />
    <glyph glyph-name="braceleft" unicode="{" horiz-adv-x="398" 
d="M392 694h-20q-22 0 -37.5 -4.5t-25 -18.5t-14 -40.5t-4.5 -70.5q0 -46 -4.5 -82t-16.5 -62t-33.5 -42.5t-55.5 -22.5q69 -15 69 -78q0 -24 -6 -54t-26 -79q-10 -25 -16 -41t-9.5 -27t-4.5 -18t-1 -15q0 -20 15 -26.5t49 -6.5h19l-15 -86h-41q-62 0 -90 28t-28 73
q0 13 1.5 24t5 24.5t10.5 32.5t19 48q15 40 20.5 66.5t5.5 42.5q0 19 -14.5 32.5t-56.5 15.5l14 86q30 2 50 9t31 24t15.5 46.5t4.5 77.5q0 68 8 112t26.5 70.5t50 37t79.5 10.5h41z" />
    <glyph glyph-name="bar" unicode="|" horiz-adv-x="312" 
d="M15 -200l176 1000h101l-176 -1000h-101z" />
    <glyph glyph-name="braceright" unicode="}" horiz-adv-x="398" 
d="M248 441q0 -18 15 -31.5t57 -16.5l-15 -86q-30 -2 -49.5 -9t-31 -24t-15.5 -46.5t-4 -77.5q0 -67 -8 -111.5t-26.5 -71t-50 -37t-79.5 -10.5h-41l15 86h20q22 0 37 4.5t25 18.5t14 40.5t4 70.5q0 47 4.5 83t17 62t34 42t54.5 23q-68 16 -68 77q0 24 6 54t26 79
q10 25 16 41t9.5 27t4.5 18.5t1 14.5q0 20 -15.5 26.5t-48.5 6.5h-19l15 86h41q62 0 90 -28t28 -73q0 -13 -1.5 -24t-5.5 -24.5t-11 -32.5t-18 -48q-16 -40 -21.5 -66t-5.5 -43z" />
    <glyph glyph-name="asciitilde" unicode="~" 
d="M570 394q-16 -88 -55.5 -129.5t-101.5 -41.5q-32 0 -56.5 10.5t-59.5 30.5q-32 19 -50 27t-35 8q-26 0 -39 -19.5t-20 -56.5h-86q15 88 54.5 129.5t101.5 41.5q33 0 58 -11t58 -30q30 -17 48.5 -26t36.5 -9q24 0 38 17t22 59h86z" />
    <glyph glyph-name="exclamdown" unicode="&#xa1;" horiz-adv-x="275" 
d="M150 382q-35 0 -55 18.5t-20 50.5q0 18 6.5 35t18.5 30.5t30 22t42 8.5q35 0 55 -19t20 -51q0 -18 -6.5 -35t-18.5 -30.5t-30 -21.5t-42 -8zM200 331l-89 -488h-147l113 488h123z" />
    <glyph glyph-name="cent" unicode="&#xa2;" 
d="M337 103q52 20 75 86h156q-33 -92 -95 -142.5t-156 -58.5l-14 -78h-90l14 79q-83 12 -135.5 66t-52.5 155q0 65 20 122.5t57 101.5t90 72.5t119 35.5l14 78h90l-14 -80q92 -13 134.5 -69.5t42.5 -137.5h-153q-1 72 -44 93zM205 209q0 -38 11.5 -64t31.5 -39l57 321
q-24 -11 -42.5 -32t-31 -50t-19.5 -63.5t-7 -72.5z" />
    <glyph glyph-name="sterling" unicode="&#xa3;" horiz-adv-x="618" 
d="M298 278q0 -45 -24.5 -88t-81.5 -67h348l-22 -123h-527l19 109q39 7 64 23t40 36.5t21 44.5t6 46q0 18 -4 37h-85l14 80h48q-6 22 -10 45.5t-4 51.5q0 47 17.5 89t51.5 73.5t83 50t113 18.5q63 0 105 -17.5t67.5 -47t37 -66.5t14.5 -76h-158q-2 42 -20.5 66.5t-55.5 24.5
q-45 0 -68.5 -32t-23.5 -75q0 -32 5.5 -54.5t13.5 -50.5h200l-13 -80h-172z" />
    <glyph glyph-name="currency" unicode="&#xa4;" 
d="M484 394q17 -37 17 -79q0 -29 -11 -60t-33 -59l43 -53l-57 -48l-44 51q-20 -11 -44.5 -18t-53.5 -7q-59 0 -100 33l-62 -51l-43 51l63 54q-17 37 -17 79q0 29 10.5 60t31.5 58l-42 52l60 51l42 -50q21 11 45 17.5t53 5.5q59 -1 99 -34l65 54l42 -51zM310 206
q25 0 43.5 9.5t31 24.5t18.5 33.5t6 36.5q0 39 -20.5 62.5t-56.5 23.5q-25 0 -43.5 -9.5t-30.5 -24.5t-18 -33t-6 -36q0 -40 20 -63.5t56 -23.5z" />
    <glyph glyph-name="yen" unicode="&#xa5;" 
d="M558 374l-16 -86h-152l-11 -58h153l-15 -86h-153l-25 -144h-157l25 144h-153l16 86h152l11 58h-153l15 86h110l-119 316h166l80 -308l187 308h161l-230 -316h108z" />
    <glyph glyph-name="brokenbar" unicode="&#xa6;" horiz-adv-x="300" 
d="M112 350l60 340h89l-60 -340h-89zM22 -160l60 340h89l-60 -340h-89z" />
    <glyph glyph-name="section" unicode="&#xa7;" horiz-adv-x="637" 
d="M597 245q0 -47 -30.5 -91t-91.5 -70q21 -34 21 -75q0 -42 -18 -76t-51 -57.5t-79.5 -36.5t-102.5 -13q-93 0 -155 44t-71 135h155q3 -38 25 -58.5t54 -20.5q34 0 57 15.5t23 52.5q0 17 -6.5 31.5t-22 27t-41.5 25t-65 26.5q-76 26 -119 66t-43 106q0 51 28 97.5t89 74.5
q-16 31 -16 75q0 31 15 63t44 58.5t72 43t100 16.5q101 0 151.5 -48.5t59.5 -126.5h-156q-2 37 -18 56t-42 19q-32 0 -47.5 -23t-15.5 -52q0 -35 25 -54.5t87 -37.5q94 -29 139.5 -74t45.5 -118zM293 206q55 -20 95 -42q20 8 33 26t13 45q0 31 -24 51t-81 40q-25 9 -46.5 18
t-40.5 19q-24 -11 -33.5 -31t-9.5 -39q0 -29 24 -49.5t70 -37.5z" />
    <glyph glyph-name="dieresis" unicode="&#xa8;" horiz-adv-x="300" 
d="M58 705q28 0 44 -14.5t16 -40.5q0 -37 -24 -57t-51 -20q-61 0 -61 55q0 36 24.5 56.5t51.5 20.5zM245 705q28 0 44 -14.5t16 -40.5q0 -37 -24.5 -57t-51.5 -20q-29 0 -44.5 14.5t-15.5 40.5q0 36 24.5 56.5t51.5 20.5z" />
    <glyph glyph-name="copyright" unicode="&#xa9;" horiz-adv-x="855" 
d="M427 755q89 0 163.5 -29.5t128.5 -83t84.5 -127t30.5 -160.5t-30.5 -160.5t-84.5 -127t-128.5 -83t-163.5 -29.5q-88 0 -162.5 29.5t-128.5 83t-84.5 127t-30.5 160.5t30.5 160.5t84.5 127t128.5 83t162.5 29.5zM427 669q-67 0 -123.5 -23.5t-98 -65.5t-64.5 -99.5
t-23 -125.5t23 -125t64.5 -98.5t98 -65t123.5 -23.5q68 0 124.5 23.5t98 65t64.5 98.5t23 125t-23 125.5t-64.5 99.5t-98 65.5t-124.5 23.5zM436 583q94 0 146.5 -50t60.5 -131h-133q-4 40 -22.5 64t-56.5 24q-44 0 -63 -35.5t-19 -98.5q0 -69 22.5 -103t62.5 -34
q29 0 50.5 21.5t24.5 66.5h133q-13 -82 -65 -131.5t-149 -49.5q-48 0 -88.5 15.5t-69.5 45t-45 72t-16 96.5q0 52 16 94t46 72t72 46t93 16z" />
    <glyph glyph-name="guillemotleft" unicode="&#xab;" horiz-adv-x="644" 
d="M330 82h-111l-108 166l166 166h126l-175 -175zM550 82h-111l-108 166l166 166h126l-175 -175z" />
    <glyph glyph-name="logicalnot" unicode="&#xac;" 
d="M406 182l22 127h-312l16 86h401l-38 -213h-89z" />
    <glyph glyph-name="registered" unicode="&#xae;" horiz-adv-x="492" 
d="M272 764q45 0 80.5 -15t59.5 -40.5t37 -59t13 -71.5q0 -48 -17.5 -90.5t-49 -74.5t-76.5 -50.5t-99 -18.5q-45 0 -80.5 15t-59.5 40.5t-37 59t-13 71.5q0 47 17.5 89.5t49 74.5t76.5 51t99 19zM230 398q42 0 74 14t54.5 38t34 56.5t11.5 69.5q0 60 -37 97.5t-104 37.5
q-42 0 -74.5 -14t-55 -38.5t-34 -57t-11.5 -69.5q0 -60 37 -97t105 -37zM281 664q30 -3 46.5 -17.5t16.5 -38.5q0 -44 -53 -56q26 -8 26 -44q-1 -14 1 -27t9 -27h-65q-2 11 -3.5 22t-0.5 24q0 23 -24 23h-16l-12 -69h-57l37 211h68h14t13 -1zM240 568h10t9 1q24 5 24 29
q0 19 -17 22q-5 1 -8.5 1h-9.5h-12l-10 -53h14z" />
    <glyph glyph-name="macron" unicode="&#xaf;" horiz-adv-x="300" 
d="M0 588l15 85h285l-15 -85h-285z" />
    <glyph glyph-name="degree" unicode="&#xb0;" horiz-adv-x="319" 
d="M236 749q57 0 90 -33t33 -84q0 -32 -12 -59t-32 -46t-47.5 -29.5t-58.5 -10.5q-59 0 -91.5 33t-32.5 84q0 33 11.5 59.5t32 45.5t48 29.5t59.5 10.5zM228 669q-24 0 -40 -15.5t-16 -41.5q0 -22 12.5 -33.5t30.5 -11.5q25 0 41 16t16 41q0 23 -12.5 34t-31.5 11z" />
    <glyph glyph-name="plusminus" unicode="&#xb1;" 
d="M521 275h-158l-27 -153h-89l27 153h-158l16 86h157l27 151h89l-27 -151h159zM487 80l-14 -80h-405l14 80h405z" />
    <glyph glyph-name="acute" unicode="&#xb4;" horiz-adv-x="300" 
d="M90 572l105 121h140l-159 -121h-86z" />
    <glyph glyph-name="paragraph" unicode="&#xb6;" horiz-adv-x="605" 
d="M479 -110h-90l127 714h-108l-127 -714h-89l76 430h-6h-28.5t-27.5 1q-32 2 -56 16.5t-40 36.5t-24 50t-8 57q0 32 11 67.5t34.5 65.5t60 51t87.5 24q14 1 28.5 1h28.5h293z" />
    <glyph glyph-name="periodcentered" unicode="&#xb7;" horiz-adv-x="261" 
d="M155 397q33 0 55.5 -18t22.5 -53q0 -51 -31.5 -82t-79.5 -31q-32 0 -54.5 18.5t-22.5 53.5q0 51 31 81.5t79 30.5z" />
    <glyph glyph-name="cedilla" unicode="&#xb8;" horiz-adv-x="300" 
d="M176 -42q80 -12 80 -70q0 -26 -12 -44.5t-33 -30.5t-48.5 -17.5t-57.5 -5.5q-54 0 -78 7l12 62q14 -5 27.5 -6t27.5 -1q32 0 49 9t17 25q0 19 -25.5 25.5t-65.5 2.5l63 95h79z" />
    <glyph glyph-name="guillemotright" unicode="&#xbb;" horiz-adv-x="653" 
d="M141 82h-127l175 175l-102 157h112l108 -166zM361 82h-127l175 175l-102 157h112l108 -166z" />
    <glyph glyph-name="questiondown" unicode="&#xbf;" horiz-adv-x="521" 
d="M264 382q-35 0 -55 18.5t-20 50.5q0 18 6.5 35t18.5 30.5t30 22t42 8.5q35 0 55 -19t20 -51q0 -18 -6.5 -35t-18.5 -30.5t-30 -21.5t-42 -8zM156 -171q-100 0 -153.5 42t-53.5 116q0 34 7.5 61.5t24.5 53t44 51t67 55.5q22 17 37.5 31t27 28t19 29.5t13.5 34.5h131
q-6 -28 -13.5 -49.5t-19 -40t-27.5 -36t-38 -37.5q-31 -28 -51.5 -49.5t-32.5 -39.5t-17 -34.5t-5 -34.5q0 -65 71 -65q38 0 66 26t39 83h158q-10 -53 -35.5 -94.5t-64 -70.5t-87.5 -44.5t-107 -15.5z" />
    <glyph glyph-name="Agrave" unicode="&#xc0;" horiz-adv-x="692" 
d="M294 853h140l62 -118h-86zM228 195l-97 -195h-168l366 690h205l120 -690h-170l-28 195h-228zM404 548l-115 -230h148z" />
    <glyph glyph-name="Aacute" unicode="&#xc1;" horiz-adv-x="692" 
d="M393 735l102 118h140l-156 -118h-86zM228 195l-97 -195h-168l366 690h205l120 -690h-170l-28 195h-228zM404 548l-115 -230h148z" />
    <glyph glyph-name="Acircumflex" unicode="&#xc2;" horiz-adv-x="692" 
d="M315 735l84 118h127l42 -118h-94l-20 68l-45 -68h-94zM228 195l-97 -195h-168l366 690h205l120 -690h-170l-28 195h-228zM404 548l-115 -230h148z" />
    <glyph glyph-name="Atilde" unicode="&#xc3;" horiz-adv-x="692" 
d="M397 772q-18 0 -22 -28h-82q11 63 32 90.5t62 27.5q17 0 33.5 -3.5t44.5 -15.5q17 -7 27.5 -9.5t18.5 -2.5q15 0 21 28h81q-11 -63 -32 -90.5t-62 -27.5q-16 0 -32.5 3t-45.5 16q-16 7 -26 9.5t-18 2.5zM228 195l-97 -195h-168l366 690h205l120 -690h-170l-28 195h-228z
M404 548l-115 -230h148z" />
    <glyph glyph-name="Adieresis" unicode="&#xc4;" horiz-adv-x="692" 
d="M351 726q-29 0 -45 14.5t-16 40.5q0 37 24.5 57t51.5 20q28 0 44 -14.5t16 -40.5q0 -36 -24 -56.5t-51 -20.5zM536 726q-29 0 -45 14.5t-16 40.5q0 37 24.5 57t51.5 20q28 0 44 -14.5t16 -40.5q0 -36 -24 -56.5t-51 -20.5zM228 195l-97 -195h-168l366 690h205l120 -690
h-170l-28 195h-228zM404 548l-115 -230h148z" />
    <glyph glyph-name="Aring" unicode="&#xc5;" horiz-adv-x="692" 
d="M441 721q-45 0 -72 24.5t-27 60.5q0 51 36 81.5t93 30.5q45 0 72 -25t27 -61q0 -51 -36 -81t-93 -30zM463 859q-18 0 -31.5 -13t-13.5 -36q0 -14 8.5 -22.5t22.5 -8.5q18 0 31.5 13.5t13.5 35.5q0 14 -8.5 22.5t-22.5 8.5zM228 195l-97 -195h-168l366 690h205l120 -690
h-170l-28 195h-228zM404 548l-115 -230h148z" />
    <glyph glyph-name="AE" unicode="&#xc6;" horiz-adv-x="980" 
d="M607 407h334l-22 -122h-321l-12 -162h337l-22 -123h-481l17 218h-205l-148 -218h-171l494 690h606l-22 -122h-372zM463 558l-148 -218h131z" />
    <glyph glyph-name="Ccedilla" unicode="&#xc7;" horiz-adv-x="755" 
d="M461 704q72 0 124.5 -18t86.5 -50.5t49 -76t11 -94.5l-1 -10h-156v10q-2 64 -34.5 93.5t-95.5 29.5q-45 0 -85 -21t-69 -60.5t-46 -96t-17 -127.5q0 -48 10.5 -82.5t28.5 -56.5t42.5 -32t53.5 -10q61 0 103 34.5t65 96.5l4 10h156l-3 -10q-33 -119 -122 -183t-222 -64
q-64 0 -116.5 19t-89.5 55t-56.5 89t-19.5 122q0 99 31.5 179t86 136.5t127 87t154.5 30.5zM76 -42q80 -12 80 -70q0 -26 -12 -44.5t-33 -30.5t-48.5 -17.5t-57.5 -5.5q-54 0 -78 7l11 62q15 -5 28.5 -6t27.5 -1q32 0 49 9t17 25q0 19 -25.5 25.5t-66.5 2.5l64 95h79z" />
    <glyph glyph-name="Egrave" unicode="&#xc8;" horiz-adv-x="619" 
d="M265 853h140l62 -118h-86zM257 407h323l-22 -122h-323l-28 -162h355l-22 -123h-511l122 690h501l-22 -122h-345z" />
    <glyph glyph-name="Eacute" unicode="&#xc9;" horiz-adv-x="619" 
d="M364 735l102 118h140l-156 -118h-86zM257 407h323l-22 -122h-323l-28 -162h355l-22 -123h-511l122 690h501l-22 -122h-345z" />
    <glyph glyph-name="Ecircumflex" unicode="&#xca;" horiz-adv-x="619" 
d="M287 735l84 118h127l42 -118h-94l-20 68l-45 -68h-94zM257 407h323l-22 -122h-323l-28 -162h355l-22 -123h-511l122 690h501l-22 -122h-345z" />
    <glyph glyph-name="Edieresis" unicode="&#xcb;" horiz-adv-x="619" 
d="M322 726q-29 0 -45 14.5t-16 40.5q0 37 24.5 57t51.5 20q28 0 44 -14.5t16 -40.5q0 -36 -24 -56.5t-51 -20.5zM507 726q-29 0 -45 14.5t-16 40.5q0 37 24.5 57t51.5 20q28 0 44 -14.5t16 -40.5q0 -36 -24 -56.5t-51 -20.5zM257 407h323l-22 -122h-323l-28 -162h355
l-22 -123h-511l122 690h501l-22 -122h-345z" />
    <glyph glyph-name="Igrave" unicode="&#xcc;" horiz-adv-x="295" 
d="M205 735l-116 118h140l62 -118h-86zM29 0l122 690h156l-122 -690h-156z" />
    <glyph glyph-name="Iacute" unicode="&#xcd;" horiz-adv-x="295" 
d="M188 735l102 118h140l-156 -118h-86zM29 0l122 690h156l-122 -690h-156z" />
    <glyph glyph-name="Icircumflex" unicode="&#xce;" horiz-adv-x="295" 
d="M111 735l84 118h127l42 -118h-94l-20 68l-45 -68h-94zM307 690l-122 -690h-156l122 690h156z" />
    <glyph glyph-name="Idieresis" unicode="&#xcf;" horiz-adv-x="295" 
d="M162 858q28 0 44 -14.5t16 -40.5q0 -36 -24 -56.5t-51 -20.5q-29 0 -45 14.5t-16 40.5q0 37 24.5 57t51.5 20zM347 858q28 0 44 -14.5t16 -40.5q0 -36 -24 -56.5t-51 -20.5q-29 0 -45 14.5t-16 40.5q0 37 24.5 57t51.5 20zM29 0l122 690h156l-122 -690h-156z" />
    <glyph glyph-name="Eth" unicode="&#xd0;" horiz-adv-x="734" 
d="M477 686q51 -6 95.5 -26t77.5 -55.5t51.5 -87.5t18.5 -121q0 -73 -22 -140.5t-67 -121t-113 -88t-159 -43.5q-27 -2 -44.5 -2.5t-44.5 -0.5h-241l52 296h-68l15 86h69l54 308h232q28 0 48 -0.5t46 -3.5zM348 125q53 6 92 30t64.5 60t37.5 81.5t12 95.5q0 85 -35.5 126
t-95.5 47q-17 2 -32 2.5t-35 0.5h-70l-33 -186h106l-15 -86h-106l-31 -173h72h36.5t32.5 2z" />
    <glyph glyph-name="Ntilde" unicode="&#xd1;" horiz-adv-x="769" 
d="M433 772q-18 0 -22 -28h-82q11 63 32 90.5t62 27.5q17 0 33.5 -3.5t44.5 -15.5q17 -7 27.5 -9.5t18.5 -2.5q15 0 21 28h81q-11 -63 -32 -90.5t-62 -27.5q-16 0 -32.5 3t-45.5 16q-16 7 -26 9.5t-18 2.5zM659 0h-209l-178 494l-87 -494h-156l122 690h201l183 -509l89 509
h157z" />
    <glyph glyph-name="Ograve" unicode="&#xd2;" horiz-adv-x="793" 
d="M345 853h140l62 -118h-86zM462 704q77 0 136 -23t99 -63t61 -95t21 -118q0 -92 -29 -169t-81.5 -132.5t-126 -86.5t-161.5 -31q-76 0 -135.5 23t-99.5 63t-61 95t-21 118q0 93 29 170t81.5 132.5t126 86t161.5 30.5zM390 102q57 0 98.5 27.5t69.5 71t41.5 96.5t13.5 104
q0 84 -41 135.5t-119 51.5q-57 0 -99 -27.5t-69.5 -71t-41 -96.5t-13.5 -104q0 -82 41 -134.5t119 -52.5z" />
    <glyph glyph-name="Oacute" unicode="&#xd3;" horiz-adv-x="793" 
d="M444 735l102 118h140l-156 -118h-86zM462 704q77 0 136 -23t99 -63t61 -95t21 -118q0 -92 -29 -169t-81.5 -132.5t-126 -86.5t-161.5 -31q-76 0 -135.5 23t-99.5 63t-61 95t-21 118q0 93 29 170t81.5 132.5t126 86t161.5 30.5zM390 102q57 0 98.5 27.5t69.5 71t41.5 96.5
t13.5 104q0 84 -41 135.5t-119 51.5q-57 0 -99 -27.5t-69.5 -71t-41 -96.5t-13.5 -104q0 -82 41 -134.5t119 -52.5z" />
    <glyph glyph-name="Ocircumflex" unicode="&#xd4;" horiz-adv-x="793" 
d="M366 735l84 118h127l42 -118h-94l-20 68l-45 -68h-94zM462 704q77 0 136 -23t99 -63t61 -95t21 -118q0 -92 -29 -169t-81.5 -132.5t-126 -86.5t-161.5 -31q-76 0 -135.5 23t-99.5 63t-61 95t-21 118q0 93 29 170t81.5 132.5t126 86t161.5 30.5zM390 102q57 0 98.5 27.5
t69.5 71t41.5 96.5t13.5 104q0 84 -41 135.5t-119 51.5q-57 0 -99 -27.5t-69.5 -71t-41 -96.5t-13.5 -104q0 -82 41 -134.5t119 -52.5z" />
    <glyph glyph-name="Otilde" unicode="&#xd5;" horiz-adv-x="793" 
d="M448 772q-18 0 -22 -28h-82q11 63 32 90.5t62 27.5q17 0 33.5 -3.5t44.5 -15.5q17 -7 27.5 -9.5t18.5 -2.5q15 0 21 28h81q-11 -63 -32 -90.5t-62 -27.5q-16 0 -32.5 3t-45.5 16q-16 7 -26 9.5t-18 2.5zM462 704q77 0 136 -23t99 -63t61 -95t21 -118q0 -92 -29 -169
t-81.5 -132.5t-126 -86.5t-161.5 -31q-76 0 -135.5 23t-99.5 63t-61 95t-21 118q0 93 29 170t81.5 132.5t126 86t161.5 30.5zM390 102q57 0 98.5 27.5t69.5 71t41.5 96.5t13.5 104q0 84 -41 135.5t-119 51.5q-57 0 -99 -27.5t-69.5 -71t-41 -96.5t-13.5 -104
q0 -82 41 -134.5t119 -52.5z" />
    <glyph glyph-name="Odieresis" unicode="&#xd6;" horiz-adv-x="793" 
d="M402 726q-29 0 -45 14.5t-16 40.5q0 37 24.5 57t51.5 20q28 0 44 -14.5t16 -40.5q0 -36 -24 -56.5t-51 -20.5zM587 726q-29 0 -45 14.5t-16 40.5q0 37 24.5 57t51.5 20q28 0 44 -14.5t16 -40.5q0 -36 -24 -56.5t-51 -20.5zM462 704q77 0 136 -23t99 -63t61 -95t21 -118
q0 -92 -29 -169t-81.5 -132.5t-126 -86.5t-161.5 -31q-76 0 -135.5 23t-99.5 63t-61 95t-21 118q0 93 29 170t81.5 132.5t126 86t161.5 30.5zM390 102q57 0 98.5 27.5t69.5 71t41.5 96.5t13.5 104q0 84 -41 135.5t-119 51.5q-57 0 -99 -27.5t-69.5 -71t-41 -96.5t-13.5 -104
q0 -82 41 -134.5t119 -52.5z" />
    <glyph glyph-name="multiply" unicode="&#xd7;" 
d="M506 183l-75 -63l-113 137l-167 -142l-61 73l168 143l-113 137l74 63l113 -137l167 141l61 -73l-167 -142z" />
    <glyph glyph-name="Oslash" unicode="&#xd8;" horiz-adv-x="789" 
d="M738 566q42 -69 42 -161t-29 -169t-82 -132.5t-126 -86.5t-162 -31q-75 0 -132.5 22t-97.5 60l-88 -75l-52 63l90 76q-37 69 -37 153q0 93 29 170t82 132.5t126.5 86t161.5 30.5q72 0 127.5 -20t95.5 -55l80 68l52 -63zM230 289q0 -23 3 -44l341 289q-20 26 -50 40
t-70 14q-57 0 -99 -27.5t-70 -71t-41.5 -96.5t-13.5 -104zM614 401q0 15 -1.5 28.5t-3.5 26.5l-345 -292q20 -29 51.5 -45.5t74.5 -16.5q57 0 99 27.5t70 71t41.5 96.5t13.5 104z" />
    <glyph glyph-name="Ugrave" unicode="&#xd9;" horiz-adv-x="710" 
d="M420 735l-116 118h140l62 -118h-86zM671 306q-5 -29 -9 -49t-11 -47q-12 -50 -35 -91.5t-60.5 -71t-92 -45.5t-129.5 -16q-67 0 -117 15t-83 41.5t-49 63t-16 80.5q0 26 3.5 53.5t11.5 75.5l66 375h156l-74 -420q-4 -21 -5.5 -35.5t-1.5 -29.5q0 -50 33.5 -76.5
t87.5 -26.5q60 0 97.5 26t54.5 94q3 11 5 21.5t5 24.5l74 422h156z" />
    <glyph glyph-name="Uacute" unicode="&#xda;" horiz-adv-x="710" 
d="M403 735l102 118h140l-156 -118h-86zM671 306q-5 -29 -9 -49t-11 -47q-12 -50 -35 -91.5t-60.5 -71t-92 -45.5t-129.5 -16q-67 0 -117 15t-83 41.5t-49 63t-16 80.5q0 26 3.5 53.5t11.5 75.5l66 375h156l-74 -420q-4 -21 -5.5 -35.5t-1.5 -29.5q0 -50 33.5 -76.5
t87.5 -26.5q60 0 97.5 26t54.5 94q3 11 5 21.5t5 24.5l74 422h156z" />
    <glyph glyph-name="Ucircumflex" unicode="&#xdb;" horiz-adv-x="710" 
d="M326 735l84 118h127l42 -118h-94l-20 68l-45 -68h-94zM671 306q-5 -29 -9 -49t-11 -47q-12 -50 -35 -91.5t-60.5 -71t-92 -45.5t-129.5 -16q-67 0 -117 15t-83 41.5t-49 63t-16 80.5q0 26 3.5 53.5t11.5 75.5l66 375h156l-74 -420q-4 -21 -5.5 -35.5t-1.5 -29.5
q0 -50 33.5 -76.5t87.5 -26.5q60 0 97.5 26t54.5 94q3 11 5 21.5t5 24.5l74 422h156z" />
    <glyph glyph-name="Udieresis" unicode="&#xdc;" horiz-adv-x="710" 
d="M377 858q28 0 44 -14.5t16 -40.5q0 -36 -24 -56.5t-51 -20.5q-29 0 -45 14.5t-16 40.5q0 37 24.5 57t51.5 20zM562 858q28 0 44 -14.5t16 -40.5q0 -36 -24 -56.5t-51 -20.5q-29 0 -45 14.5t-16 40.5q0 37 24.5 57t51.5 20zM671 306q-5 -29 -9 -49t-11 -47
q-12 -50 -35 -91.5t-60.5 -71t-92 -45.5t-129.5 -16q-67 0 -117 15t-83 41.5t-49 63t-16 80.5q0 26 3.5 53.5t11.5 75.5l66 375h156l-74 -420q-4 -21 -5.5 -35.5t-1.5 -29.5q0 -50 33.5 -76.5t87.5 -26.5q60 0 97.5 26t54.5 94q3 11 5 21.5t5 24.5l74 422h156z" />
    <glyph glyph-name="Yacute" unicode="&#xdd;" horiz-adv-x="658" 
d="M379 735l102 118h140l-156 -118h-86zM376 0h-157l47 266l-168 424h167l104 -292l197 292h175l-319 -429z" />
    <glyph glyph-name="Thorn" unicode="&#xde;" horiz-adv-x="638" 
d="M494 597q64 -7 106.5 -45.5t42.5 -112.5q0 -11 -1 -22.5t-3 -23.5q-9 -48 -29.5 -84.5t-49.5 -61.5t-64.5 -39.5t-73.5 -19.5q-27 -3 -50 -4t-54 -1h-101l-32 -183h-156l122 690h156l-16 -88h100q31 0 54 -1t49 -4zM475 393q1 5 1.5 9.5t0.5 9.5q0 31 -18 46t-49 19
q-10 2 -23.5 2h-30.5h-86l-31 -173h87q17 0 30.5 0.5t24.5 1.5q35 5 60.5 24t33.5 61z" />
    <glyph glyph-name="germandbls" unicode="&#xdf;" horiz-adv-x="631" 
d="M410 754q55 0 97 -12.5t70 -35t42 -53t14 -66.5q0 -29 -10.5 -58.5t-36.5 -62.5q-38 -18 -54.5 -36.5t-16.5 -44.5q0 -18 8.5 -36.5t28.5 -41.5q32 -35 44.5 -66.5t12.5 -66.5q0 -36 -14 -68.5t-43 -56.5t-72 -38.5t-102 -14.5q-42 0 -69.5 2.5t-56.5 9.5l21 117
q32 -8 51.5 -10.5t36.5 -2.5q42 0 62 19.5t20 48.5q0 36 -35 78q-28 34 -42 61t-14 65q0 42 23.5 73t72.5 57q11 18 15 31.5t4 26.5q0 31 -19 48.5t-61 17.5q-59 0 -90 -45t-48 -142l-79 -451h-157l78 443q13 74 33.5 132t57 98t91.5 60.5t137 20.5z" />
    <glyph glyph-name="agrave" unicode="&#xe0;" horiz-adv-x="568" 
d="M200 693h140l62 -121h-86zM333 547q55 0 93.5 -11t62.5 -30t35 -45.5t11 -57.5q0 -22 -3.5 -46.5t-10.5 -62.5l-28 -159q-5 -30 -8.5 -60t-5.5 -75h-153l2 77l-33 -53q-27 -20 -61.5 -29t-72.5 -9q-31 0 -58 8.5t-47 26.5t-32 44.5t-12 62.5q0 48 24.5 87t70.5 65
t113 38.5t151 7.5l1 6q2 14 3.5 26.5t1.5 25.5q0 23 -13.5 39t-46.5 16q-41 0 -65 -21.5t-34 -61.5h-150q9 46 32.5 81.5t59 60t80 37t93.5 12.5zM354 235q-39 4 -71.5 0.5t-56.5 -14.5t-37.5 -29t-13.5 -43q0 -28 17 -41.5t46 -13.5q16 0 33.5 6.5t32.5 19t27 30.5t16 42v2
z" />
    <glyph glyph-name="aacute" unicode="&#xe1;" horiz-adv-x="568" 
d="M293 572l105 121h140l-159 -121h-86zM333 547q55 0 93.5 -11t62.5 -30t35 -45.5t11 -57.5q0 -22 -3.5 -46.5t-10.5 -62.5l-28 -159q-5 -30 -8.5 -60t-5.5 -75h-153l2 77l-33 -53q-27 -20 -61.5 -29t-72.5 -9q-31 0 -58 8.5t-47 26.5t-32 44.5t-12 62.5q0 48 24.5 87
t70.5 65t113 38.5t151 7.5l1 6q2 14 3.5 26.5t1.5 25.5q0 23 -13.5 39t-46.5 16q-41 0 -65 -21.5t-34 -61.5h-150q9 46 32.5 81.5t59 60t80 37t93.5 12.5zM354 235q-39 4 -71.5 0.5t-56.5 -14.5t-37.5 -29t-13.5 -43q0 -28 17 -41.5t46 -13.5q16 0 33.5 6.5t32.5 19t27 30.5
t16 42v2z" />
    <glyph glyph-name="acircumflex" unicode="&#xe2;" horiz-adv-x="568" 
d="M220 572l85 121h126l42 -121h-94l-20 72l-46 -72h-93zM333 547q55 0 93.5 -11t62.5 -30t35 -45.5t11 -57.5q0 -22 -3.5 -46.5t-10.5 -62.5l-28 -159q-5 -30 -8.5 -60t-5.5 -75h-153l2 77l-33 -53q-27 -20 -61.5 -29t-72.5 -9q-31 0 -58 8.5t-47 26.5t-32 44.5t-12 62.5
q0 48 24.5 87t70.5 65t113 38.5t151 7.5l1 6q2 14 3.5 26.5t1.5 25.5q0 23 -13.5 39t-46.5 16q-41 0 -65 -21.5t-34 -61.5h-150q9 46 32.5 81.5t59 60t80 37t93.5 12.5zM354 235q-39 4 -71.5 0.5t-56.5 -14.5t-37.5 -29t-13.5 -43q0 -28 17 -41.5t46 -13.5q16 0 33.5 6.5
t32.5 19t27 30.5t16 42v2z" />
    <glyph glyph-name="atilde" unicode="&#xe3;" horiz-adv-x="568" 
d="M298 607q-18 0 -22 -28h-82q11 63 32 90.5t62 27.5q17 0 33.5 -3.5t44.5 -15.5q17 -7 27.5 -9.5t18.5 -2.5q15 0 21 28h81q-11 -63 -32 -90.5t-62 -27.5q-16 0 -32.5 3t-45.5 16q-16 7 -26 9.5t-18 2.5zM333 547q55 0 93.5 -11t62.5 -30t35 -45.5t11 -57.5
q0 -22 -3.5 -46.5t-10.5 -62.5l-28 -159q-5 -30 -8.5 -60t-5.5 -75h-153l2 77l-33 -53q-27 -20 -61.5 -29t-72.5 -9q-31 0 -58 8.5t-47 26.5t-32 44.5t-12 62.5q0 48 24.5 87t70.5 65t113 38.5t151 7.5l1 6q2 14 3.5 26.5t1.5 25.5q0 23 -13.5 39t-46.5 16q-41 0 -65 -21.5
t-34 -61.5h-150q9 46 32.5 81.5t59 60t80 37t93.5 12.5zM354 235q-39 4 -71.5 0.5t-56.5 -14.5t-37.5 -29t-13.5 -43q0 -28 17 -41.5t46 -13.5q16 0 33.5 6.5t32.5 19t27 30.5t16 42v2z" />
    <glyph glyph-name="adieresis" unicode="&#xe4;" horiz-adv-x="568" 
d="M249 573q-61 0 -61 55q0 36 24.5 56.5t51.5 20.5q28 0 44 -14.5t16 -40.5q0 -37 -24 -57t-51 -20zM435 573q-29 0 -44.5 14.5t-15.5 40.5q0 36 24.5 56.5t51.5 20.5q28 0 44 -14.5t16 -40.5q0 -37 -24.5 -57t-51.5 -20zM333 547q55 0 93.5 -11t62.5 -30t35 -45.5
t11 -57.5q0 -22 -3.5 -46.5t-10.5 -62.5l-28 -159q-5 -30 -8.5 -60t-5.5 -75h-153l2 77l-33 -53q-27 -20 -61.5 -29t-72.5 -9q-31 0 -58 8.5t-47 26.5t-32 44.5t-12 62.5q0 48 24.5 87t70.5 65t113 38.5t151 7.5l1 6q2 14 3.5 26.5t1.5 25.5q0 23 -13.5 39t-46.5 16
q-41 0 -65 -21.5t-34 -61.5h-150q9 46 32.5 81.5t59 60t80 37t93.5 12.5zM354 235q-39 4 -71.5 0.5t-56.5 -14.5t-37.5 -29t-13.5 -43q0 -28 17 -41.5t46 -13.5q16 0 33.5 6.5t32.5 19t27 30.5t16 42v2z" />
    <glyph glyph-name="aring" unicode="&#xe5;" horiz-adv-x="568" 
d="M344 567q-46 0 -72.5 22.5t-26.5 63.5q0 50 35.5 83t95.5 33q45 0 71 -22.5t26 -63.5q0 -51 -35.5 -83.5t-93.5 -32.5zM366 711q-24 0 -34.5 -18.5t-10.5 -35.5q0 -32 31 -32q24 0 34.5 18.5t10.5 35.5q0 32 -31 32zM333 547q55 0 93.5 -11t62.5 -30t35 -45.5t11 -57.5
q0 -22 -3.5 -46.5t-10.5 -62.5l-28 -159q-5 -30 -8.5 -60t-5.5 -75h-153l2 77l-33 -53q-27 -20 -61.5 -29t-72.5 -9q-31 0 -58 8.5t-47 26.5t-32 44.5t-12 62.5q0 48 24.5 87t70.5 65t113 38.5t151 7.5l1 6q2 14 3.5 26.5t1.5 25.5q0 23 -13.5 39t-46.5 16q-41 0 -65 -21.5
t-34 -61.5h-150q9 46 32.5 81.5t59 60t80 37t93.5 12.5zM354 235q-39 4 -71.5 0.5t-56.5 -14.5t-37.5 -29t-13.5 -43q0 -28 17 -41.5t46 -13.5q16 0 33.5 6.5t32.5 19t27 30.5t16 42v2z" />
    <glyph glyph-name="ae" unicode="&#xe6;" horiz-adv-x="958" 
d="M544 226q-1 -7 -1.5 -13t-0.5 -11q0 -61 25.5 -84.5t64.5 -23.5q42 0 72.5 21t43.5 59h155q-38 -93 -116 -140.5t-176 -47.5q-70 0 -120.5 27t-74.5 85l-60 -69q-36 -23 -76 -33t-83 -10q-87 0 -136 37t-49 102q0 39 17.5 75.5t56.5 64t101.5 44t152.5 16.5h49
q3 18 4 27.5t1 17.5q0 33 -16.5 49.5t-54.5 16.5t-65.5 -21.5t-37.5 -61.5h-150q9 46 33.5 81.5t60.5 60t81.5 37t94.5 12.5q41 0 70.5 -7t50 -19t33 -28.5t18.5 -34.5q40 45 95.5 67t119.5 22q53 0 92 -16.5t65 -45t39 -67t13 -82.5q0 -26 -5 -54t-13 -53h-374zM694 436
q-42 0 -75 -26.5t-53 -84.5h210q2 49 -16 80t-66 31zM375 226q-12 1 -22.5 1h-20.5q-78 0 -116.5 -19t-38.5 -64q0 -50 70 -50q45 0 80 30.5t44 81.5z" />
    <glyph glyph-name="ccedilla" unicode="&#xe7;" horiz-adv-x="587" 
d="M273 94q88 0 122 95h156q-35 -96 -100.5 -146.5t-167.5 -55.5l-20 -29q80 -12 80 -70q0 -26 -12 -44.5t-33 -30.5t-48.5 -17.5t-57.5 -5.5q-54 0 -78 7l12 62q14 -5 27.5 -6t27.5 -1q32 0 49 9t17 25q0 19 -25.5 25.5t-65.5 2.5l50 76q-82 12 -133 66t-51 154
q0 69 23 130t65 106.5t101.5 71.5t133.5 26q60 0 103 -16t71 -44t41.5 -66.5t13.5 -84.5h-153q-1 53 -24 78t-65 25q-33 0 -60 -18t-45.5 -49t-28.5 -72.5t-10 -87.5q0 -57 24.5 -86t60.5 -29z" />
    <glyph glyph-name="egrave" unicode="&#xe8;" horiz-adv-x="594" 
d="M214 693h140l62 -121h-86zM181 205q0 -60 25 -85.5t65 -25.5q42 0 72 21t43 59h155q-32 -93 -105.5 -140.5t-176.5 -47.5q-49 0 -92 12.5t-75.5 39t-51 68t-18.5 99.5q0 73 22.5 135.5t64 108.5t100 72t130.5 26q59 0 103 -17t73 -46t43 -68.5t14 -83.5q0 -25 -5 -53
t-13 -53h-373v-21zM324 439q-45 0 -76.5 -31.5t-48.5 -82.5h213q1 6 1 10v8q0 45 -22 70.5t-67 25.5z" />
    <glyph glyph-name="eacute" unicode="&#xe9;" horiz-adv-x="594" 
d="M307 572l105 121h140l-159 -121h-86zM181 205q0 -60 25 -85.5t65 -25.5q42 0 72 21t43 59h155q-32 -93 -105.5 -140.5t-176.5 -47.5q-49 0 -92 12.5t-75.5 39t-51 68t-18.5 99.5q0 73 22.5 135.5t64 108.5t100 72t130.5 26q59 0 103 -17t73 -46t43 -68.5t14 -83.5
q0 -25 -5 -53t-13 -53h-373v-21zM324 439q-45 0 -76.5 -31.5t-48.5 -82.5h213q1 6 1 10v8q0 45 -22 70.5t-67 25.5z" />
    <glyph glyph-name="ecircumflex" unicode="&#xea;" horiz-adv-x="594" 
d="M233 572l85 121h126l42 -121h-94l-20 72l-46 -72h-93zM181 205q0 -60 25 -85.5t65 -25.5q42 0 72 21t43 59h155q-32 -93 -105.5 -140.5t-176.5 -47.5q-49 0 -92 12.5t-75.5 39t-51 68t-18.5 99.5q0 73 22.5 135.5t64 108.5t100 72t130.5 26q59 0 103 -17t73 -46t43 -68.5
t14 -83.5q0 -25 -5 -53t-13 -53h-373v-21zM324 439q-45 0 -76.5 -31.5t-48.5 -82.5h213q1 6 1 10v8q0 45 -22 70.5t-67 25.5z" />
    <glyph glyph-name="edieresis" unicode="&#xeb;" horiz-adv-x="594" 
d="M263 573q-61 0 -61 55q0 36 24.5 56.5t51.5 20.5q28 0 44 -14.5t16 -40.5q0 -37 -24 -57t-51 -20zM449 573q-29 0 -44.5 14.5t-15.5 40.5q0 36 24.5 56.5t51.5 20.5q28 0 44 -14.5t16 -40.5q0 -37 -24.5 -57t-51.5 -20zM181 205q0 -60 25 -85.5t65 -25.5q42 0 72 21
t43 59h155q-32 -93 -105.5 -140.5t-176.5 -47.5q-49 0 -92 12.5t-75.5 39t-51 68t-18.5 99.5q0 73 22.5 135.5t64 108.5t100 72t130.5 26q59 0 103 -17t73 -46t43 -68.5t14 -83.5q0 -25 -5 -53t-13 -53h-373v-21zM324 439q-45 0 -76.5 -31.5t-48.5 -82.5h213q1 6 1 10v8
q0 45 -22 70.5t-67 25.5z" />
    <glyph glyph-name="igrave" unicode="&#xec;" horiz-adv-x="276" 
d="M168 572l-116 121h140l62 -121h-86zM13 0l95 533h156l-94 -533h-157z" />
    <glyph glyph-name="iacute" unicode="&#xed;" horiz-adv-x="276" 
d="M145 572l105 121h140l-159 -121h-86zM13 0l95 533h156l-94 -533h-157z" />
    <glyph glyph-name="icircumflex" unicode="&#xee;" horiz-adv-x="276" 
d="M72 572l85 121h126l42 -121h-94l-20 72l-46 -72h-93zM264 533l-94 -533h-157l95 533h156z" />
    <glyph glyph-name="idieresis" unicode="&#xef;" horiz-adv-x="276" 
d="M116 705q28 0 44 -14.5t16 -40.5q0 -37 -24 -57t-51 -20q-61 0 -61 55q0 36 24.5 56.5t51.5 20.5zM303 705q28 0 44 -14.5t16 -40.5q0 -37 -24.5 -57t-51.5 -20q-29 0 -44.5 14.5t-15.5 40.5q0 36 24.5 56.5t51.5 20.5zM13 0l95 533h156l-94 -533h-157z" />
    <glyph glyph-name="eth" unicode="&#xf0;" horiz-adv-x="651" 
d="M564 619q23 -51 33 -112t10 -129q0 -69 -17.5 -139t-57 -126.5t-102.5 -91.5t-155 -35q-61 0 -108.5 17t-79 47t-48 71t-16.5 89q0 60 18 120t55 108.5t93.5 78.5t134.5 30q32 0 54 -6t47 -23l36 -59q-2 34 -8.5 66.5t-23.5 63.5l-124 -27l-13 64l92 21q-28 26 -67 48
l133 50q24 -11 43.5 -28t35.5 -38l97 22l14 -65zM286 102q46 0 76.5 22t48.5 54.5t25.5 70.5t7.5 69q0 51 -27.5 82.5t-72.5 31.5t-75.5 -21.5t-48.5 -53.5t-26 -69t-8 -68q0 -62 26.5 -90t73.5 -28z" />
    <glyph glyph-name="ntilde" unicode="&#xf1;" horiz-adv-x="631" 
d="M326 607q-18 0 -22 -28h-82q11 63 32 90.5t62 27.5q17 0 33.5 -3.5t44.5 -15.5q17 -7 27.5 -9.5t18.5 -2.5q15 0 21 28h81q-11 -63 -32 -90.5t-62 -27.5q-16 0 -32.5 3t-45.5 16q-16 7 -26 9.5t-18 2.5zM436 547q82 0 121.5 -38.5t39.5 -98.5q0 -21 -2.5 -44t-9.5 -60
l-55 -306h-156l49 274q5 29 7.5 50t2.5 35q0 36 -17 58t-62 22q-48 -1 -85.5 -46.5t-56.5 -148.5l-42 -244h-157l94 533h156l-14 -79l56 59q30 18 61.5 26t69.5 8z" />
    <glyph glyph-name="ograve" unicode="&#xf2;" horiz-adv-x="626" 
d="M225 693h140l62 -121h-86zM350 547q64 0 111.5 -18t79 -49.5t47 -75t15.5 -94.5q0 -62 -20 -120.5t-60.5 -103.5t-101.5 -72.5t-143 -27.5q-64 0 -112 18t-79.5 49.5t-47 75t-15.5 94.5q0 62 20 120.5t60.5 103.5t102 72.5t143.5 27.5zM290 94q37 0 64.5 18.5t46 48.5
t27.5 68t9 78q0 57 -24 94.5t-76 37.5q-36 0 -63.5 -18t-46 -48t-28 -68t-9.5 -78q0 -57 24.5 -95t75.5 -38z" />
    <glyph glyph-name="oacute" unicode="&#xf3;" horiz-adv-x="626" 
d="M318 572l105 121h140l-159 -121h-86zM350 547q64 0 111.5 -18t79 -49.5t47 -75t15.5 -94.5q0 -62 -20 -120.5t-60.5 -103.5t-101.5 -72.5t-143 -27.5q-64 0 -112 18t-79.5 49.5t-47 75t-15.5 94.5q0 62 20 120.5t60.5 103.5t102 72.5t143.5 27.5zM290 94q37 0 64.5 18.5
t46 48.5t27.5 68t9 78q0 57 -24 94.5t-76 37.5q-36 0 -63.5 -18t-46 -48t-28 -68t-9.5 -78q0 -57 24.5 -95t75.5 -38z" />
    <glyph glyph-name="ocircumflex" unicode="&#xf4;" horiz-adv-x="626" 
d="M245 572l85 121h126l42 -121h-94l-20 72l-46 -72h-93zM350 547q64 0 111.5 -18t79 -49.5t47 -75t15.5 -94.5q0 -62 -20 -120.5t-60.5 -103.5t-101.5 -72.5t-143 -27.5q-64 0 -112 18t-79.5 49.5t-47 75t-15.5 94.5q0 62 20 120.5t60.5 103.5t102 72.5t143.5 27.5zM290 94
q37 0 64.5 18.5t46 48.5t27.5 68t9 78q0 57 -24 94.5t-76 37.5q-36 0 -63.5 -18t-46 -48t-28 -68t-9.5 -78q0 -57 24.5 -95t75.5 -38z" />
    <glyph glyph-name="otilde" unicode="&#xf5;" horiz-adv-x="626" 
d="M323 607q-18 0 -22 -28h-82q11 63 32 90.5t62 27.5q17 0 33.5 -3.5t44.5 -15.5q17 -7 27.5 -9.5t18.5 -2.5q15 0 21 28h81q-11 -63 -32 -90.5t-62 -27.5q-16 0 -32.5 3t-45.5 16q-16 7 -26 9.5t-18 2.5zM350 547q64 0 111.5 -18t79 -49.5t47 -75t15.5 -94.5
q0 -62 -20 -120.5t-60.5 -103.5t-101.5 -72.5t-143 -27.5q-64 0 -112 18t-79.5 49.5t-47 75t-15.5 94.5q0 62 20 120.5t60.5 103.5t102 72.5t143.5 27.5zM290 94q37 0 64.5 18.5t46 48.5t27.5 68t9 78q0 57 -24 94.5t-76 37.5q-36 0 -63.5 -18t-46 -48t-28 -68t-9.5 -78
q0 -57 24.5 -95t75.5 -38z" />
    <glyph glyph-name="odieresis" unicode="&#xf6;" horiz-adv-x="626" 
d="M274 573q-61 0 -61 55q0 36 24.5 56.5t51.5 20.5q28 0 44 -14.5t16 -40.5q0 -37 -24 -57t-51 -20zM460 573q-29 0 -44.5 14.5t-15.5 40.5q0 36 24.5 56.5t51.5 20.5q28 0 44 -14.5t16 -40.5q0 -37 -24.5 -57t-51.5 -20zM350 547q64 0 111.5 -18t79 -49.5t47 -75
t15.5 -94.5q0 -62 -20 -120.5t-60.5 -103.5t-101.5 -72.5t-143 -27.5q-64 0 -112 18t-79.5 49.5t-47 75t-15.5 94.5q0 62 20 120.5t60.5 103.5t102 72.5t143.5 27.5zM290 94q37 0 64.5 18.5t46 48.5t27.5 68t9 78q0 57 -24 94.5t-76 37.5q-36 0 -63.5 -18t-46 -48t-28 -68
t-9.5 -78q0 -57 24.5 -95t75.5 -38z" />
    <glyph glyph-name="divide" unicode="&#xf7;" 
d="M372 572q28 0 45 -17t17 -43q0 -18 -7.5 -34t-19.5 -28t-28 -19t-33 -7q-28 0 -45 17t-17 43q0 18 7.5 34t19.5 28t28 19t33 7zM83 275l15 86h472l-14 -86h-473zM308 210q29 0 45.5 -17t16.5 -43q0 -18 -7 -34t-19 -28t-28 -19t-34 -7q-28 0 -45 17t-17 43q0 18 7.5 34
t19.5 28t28 19t33 7z" />
    <glyph glyph-name="oslash" unicode="&#xf8;" horiz-adv-x="639" 
d="M579 434q29 -53 29 -124q0 -62 -20 -120.5t-60.5 -103.5t-101.5 -72.5t-143 -27.5q-55 0 -97.5 13.5t-74.5 37.5l-78 -67l-52 63l78 66q-29 52 -29 124q0 62 20 120.5t60.5 103.5t101.5 72.5t143 27.5q55 0 97.5 -13.5t73.5 -36.5l75 63l52 -63zM196 216l221 187
q-27 36 -74 36q-37 0 -64.5 -18t-46 -48t-27.5 -68t-9 -78v-11zM441 317l-220 -187q12 -17 30.5 -26.5t44.5 -9.5q36 0 63.5 18.5t46 48.5t27.5 68t9 78z" />
    <glyph glyph-name="ugrave" unicode="&#xf9;" horiz-adv-x="626" 
d="M237 693h140l62 -121h-86zM520 0h-156l14 79l-56 -59q-30 -18 -61.5 -26t-69.5 -8q-81 0 -121 38.5t-40 98.5q0 21 2.5 44t9.5 61l55 305h157l-50 -274q-5 -28 -7.5 -49.5t-2.5 -35.5q0 -35 17.5 -57.5t61.5 -21.5q48 0 86 45.5t56 148.5l43 244h156z" />
    <glyph glyph-name="uacute" unicode="&#xfa;" horiz-adv-x="626" 
d="M330 572l105 121h140l-159 -121h-86zM520 0h-156l14 79l-56 -59q-30 -18 -61.5 -26t-69.5 -8q-81 0 -121 38.5t-40 98.5q0 21 2.5 44t9.5 61l55 305h157l-50 -274q-5 -28 -7.5 -49.5t-2.5 -35.5q0 -35 17.5 -57.5t61.5 -21.5q48 0 86 45.5t56 148.5l43 244h156z" />
    <glyph glyph-name="ucircumflex" unicode="&#xfb;" horiz-adv-x="626" 
d="M257 572l85 121h126l42 -121h-94l-20 72l-46 -72h-93zM520 0h-156l14 79l-56 -59q-30 -18 -61.5 -26t-69.5 -8q-81 0 -121 38.5t-40 98.5q0 21 2.5 44t9.5 61l55 305h157l-50 -274q-5 -28 -7.5 -49.5t-2.5 -35.5q0 -35 17.5 -57.5t61.5 -21.5q48 0 86 45.5t56 148.5
l43 244h156z" />
    <glyph glyph-name="udieresis" unicode="&#xfc;" horiz-adv-x="626" 
d="M286 573q-61 0 -61 55q0 36 24.5 56.5t51.5 20.5q28 0 44 -14.5t16 -40.5q0 -37 -24 -57t-51 -20zM472 573q-29 0 -44.5 14.5t-15.5 40.5q0 36 24.5 56.5t51.5 20.5q28 0 44 -14.5t16 -40.5q0 -37 -24.5 -57t-51.5 -20zM520 0h-156l14 79l-56 -59q-30 -18 -61.5 -26
t-69.5 -8q-81 0 -121 38.5t-40 98.5q0 21 2.5 44t9.5 61l55 305h157l-50 -274q-5 -28 -7.5 -49.5t-2.5 -35.5q0 -35 17.5 -57.5t61.5 -21.5q48 0 86 45.5t56 148.5l43 244h156z" />
    <glyph glyph-name="yacute" unicode="&#xfd;" horiz-adv-x="562" 
d="M278 572l105 121h140l-159 -121h-86zM321 0q-33 -59 -63.5 -99t-62.5 -65t-67.5 -35.5t-79.5 -10.5q-19 0 -34.5 1.5t-32.5 3.5l17 103q23 -3 46 -3q32 0 56 15.5t44 53.5l6 11l-118 558h175l50 -404l193 404h172z" />
    <glyph glyph-name="thorn" unicode="&#xfe;" horiz-adv-x="664" 
d="M436 547q100 0 153.5 -58.5t53.5 -161.5q0 -66 -19.5 -128t-59 -109t-98.5 -75.5t-139 -28.5q-33 0 -67 8.5t-51 22.5l-26 58l-48 -271h-157l166 931h157l-50 -281l50 58q25 17 59.5 26t75.5 9zM317 94q36 0 66 17t51.5 46.5t33.5 69.5t12 85q0 63 -27 95t-78 32
q-27 0 -51.5 -9t-45.5 -28.5t-36.5 -51.5t-23.5 -77l-4 -24q-5 -30 -3 -57.5t14 -49.5t34 -35t58 -13z" />
    <glyph glyph-name="ydieresis" unicode="&#xff;" horiz-adv-x="562" 
d="M234 573q-61 0 -61 55q0 36 24.5 56.5t51.5 20.5q28 0 44 -14.5t16 -40.5q0 -37 -24 -57t-51 -20zM420 573q-29 0 -44.5 14.5t-15.5 40.5q0 36 24.5 56.5t51.5 20.5q28 0 44 -14.5t16 -40.5q0 -37 -24.5 -57t-51.5 -20zM321 0q-33 -59 -63.5 -99t-62.5 -65t-67.5 -35.5
t-79.5 -10.5q-19 0 -34.5 1.5t-32.5 3.5l17 103q23 -3 46 -3q32 0 56 15.5t44 53.5l6 11l-118 558h175l50 -404l193 404h172z" />
    <glyph glyph-name="Amacron" unicode="&#x100;" horiz-adv-x="692" 
d="M303 759l15 85h285l-15 -85h-285zM228 195l-97 -195h-168l366 690h205l120 -690h-170l-28 195h-228zM404 548l-115 -230h148z" />
    <glyph glyph-name="amacron" unicode="&#x101;" horiz-adv-x="568" 
d="M203 588l15 85h285l-15 -85h-285zM333 547q55 0 93.5 -11t62.5 -30t35 -45.5t11 -57.5q0 -22 -3.5 -46.5t-10.5 -62.5l-28 -159q-5 -30 -8.5 -60t-5.5 -75h-153l2 77l-33 -53q-27 -20 -61.5 -29t-72.5 -9q-31 0 -58 8.5t-47 26.5t-32 44.5t-12 62.5q0 48 24.5 87t70.5 65
t113 38.5t151 7.5l1 6q2 14 3.5 26.5t1.5 25.5q0 23 -13.5 39t-46.5 16q-41 0 -65 -21.5t-34 -61.5h-150q9 46 32.5 81.5t59 60t80 37t93.5 12.5zM354 235q-39 4 -71.5 0.5t-56.5 -14.5t-37.5 -29t-13.5 -43q0 -28 17 -41.5t46 -13.5q16 0 33.5 6.5t32.5 19t27 30.5t16 42v2
z" />
    <glyph glyph-name="Abreve" unicode="&#x102;" horiz-adv-x="692" 
d="M441 727q-35 0 -57.5 10.5t-34 28.5t-14 40.5t1.5 46.5h81q-4 -23 4.5 -36t31.5 -13q44 0 56 49h80q-11 -65 -53 -95.5t-96 -30.5zM228 195l-97 -195h-168l366 690h205l120 -690h-170l-28 195h-228zM404 548l-115 -230h148z" />
    <glyph glyph-name="abreve" unicode="&#x103;" horiz-adv-x="568" 
d="M341 567q-36 0 -58.5 11t-33.5 29t-13 41t2 47h81q-3 -21 3.5 -36t31.5 -15q44 0 57 51h81q-12 -67 -55 -97.5t-96 -30.5zM333 547q55 0 93.5 -11t62.5 -30t35 -45.5t11 -57.5q0 -22 -3.5 -46.5t-10.5 -62.5l-28 -159q-5 -30 -8.5 -60t-5.5 -75h-153l2 77l-33 -53
q-27 -20 -61.5 -29t-72.5 -9q-31 0 -58 8.5t-47 26.5t-32 44.5t-12 62.5q0 48 24.5 87t70.5 65t113 38.5t151 7.5l1 6q2 14 3.5 26.5t1.5 25.5q0 23 -13.5 39t-46.5 16q-41 0 -65 -21.5t-34 -61.5h-150q9 46 32.5 81.5t59 60t80 37t93.5 12.5zM354 235q-39 4 -71.5 0.5
t-56.5 -14.5t-37.5 -29t-13.5 -43q0 -28 17 -41.5t46 -13.5q16 0 33.5 6.5t32.5 19t27 30.5t16 42v2z" />
    <glyph glyph-name="Aogonek" unicode="&#x104;" horiz-adv-x="692" 
d="M519 -93q0 -23 10.5 -31.5t25.5 -8.5q11 0 23 3.5t26 12.5l-12 -62q-23 -20 -57 -32t-74 -12q-42 0 -69 17.5t-27 59.5q0 95 118 152l-27 189h-228l-97 -195h-168l366 690h205l120 -690h-62q-17 -1 -30.5 -10.5t-23 -23t-14.5 -29.5t-5 -30zM404 548l-115 -230h148z" />
    <glyph glyph-name="aogonek" unicode="&#x105;" horiz-adv-x="568" 
d="M333 547q55 0 93.5 -11t62.5 -30t35 -45.5t11 -57.5q0 -22 -3.5 -46.5t-10.5 -62.5l-28 -159q-5 -30 -8.5 -60t-5.5 -75h-45q-17 -1 -30.5 -10.5t-23 -23t-14.5 -29.5t-5 -30q0 -23 10.5 -31.5t25.5 -8.5q11 0 23 3.5t26 12.5l-12 -62q-23 -20 -57 -32t-74 -12
q-42 0 -69 17.5t-27 59.5q0 48 30.5 86.5t88.5 66.5l2 70l-33 -53q-27 -20 -61.5 -29t-72.5 -9q-31 0 -58 8.5t-47 26.5t-32 44.5t-12 62.5q0 48 24.5 87t70.5 65t113 38.5t151 7.5l1 6q2 14 3.5 26.5t1.5 25.5q0 23 -13.5 39t-46.5 16q-41 0 -65 -21.5t-34 -61.5h-150
q9 46 32.5 81.5t59 60t80 37t93.5 12.5zM238 94q16 0 33.5 6.5t32.5 19t27 30.5t16 42v2l7 41q-39 4 -71.5 0.5t-56.5 -14.5t-37.5 -29t-13.5 -43q0 -28 17 -41.5t46 -13.5z" />
    <glyph glyph-name="Cacute" unicode="&#x106;" horiz-adv-x="755" 
d="M461 704q72 0 124.5 -18t86.5 -50.5t49 -76t11 -94.5l-1 -10h-156v10q-2 64 -34.5 93.5t-95.5 29.5q-41 0 -77.5 -17t-65 -49.5t-47 -79.5t-24.5 -107h81l-84 -63q3 -91 41 -130.5t94 -39.5q61 0 103 34.5t65 96.5l4 10h156l-3 -10q-33 -119 -122 -183t-222 -64
q-64 0 -116.5 19t-89.5 55t-56.5 89t-19.5 122q0 99 31.5 179t86 136.5t127 87t154.5 30.5z" />
    <glyph glyph-name="cacute" unicode="&#x107;" horiz-adv-x="587" 
d="M304 572l105 121h140l-159 -121h-86zM345 544q60 0 103 -16t71 -44t41.5 -66.5t13.5 -84.5h-153q-1 53 -24 78t-65 25q-33 0 -60 -18t-45.5 -49t-28.5 -72.5t-10 -87.5q0 -57 24.5 -86t60.5 -29q88 0 122 95h156q-37 -101 -108 -152t-183 -51q-51 0 -95 13t-75.5 40.5
t-49.5 70t-18 100.5q0 69 23 130t65 106.5t101.5 71.5t133.5 26z" />
    <glyph glyph-name="Cdotaccent" unicode="&#x10a;" horiz-adv-x="755" 
d="M461 704q72 0 124.5 -18t86.5 -50.5t49 -76t11 -94.5l-1 -10h-156v10q-2 64 -34.5 93.5t-95.5 29.5q-45 0 -85 -21t-69 -60.5t-46 -96t-17 -127.5q0 -48 10.5 -82.5t28.5 -56.5t42.5 -32t53.5 -10q61 0 103 34.5t65 96.5l4 10h156l-3 -10q-33 -119 -122 -183t-222 -64
q-119 0 -194 63.5t-86 181.5q-14 17 -14 43t14 49q8 87 42.5 157.5t88 120t122 76.5t144.5 27z" />
    <glyph glyph-name="cdotaccent" unicode="&#x10b;" horiz-adv-x="587" 
d="M381 739q34 0 53.5 -18t19.5 -49q0 -17 -6 -33.5t-18 -29.5t-29.5 -21t-40.5 -8q-34 0 -53.5 18t-19.5 50q0 17 6 33.5t18 29t29.5 20.5t40.5 8zM345 544q60 0 103 -16t71 -44t41.5 -66.5t13.5 -84.5h-153q-1 53 -24 78t-65 25q-33 0 -60 -18t-45.5 -49t-28.5 -72.5
t-10 -87.5q0 -57 24.5 -86t60.5 -29q88 0 122 95h156q-37 -101 -108 -152t-183 -51q-51 0 -95 13t-75.5 40.5t-49.5 70t-18 100.5q0 69 23 130t65 106.5t101.5 71.5t133.5 26z" />
    <glyph glyph-name="Ccaron" unicode="&#x10c;" horiz-adv-x="755" 
d="M461 704q72 0 124.5 -18t86.5 -50.5t49 -76t11 -94.5l-1 -10h-156v10q-2 64 -34.5 93.5t-95.5 29.5q-41 0 -77.5 -17t-65 -49.5t-47 -79.5t-24.5 -107h36l-39 -55q0 -48 10.5 -81.5t28.5 -55t43 -31.5t53 -10q61 0 103 34.5t65 96.5l4 10h156l-3 -10q-33 -119 -122 -183
t-222 -64q-116 0 -190 59.5t-89 171.5h-9l-42 118h52q10 85 44.5 153t87.5 116t120.5 74t142.5 26z" />
    <glyph glyph-name="ccaron" unicode="&#x10d;" horiz-adv-x="587" 
d="M249 693h94l20 -69l46 69h93l-85 -121h-126zM273 94q88 0 122 95h156q-37 -101 -108 -152t-183 -51q-51 0 -95 13t-75.5 40.5t-49.5 70t-18 100.5q0 69 23 130t65 106.5t101.5 71.5t133.5 26q60 0 103 -16t71 -44t41.5 -66.5t13.5 -84.5h-153q-1 53 -24 78t-65 25
q-33 0 -60 -18t-45.5 -49t-28.5 -72.5t-10 -87.5q0 -57 24.5 -86t60.5 -29z" />
    <glyph glyph-name="Dcaron" unicode="&#x10e;" horiz-adv-x="734" 
d="M325 853h94l20 -68l45 68h94l-84 -118h-127zM477 686q51 -6 95.5 -26t77.5 -55.5t51.5 -87.5t18.5 -121q0 -73 -22 -140.5t-67 -121t-113 -88t-159 -43.5q-27 -2 -44.5 -2.5t-44.5 -0.5h-241l122 690h232q28 0 48 -0.5t46 -3.5zM348 125q53 6 92 30t64.5 60t37.5 81.5
t12 95.5q0 85 -35.5 126t-95.5 47q-17 2 -32 2.5t-35 0.5h-70l-79 -445h72h36.5t32.5 2z" />
    <glyph glyph-name="dcaron" unicode="&#x10f;" horiz-adv-x="662" 
d="M881 726l-113 -161h-84l87 171h110v-10zM556 0h-157l14 79l-50 -58q-25 -17 -59.5 -26t-75.5 -9q-100 0 -153.5 55t-53.5 157q0 67 19.5 130t59 111.5t98.5 78t138 29.5q33 0 67 -8t52 -22l26 -58l48 276h157zM450 285q5 29 2.5 57t-14 49.5t-34 34.5t-57.5 13
q-36 0 -65.5 -18t-50.5 -48.5t-32.5 -70t-11.5 -81.5q0 -63 27 -95t75 -32q53 0 96.5 38t59.5 127v1z" />
    <glyph glyph-name="Dcroat" unicode="&#x110;" horiz-adv-x="734" 
d="M477 686q51 -6 95.5 -26t77.5 -55.5t51.5 -87.5t18.5 -121q0 -73 -22 -140.5t-67 -121t-113 -88t-159 -43.5q-27 -2 -44.5 -2.5t-44.5 -0.5h-241l52 296h-68l15 86h69l54 308h232q28 0 48 -0.5t46 -3.5zM348 125q53 6 92 30t64.5 60t37.5 81.5t12 95.5q0 85 -35.5 126
t-95.5 47q-17 2 -32 2.5t-35 0.5h-70l-33 -186h106l-15 -86h-106l-31 -173h72h36.5t32.5 2z" />
    <glyph glyph-name="dcroat" unicode="&#x111;" horiz-adv-x="663" 
d="M659 580l-103 -580h-157l14 79l-50 -58q-25 -17 -59.5 -26t-75.5 -9q-100 0 -153.5 55t-53.5 157q0 67 19.5 130t59 111.5t98.5 78t138 29.5q33 0 67 -8t52 -22l26 -58l21 121h-119l15 86h119l12 69h157l-12 -69h40l-15 -86h-40zM450 285q5 29 2.5 57t-14 49.5t-34 34.5
t-57.5 13q-36 0 -65.5 -18t-50.5 -48.5t-32.5 -70t-11.5 -81.5q0 -63 27 -95t75 -32q53 0 96.5 38t59.5 127v1z" />
    <glyph glyph-name="Emacron" unicode="&#x112;" horiz-adv-x="619" 
d="M275 759l15 85h285l-15 -85h-285zM257 407h323l-22 -122h-323l-28 -162h355l-22 -123h-511l122 690h501l-22 -122h-345z" />
    <glyph glyph-name="emacron" unicode="&#x113;" horiz-adv-x="594" 
d="M217 588l15 85h285l-15 -85h-285zM181 205q0 -60 25 -85.5t65 -25.5q42 0 72 21t43 59h155q-32 -93 -105.5 -140.5t-176.5 -47.5q-49 0 -92 12.5t-75.5 39t-51 68t-18.5 99.5q0 73 22.5 135.5t64 108.5t100 72t130.5 26q59 0 103 -17t73 -46t43 -68.5t14 -83.5
q0 -25 -5 -53t-13 -53h-373v-21zM324 439q-45 0 -76.5 -31.5t-48.5 -82.5h213q1 6 1 10v8q0 45 -22 70.5t-67 25.5z" />
    <glyph glyph-name="Edotaccent" unicode="&#x116;" horiz-adv-x="619" 
d="M415 726q-33 0 -52 17.5t-19 48.5q0 17 6 32.5t17.5 28.5t28.5 20.5t39 7.5q33 0 52.5 -17.5t19.5 -48.5q0 -16 -6 -32t-17.5 -28.5t-28.5 -20.5t-40 -8zM257 407h323l-22 -122h-323l-28 -162h355l-22 -123h-511l122 690h501l-22 -122h-345z" />
    <glyph glyph-name="edotaccent" unicode="&#x117;" horiz-adv-x="594" 
d="M362 580q-34 0 -53.5 18t-19.5 50q0 17 6 33.5t18 29t29.5 20.5t40.5 8q34 0 53.5 -18t19.5 -49q0 -17 -6 -33.5t-18 -29.5t-29.5 -21t-40.5 -8zM181 205q0 -60 25 -85.5t65 -25.5q42 0 72 21t43 59h155q-32 -93 -105.5 -140.5t-176.5 -47.5q-49 0 -92 12.5t-75.5 39
t-51 68t-18.5 99.5q0 73 22.5 135.5t64 108.5t100 72t130.5 26q59 0 103 -17t73 -46t43 -68.5t14 -83.5q0 -25 -5 -53t-13 -53h-373v-21zM324 439q-45 0 -76.5 -31.5t-48.5 -82.5h213q1 6 1 10v8q0 45 -22 70.5t-67 25.5z" />
    <glyph glyph-name="Eogonek" unicode="&#x118;" horiz-adv-x="619" 
d="M257 407h323l-22 -122h-323l-28 -162h355l-22 -123h-37q-17 -1 -30.5 -10.5t-23 -23t-14.5 -29.5t-5 -30q0 -23 10.5 -31.5t25.5 -8.5q11 0 23 3.5t26 12.5l-12 -62q-23 -20 -57 -32t-74 -12q-42 0 -69 17.5t-27 59.5q0 45 27 81.5t79 64.5h-353l122 690h501l-22 -122
h-345z" />
    <glyph glyph-name="eogonek" unicode="&#x119;" horiz-adv-x="594" 
d="M181 205q0 -60 25 -85.5t65 -25.5q42 0 72 21t43 59h155q-27 -79 -85.5 -125.5t-139.5 -58.5q-21 -14 -32.5 -38t-11.5 -45q0 -23 10.5 -31.5t25.5 -8.5q11 0 23 3.5t26 12.5l-12 -62q-23 -20 -57 -32t-74 -12q-42 0 -69 17.5t-27 59.5q0 41 22.5 75t65.5 61
q-39 6 -73 21.5t-58.5 42t-38.5 64t-14 87.5q0 73 22.5 135.5t64 108.5t100 72t130.5 26q59 0 103 -17t73 -46t43 -68.5t14 -83.5q0 -25 -5 -53t-13 -53h-373v-21zM324 439q-45 0 -76.5 -31.5t-48.5 -82.5h213q1 6 1 10v8q0 45 -22 70.5t-67 25.5z" />
    <glyph glyph-name="Ecaron" unicode="&#x11a;" horiz-adv-x="619" 
d="M309 853h94l20 -68l45 68h94l-84 -118h-127zM257 407h323l-22 -122h-323l-28 -162h355l-22 -123h-511l122 690h501l-22 -122h-345z" />
    <glyph glyph-name="ecaron" unicode="&#x11b;" horiz-adv-x="594" 
d="M252 693h94l20 -69l46 69h93l-85 -121h-126zM181 205q0 -60 25 -85.5t65 -25.5q42 0 72 21t43 59h155q-32 -93 -105.5 -140.5t-176.5 -47.5q-49 0 -92 12.5t-75.5 39t-51 68t-18.5 99.5q0 73 22.5 135.5t64 108.5t100 72t130.5 26q59 0 103 -17t73 -46t43 -68.5t14 -83.5
q0 -25 -5 -53t-13 -53h-373v-21zM324 439q-45 0 -76.5 -31.5t-48.5 -82.5h213q1 6 1 10v8q0 45 -22 70.5t-67 25.5z" />
    <glyph glyph-name="Gbreve" unicode="&#x11e;" horiz-adv-x="773" 
d="M504 727q-35 0 -57.5 10.5t-34 28.5t-14 40.5t1.5 46.5h81q-4 -23 4.5 -36t31.5 -13q44 0 56 49h80q-11 -65 -53 -95.5t-96 -30.5zM478 704q72 0 123.5 -18t84 -50.5t46 -76t9.5 -94.5l-1 -10h-157v10q-1 64 -32.5 93.5t-94.5 29.5q-45 0 -86.5 -20.5t-73 -59.5
t-50 -95.5t-18.5 -128.5q0 -94 39.5 -138t100.5 -44q60 0 106 34.5t72 100.5h-141l22 122h290l-64 -359h-124l7 108l-43 -71q-34 -27 -75 -39t-98 -12q-121 0 -190 73t-69 207q0 104 34.5 185.5t92.5 137.5t133.5 85.5t156.5 29.5z" />
    <glyph glyph-name="gbreve" unicode="&#x11f;" horiz-adv-x="663" 
d="M394 567q-36 0 -58.5 11t-33.5 29t-13 41t2 47h81q-3 -21 3.5 -36t31.5 -15q44 0 57 51h81q-12 -67 -55 -97.5t-96 -30.5zM580 135q-5 -25 -9.5 -53t-9.5 -50q-27 -128 -107.5 -189t-229.5 -61q-115 0 -176 47t-54 137l1 10h153l-1 -9q-2 -32 25 -50.5t76 -18.5
q57 0 98 28t55 88q3 14 6.5 31t6.5 36l1 4l-52 -59q-52 -36 -135 -36q-100 0 -153.5 56t-53.5 152q0 67 19.5 130t59 111.5t98.5 78t138 29.5q33 0 67 -8t52 -22l26 -58l13 74h157zM289 99q27 0 51.5 8.5t45 27t36 49.5t23.5 76l-1 -7l6 33v-1q5 29 2.5 57t-14 49.5
t-34 34.5t-57.5 13q-36 0 -65.5 -18t-50.5 -48.5t-32.5 -70t-11.5 -81.5q0 -63 27 -92.5t75 -29.5z" />
    <glyph glyph-name="Gdotaccent" unicode="&#x120;" horiz-adv-x="773" 
d="M507 726q-33 0 -52 17.5t-19 48.5q0 17 6 32.5t17.5 28.5t28.5 20.5t39 7.5q33 0 52.5 -17.5t19.5 -48.5q0 -16 -6 -32t-17.5 -28.5t-28.5 -20.5t-40 -8zM478 704q72 0 123.5 -18t84 -50.5t46 -76t9.5 -94.5l-1 -10h-157v10q-1 64 -32.5 93.5t-94.5 29.5
q-45 0 -86.5 -20.5t-73 -59.5t-50 -95.5t-18.5 -128.5q0 -94 39.5 -138t100.5 -44q60 0 106 34.5t72 100.5h-141l22 122h290l-64 -359h-124l7 108l-43 -71q-34 -27 -75 -39t-98 -12q-121 0 -190 73t-69 207q0 104 34.5 185.5t92.5 137.5t133.5 85.5t156.5 29.5z" />
    <glyph glyph-name="gdotaccent" unicode="&#x121;" horiz-adv-x="663" 
d="M402 580q-34 0 -53.5 18t-19.5 50q0 17 6 33.5t18 29t29.5 20.5t40.5 8q34 0 53.5 -18t19.5 -49q0 -17 -6 -33.5t-18 -29.5t-29.5 -21t-40.5 -8zM580 135q-5 -25 -9.5 -53t-9.5 -50q-27 -128 -107.5 -189t-229.5 -61q-115 0 -176 47t-54 137l1 10h153l-1 -9
q-2 -32 25 -50.5t76 -18.5q57 0 98 28t55 88q3 14 6.5 31t6.5 36l1 4l-52 -59q-52 -36 -135 -36q-100 0 -153.5 56t-53.5 152q0 67 19.5 130t59 111.5t98.5 78t138 29.5q33 0 67 -8t52 -22l26 -58l13 74h157zM289 99q27 0 51.5 8.5t45 27t36 49.5t23.5 76l-1 -7l6 33v-1
q5 29 2.5 57t-14 49.5t-34 34.5t-57.5 13q-36 0 -65.5 -18t-50.5 -48.5t-32.5 -70t-11.5 -81.5q0 -63 27 -92.5t75 -29.5z" />
    <glyph glyph-name="Gcommaaccent" unicode="&#x122;" horiz-adv-x="773" 
d="M478 704q72 0 123.5 -18t84 -50.5t46 -76t9.5 -94.5l-1 -10h-157v10q-1 64 -32.5 93.5t-94.5 29.5q-45 0 -86.5 -20.5t-73 -59.5t-50 -95.5t-18.5 -128.5q0 -94 39.5 -138t100.5 -44q60 0 106 34.5t72 100.5h-141l22 122h290l-64 -359h-124l7 108l-43 -71
q-34 -27 -75 -39t-98 -12q-121 0 -190 73t-69 207q0 104 34.5 185.5t92.5 137.5t133.5 85.5t156.5 29.5zM386 -41v-9l-113 -161h-84l87 170h110z" />
    <glyph glyph-name="gcommaaccent" unicode="&#x123;" horiz-adv-x="663" 
d="M329 571v9l114 161h84l-87 -170h-111zM580 135q-5 -25 -9.5 -53t-9.5 -50q-27 -128 -107.5 -189t-229.5 -61q-115 0 -176 47t-54 137l1 10h153l-1 -9q-2 -32 25 -50.5t76 -18.5q57 0 98 28t55 88q3 14 6.5 31t6.5 36l1 4l-52 -59q-52 -36 -135 -36q-100 0 -153.5 56
t-53.5 152q0 67 19.5 130t59 111.5t98.5 78t138 29.5q33 0 67 -8t52 -22l26 -58l13 74h157zM289 99q27 0 51.5 8.5t45 27t36 49.5t23.5 76l-1 -7l6 33v-1q5 29 2.5 57t-14 49.5t-34 34.5t-57.5 13q-36 0 -65.5 -18t-50.5 -48.5t-32.5 -70t-11.5 -81.5q0 -63 27 -92.5
t75 -29.5z" />
    <glyph glyph-name="Hbar" unicode="&#x126;" horiz-adv-x="753" 
d="M729 487l-86 -487h-156l49 277h-302l-49 -277h-157l86 487h-39l15 86h39l21 117h157l-21 -117h302l21 117h156l-21 -117h40l-15 -86h-40zM271 487l-15 -87h302l15 87h-302z" />
    <glyph glyph-name="hbar" unicode="&#x127;" horiz-adv-x="645" 
d="M450 547q82 0 121.5 -38.5t39.5 -98.5q0 -21 -2.5 -44t-9.5 -60l-55 -306h-156l49 274q10 54 10 85q0 36 -17 58t-62 22q-48 -1 -85.5 -46.5t-56.5 -148.5l-42 -244h-157l102 580h-54l15 86h54l13 74h157l-13 -74h104l-15 -86h-104l-23 -126l56 59q31 18 62 26t69 8z" />
    <glyph glyph-name="Imacron" unicode="&#x12a;" horiz-adv-x="295" 
d="M99 759l15 85h285l-15 -85h-285zM29 0l122 690h156l-122 -690h-156z" />
    <glyph glyph-name="imacron" unicode="&#x12b;" horiz-adv-x="276" 
d="M55 588l15 85h285l-15 -85h-285zM13 0l95 533h156l-94 -533h-157z" />
    <glyph glyph-name="Iogonek" unicode="&#x12e;" horiz-adv-x="295" 
d="M136 0q-17 -1 -30.5 -10.5t-23 -23t-14.5 -29.5t-5 -30q0 -23 10.5 -31.5t25.5 -8.5q11 0 23 3.5t26 12.5l-12 -62q-23 -20 -57 -32t-74 -12q-42 0 -69 17.5t-27 59.5q0 97 120 153h1l121 683h156l-122 -690h-49z" />
    <glyph glyph-name="iogonek" unicode="&#x12f;" horiz-adv-x="276" 
d="M222 739q34 0 53.5 -18t19.5 -49q0 -17 -6 -33.5t-18 -29.5t-29.5 -21t-40.5 -8q-34 0 -53.5 18t-19.5 50q0 17 6 33.5t18 29t29.5 20.5t40.5 8zM264 533l-94 -533h-49q-17 -1 -30.5 -10.5t-23 -23t-14.5 -29.5t-5 -30q0 -23 10.5 -31.5t25.5 -8.5q11 0 23 3.5t26 12.5
l-12 -62q-23 -20 -57 -32t-74 -12q-42 0 -69 17.5t-27 59.5q0 97 120 153l94 526h156z" />
    <glyph glyph-name="Idotaccent" unicode="&#x130;" horiz-adv-x="295" 
d="M260 881q33 0 52.5 -17.5t19.5 -48.5q0 -16 -6 -32t-17.5 -28.5t-28.5 -20.5t-40 -8q-33 0 -52 17.5t-19 48.5q0 17 6 32.5t17.5 28.5t28.5 20.5t39 7.5zM29 0l122 690h156l-122 -690h-156z" />
    <glyph glyph-name="dotlessi" unicode="&#x131;" horiz-adv-x="276" 
d="M13 0l95 533h156l-94 -533h-157z" />
    <glyph glyph-name="IJ" unicode="&#x132;" horiz-adv-x="903" 
d="M29 0l122 690h156l-122 -690h-156zM837 290q-4 -23 -8 -43.5t-12 -55.5q-10 -45 -31.5 -82.5t-56 -65t-84 -42.5t-116.5 -15q-118 0 -174 64.5t-40 173.5l4 33h157l-4 -33q-8 -69 14.5 -95.5t67.5 -26.5q43 0 69.5 25t39.5 73q5 17 8 34t7 36l73 420h156z" />
    <glyph glyph-name="ij" unicode="&#x133;" horiz-adv-x="529" 
d="M222 739q34 0 53.5 -18t19.5 -49q0 -17 -6 -33.5t-18 -29.5t-29.5 -21t-40.5 -8q-34 0 -53.5 18t-19.5 50q0 17 6 33.5t18 29t29.5 20.5t40.5 8zM474 739q38 0 58.5 -18t20.5 -48q0 -46 -24 -69.5t-68 -23.5q-38 0 -58.5 18t-20.5 48q0 46 24 69.5t68 23.5zM13 0l95 533
h156l-94 -533h-157zM430 1q-2 -16 -6 -33.5t-8 -31.5q-16 -68 -67 -107t-154 -39q-31 0 -55 3l19 109q46 -5 70 6t34 43q6 22 11 50l93 532h157z" />
    <glyph glyph-name="Kcommaaccent" unicode="&#x136;" horiz-adv-x="694" 
d="M644 0h-193l-169 275l-58 -53l-39 -222h-156l122 690h156l-56 -314l338 314h187l-374 -336zM361 -41v-9l-113 -161h-84l87 170h110z" />
    <glyph glyph-name="kcommaaccent" unicode="&#x137;" horiz-adv-x="610" 
d="M575 0h-190l-131 209l-56 -49l-28 -160h-157l130 735h157l-77 -434l243 232h186l-275 -249zM324 -41v-9l-113 -161h-84l87 170h110z" />
    <glyph glyph-name="Lacute" unicode="&#x139;" horiz-adv-x="607" 
d="M188 735l102 118h140l-156 -118h-86zM540 0h-511l122 690h156l-99 -558h356z" />
    <glyph glyph-name="lacute" unicode="&#x13a;" horiz-adv-x="292" 
d="M169 779l105 121h140l-159 -121h-86zM198 182q-7 -32 -7 -53q0 -23 12.5 -29t41.5 -4l-18 -99q-20 -3 -40.5 -4.5t-46.5 -1.5q-57 0 -85 18t-28 60q0 20 3 46t10 64l100 556h156z" />
    <glyph glyph-name="Lcommaaccent" unicode="&#x13b;" horiz-adv-x="607" 
d="M540 0h-511l122 690h156l-99 -558h356zM341 -41v-9l-113 -161h-84l87 170h110z" />
    <glyph glyph-name="lcommaaccent" unicode="&#x13c;" horiz-adv-x="292" 
d="M198 182q-7 -32 -7 -53q0 -23 12.5 -29t41.5 -4l-18 -99q-20 -3 -40.5 -4.5t-46.5 -1.5q-57 0 -85 18t-28 60q0 20 3 46t10 64l100 556h156zM53 -211h-85l88 170h110v-9z" />
    <glyph glyph-name="Lcaron" unicode="&#x13d;" horiz-adv-x="607" 
d="M540 0h-511l122 690h156l-99 -558h356z" />
    <glyph glyph-name="lcaron" unicode="&#x13e;" horiz-adv-x="292" 
d="M198 182q-7 -32 -7 -53q0 -23 12.5 -29t41.5 -4l-18 -99q-20 -3 -40.5 -4.5t-46.5 -1.5q-57 0 -85 18t-28 60q0 20 3 46t10 64l100 556h156z" />
    <glyph glyph-name="Ldot" unicode="&#x13f;" horiz-adv-x="607" 
d="M540 0h-511l122 690h156l-99 -558h356zM419 320q-32 0 -51.5 18t-19.5 50q0 39 27.5 65.5t72.5 26.5q32 0 51.5 -18t19.5 -50q0 -39 -27.5 -65.5t-72.5 -26.5z" />
    <glyph glyph-name="ldot" unicode="&#x140;" horiz-adv-x="442" 
d="M198 182q-7 -32 -7 -53q0 -23 12.5 -29t41.5 -4l-18 -99q-20 -3 -40.5 -4.5t-46.5 -1.5q-57 0 -85 18t-28 60q0 20 3 46t10 64l100 556h156zM387 490q32 0 53.5 -17.5t21.5 -51.5q0 -49 -29.5 -78.5t-76.5 -29.5q-31 0 -53 17.5t-22 51.5q0 49 29.5 78.5t76.5 29.5z" />
    <glyph glyph-name="Lslash" unicode="&#x141;" horiz-adv-x="648" 
d="M582 0h-512l50 283l-102 -51l18 102l102 51l54 305h157l-39 -220l109 54l-18 -102l-109 -54l-42 -236h355z" />
    <glyph glyph-name="lslash" unicode="&#x142;" horiz-adv-x="325" 
d="M221 182q-3 -17 -5 -30t-2 -23q0 -23 12.5 -29t42.5 -4l-18 -99q-20 -3 -41 -4.5t-47 -1.5q-57 0 -85 18t-28 60q0 20 3.5 46t10.5 64l7 42l-68 -39l18 106l69 39l73 408h157l-55 -309l66 37l-19 -106l-66 -38z" />
    <glyph glyph-name="Nacute" unicode="&#x143;" horiz-adv-x="769" 
d="M429 735l102 118h140l-156 -118h-86zM659 0h-209l-178 494l-87 -494h-156l122 690h201l183 -509l89 509h157z" />
    <glyph glyph-name="nacute" unicode="&#x144;" horiz-adv-x="631" 
d="M322 572l105 121h140l-159 -121h-86zM436 547q82 0 121.5 -38.5t39.5 -98.5q0 -21 -2.5 -44t-9.5 -60l-55 -306h-156l49 274q5 29 7.5 50t2.5 35q0 36 -17 58t-62 22q-48 -1 -85.5 -46.5t-56.5 -148.5l-42 -244h-157l94 533h156l-14 -79l56 59q30 18 61.5 26t69.5 8z" />
    <glyph glyph-name="Ncommaaccent" unicode="&#x145;" horiz-adv-x="769" 
d="M659 0h-209l-178 494l-87 -494h-156l122 690h201l183 -509l89 509h157zM408 -41v-9l-113 -161h-84l87 170h110z" />
    <glyph glyph-name="ncommaaccent" unicode="&#x146;" horiz-adv-x="631" 
d="M436 547q82 0 121.5 -38.5t39.5 -98.5q0 -21 -2.5 -44t-9.5 -60l-55 -306h-156l49 274q5 29 7.5 50t2.5 35q0 36 -17 58t-62 22q-48 -1 -85.5 -46.5t-56.5 -148.5l-42 -244h-157l94 533h156l-14 -79l56 59q30 18 61.5 26t69.5 8zM329 -41v-9l-113 -161h-84l87 170h110z
" />
    <glyph glyph-name="Ncaron" unicode="&#x147;" horiz-adv-x="769" 
d="M373 853h94l20 -68l45 68h94l-84 -118h-127zM659 0h-209l-178 494l-87 -494h-156l122 690h201l183 -509l89 509h157z" />
    <glyph glyph-name="ncaron" unicode="&#x148;" horiz-adv-x="631" 
d="M267 693h94l20 -69l46 69h93l-85 -121h-126zM436 547q82 0 121.5 -38.5t39.5 -98.5q0 -21 -2.5 -44t-9.5 -60l-55 -306h-156l49 274q5 29 7.5 50t2.5 35q0 36 -17 58t-62 22q-48 -1 -85.5 -46.5t-56.5 -148.5l-42 -244h-157l94 533h156l-14 -79l56 59q30 18 61.5 26
t69.5 8z" />
    <glyph glyph-name="Eng" unicode="&#x14a;" horiz-adv-x="769" 
d="M649 -60q-8 -48 -22 -79t-41.5 -50t-74.5 -26.5t-121 -7.5l20 116q45 4 62.5 19t22.5 42l4 23l-230 515l-83 -492h-156l121 690h201l194 -468l78 468h157z" />
    <glyph glyph-name="eng" unicode="&#x14b;" horiz-adv-x="631" 
d="M436 547q82 0 121.5 -38.5t39.5 -98.5q0 -21 -2.5 -44t-9.5 -60l-58 -324q-3 -16 -5.5 -26t-6.5 -21q-13 -34 -31.5 -55t-47.5 -33t-69.5 -16.5t-96.5 -4.5l20 116q44 0 60.5 11.5t21.5 37.5l51 283q5 29 7.5 50t2.5 35q0 36 -17 58t-62 22q-48 -1 -85.5 -46.5
t-56.5 -148.5l-42 -244h-157l94 533h156l-14 -79l56 59q30 18 61.5 26t69.5 8z" />
    <glyph glyph-name="Omacron" unicode="&#x14c;" horiz-adv-x="793" 
d="M354 759l15 85h285l-15 -85h-285zM462 704q77 0 136 -23t99 -63t61 -95t21 -118q0 -92 -29 -169t-81.5 -132.5t-126 -86.5t-161.5 -31q-76 0 -135.5 23t-99.5 63t-61 95t-21 118q0 93 29 170t81.5 132.5t126 86t161.5 30.5zM390 102q57 0 98.5 27.5t69.5 71t41.5 96.5
t13.5 104q0 84 -41 135.5t-119 51.5q-57 0 -99 -27.5t-69.5 -71t-41 -96.5t-13.5 -104q0 -82 41 -134.5t119 -52.5z" />
    <glyph glyph-name="omacron" unicode="&#x14d;" horiz-adv-x="626" 
d="M228 588l15 85h285l-15 -85h-285zM350 547q64 0 111.5 -18t79 -49.5t47 -75t15.5 -94.5q0 -62 -20 -120.5t-60.5 -103.5t-101.5 -72.5t-143 -27.5q-64 0 -112 18t-79.5 49.5t-47 75t-15.5 94.5q0 62 20 120.5t60.5 103.5t102 72.5t143.5 27.5zM290 94q37 0 64.5 18.5
t46 48.5t27.5 68t9 78q0 57 -24 94.5t-76 37.5q-36 0 -63.5 -18t-46 -48t-28 -68t-9.5 -78q0 -57 24.5 -95t75.5 -38z" />
    <glyph glyph-name="Ohungarumlaut" unicode="&#x150;" horiz-adv-x="793" 
d="M330 736l103 117h140l-157 -117h-86zM618 853h140l-156 -117h-86zM462 704q77 0 136 -23t99 -63t61 -95t21 -118q0 -92 -29 -169t-81.5 -132.5t-126 -86.5t-161.5 -31q-76 0 -135.5 23t-99.5 63t-61 95t-21 118q0 93 29 170t81.5 132.5t126 86t161.5 30.5zM390 102
q57 0 98.5 27.5t69.5 71t41.5 96.5t13.5 104q0 84 -41 135.5t-119 51.5q-57 0 -99 -27.5t-69.5 -71t-41 -96.5t-13.5 -104q0 -82 41 -134.5t119 -52.5z" />
    <glyph glyph-name="ohungarumlaut" unicode="&#x151;" horiz-adv-x="626" 
d="M208 572l105 121h140l-159 -121h-86zM502 693h140l-159 -121h-86zM350 547q64 0 111.5 -18t79 -49.5t47 -75t15.5 -94.5q0 -62 -20 -120.5t-60.5 -103.5t-101.5 -72.5t-143 -27.5q-64 0 -112 18t-79.5 49.5t-47 75t-15.5 94.5q0 62 20 120.5t60.5 103.5t102 72.5
t143.5 27.5zM290 94q37 0 64.5 18.5t46 48.5t27.5 68t9 78q0 57 -24 94.5t-76 37.5q-36 0 -63.5 -18t-46 -48t-28 -68t-9.5 -78q0 -57 24.5 -95t75.5 -38z" />
    <glyph glyph-name="OE" unicode="&#x152;" horiz-adv-x="1138" 
d="M776 407h322l-21 -122h-323l-28 -162h355l-22 -123h-512l20 111l-42 -67q-22 -17 -43.5 -28t-44.5 -18t-49.5 -9.5t-59.5 -2.5q-58 0 -107.5 18t-84.5 54t-55 90.5t-20 127.5q0 76 24 152t73 137.5t123 100t173 38.5q34 0 60 -2.5t46.5 -9.5t37.5 -17.5t33 -27.5l19 -67
l19 110h502l-22 -122h-345zM381 102q86 0 146 64t81 179q8 45 6.5 89t-17 78t-46.5 55t-84 21q-64 0 -109.5 -28.5t-75 -72.5t-43.5 -98.5t-14 -105.5q0 -95 42 -138t114 -43z" />
    <glyph glyph-name="oe" unicode="&#x153;" horiz-adv-x="994" 
d="M580 226q-1 -8 -1 -14v-10q0 -61 25 -84.5t64 -23.5q42 0 72.5 21t43.5 59h155q-38 -93 -112.5 -140.5t-175.5 -47.5q-57 0 -103 22.5t-71 76.5q-42 -53 -98 -76t-118 -23q-115 0 -177 60t-62 165q0 53 18.5 112t58 108t102.5 81t151 32q66 0 115 -23.5t75 -77.5
q44 54 100 77.5t120 23.5q53 0 92.5 -16.5t65.5 -45t39 -67t13 -82.5q0 -28 -5 -56t-13 -51h-374zM280 94q43 0 72.5 23.5t48 58t27 74t8.5 72.5q0 52 -24.5 83t-70.5 31q-43 0 -73 -22t-48.5 -55t-26.5 -71.5t-8 -72.5q0 -55 24.5 -88t70.5 -33zM730 436q-43 0 -75.5 -26.5
t-51.5 -84.5h209q2 7 2 11.5v7.5q0 46 -22 69t-62 23z" />
    <glyph glyph-name="Racute" unicode="&#x154;" horiz-adv-x="655" 
d="M352 735l102 118h140l-156 -118h-86zM671 535q0 -82 -46.5 -133t-130.5 -72q46 -17 63.5 -63.5t17.5 -138.5q0 -81 21 -128h-170q-2 13 -3.5 27t-2 33t-1.5 43.5t-1 58.5q0 49 -16 77.5t-51 30.5q-14 1 -27.5 1h-27.5h-63l-48 -271h-156l122 690h262q31 0 54 -1t49 -4
q32 -4 60.5 -14.5t49.5 -28.5t33 -44.5t12 -62.5zM389 387q22 2 42 8.5t35.5 19.5t24.5 33t9 48q0 36 -21 51.5t-53 18.5q-11 1 -23.5 1.5t-29.5 0.5h-88l-32 -182h83h29.5t23.5 1z" />
    <glyph glyph-name="racute" unicode="&#x155;" horiz-adv-x="393" 
d="M207 572l105 121h140l-159 -121h-86zM300 505q23 21 51.5 31.5t52.5 10.5q12 0 21 -1t18 -3l-22 -127q-35 3 -68 -2t-61 -25.5t-49.5 -60t-33.5 -105.5l-39 -223h-157l93 530h157l-18 -100z" />
    <glyph glyph-name="Rcommaaccent" unicode="&#x156;" horiz-adv-x="655" 
d="M671 535q0 -82 -46.5 -133t-130.5 -72q46 -17 63.5 -63.5t17.5 -138.5q0 -81 21 -128h-170q-2 13 -3.5 27t-2 33t-1.5 43.5t-1 58.5q0 49 -16 77.5t-51 30.5q-14 1 -27.5 1h-27.5h-63l-48 -271h-156l122 690h262q31 0 54 -1t49 -4q32 -4 60.5 -14.5t49.5 -28.5t33 -44.5
t12 -62.5zM389 387q22 2 42 8.5t35.5 19.5t24.5 33t9 48q0 36 -21 51.5t-53 18.5q-11 1 -23.5 1.5t-29.5 0.5h-88l-32 -182h83h29.5t23.5 1zM329 -41v-9l-113 -161h-84l87 170h110z" />
    <glyph glyph-name="rcommaaccent" unicode="&#x157;" horiz-adv-x="393" 
d="M404 547q12 0 21 -1t18 -3l-22 -127q-35 3 -68 -2t-61 -25.5t-49.5 -60t-33.5 -105.5l-39 -223h-157l93 530h157l-18 -100l55 75q23 21 51.5 31.5t52.5 10.5zM151 -41v-9l-113 -161h-85l88 170h110z" />
    <glyph glyph-name="Rcaron" unicode="&#x158;" horiz-adv-x="655" 
d="M297 853h94l20 -68l45 68h94l-84 -118h-127zM671 535q0 -82 -46.5 -133t-130.5 -72q46 -17 63.5 -63.5t17.5 -138.5q0 -81 21 -128h-170q-2 13 -3.5 27t-2 33t-1.5 43.5t-1 58.5q0 49 -16 77.5t-51 30.5q-14 1 -27.5 1h-27.5h-63l-48 -271h-156l122 690h262q31 0 54 -1
t49 -4q32 -4 60.5 -14.5t49.5 -28.5t33 -44.5t12 -62.5zM389 387q22 2 42 8.5t35.5 19.5t24.5 33t9 48q0 36 -21 51.5t-53 18.5q-11 1 -23.5 1.5t-29.5 0.5h-88l-32 -182h83h29.5t23.5 1z" />
    <glyph glyph-name="rcaron" unicode="&#x159;" horiz-adv-x="393" 
d="M152 693h94l20 -69l46 69h93l-85 -121h-126zM404 547q12 0 21 -1t18 -3l-22 -127q-35 3 -68 -2t-61 -25.5t-49.5 -60t-33.5 -105.5l-39 -223h-157l93 530h157l-18 -100l55 75q23 21 51.5 31.5t52.5 10.5z" />
    <glyph glyph-name="Sacute" unicode="&#x15a;" horiz-adv-x="612" 
d="M329 735l102 118h140l-156 -118h-86zM375 704q65 0 110 -17t73.5 -46.5t40.5 -70t9 -87.5h-158q3 48 -19.5 76.5t-72.5 28.5q-42 0 -70 -22t-28 -65q0 -32 29 -53.5t101 -38.5q95 -23 139 -70t44 -116q0 -58 -25 -102t-66.5 -74t-96.5 -45.5t-115 -15.5t-109.5 13.5
t-83 41t-50 69t-11.5 97.5h158q1 -54 33.5 -79.5t80.5 -25.5t82 24.5t34 66.5q0 29 -25.5 52.5t-85.5 39.5q-47 12 -84.5 27.5t-63.5 37t-40 50t-14 66.5q0 57 23.5 101.5t63 74.5t91 46t106.5 16z" />
    <glyph glyph-name="sacute" unicode="&#x15b;" horiz-adv-x="499" 
d="M252 572l105 121h140l-159 -121h-86zM275 544q55 0 94 -13t64.5 -35.5t38.5 -53.5t15 -67h-154q-4 33 -19.5 51t-44.5 18t-44 -14.5t-15 -34.5q0 -14 5 -25t17 -20t32.5 -17.5t50.5 -18.5q78 -26 114 -62.5t36 -98.5q0 -41 -17.5 -73t-49.5 -54.5t-76.5 -34t-97.5 -11.5
q-112 0 -171.5 47t-64.5 131h156q4 -42 28 -59.5t58 -17.5q31 0 51 14t20 42q0 13 -5.5 24t-18.5 21t-35 20t-55 21q-32 11 -58 24t-44.5 30.5t-28.5 41t-10 56.5q0 34 14.5 64.5t43.5 54t71.5 37t99.5 13.5z" />
    <glyph glyph-name="Scedilla" unicode="&#x15e;" horiz-adv-x="612" 
d="M450 483q3 48 -19.5 76.5t-72.5 28.5q-42 0 -70 -22t-28 -65q0 -32 29 -53.5t101 -38.5q95 -23 139 -70t44 -116q0 -55 -22.5 -97.5t-60.5 -72.5t-88.5 -46.5t-106.5 -19.5l-19 -29q79 -12 79 -70q0 -26 -12 -44.5t-33 -30.5t-48.5 -17.5t-57.5 -5.5q-54 0 -78 7l12 62
q14 -5 27.5 -6t27.5 -1q32 0 49 9t17 25q0 19 -25.5 25.5t-65.5 2.5l50 75q-49 5 -88.5 21.5t-66 43.5t-39 65.5t-8.5 87.5h158q1 -54 33.5 -79.5t80.5 -25.5t82 24.5t34 66.5q0 29 -25.5 52.5t-85.5 39.5q-47 12 -84.5 27.5t-63.5 37t-40 50t-14 66.5q0 57 23.5 101.5
t63 74.5t91 46t106.5 16q65 0 110 -17t73.5 -46.5t40.5 -70t9 -87.5h-158z" />
    <glyph glyph-name="scedilla" unicode="&#x15f;" horiz-adv-x="499" 
d="M315 314q78 -26 114 -62.5t36 -98.5q0 -40 -17.5 -72t-48.5 -54t-74.5 -34t-95.5 -13l-15 -22q80 -12 80 -70q0 -26 -12 -44.5t-33 -30.5t-48.5 -17.5t-57.5 -5.5q-54 0 -78 7l12 62q14 -5 27.5 -6t27.5 -1q32 0 49 9t17 25q0 19 -25.5 25.5t-65.5 2.5l48 72
q-79 14 -121 58.5t-46 113.5h156q4 -42 28 -59.5t58 -17.5q31 0 51 14t20 42q0 13 -5.5 24t-18.5 21t-35 20t-55 21q-32 11 -58 24t-44.5 30.5t-28.5 41t-10 56.5q0 34 14.5 64.5t43.5 54t71.5 37t99.5 13.5q55 0 94 -13t64.5 -35.5t38.5 -53.5t15 -67h-154q-4 33 -19.5 51
t-44.5 18t-44 -14.5t-15 -34.5q0 -14 5 -25t17 -20t32.5 -17.5t50.5 -18.5z" />
    <glyph glyph-name="Scaron" unicode="&#x160;" horiz-adv-x="612" 
d="M274 853h94l20 -68l45 68h94l-84 -118h-127zM450 483q3 48 -19.5 76.5t-72.5 28.5q-42 0 -70 -22t-28 -65q0 -32 29 -53.5t101 -38.5q95 -23 139 -70t44 -116q0 -58 -25 -102t-66.5 -74t-96.5 -45.5t-115 -15.5t-109.5 13.5t-83 41t-50 69t-11.5 97.5h158
q1 -54 33.5 -79.5t80.5 -25.5t82 24.5t34 66.5q0 29 -25.5 52.5t-85.5 39.5q-47 12 -84.5 27.5t-63.5 37t-40 50t-14 66.5q0 57 23.5 101.5t63 74.5t91 46t106.5 16q65 0 110 -17t73.5 -46.5t40.5 -70t9 -87.5h-158z" />
    <glyph glyph-name="scaron" unicode="&#x161;" horiz-adv-x="499" 
d="M197 693h94l20 -69l46 69h93l-85 -121h-126zM315 314q78 -26 114 -62.5t36 -98.5q0 -41 -17.5 -73t-49.5 -54.5t-76.5 -34t-97.5 -11.5q-112 0 -171.5 47t-64.5 131h156q4 -42 28 -59.5t58 -17.5q31 0 51 14t20 42q0 13 -5.5 24t-18.5 21t-35 20t-55 21q-32 11 -58 24
t-44.5 30.5t-28.5 41t-10 56.5q0 34 14.5 64.5t43.5 54t71.5 37t99.5 13.5q55 0 94 -13t64.5 -35.5t38.5 -53.5t15 -67h-154q-4 33 -19.5 51t-44.5 18t-44 -14.5t-15 -34.5q0 -14 5 -25t17 -20t32.5 -17.5t50.5 -18.5z" />
    <glyph glyph-name="Tcedilla" unicode="&#x162;" horiz-adv-x="627" 
d="M292 -42q80 -12 80 -70q0 -26 -12 -44.5t-33 -30.5t-48.5 -17.5t-57.5 -5.5q-54 0 -78 7l12 62q14 -5 27.5 -6t27.5 -1q32 0 49 9t17 25q0 19 -25.5 25.5t-65.5 2.5l57 86h-40l100 568h-230l22 122h616l-23 -122h-229l-100 -568h-37z" />
    <glyph glyph-name="tcedilla" unicode="&#x163;" horiz-adv-x="372" 
d="M229 205q-5 -22 -6 -34.5t-1 -25.5q0 -33 23.5 -42.5t74.5 -2.5l-18 -101q-54 -12 -110 -12l-20 -29q80 -12 80 -70q0 -26 -12 -44.5t-33 -30.5t-48.5 -17.5t-57.5 -5.5q-54 0 -78 7l12 62q14 -5 27.5 -6t27.5 -1q32 0 49 9t17 25q0 19 -25.5 25.5t-65.5 2.5l54 82
q-33 11 -47.5 32.5t-14.5 55.5q0 17 2.5 40t8.5 60l43 245h-77l18 100h77l24 134h157l-24 -134h110l-18 -100h-109z" />
    <glyph glyph-name="Tcaron" unicode="&#x164;" horiz-adv-x="627" 
d="M306 853h94l20 -68l45 68h94l-84 -118h-127zM458 568l-100 -568h-156l100 568h-230l22 122h616l-23 -122h-229z" />
    <glyph glyph-name="tcaron" unicode="&#x165;" horiz-adv-x="372" 
d="M527 737l-114 -161h-84l87 170h111v-9zM396 529l-18 -100h-109l-40 -224q-5 -22 -6 -34.5t-1 -25.5q0 -33 23.5 -42.5t74.5 -2.5l-18 -101q-54 -12 -110 -12q-73 0 -104 24t-31 73q0 17 2.5 40t8.5 60l43 245h-77l18 100h77l24 134h157l-24 -134h110z" />
    <glyph glyph-name="Tbar" unicode="&#x166;" horiz-adv-x="655" 
d="M426 382h100l-15 -86h-101l-52 -296h-156l52 296h-91l16 86h91l32 186h-230l22 122h616l-23 -122h-229z" />
    <glyph glyph-name="tbar" unicode="&#x167;" horiz-adv-x="372" 
d="M253 342h71l-15 -85h-71l-9 -52q-5 -22 -6 -34.5t-1 -25.5q0 -33 23.5 -42.5t74.5 -2.5l-18 -101q-54 -12 -110 -12q-73 0 -104 24t-31 73q0 17 2.5 40t8.5 60l13 73h-57l15 85h57l15 87h-77l18 100h77l24 134h157l-24 -134h110l-18 -100h-109z" />
    <glyph glyph-name="Umacron" unicode="&#x16a;" horiz-adv-x="710" 
d="M314 759l15 85h285l-15 -85h-285zM671 306q-5 -29 -9 -49t-11 -47q-12 -50 -35 -91.5t-60.5 -71t-92 -45.5t-129.5 -16q-67 0 -117 15t-83 41.5t-49 63t-16 80.5q0 26 3.5 53.5t11.5 75.5l66 375h156l-74 -420q-4 -21 -5.5 -35.5t-1.5 -29.5q0 -50 33.5 -76.5t87.5 -26.5
q60 0 97.5 26t54.5 94q3 11 5 21.5t5 24.5l74 422h156z" />
    <glyph glyph-name="umacron" unicode="&#x16b;" horiz-adv-x="626" 
d="M240 588l15 85h285l-15 -85h-285zM520 0h-156l14 79l-56 -59q-30 -18 -61.5 -26t-69.5 -8q-81 0 -121 38.5t-40 98.5q0 21 2.5 44t9.5 61l55 305h157l-50 -274q-5 -28 -7.5 -49.5t-2.5 -35.5q0 -35 17.5 -57.5t61.5 -21.5q48 0 86 45.5t56 148.5l43 244h156z" />
    <glyph glyph-name="Uring" unicode="&#x16e;" horiz-adv-x="710" 
d="M482 918q45 0 72 -25t27 -61q0 -51 -36 -81t-93 -30q-45 0 -72 24.5t-27 60.5q0 51 36 81.5t93 30.5zM474 859q-18 0 -31.5 -13t-13.5 -36q0 -14 8.5 -22.5t22.5 -8.5q18 0 31.5 13.5t13.5 35.5q0 14 -8.5 22.5t-22.5 8.5zM671 306q-5 -29 -9 -49t-11 -47
q-12 -50 -35 -91.5t-60.5 -71t-92 -45.5t-129.5 -16q-67 0 -117 15t-83 41.5t-49 63t-16 80.5q0 26 3.5 53.5t11.5 75.5l66 375h156l-74 -420q-4 -21 -5.5 -35.5t-1.5 -29.5q0 -50 33.5 -76.5t87.5 -26.5q60 0 97.5 26t54.5 94q3 11 5 21.5t5 24.5l74 422h156z" />
    <glyph glyph-name="uring" unicode="&#x16f;" horiz-adv-x="626" 
d="M381 567q-46 0 -72.5 22.5t-26.5 63.5q0 50 35.5 83t95.5 33q45 0 71 -22.5t26 -63.5q0 -51 -35.5 -83.5t-93.5 -32.5zM403 711q-24 0 -34.5 -18.5t-10.5 -35.5q0 -32 31 -32q24 0 34.5 18.5t10.5 35.5q0 32 -31 32zM520 0h-156l14 79l-56 -59q-30 -18 -61.5 -26
t-69.5 -8q-81 0 -121 38.5t-40 98.5q0 21 2.5 44t9.5 61l55 305h157l-50 -274q-5 -28 -7.5 -49.5t-2.5 -35.5q0 -35 17.5 -57.5t61.5 -21.5q48 0 86 45.5t56 148.5l43 244h156z" />
    <glyph glyph-name="Uhungarumlaut" unicode="&#x170;" horiz-adv-x="710" 
d="M289 736l103 117h140l-157 -117h-86zM475 736l102 117h140l-156 -117h-86zM671 306q-5 -29 -9 -49t-11 -47q-12 -50 -35 -91.5t-60.5 -71t-92 -45.5t-129.5 -16q-67 0 -117 15t-83 41.5t-49 63t-16 80.5q0 26 3.5 53.5t11.5 75.5l66 375h156l-74 -420q-4 -21 -5.5 -35.5
t-1.5 -29.5q0 -50 33.5 -76.5t87.5 -26.5q60 0 97.5 26t54.5 94q3 11 5 21.5t5 24.5l74 422h156z" />
    <glyph glyph-name="uhungarumlaut" unicode="&#x171;" horiz-adv-x="626" 
d="M220 572l105 121h140l-159 -121h-86zM514 693h140l-159 -121h-86zM614 533l-94 -533h-156l14 79l-56 -59q-30 -18 -61.5 -26t-69.5 -8q-81 0 -121 38.5t-40 98.5q0 21 2.5 44t9.5 61l55 305h157l-50 -274q-5 -28 -7.5 -49.5t-2.5 -35.5q0 -35 17.5 -57.5t61.5 -21.5
q48 0 86 45.5t56 148.5l43 244h156z" />
    <glyph glyph-name="Uogonek" unicode="&#x172;" horiz-adv-x="710" 
d="M671 306q-5 -29 -9 -49t-11 -47q-10 -43 -28.5 -79.5t-47 -65t-69 -47.5t-95.5 -27q-21 -13 -33 -37.5t-12 -46.5q0 -23 10.5 -31.5t25.5 -8.5q11 0 23 3.5t26 12.5l-12 -62q-23 -20 -57 -32t-74 -12q-42 0 -69 17.5t-27 59.5q0 80 84 133q-115 8 -171 63t-56 136
q0 26 3.5 53.5t11.5 75.5l66 375h156l-74 -420q-4 -21 -5.5 -35.5t-1.5 -29.5q0 -50 33.5 -76.5t87.5 -26.5q60 0 97.5 26t54.5 94q3 11 5 21.5t5 24.5l74 422h156z" />
    <glyph glyph-name="uogonek" unicode="&#x173;" horiz-adv-x="626" 
d="M490 0q-17 -1 -30.5 -10.5t-23 -23t-14.5 -29.5t-5 -30q0 -23 10.5 -31.5t25.5 -8.5q11 0 23 3.5t26 12.5l-12 -62q-23 -20 -57 -32t-74 -12q-42 0 -69 17.5t-27 59.5q0 45 27 81.5t79 64.5h-5l14 79l-56 -59q-30 -18 -61.5 -26t-69.5 -8q-81 0 -121 38.5t-40 98.5
q0 21 2.5 44t9.5 61l55 305h157l-50 -274q-5 -28 -7.5 -49.5t-2.5 -35.5q0 -35 17.5 -57.5t61.5 -21.5q48 0 86 45.5t56 148.5l43 244h156l-94 -533h-30z" />
    <glyph glyph-name="Wcircumflex" unicode="&#x174;" horiz-adv-x="1000" 
d="M475 735l84 118h127l42 -118h-94l-20 68l-45 -68h-94zM783 0h-208l-11 536l-200 -536h-210l-53 690h163l19 -557l195 547h225v-552l207 562h173z" />
    <glyph glyph-name="wcircumflex" unicode="&#x175;" horiz-adv-x="823" 
d="M342 572l85 121h126l42 -121h-94l-20 72l-46 -72h-93zM621 0h-177l-12 388l-148 -388h-177l-75 533h173l15 -395l144 392h188l12 -394l151 397h169z" />
    <glyph glyph-name="Ycircumflex" unicode="&#x176;" horiz-adv-x="658" 
d="M301 735l84 118h127l42 -118h-94l-20 68l-45 -68h-94zM376 0h-157l47 266l-168 424h167l104 -292l197 292h175l-319 -429z" />
    <glyph glyph-name="ycircumflex" unicode="&#x177;" horiz-adv-x="562" 
d="M204 572l85 121h126l42 -121h-94l-20 72l-46 -72h-93zM321 0q-33 -59 -63.5 -99t-62.5 -65t-67.5 -35.5t-79.5 -10.5q-19 0 -34.5 1.5t-32.5 3.5l17 103q23 -3 46 -3q32 0 56 15.5t44 53.5l6 11l-118 558h175l50 -404l193 404h172z" />
    <glyph glyph-name="Ydieresis" unicode="&#x178;" horiz-adv-x="658" 
d="M337 726q-29 0 -45 14.5t-16 40.5q0 37 24.5 57t51.5 20q28 0 44 -14.5t16 -40.5q0 -36 -24 -56.5t-51 -20.5zM522 726q-29 0 -45 14.5t-16 40.5q0 37 24.5 57t51.5 20q28 0 44 -14.5t16 -40.5q0 -36 -24 -56.5t-51 -20.5zM376 0h-157l47 266l-168 424h167l104 -292
l197 292h175l-319 -429z" />
    <glyph glyph-name="Zacute" unicode="&#x179;" horiz-adv-x="634" 
d="M367 735l102 118h140l-156 -118h-86zM222 123h359l-22 -123h-555l21 119l437 449h-330l22 122h522l-21 -121z" />
    <glyph glyph-name="zacute" unicode="&#x17a;" horiz-adv-x="526" 
d="M264 572l105 121h140l-159 -121h-86zM185 101h285l-17 -101h-473l16 95l339 333h-257l17 101h443l-18 -100z" />
    <glyph glyph-name="Zdotaccent" unicode="&#x17b;" horiz-adv-x="634" 
d="M418 726q-33 0 -52 17.5t-19 48.5q0 17 6 32.5t17.5 28.5t28.5 20.5t39 7.5q33 0 52.5 -17.5t19.5 -48.5q0 -16 -6 -32t-17.5 -28.5t-28.5 -20.5t-40 -8zM222 123h359l-22 -123h-555l21 119l437 449h-330l22 122h522l-21 -121z" />
    <glyph glyph-name="zdotaccent" unicode="&#x17c;" horiz-adv-x="526" 
d="M320 580q-34 0 -53.5 18t-19.5 50q0 17 6 33.5t18 29t29.5 20.5t40.5 8q34 0 53.5 -18t19.5 -49q0 -17 -6 -33.5t-18 -29.5t-29.5 -21t-40.5 -8zM185 101h285l-17 -101h-473l16 95l339 333h-257l17 101h443l-18 -100z" />
    <glyph glyph-name="Zcaron" unicode="&#x17d;" horiz-adv-x="634" 
d="M311 853h94l20 -68l45 68h94l-84 -118h-127zM222 123h359l-22 -123h-555l21 119l437 449h-330l22 122h522l-21 -121z" />
    <glyph glyph-name="zcaron" unicode="&#x17e;" horiz-adv-x="526" 
d="M209 693h94l20 -69l46 69h93l-85 -121h-126zM185 101h285l-17 -101h-473l16 95l339 333h-257l17 101h443l-18 -100z" />
    <glyph glyph-name="Scommaaccent" unicode="&#x218;" horiz-adv-x="612" 
d="M375 704q65 0 110 -17t73.5 -46.5t40.5 -70t9 -87.5h-158q3 48 -19.5 76.5t-72.5 28.5q-42 0 -70 -22t-28 -65q0 -32 29 -53.5t101 -38.5q95 -23 139 -70t44 -116q0 -58 -25 -102t-66.5 -74t-96.5 -45.5t-115 -15.5t-109.5 13.5t-83 41t-50 69t-11.5 97.5h158
q1 -54 33.5 -79.5t80.5 -25.5t82 24.5t34 66.5q0 29 -25.5 52.5t-85.5 39.5q-47 12 -84.5 27.5t-63.5 37t-40 50t-14 66.5q0 57 23.5 101.5t63 74.5t91 46t106.5 16zM210 -211h-84l87 170h110v-9z" />
    <glyph glyph-name="scommaaccent" unicode="&#x219;" horiz-adv-x="499" 
d="M275 544q55 0 94 -13t64.5 -35.5t38.5 -53.5t15 -67h-154q-4 33 -19.5 51t-44.5 18t-44 -14.5t-15 -34.5q0 -14 5 -25t17 -20t32.5 -17.5t50.5 -18.5q78 -26 114 -62.5t36 -98.5q0 -41 -17.5 -73t-49.5 -54.5t-76.5 -34t-97.5 -11.5q-112 0 -171.5 47t-64.5 131h156
q4 -42 28 -59.5t58 -17.5q31 0 51 14t20 42q0 13 -5.5 24t-18.5 21t-35 20t-55 21q-32 11 -58 24t-44.5 30.5t-28.5 41t-10 56.5q0 34 14.5 64.5t43.5 54t71.5 37t99.5 13.5zM148 -211h-84l87 170h110v-9z" />
    <glyph glyph-name="uni021A" unicode="&#x21a;" horiz-adv-x="627" 
d="M458 568l-100 -568h-156l100 568h-230l22 122h616l-23 -122h-229zM340 -41v-9l-113 -161h-84l87 170h110z" />
    <glyph glyph-name="uni021B" unicode="&#x21b;" horiz-adv-x="372" 
d="M229 205q-5 -22 -6 -34.5t-1 -25.5q0 -33 23.5 -42.5t74.5 -2.5l-18 -101q-54 -12 -110 -12q-73 0 -104 24t-31 73q0 17 2.5 40t8.5 60l43 245h-77l18 100h77l24 134h157l-24 -134h110l-18 -100h-109zM219 -41v-9l-113 -161h-84l87 170h110z" />
    <glyph glyph-name="circumflex" unicode="&#x2c6;" horiz-adv-x="300" 
d="M154 644l-46 -72h-93l85 121h126l42 -121h-94z" />
    <glyph glyph-name="caron" unicode="&#x2c7;" horiz-adv-x="300" 
d="M203 572h-126l-42 121h94l20 -69l46 69h93z" />
    <glyph glyph-name="breve" unicode="&#x2d8;" horiz-adv-x="300" 
d="M289 695q-12 -67 -55 -97.5t-96 -30.5q-36 0 -58.5 11t-33.5 29t-13 41t2 47h81q-3 -21 3.5 -36t31.5 -15q44 0 57 51h81z" />
    <glyph glyph-name="dotaccent" unicode="&#x2d9;" horiz-adv-x="300" 
d="M162 739q34 0 53.5 -18t19.5 -49q0 -17 -6 -33.5t-18 -29.5t-29.5 -21t-40.5 -8q-34 0 -53.5 18t-19.5 50q0 17 6 33.5t18 29t29.5 20.5t40.5 8z" />
    <glyph glyph-name="ring" unicode="&#x2da;" horiz-adv-x="300" 
d="M167 769q45 0 71 -22.5t26 -63.5q0 -51 -35.5 -83.5t-93.5 -32.5q-46 0 -72.5 22.5t-26.5 63.5q0 50 35.5 83t95.5 33zM157 711q-24 0 -34.5 -18.5t-10.5 -35.5q0 -32 31 -32q24 0 34.5 18.5t10.5 35.5q0 32 -31 32z" />
    <glyph glyph-name="ogonek" unicode="&#x2db;" horiz-adv-x="300" 
d="M277 0q-17 -1 -30.5 -10.5t-23 -23t-14.5 -29.5t-5 -30q0 -23 10.5 -31.5t25.5 -8.5q11 0 23 3.5t26 12.5l-12 -62q-23 -20 -57 -32t-74 -12q-42 0 -69 17.5t-27 59.5q0 48 30.5 86.5t89.5 66.5z" />
    <glyph glyph-name="tilde" unicode="&#x2dc;" horiz-adv-x="300" 
d="M84 697q17 0 33.5 -3.5t44.5 -15.5q17 -7 27.5 -9.5t18.5 -2.5q15 0 21 28h81q-11 -63 -32 -90.5t-62 -27.5q-16 0 -32.5 3t-45.5 16q-16 7 -26 9.5t-18 2.5q-18 0 -22 -28h-82q11 63 32 90.5t62 27.5z" />
    <glyph glyph-name="hungarumlaut" unicode="&#x2dd;" horiz-adv-x="300" 
d="M-20 572l105 121h140l-159 -121h-86zM169 572l105 121h140l-159 -121h-86z" />
    <glyph glyph-name="uni0326" unicode="&#x326;" horiz-adv-x="0" 
d="M119 -211h-84l87 170h110v-9z" />
    <glyph glyph-name="Wgrave" unicode="&#x1e80;" horiz-adv-x="1000" 
d="M454 853h140l62 -118h-86zM783 0h-208l-11 536l-200 -536h-210l-53 690h163l19 -557l195 547h225v-552l207 562h173z" />
    <glyph glyph-name="wgrave" unicode="&#x1e81;" horiz-adv-x="823" 
d="M323 693h140l62 -121h-86zM621 0h-177l-12 388l-148 -388h-177l-75 533h173l15 -395l144 392h188l12 -394l151 397h169z" />
    <glyph glyph-name="Wacute" unicode="&#x1e82;" horiz-adv-x="1000" 
d="M553 735l102 118h140l-156 -118h-86zM783 0h-208l-11 536l-200 -536h-210l-53 690h163l19 -557l195 547h225v-552l207 562h173z" />
    <glyph glyph-name="wacute" unicode="&#x1e83;" horiz-adv-x="823" 
d="M416 572l105 121h140l-159 -121h-86zM621 0h-177l-12 388l-148 -388h-177l-75 533h173l15 -395l144 392h188l12 -394l151 397h169z" />
    <glyph glyph-name="Wdieresis" unicode="&#x1e84;" horiz-adv-x="1000" 
d="M511 726q-29 0 -45 14.5t-16 40.5q0 37 24.5 57t51.5 20q28 0 44 -14.5t16 -40.5q0 -36 -24 -56.5t-51 -20.5zM696 726q-29 0 -45 14.5t-16 40.5q0 37 24.5 57t51.5 20q28 0 44 -14.5t16 -40.5q0 -36 -24 -56.5t-51 -20.5zM783 0h-208l-11 536l-200 -536h-210l-53 690
h163l19 -557l195 547h225v-552l207 562h173z" />
    <glyph glyph-name="wdieresis" unicode="&#x1e85;" horiz-adv-x="823" 
d="M372 573q-61 0 -61 55q0 36 24.5 56.5t51.5 20.5q28 0 44 -14.5t16 -40.5q0 -37 -24 -57t-51 -20zM558 573q-29 0 -44.5 14.5t-15.5 40.5q0 36 24.5 56.5t51.5 20.5q28 0 44 -14.5t16 -40.5q0 -37 -24.5 -57t-51.5 -20zM621 0h-177l-12 388l-148 -388h-177l-75 533h173
l15 -395l144 392h188l12 -394l151 397h169z" />
    <glyph glyph-name="Ygrave" unicode="&#x1ef2;" horiz-adv-x="658" 
d="M280 853h140l62 -118h-86zM376 0h-157l47 266l-168 424h167l104 -292l197 292h175l-319 -429z" />
    <glyph glyph-name="ygrave" unicode="&#x1ef3;" horiz-adv-x="562" 
d="M185 693h140l62 -121h-86zM321 0q-33 -59 -63.5 -99t-62.5 -65t-67.5 -35.5t-79.5 -10.5q-19 0 -34.5 1.5t-32.5 3.5l17 103q23 -3 46 -3q32 0 56 15.5t44 53.5l6 11l-118 558h175l50 -404l193 404h172z" />
    <glyph glyph-name="endash" unicode="&#x2013;" horiz-adv-x="500" 
d="M78 248l14 86h330l-14 -86h-330z" />
    <glyph glyph-name="emdash" unicode="&#x2014;" horiz-adv-x="1000" 
d="M78 248l14 86h830l-14 -86h-830z" />
    <glyph glyph-name="quoteleft" unicode="&#x2018;" horiz-adv-x="270" 
d="M215 690h124l-128 -277h-149l1 11z" />
    <glyph glyph-name="quoteright" unicode="&#x2019;" horiz-adv-x="269" 
d="M156 413h-123l128 277h148v-10z" />
    <glyph glyph-name="quotesinglbase" unicode="&#x201a;" horiz-adv-x="271" 
d="M26 -123h-124l129 277h149l-1 -10z" />
    <glyph glyph-name="quotedblleft" unicode="&#x201c;" horiz-adv-x="500" 
d="M215 690h124l-129 -277h-148v11zM445 690h124l-129 -277h-148v11z" />
    <glyph glyph-name="quotedblright" unicode="&#x201d;" horiz-adv-x="499" 
d="M156 413h-123l128 277h148v-10zM386 413h-123l128 277h148v-10z" />
    <glyph glyph-name="quotedblbase" unicode="&#x201e;" horiz-adv-x="501" 
d="M26 -123h-124l129 277h149l-1 -10zM256 -123h-123l128 277h149l-1 -10z" />
    <glyph glyph-name="dagger" unicode="&#x2020;" horiz-adv-x="590" 
d="M353 352l-79 -512h-147l102 512l-181 -5l23 132l179 -5l27 216h147l-48 -216l178 5l-23 -132z" />
    <glyph glyph-name="daggerdbl" unicode="&#x2021;" horiz-adv-x="560" 
d="M313 178l182 5l-23 -132l-179 5l-27 -216h-147l48 216l-179 -5l24 132l178 -5l32 174l-181 -5l23 132l178 -5l27 216h147l-48 -216l179 5l-23 -132l-179 5z" />
    <glyph glyph-name="bullet" unicode="&#x2022;" horiz-adv-x="385" 
d="M214 429q47 0 76.5 -24.5t29.5 -71.5q0 -32 -10.5 -59.5t-30 -48t-47 -32t-61.5 -11.5q-46 0 -75.5 24t-29.5 71q0 32 10.5 60t30 48.5t46.5 32t61 11.5z" />
    <glyph glyph-name="ellipsis" unicode="&#x2026;" horiz-adv-x="821" 
d="M101 168q32 0 54 -18t22 -53q0 -51 -30.5 -81t-78.5 -30q-32 0 -54 18t-22 53q0 51 30.5 81t78.5 30zM376 168q32 0 54 -18t22 -53q0 -51 -30.5 -81t-78.5 -30q-32 0 -54 18t-22 53q0 51 30.5 81t78.5 30zM651 168q32 0 54 -18t22 -53q0 -51 -30.5 -81t-78.5 -30
q-32 0 -54 18t-22 53q0 51 30.5 81t78.5 30z" />
    <glyph glyph-name="perthousand" unicode="&#x2030;" horiz-adv-x="1123" 
d="M215 371q-64 0 -102.5 37t-38.5 103q0 37 11.5 71.5t34.5 61.5t57 43.5t79 16.5q63 0 101.5 -36.5t38.5 -103.5q0 -37 -11.5 -71.5t-34.5 -61.5t-56.5 -43.5t-78.5 -16.5zM189 0h-130l567 690h131zM246 626q-31 0 -50 -33.5t-19 -81.5q0 -32 12.5 -47t34.5 -15
q31 0 50.5 33.5t19.5 81.5q0 32 -12.5 47t-35.5 15zM600 319q63 0 101.5 -36.5t38.5 -103.5q0 -37 -11.5 -71.5t-34 -61.5t-56.5 -43.5t-79 -16.5q-63 0 -101.5 37t-38.5 103q0 37 11.5 71.5t34 61.5t56.5 43.5t79 16.5zM936 319q64 0 102.5 -36.5t38.5 -103.5
q0 -37 -11.5 -71.5t-34.5 -61.5t-57 -43.5t-79 -16.5q-63 0 -101.5 37t-38.5 103q0 37 11.5 71.5t34.5 61.5t56.5 43.5t78.5 16.5zM568 64q32 0 51 33.5t19 81.5q0 32 -12.5 47t-34.5 15q-32 0 -51 -33.5t-19 -81.5q0 -32 12.5 -47t34.5 -15zM905 64q31 0 50 33.5t19 81.5
q0 32 -12.5 47t-34.5 15q-31 0 -50.5 -33.5t-19.5 -81.5q0 -32 12.5 -47t35.5 -15z" />
    <glyph glyph-name="guilsinglleft" unicode="&#x2039;" horiz-adv-x="424" 
d="M330 82h-112l-108 166l166 166h127l-175 -174z" />
    <glyph glyph-name="guilsinglright" unicode="&#x203a;" horiz-adv-x="433" 
d="M141 82h-127l175 175l-102 157h112l108 -166z" />
    <glyph glyph-name="fraction" unicode="&#x2044;" horiz-adv-x="279" 
d="M-200 0l568 690h123l-568 -690h-123z" />
    <glyph glyph-name="Euro" unicode="&#x20ac;" 
d="M453 588q-66 0 -108 -33.5t-64 -98.5h231l-26 -86h-223q-2 -12 -3 -24.5t-2 -26.5h212l-24 -86h-187q7 -75 41.5 -103t86.5 -28q48 0 86 9.5t75 29.5l-21 -116q-40 -20 -82.5 -29.5t-105.5 -9.5q-106 0 -171.5 58.5t-72.5 188.5h-84l25 86h60q2 26 6 51h-50l25 86h45
q16 51 43.5 96.5t69.5 79t98.5 53t131.5 19.5q68 0 112 -17t67 -45l-73 -97q-26 23 -54 33t-64 10z" />
    <glyph glyph-name="trademark" unicode="&#x2122;" horiz-adv-x="538" 
d="M134 456h-58l28 160h-72l8 44h202l-8 -44h-72zM472 456h-58l27 142l-59 -138h-59l-11 137l-24 -141h-58l36 203h87l9 -144l58 144h88z" />
    <glyph glyph-name="partialdiff" unicode="&#x2202;" 
d="M381 758q122 0 179 -72t57 -200q0 -91 -16.5 -180.5t-55.5 -160.5t-104 -115t-163 -44q-52 0 -95.5 12.5t-75 39.5t-48.5 68.5t-17 99.5q0 56 16 110.5t51 97.5t89.5 69t132.5 26q54 0 82 -15t42 -38q1 11 1 20.5v19.5q0 73 -27 110t-91 37q-38 0 -70.5 -10.5
t-67.5 -32.5l-33 99q54 32 102.5 45.5t111.5 13.5zM295 102q57 0 93 62.5t52 167.5q-12 35 -38.5 48.5t-61.5 13.5q-37 0 -62 -17t-40.5 -44.5t-22.5 -61.5t-7 -67q0 -51 23 -76.5t64 -25.5z" />
    <glyph glyph-name="emptyset" unicode="&#x2205;" horiz-adv-x="838" 
d="M739 598q38 -51 59 -112.5t21 -130.5q0 -85 -31.5 -158.5t-86 -128t-127.5 -85.5t-155 -31q-69 0 -130.5 21.5t-112.5 60.5l-94 -94l-62 63l92 92q-44 53 -68.5 119t-24.5 141q0 85 31.5 158.5t86 128t127.5 85.5t155 31q75 0 141 -25.5t119 -70.5l78 78l62 -62zM115 355
q0 -56 16.5 -105t46.5 -89l437 437q-40 35 -90 54t-106 19q-63 0 -118 -24t-96.5 -66.5t-65.5 -100t-24 -125.5zM723 355q0 50 -13.5 94.5t-36.5 81.5l-433 -433q38 -28 83 -43.5t96 -15.5q63 0 118 24t96.5 66.5t65.5 100.5t24 125z" />
    <glyph glyph-name="product" unicode="&#x220f;" 
d="M583 568l-120 -678h-157l120 678h-141l-120 -678h-157l120 678h-58l22 122h571l-22 -122h-58z" />
    <glyph glyph-name="summation" unicode="&#x2211;" 
d="M297 568l173 -272l-295 -283h358l-22 -123h-542l21 113l304 298l-173 276l21 113h505l-22 -122h-328z" />
    <glyph glyph-name="minus" unicode="&#x2212;" 
d="M95 275l15 86h442l-14 -86h-443z" />
    <glyph glyph-name="radical" unicode="&#x221a;" 
d="M297 -160h-118l-59 390h-78l15 80h150l48 -370l336 840h95z" />
    <glyph glyph-name="infinity" unicode="&#x221e;" horiz-adv-x="1025" 
d="M781 544q105 0 163 -61.5t58 -175.5q0 -57 -18.5 -114.5t-56 -103.5t-95.5 -74.5t-136 -28.5q-79 0 -133 27.5t-81 96.5q-51 -69 -106.5 -96.5t-127.5 -27.5q-104 0 -164 62t-60 175q0 57 19 114.5t57 103.5t96.5 74.5t137.5 28.5t134 -27.5t83 -96.5q50 69 104.5 96.5
t125.5 27.5zM426 265q2 95 -23.5 133t-71.5 38q-37 0 -63.5 -21t-44 -52t-25.5 -67.5t-8 -66.5q0 -63 23.5 -99t65.5 -36q41 0 81.5 39t65.5 132zM699 94q36 0 62 21t42.5 52t24.5 67.5t8 66.5q0 63 -21.5 99t-63.5 36t-81 -39t-64 -132q-4 -94 21.5 -132.5t71.5 -38.5z" />
    <glyph glyph-name="integral" unicode="&#x222b;" 
d="M454 754q28 0 48.5 -4.5t37.5 -17.5l-30 -81q-14 10 -27.5 13.5t-32.5 3.5q-30 0 -49 -13.5t-29.5 -36t-14.5 -51t-4 -59.5q0 -38 5 -85t16 -119q11 -66 16 -115t5 -103q0 -49 -10.5 -93.5t-34.5 -78.5t-62 -54t-92 -20q-28 0 -48.5 4.5t-37.5 17.5l29 81
q14 -10 28 -13.5t33 -3.5q30 0 49 13.5t29.5 36t14.5 51t4 59.5q0 38 -5 85t-16 119q-11 66 -16 115.5t-5 102.5q0 49 10.5 93.5t34.5 78.5t62 54t92 20z" />
    <glyph glyph-name="approxequal" unicode="&#x2248;" horiz-adv-x="613" 
d="M232 482q30 0 53 -10t60 -31q33 -20 50.5 -27.5t35.5 -7.5q26 0 47 11.5t44 34.5l45 -55q-38 -48 -74.5 -66.5t-76.5 -18.5q-15 0 -28 2.5t-25.5 7.5t-27 12.5t-33.5 18.5q-33 20 -50.5 27.5t-35.5 7.5q-47 0 -91 -47l-45 56q38 48 75 66.5t77 18.5zM198 292q30 0 53 -10
t60 -31q34 -20 51.5 -27.5t35.5 -7.5q25 0 46.5 11.5t44.5 34.5l45 -55q-38 -48 -75 -66.5t-77 -18.5q-31 0 -53.5 9.5t-59.5 31.5q-34 20 -51 27.5t-36 7.5q-25 0 -46.5 -11.5t-44.5 -35.5l-44 56q38 48 74.5 66.5t76.5 18.5z" />
    <glyph glyph-name="notequal" unicode="&#x2260;" 
d="M321 257h231l-14 -80h-273l-72 -105h-95l72 105h-104l14 80h145l83 120h-207l14 80h248l72 105h96l-72 -105h128l-13 -80h-171z" />
    <glyph glyph-name="lessequal" unicode="&#x2264;" 
d="M208 316l325 -105l-17 -95l-410 142l21 119l460 141l-18 -100zM511 86l-16 -86h-435l16 86h435z" />
    <glyph glyph-name="greaterequal" unicode="&#x2265;" 
d="M522 258l-453 -142l18 100l355 102l-319 106l17 94l403 -141zM491 86l-15 -86h-428l16 86h427z" />
    <glyph glyph-name="lozenge" unicode="&#x25ca;" horiz-adv-x="544" 
d="M276 0h-130l-99 345l221 345h130l99 -345zM315 590l-152 -245l66 -245l152 245z" />
    <glyph glyph-name="a.alt" horiz-adv-x="662" 
d="M556 0h-157l14 79l-50 -58q-25 -17 -59.5 -26t-75.5 -9q-100 0 -153.5 55t-53.5 157q0 67 19.5 130t59 111.5t98.5 78t138 29.5q33 0 67 -8t52 -22l25 -57l13 73h156zM450 285q5 29 2.5 57t-14 49.5t-34 34.5t-57.5 13q-36 0 -65.5 -18t-50.5 -48.5t-32.5 -70
t-11.5 -81.5q0 -127 102 -127q53 0 96.5 38t59.5 127v1z" />
    <glyph glyph-name="braceleft.001" horiz-adv-x="398" 
d="M392 694h-20q-22 0 -37.5 -4.5t-25 -18.5t-14 -40.5t-4.5 -70.5q0 -46 -4.5 -82t-16.5 -62t-33.5 -42.5t-55.5 -22.5q69 -15 69 -78q0 -24 -6 -54t-26 -79q-10 -25 -16 -41t-9.5 -27t-4.5 -18t-1 -15q0 -20 15 -26.5t49 -6.5h19l-15 -86h-41q-62 0 -90 28t-28 73
q0 13 1.5 24t5 24.5t10.5 32.5t19 48q15 40 20.5 66.5t5.5 42.5q0 19 -14.5 32.5t-56.5 15.5l14 86q30 2 50 9t31 24t15.5 46.5t4.5 77.5q0 68 8 112t26.5 70.5t50 37t79.5 10.5h41z" />
    </font>
</defs>
</svg>
